<?xml version="1.0" encoding="utf-8"?>
<!-- Generator: Adobe Illustrator 28.2.0, SVG Export Plug-In . SVG Version: 6.00 Build 0)  -->
<svg version="1.1" id="Layer_1" xmlns="http://www.w3.org/2000/svg" xmlns:xlink="http://www.w3.org/1999/xlink" x="0px" y="0px"
	 viewBox="0 0 2346 1479" style="enable-background:new 0 0 2346 1479;" xml:space="preserve">
<style type="text/css">
	.st0{fill:#FFFFFF;stroke:#38B14A;stroke-width:1.5134;stroke-miterlimit:10;}
	.st1{fill:#38B14A;}
	.st2{font-family:'MyriadPro-Bold';}
	.st3{font-size:42.1971px;}
	.st4{fill:#231F20;}
	.st5{font-size:24.2358px;}
	.st6{fill:#DCFFDF;}
	.st7{fill:#F4F4F4;}
	.st8{font-size:21.981px;}
	.st9{fill:#FFFFFF;}
	.st10{font-size:35.4489px;}
	.st11{font-size:74.0216px;}
	.st12{fill:#FFFFFF;stroke:#38B14A;stroke-width:1.3733;stroke-miterlimit:10;}
	.st13{font-size:38.2921px;}
	.st14{font-size:21.993px;}
	.st15{fill:#233239;stroke:#233239;stroke-width:0.8515;stroke-linecap:round;stroke-linejoin:round;stroke-miterlimit:10;}
	.st16{fill:#38B14A;stroke:#233239;stroke-width:0.8515;stroke-linecap:round;stroke-linejoin:round;stroke-miterlimit:10;}
	.st17{fill:#233239;}
	.st18{fill:none;stroke:#38B14A;stroke-width:1.5317;stroke-miterlimit:10;}
</style>
<path class="st0" d="M619.14,375.64H369.67c-10.95,0-19.83-8.88-19.83-19.83V84.05c0-10.95,8.88-19.83,19.83-19.83h249.47
	c10.95,0,19.83,8.88,19.83,19.83v271.76C638.96,366.76,630.09,375.64,619.14,375.64z"/>
<g>
	<text transform="matrix(1 0 0 1 424.4626 339.0626)" class="st1 st2 st3">$1,000</text>
</g>
<text transform="matrix(1 0 0 1 418.1218 120.1984)" class="st4 st2 st5">Active Income</text>
<g>
	<path class="st6" d="M494.4,282.38L494.4,282.38c-34.49,0-62.45-27.96-62.45-62.45v0c0-34.49,27.96-62.45,62.45-62.45h0
		c34.49,0,62.45,27.96,62.45,62.45v0C556.86,254.42,528.89,282.38,494.4,282.38z"/>
	<g>
		<g>
			<path class="st1" d="M515.55,243.32c0.82-0.88,1.69-1.73,2.47-2.65c1.31-1.56,2.4-3.28,3.41-5.05c0.42-0.73,0.29-1.01-0.49-1.36
				c-5.84-2.66-8.82-7.35-8.8-13.64c0.02-6.03,2.86-10.6,8.42-13.25c0.78-0.37,0.86-0.65,0.44-1.37c-2.87-4.99-6.8-8.88-11.82-11.69
				c-0.83-0.46-1.19-0.38-1.65,0.52c-2.84,5.56-7.53,8.22-13.67,8.07c-5.9-0.15-10.25-3.02-12.87-8.35
				c-0.35-0.71-0.63-0.74-1.25-0.4c-5.13,2.84-9.14,6.79-12.1,11.85c-0.53,0.91-0.04,1.11,0.62,1.44
				c9.23,4.5,11.19,16.91,3.79,24.01c-1.28,1.23-2.75,2.17-4.39,2.85c-0.5,0.21-0.91,0.39-0.55,1.06c1.55,2.9,3.43,5.54,5.85,7.78
				c0.04,0.04,0.13,0.03,0.35,0.07c0-0.71-0.03-1.4,0.01-2.08c0.06-1.27,0.75-1.96,1.88-1.93c1.07,0.02,1.73,0.71,1.76,1.94
				c0.04,2.07,0.04,4.14,0.01,6.21c-0.02,1.18-0.73,1.86-1.95,1.88c-2.03,0.03-4.07,0.03-6.1,0c-1.26-0.02-2.02-0.74-2.03-1.81
				c0-1.03,0.7-1.71,1.92-1.82c0.35-0.03,0.69-0.04,1.03-0.06c0.14-0.4-0.18-0.53-0.35-0.72c-2.3-2.49-4.27-5.21-5.74-8.27
				c-0.38-0.79-0.85-1.02-1.71-1.03c-7.65-0.02-13.62-4.96-14.72-12.51c-1.22-8.32,3.79-15.5,12.13-16.85
				c1.08-0.18,2.16-0.23,3.25-0.18c0.63,0.03,1.03-0.16,1.34-0.75c3.37-6.45,8.3-11.33,14.8-14.6c0.78-0.39,0.79-0.95,0.76-1.64
				c-0.23-5.68,2.1-10.11,6.78-13.2c9-5.93,21.19-0.28,22.63,10.4c0.14,1.05,0.26,2.1,0.08,3.14c-0.12,0.66,0.12,0.95,0.66,1.22
				c2.9,1.45,5.54,3.29,7.93,5.49c2.76,2.55,5.02,5.48,6.76,8.8c0.46,0.88,0.97,1.19,1.95,1.14c7.35-0.38,13.88,5.1,15.1,12.5
				c1.28,7.77-4.49,15.77-12.31,16.87c-0.98,0.14-1.95,0.23-2.93,0.18c-0.51-0.03-0.86,0.13-1.1,0.61
				c-1.63,3.38-3.75,6.41-6.38,9.09c-0.04,0.04-0.04,0.12-0.08,0.27c0.52,0.06,1.03,0.08,1.53,0.18c0.98,0.19,1.57,0.94,1.51,1.85
				c-0.06,0.93-0.72,1.66-1.7,1.68c-2.17,0.04-4.35,0.05-6.52-0.01c-1.1-0.03-1.79-0.74-1.83-1.93c-0.07-2.1-0.07-4.21,0-6.31
				c0.04-1.19,0.83-1.8,1.94-1.74c1.01,0.06,1.62,0.74,1.66,1.92c0.03,0.69,0,1.37,0,2.06
				C515.37,243.24,515.46,243.28,515.55,243.32z M466.36,217.41c-0.08-1.39-0.75-2.64-2.1-3.49c-0.46-0.29-0.82-0.57-0.97-1.14
				c-0.18-0.67-0.73-1-1.44-1.01c-0.72-0.01-1.26,0.35-1.43,1.01c-0.16,0.59-0.55,0.84-0.99,1.13c-1.64,1.08-2.24,2.66-1.98,4.55
				c0.24,1.72,1.25,2.85,2.91,3.39c0.7,0.23,1.4,0.45,2.08,0.75c0.81,0.35,1.03,1.08,0.59,1.81c-0.31,0.51-0.77,0.7-1.34,0.62
				c-0.78-0.11-1.09-0.64-1.24-1.36c-0.21-1.05-0.88-1.63-1.68-1.52c-0.92,0.12-1.45,0.82-1.38,1.91c0.1,1.5,0.87,2.64,2.09,3.47
				c0.44,0.3,0.82,0.56,0.97,1.15c0.17,0.69,0.76,1.02,1.45,0.99c0.66-0.03,1.27-0.33,1.44-1.03c0.13-0.54,0.46-0.81,0.89-1.08
				c1.64-1,2.29-2.54,2.1-4.39c-0.19-1.84-1.25-3.07-3.03-3.65c-0.7-0.23-1.41-0.43-2.08-0.74c-0.72-0.34-0.91-0.97-0.54-1.67
				c0.38-0.72,0.99-0.98,1.76-0.63c0.6,0.28,0.79,0.82,0.9,1.44c0.17,0.91,0.86,1.4,1.74,1.27
				C465.97,219.09,466.36,218.5,466.36,217.41z M498.79,191.84c0-2.67-0.99-4.07-2.93-4.76c-0.66-0.24-1.33-0.44-1.99-0.68
				c-0.63-0.23-0.99-0.66-0.86-1.37c0.12-0.65,0.48-1.09,1.18-1.14c0.72-0.05,1.21,0.28,1.46,0.95c0.07,0.19,0.07,0.41,0.12,0.62
				c0.22,0.85,0.76,1.35,1.65,1.31c0.86-0.03,1.39-0.69,1.39-1.66c0-1.65-0.76-2.88-2.14-3.74c-0.43-0.27-0.77-0.54-0.89-1.08
				c-0.15-0.66-0.66-0.95-1.33-0.97c-0.69-0.02-1.3,0.17-1.51,0.88c-0.19,0.64-0.63,0.95-1.13,1.29c-1.51,1.02-2.13,2.51-1.94,4.27
				c0.19,1.79,1.2,3.02,2.94,3.61c0.66,0.22,1.33,0.44,1.99,0.68c0.58,0.21,0.95,0.61,0.88,1.27c-0.07,0.66-0.45,1.11-1.1,1.25
				c-0.62,0.13-1.1-0.16-1.41-0.68c-0.16-0.26-0.22-0.59-0.29-0.89c-0.2-0.87-0.71-1.35-1.63-1.29c-0.86,0.06-1.45,0.71-1.43,1.64
				c0.03,1.55,0.8,2.74,2.01,3.62c0.49,0.36,0.9,0.69,1.11,1.3c0.23,0.67,0.82,0.92,1.52,0.88c0.67-0.03,1.16-0.35,1.31-1
				c0.13-0.54,0.46-0.81,0.9-1.07C498.14,194.2,498.77,192.87,498.79,191.84z M522.4,224.36c0.05,1.17,0.77,2.35,2.08,3.17
				c0.42,0.26,0.81,0.5,0.92,1.06c0.14,0.72,0.7,1.06,1.38,1.08c0.67,0.02,1.28-0.26,1.48-0.95c0.18-0.59,0.56-0.9,1.05-1.22
				c1.5-1,2.19-2.48,2-4.24c-0.2-1.87-1.21-3.17-3.08-3.72c-0.67-0.2-1.35-0.41-1.98-0.7c-0.84-0.39-1.01-1.31-0.4-2.01
				c0.32-0.37,0.73-0.56,1.22-0.45c0.8,0.18,1.09,0.78,1.25,1.52c0.22,1.02,0.87,1.47,1.79,1.31c0.84-0.14,1.34-0.81,1.25-1.78
				c-0.13-1.44-0.74-2.63-1.98-3.42c-0.52-0.33-0.92-0.66-1.11-1.3c-0.2-0.67-0.78-0.96-1.48-0.94c-0.67,0.02-1.19,0.31-1.35,0.96
				c-0.14,0.58-0.5,0.86-0.96,1.15c-1.68,1.04-2.26,2.62-2.03,4.51c0.21,1.74,1.23,2.85,2.85,3.44c0.69,0.25,1.39,0.48,2.08,0.73
				c0.84,0.31,1,0.93,0.7,1.69c-0.23,0.59-0.72,0.84-1.35,0.77c-0.78-0.09-1.12-0.58-1.26-1.32c-0.22-1.13-0.81-1.57-1.81-1.46
				C522.75,222.35,522.36,222.88,522.4,224.36z"/>
			<path class="st1" d="M494.31,266.47c-3.86,0-7.71,0.01-11.57,0c-2.71-0.01-3.99-1.29-3.99-4c0-2.77-0.05-5.54,0.01-8.31
				c0.13-6.05,2.91-10.56,8.13-13.55c0.85-0.49,0.82-0.71,0.18-1.37c-3.01-3.05-3.85-6.7-2.56-10.74c1.23-3.85,3.99-6.07,7.93-6.85
				c4.54-0.9,9.15,1.34,11.21,5.41c2.1,4.15,1.22,9.26-2.18,12.35c-0.58,0.53-0.53,0.69,0.13,1.05c5.58,3.12,8.3,7.95,8.39,14.29
				c0.04,2.56,0.01,5.12,0,7.68c-0.01,2.66-1.37,4.03-4.01,4.04C502.09,266.48,498.2,266.47,494.31,266.47z"/>
		</g>
	</g>
</g>
<path class="st0" d="M959.75,375.64H710.28c-10.95,0-19.83-8.88-19.83-19.83V84.05c0-10.95,8.88-19.83,19.83-19.83h249.47
	c10.95,0,19.83,8.88,19.83,19.83v271.76C979.58,366.76,970.7,375.64,959.75,375.64z"/>
<text transform="matrix(1 0 0 1 747.5671 339.0626)" class="st1 st2 st3">$312,141</text>
<text transform="matrix(1 0 0 1 752.6423 120.1984)" class="st4 st2 st5">Passive Income</text>
<g>
	<path class="st6" d="M835.02,282.38L835.02,282.38c-34.49,0-62.45-27.96-62.45-62.45v0c0-34.49,27.96-62.45,62.45-62.45h0
		c34.49,0,62.45,27.96,62.45,62.45v0C897.47,254.42,869.51,282.38,835.02,282.38z"/>
	<g>
		<path class="st1" d="M845.94,255.5c-7.56,0-15.11-0.01-22.67,0.01c-1.12,0-2.02-0.35-2.83-1.1c-7.12-6.62-14.24-13.22-21.37-19.82
			c-0.98-0.9-1.42-1.97-1.04-3.29c0.35-1.21,1.18-1.94,2.4-2.19c1.12-0.23,2.05,0.17,2.86,0.93c3.63,3.38,7.27,6.74,10.9,10.12
			c3.09,2.86,6.18,5.72,9.25,8.6c0.45,0.43,0.91,0.58,1.53,0.58c14.56-0.02,29.13-0.01,43.69-0.01c1.71,0,2.87,0.75,3.32,2.13
			c0.64,1.97-0.77,4-2.85,4.04c-1.7,0.04-3.39,0.01-5.09,0.01C858.01,255.5,851.98,255.5,845.94,255.5z"/>
		<path class="st1" d="M834.93,232.25c-1.04,0.53-2.04,1.03-3.02,1.55c-0.36,0.19-0.56-0.06-0.78-0.22
			c-2.62-1.94-5.23-3.91-7.86-5.83c-2.17-1.58-5.05-0.99-6.34,1.25c-1.07,1.85-0.68,4.17,1.07,5.5c3.55,2.7,7.15,5.34,10.73,7.99
			c0.9,0.67,1.94,0.87,3.05,0.75c0.68-0.08,1.29-0.37,1.89-0.68c2.8-1.42,5.6-2.83,8.39-4.27c0.4-0.21,0.71-0.29,1.05,0.07
			c0.32,0.34,0.73,0.37,1.17,0.37c7.48-0.01,14.96-0.01,22.45,0c1.86,0,3.16,0.98,3.52,2.61c0.42,1.97-0.99,3.86-3,4
			c-0.25,0.02-0.5,0.01-0.75,0.01c-12.17,0-24.34-0.01-36.51,0.01c-2.26,0-4.16-0.72-5.83-2.25c-4.16-3.83-8.36-7.62-12.55-11.43
			c-1.51-1.38-1.33-2.99,0.45-4c1.97-1.12,3.94-2.24,5.92-3.34c1.46-0.81,3-1.2,4.67-0.83c0.67,0.15,1.28,0.42,1.82,0.82
			c3.39,2.54,6.77,5.09,10.15,7.64C834.7,232.03,834.78,232.12,834.93,232.25z"/>
		<path class="st1" d="M835.22,201.11c0.03-9.3,7.57-16.78,16.89-16.76c9.32,0.02,16.83,7.57,16.78,16.86
			c-0.06,9.28-7.57,16.77-16.84,16.75C842.76,217.95,835.19,210.36,835.22,201.11z M852.08,187.11
			c-7.73-0.01-14.05,6.27-14.07,13.98c-0.01,7.79,6.24,14.06,14.04,14.07c7.74,0.01,14.05-6.24,14.08-13.97
			C866.17,193.46,859.84,187.12,852.08,187.11z"/>
		<path class="st1" d="M831.21,240.85c-0.52,0.03-0.92-0.18-1.28-0.45c-3.42-2.54-6.84-5.08-10.26-7.63
			c-1.01-0.76-1.22-1.84-0.57-2.73c0.66-0.92,1.81-1.06,2.83-0.3c2.63,1.94,5.26,3.87,7.86,5.85c1.08,0.83,2.11,0.93,3.32,0.3
			c4-2.07,8.03-4.1,12.05-6.14c1.22-0.62,2.38-0.27,2.85,0.81c0.42,0.98,0.03,1.98-1.06,2.54c-2.59,1.33-5.19,2.65-7.78,3.97
			c-2.26,1.15-4.53,2.3-6.8,3.45C831.99,240.71,831.61,240.91,831.21,240.85z"/>
		<path class="st1" d="M807.21,214.37c3.72,0.04,6.71,3.5,6.14,7.1c-0.48,3.01-3.29,4.82-6.41,4.12c-3.13-0.71-5.3-3.84-4.85-7
			C802.44,216.13,804.62,214.34,807.21,214.37z"/>
		<path class="st1" d="M846.26,236.14c0.56-0.29,1.13-0.56,1.69-0.86c2.02-1.05,2.8-2.57,2.51-4.83c-0.02-0.19-0.08-0.36,0.09-0.55
			c1.36-1.53,3.05-1.58,4.45-0.1c1.86,1.95,3.71,3.89,5.56,5.85c0.16,0.17,0.4,0.29,0.43,0.66c-1.8,0-3.59,0-5.37,0
			c-0.25,0-0.38-0.21-0.54-0.37c-0.64-0.67-1.28-1.32-1.9-2.01c-0.27-0.3-0.46-0.34-0.79-0.07c-0.81,0.66-1.67,1.26-2.48,1.92
			c-0.49,0.41-1,0.59-1.63,0.54c-0.66-0.04-1.32-0.01-1.98-0.01C846.28,236.25,846.27,236.2,846.26,236.14z"/>
		<path class="st1" d="M830,225.48c2.23-1.3,4.34-2.57,6.49-3.77c0.9-0.5,1.96-0.14,2.47,0.71c0.53,0.88,0.31,1.99-0.59,2.55
			c-1.56,0.97-3.16,1.88-4.74,2.82c-0.22,0.13-0.39,0.13-0.6-0.03C832.05,227.02,831.07,226.29,830,225.48z"/>
		<path class="st1" d="M813.91,204.53c0-1.66-0.01-3.33,0-4.99c0-0.89,0.45-1.41,1.18-1.42c0.73-0.01,1.21,0.52,1.21,1.39
			c0.01,3.4,0.01,6.81,0,10.21c0,0.9-0.44,1.4-1.18,1.41c-0.78,0.01-1.21-0.5-1.21-1.45C813.91,207.96,813.91,206.25,813.91,204.53z
			"/>
		<path class="st1" d="M821.22,210.51c0-1.69,0-3.38,0-5.07c0-0.93,0.47-1.48,1.21-1.47c0.7,0.02,1.18,0.57,1.18,1.44
			c0.01,3.38,0.01,6.76,0,10.14c0,0.92-0.49,1.48-1.23,1.46c-0.72-0.02-1.15-0.54-1.16-1.44
			C821.22,213.89,821.22,212.2,821.22,210.51z"/>
		<path class="st1" d="M828.51,204.59c0-1.69-0.01-3.39,0-5.08c0.01-0.83,0.4-1.32,1.06-1.39c0.75-0.08,1.31,0.46,1.32,1.36
			c0.02,1.44,0.01,2.89,0.01,4.33c0,1.99,0.01,3.98-0.01,5.97c-0.01,0.94-0.59,1.46-1.4,1.34c-0.63-0.1-0.98-0.56-0.99-1.37
			C828.5,208.03,828.51,206.31,828.51,204.59z"/>
		<path class="st1" d="M852.04,212.77c-6.48-0.01-11.66-5.23-11.63-11.73c0.02-6.36,5.29-11.57,11.68-11.55
			c6.43,0.02,11.66,5.26,11.65,11.67C863.72,207.59,858.49,212.78,852.04,212.77z M854.96,204.46c0.04,0.45-0.18,0.83-0.56,1.12
			c-1.39,1.04-4.73,1-5.33-1.35c-0.18-0.7-0.85-0.97-1.48-0.77c-0.66,0.21-0.98,0.81-0.78,1.54c0.5,1.79,1.74,2.86,3.46,3.38
			c0.43,0.13,0.61,0.27,0.6,0.75c-0.01,0.83,0.48,1.34,1.18,1.35c0.68,0.01,1.21-0.53,1.21-1.33c0-0.47,0.16-0.66,0.61-0.73
			c0.29-0.04,0.58-0.16,0.85-0.28c1.5-0.64,2.55-1.65,2.65-3.38c0.1-1.73-0.65-3.03-2.13-3.9c-0.71-0.42-1.5-0.66-2.31-0.83
			c-0.75-0.16-1.53-0.25-2.24-0.58c-0.63-0.29-1.11-0.71-1.12-1.45c-0.01-0.74,0.39-1.26,1.04-1.6c1.52-0.81,3.48-0.23,4.14,1.29
			c0.31,0.71,1,0.92,1.61,0.63c0.64-0.3,0.85-0.98,0.52-1.72c-0.57-1.26-1.51-2.18-2.82-2.61c-0.58-0.19-0.83-0.41-0.81-1.06
			c0.02-0.66-0.53-1.11-1.16-1.12c-0.64-0.01-1.23,0.43-1.18,1.07c0.06,0.75-0.33,0.94-0.91,1.16c-1.79,0.67-2.84,2.17-2.84,3.91
			c0,1.75,0.99,3.09,2.83,3.82c0.65,0.26,1.33,0.4,2.02,0.53c0.71,0.13,1.41,0.3,2.05,0.67C854.6,203.3,854.94,203.76,854.96,204.46
			z"/>
	</g>
</g>
<path class="st0" d="M1300.36,375.64H1050.9c-10.95,0-19.83-8.88-19.83-19.83V84.05c0-10.95,8.88-19.83,19.83-19.83h249.47
	c10.95,0,19.83,8.88,19.83,19.83v271.76C1320.19,366.76,1311.31,375.64,1300.36,375.64z"/>
<text transform="matrix(1 0 0 1 1128.7937 339.0626)" class="st1 st2 st3">$545</text>
<text transform="matrix(1 0 0 1 1070.1833 105.6554)"><tspan x="0" y="0" class="st4 st2 st5">Retirement Income </tspan><tspan x="61.38" y="29.08" class="st4 st2 st5">Streams</tspan></text>
<g>
	<path class="st6" d="M1175.63,282.38L1175.63,282.38c-34.49,0-62.45-27.96-62.45-62.45v0c0-34.49,27.96-62.45,62.45-62.45h0
		c34.49,0,62.45,27.96,62.45,62.45v0C1238.08,254.42,1210.12,282.38,1175.63,282.38z"/>
	<g>
		<path class="st1" d="M1174.32,229.44c3.99,0,7.98-0.02,11.97,0.01c3.51,0.02,5.85,2.65,5.42,6.01c-0.27,2.11-1.92,3.86-4.16,4.32
			c-0.57,0.12-0.67,0.27-0.54,0.83c0.78,3.6,2.07,6.99,3.88,10.19c0.26,0.46,0.48,0.52,0.96,0.33c3.61-1.47,7.04-3.26,10.29-5.42
			c0.5-0.33,1.01-0.62,1.65-0.53c0.8,0.11,1.45,0.68,1.64,1.44c0.2,0.82-0.1,1.6-0.89,2.13c-1.83,1.24-3.73,2.37-5.7,3.39
			c-10.49,5.43-21.63,7.6-33.38,6.52c-10.05-0.92-19.28-4.24-27.69-9.83c-1.09-0.72-1.38-1.8-0.76-2.78
			c0.62-0.97,1.79-1.17,2.9-0.43c3.25,2.15,6.67,3.96,10.28,5.44c0.58,0.24,0.81,0.14,1.09-0.41c5.15-9.92,6.99-20.41,5.39-31.48
			c-1.14-7.9-4.01-15.12-8.53-21.69c-0.15-0.21-0.3-0.42-0.44-0.64c-0.62-1-0.43-2.13,0.45-2.73c0.9-0.62,2.03-0.41,2.72,0.54
			c1.73,2.41,3.24,4.95,4.55,7.61c2.02,4.1,3.51,8.39,4.45,12.86c0.09,0.43,0.3,0.65,0.67,0.85c3.49,1.9,7.02,2.26,10.74,0.63
			c3.01-1.32,6.14-2.24,9.5-1.93c0.87,0.08,1.74,0.18,2.59,0.39c1.09,0.27,1.72,1.22,1.53,2.25c-0.19,0.99-1.12,1.76-2.16,1.52
			c-3.72-0.87-7.12,0.11-10.49,1.53c-3.6,1.51-7.24,1.64-10.89,0.19c-0.3-0.12-0.6-0.29-0.55,0.29c0.25,2.72,0.41,5.44,0.25,8.17
			c-0.03,0.58,0.4,0.43,0.69,0.43c2.7,0.01,5.41,0.01,8.11,0.01C1171.34,229.44,1172.83,229.44,1174.32,229.44z M1154.6,252.61
			c2.95,0.9,5.88,1.54,8.86,1.96c7.86,1.1,15.59,0.5,23.21-1.68c0.63-0.18,0.82-0.29,0.44-0.98c-1.95-3.51-3.29-7.25-4.01-11.2
			c-0.14-0.75-0.43-0.86-1.1-0.86c-6.87,0.02-13.74,0.01-20.61,0.01c-1.88,0-1.89,0-2.4,1.8
			C1157.94,245.45,1156.48,249.06,1154.6,252.61z M1173.65,236.01c4.12,0,8.23,0,12.35,0c0.26,0,0.52,0.01,0.77-0.02
			c0.68-0.1,1.16-0.66,1.14-1.34c-0.03-0.7-0.38-1.17-1.09-1.3c-0.33-0.06-0.67-0.05-1-0.05c-7.69,0-15.38,0-23.07,0
			c-0.66,0-1.47-0.27-1.95,0.13c-0.44,0.37-0.22,1.21-0.39,1.83c-0.18,0.63,0.05,0.77,0.66,0.76
			C1165.26,236,1169.45,236.01,1173.65,236.01z"/>
		<path class="st1" d="M1182.03,197.23c-0.03-8.94,7.24-16.25,16.22-16.3c8.96-0.05,16.29,7.2,16.34,16.16
			c0.04,9.02-7.19,16.34-16.2,16.37C1189.38,213.5,1182.06,206.23,1182.03,197.23z M1185.89,197.21
			c0.01,6.85,5.59,12.41,12.45,12.39c6.87-0.01,12.4-5.57,12.38-12.45c-0.02-6.83-5.55-12.35-12.39-12.36
			C1191.47,184.79,1185.88,190.37,1185.89,197.21z"/>
		<path class="st1" d="M1200.23,221.47c0,1.11,0.02,2.21,0,3.32c-0.02,1.17-0.75,1.94-1.82,1.99c-1.09,0.05-1.99-0.72-2.01-1.89
			c-0.05-2.31-0.05-4.63,0-6.94c0.02-1.17,0.89-1.94,1.99-1.91c1.07,0.03,1.82,0.81,1.85,1.96
			C1200.24,219.16,1200.23,220.32,1200.23,221.47z"/>
		<path class="st1" d="M1204.2,217.9c0-0.75-0.02-1.49,0-2.24c0.03-1.1,0.78-1.88,1.81-1.92c1.08-0.05,1.97,0.69,2.01,1.8
			c0.06,1.59,0.06,3.19,0.01,4.79c-0.04,1.11-0.93,1.9-1.97,1.86c-1.06-0.03-1.83-0.84-1.86-1.97
			C1204.19,219.44,1204.2,218.67,1204.2,217.9z"/>
		<path class="st1" d="M1188.59,217.95c0-0.77-0.02-1.54,0.01-2.32c0.04-1.1,0.79-1.87,1.83-1.9c1.05-0.03,1.93,0.66,1.98,1.74
			c0.08,1.64,0.07,3.29,0,4.94c-0.05,1.08-0.96,1.81-1.98,1.76c-1.03-0.05-1.8-0.82-1.83-1.91
			C1188.57,219.49,1188.59,218.72,1188.59,217.95z"/>
		<path class="st1" d="M1198.54,192.41c-0.96-0.02-1.73,0.09-2.41,0.51c-0.75,0.46-0.76,1.09-0.03,1.58
			c0.74,0.5,1.62,0.65,2.46,0.86c1.17,0.29,2.35,0.57,3.44,1.11c2.17,1.08,3.3,2.81,3.12,4.78c-0.19,2.06-1.67,3.68-3.99,4.27
			c-0.63,0.16-0.94,0.34-0.95,1.07c-0.02,0.94-0.88,1.62-1.83,1.63c-1.02,0.02-1.89-0.66-1.92-1.71c-0.03-0.76-0.36-0.95-0.98-1.16
			c-1.75-0.61-3.12-1.68-3.76-3.49c-0.44-1.23-0.03-2.31,1.01-2.72c1.09-0.43,2.08,0.07,2.59,1.35c0.19,0.49,0.54,0.82,0.99,1.03
			c1.37,0.63,2.78,0.68,4.2,0.17c0.36-0.13,0.75-0.3,0.78-0.76c0.03-0.47-0.37-0.65-0.7-0.84c-0.92-0.54-1.97-0.73-2.99-0.99
			c-0.9-0.22-1.8-0.45-2.64-0.83c-2.09-0.95-3.29-2.72-3.22-4.74c0.06-1.95,1.46-3.73,3.59-4.47c0.68-0.23,1.11-0.43,1.15-1.29
			c0.05-0.99,0.99-1.65,1.95-1.6c1.01,0.05,1.8,0.8,1.8,1.85c0,0.61,0.26,0.74,0.77,0.9c2,0.61,3.55,1.74,4.08,3.9
			c0.18,0.75-0.06,1.38-0.62,1.87c-0.57,0.5-1.24,0.61-1.95,0.34c-0.45-0.17-0.86-0.46-0.99-0.91c-0.39-1.32-1.46-1.53-2.58-1.69
			C1198.72,192.4,1198.54,192.41,1198.54,192.41z"/>
	</g>
</g>
<path class="st0" d="M1640.98,375.64h-249.47c-10.95,0-19.83-8.88-19.83-19.83V84.05c0-10.95,8.88-19.83,19.83-19.83h249.47
	c10.95,0,19.83,8.88,19.83,19.83v271.76C1660.8,366.76,1651.93,375.64,1640.98,375.64z"/>
<g>
	<text transform="matrix(1 0 0 1 1486.9177 339.0626)" class="st1 st2 st3">$0</text>
</g>
<text transform="matrix(1 0 0 1 1459.7634 120.1984)" class="st4 st2 st5">Centrelink</text>
<g>
	<path class="st6" d="M1516.24,282.38L1516.24,282.38c-34.49,0-62.45-27.96-62.45-62.45v0c0-34.49,27.96-62.45,62.45-62.45h0
		c34.49,0,62.45,27.96,62.45,62.45v0C1578.7,254.42,1550.73,282.38,1516.24,282.38z"/>
	<g>
		<path class="st1" d="M1512.92,195.45c0.4,0.02,0.51,0.28,0.56,0.62c0.19,1.55,0.36,3.1,0.58,4.65c0.51,3.65,1.14,7.27,2.47,10.74
			c1.64,4.27,4.71,7.01,8.97,8.52c3.03,1.08,6.17,1.7,9.33,2.25c0.08,0.01,0.17,0.02,0.25,0.04c0.32,0.07,0.63,0.15,0.62,0.57
			c0,0.42-0.29,0.56-0.64,0.63c-1.37,0.25-2.75,0.48-4.11,0.77c-2.61,0.54-5.18,1.24-7.59,2.43c-3.39,1.67-5.59,4.39-6.91,7.87
			c-1.18,3.12-1.78,6.37-2.26,9.64c-0.25,1.73-0.44,3.47-0.66,5.2c-0.01,0.1-0.04,0.21-0.05,0.31c-0.04,0.36-0.13,0.68-0.57,0.68
			c-0.44,0-0.54-0.32-0.58-0.67c-0.13-1.12-0.25-2.23-0.4-3.35c-0.49-3.72-1.09-7.41-2.25-10.99c-1.71-5.25-5.33-8.44-10.53-10
			c-2.7-0.81-5.44-1.38-8.21-1.86c-0.06-0.01-0.12-0.01-0.19-0.02c-0.34-0.06-0.68-0.15-0.69-0.59c-0.01-0.44,0.32-0.54,0.66-0.6
			c1.23-0.22,2.46-0.42,3.68-0.67c2.76-0.56,5.47-1.26,8.02-2.5c3.74-1.81,5.96-4.88,7.26-8.72c1.09-3.23,1.65-6.57,2.11-9.94
			c0.2-1.44,0.35-2.89,0.53-4.34C1512.37,195.76,1512.48,195.46,1512.92,195.45z"/>
		<path class="st1" d="M1534.27,189.6c0.35,0.01,0.51,0.21,0.57,0.54c0.14,0.8,0.31,1.59,0.46,2.39c0.63,3.47,2.72,5.5,6.14,6.21
			c0.31,0.06,0.61,0.15,0.91,0.22c0.3,0.08,0.46,0.28,0.46,0.59c0,0.33-0.22,0.47-0.51,0.54c-0.68,0.17-1.37,0.33-2.05,0.52
			c-2.45,0.7-3.98,2.3-4.68,4.74c-0.3,1.06-0.53,2.14-0.69,3.23c-0.06,0.38-0.12,0.79-0.63,0.76c-0.46-0.03-0.51-0.4-0.57-0.77
			c-0.17-1.15-0.41-2.29-0.75-3.41c-0.7-2.3-2.18-3.84-4.48-4.56c-0.69-0.22-1.4-0.41-2.1-0.58c-0.34-0.09-0.6-0.23-0.59-0.61
			c0.01-0.38,0.28-0.51,0.62-0.58c0.43-0.08,0.84-0.22,1.27-0.32c3.07-0.7,4.87-2.63,5.53-5.67c0.19-0.87,0.35-1.75,0.51-2.63
			C1533.76,189.89,1533.87,189.63,1534.27,189.6z"/>
	</g>
</g>
<path class="st0" d="M1981.59,375.64h-249.47c-10.95,0-19.83-8.88-19.83-19.83V84.05c0-10.95,8.88-19.83,19.83-19.83h249.47
	c10.95,0,19.83,8.88,19.83,19.83v271.76C2001.42,366.76,1992.54,375.64,1981.59,375.64z"/>
<text transform="matrix(1 0 0 1 1788.5632 339.0626)" class="st1 st2 st3"> $2,655</text>
<text transform="matrix(1 0 0 1 1820.3591 120.1984)" class="st4 st2 st5">Others</text>
<g>
	<path class="st6" d="M1856.86,282.38L1856.86,282.38c-34.49,0-62.45-27.96-62.45-62.45v0c0-34.49,27.96-62.45,62.45-62.45h0
		c34.49,0,62.45,27.96,62.45,62.45v0C1919.31,254.42,1891.35,282.38,1856.86,282.38z"/>
	<g>
		<path class="st1" d="M1861.59,243.57c-1.87,1.13-3.81,1.83-5.9,2.07c-2.34,0.27-4.69,0.09-7.04,0.12c-1.9,0.02-3.8,0.1-5.68-0.32
			c-7.27-1.6-12.31-8.14-11.93-15.58c0.19-3.7,1.56-6.94,4.14-9.61c2.47-2.55,5.01-5.04,7.53-7.54c0.26-0.26,0.4-0.51,0.38-0.89
			c-0.03-0.61,0.01-1.22-0.02-1.83c-0.02-0.35,0.11-0.41,0.43-0.41c4.3,0.01,8.61,0.01,12.91,0c0.35,0,0.5,0.09,0.44,0.44
			c-0.01,0.05,0,0.11,0,0.16c0.01,0.72-0.17,1.51,0.08,2.13c0.24,0.6,0.93,1.02,1.42,1.51c0.59,0.6,1.18,1.21,1.79,1.78
			c0.3,0.28,0.24,0.41-0.06,0.63c-2.97,2.22-5.01,5.09-6.03,8.66c-2.02,7.07,0.85,14.49,7.11,18.4
			C1861.28,243.37,1861.4,243.45,1861.59,243.57z M1837.05,230.62c-0.01,0.45,0.05,0.9,0.1,1.34c0.54,4.32,4.59,7.83,8.94,7.77
			c1-0.01,1.76-0.75,1.77-1.71c0.01-0.94-0.71-1.69-1.69-1.73c-0.45-0.02-0.89-0.06-1.33-0.17c-4.23-1.05-5.73-6.07-2.8-9.36
			c0.78-0.87,0.81-1.88,0.08-2.58c-0.76-0.72-1.79-0.63-2.61,0.25C1837.88,226.17,1837.08,228.25,1837.05,230.62z"/>
		<path class="st1" d="M1856.86,229.36c0.01-7.13,5.83-12.91,12.97-12.89c7.11,0.03,12.88,5.83,12.86,12.94
			c-0.01,7.13-5.83,12.92-12.97,12.89C1862.61,242.28,1856.84,236.48,1856.86,229.36z M1871.12,225.95c0.84,0,1.69,0.01,2.53,0
			c0.97-0.02,1.71-0.78,1.72-1.71c0-0.93-0.74-1.69-1.7-1.73c-0.38-0.01-0.75,0-1.13,0c-0.97,0-0.97,0-1.04-0.97
			c-0.07-0.9-0.82-1.61-1.71-1.61c-0.91-0.01-1.68,0.72-1.73,1.65c-0.01,0.2-0.02,0.4,0,0.59c0.02,0.27-0.05,0.4-0.36,0.46
			c-2.23,0.45-3.71,2.4-3.5,4.59c0.21,2.22,2.05,3.88,4.33,3.9c0.81,0.01,1.61,0.01,2.42,0c0.37,0,0.67,0.1,0.86,0.43
			c0.36,0.61-0.09,1.28-0.88,1.29c-1.69,0.01-3.37-0.01-5.06,0.01c-0.94,0.01-1.67,0.77-1.69,1.68c-0.02,0.93,0.72,1.71,1.68,1.75
			c0.43,0.02,0.86,0,1.29,0c0.87,0,0.87,0,0.91,0.89c0.06,1.27,1.35,2.07,2.46,1.52c0.72-0.36,1.03-0.98,0.98-1.77
			c-0.03-0.47,0.06-0.69,0.6-0.81c2-0.45,3.34-2.24,3.28-4.29c-0.06-1.99-1.52-3.69-3.51-4.06c-1.07-0.19-2.15-0.05-3.22-0.09
			c-0.63-0.02-1.01-0.34-1.01-0.87c0-0.53,0.38-0.85,1.02-0.85C1869.47,225.94,1870.3,225.95,1871.12,225.95z"/>
		<path class="st1" d="M1841.74,202.67c-1.19-1.98-2.33-3.89-3.47-5.79c-0.28-0.46-0.44-0.94-0.31-1.48
			c0.21-0.83,0.86-1.32,1.79-1.32c3.93,0,7.85,0,11.78,0c2.85,0,5.7,0.01,8.55-0.01c0.75,0,1.34,0.23,1.72,0.89
			c0.38,0.66,0.26,1.3-0.13,1.93c-1.06,1.75-2.1,3.5-3.15,5.25c-0.09,0.15-0.17,0.31-0.27,0.47c0.13,0.13,0.28,0.07,0.41,0.09
			c0.94,0.08,1.65,0.83,1.64,1.74c-0.01,0.91-0.74,1.66-1.67,1.7c-0.18,0.01-0.36,0-0.54,0c-5.49,0-10.97,0-16.46,0
			c-0.4,0-0.79-0.03-1.14-0.24c-0.63-0.38-0.98-1.15-0.82-1.84c0.17-0.72,0.78-1.27,1.5-1.35
			C1841.33,202.69,1841.49,202.69,1841.74,202.67z"/>
	</g>
</g>
<path class="st7" d="M671.16,1426.05H355.21c-5.87,0-10.62-4.76-10.62-10.62v-51.13c0-5.87,4.76-10.62,10.62-10.62h315.95
	c5.87,0,10.62,4.76,10.62,10.62v51.13C681.78,1421.29,677.03,1426.05,671.16,1426.05z"/>
<path class="st7" d="M1990.79,1426.05h-315.95c-5.87,0-10.62-4.76-10.62-10.62v-51.13c0-5.87,4.76-10.62,10.62-10.62h315.95
	c5.87,0,10.62,4.76,10.62,10.62v51.13C2001.42,1421.29,1996.66,1426.05,1990.79,1426.05z"/>
<path class="st1" d="M1330.98,1426.05h-315.95c-5.87,0-10.62-4.76-10.62-10.62v-51.13c0-5.87,4.76-10.62,10.62-10.62h315.95
	c5.87,0,10.62,4.76,10.62,10.62v51.13C1341.6,1421.29,1336.84,1426.05,1330.98,1426.05z"/>
<text transform="matrix(1 0 0 1 391.5554 1396.3097)" class="st4 st2 st8">Back to Cashflow Section</text>
<text transform="matrix(1 0 0 1 1069.1189 1396.3097)" class="st9 st2 st8">Scenario Comparison</text>
<text transform="matrix(1 0 0 1 1728.9363 1396.3097)" class="st4 st2 st8">Assets and Liabilities</text>
<path class="st1" d="M1408.45,1289.44H942.39c-11.16,0-20.21-9.05-20.21-20.21v-134.01c0-11.16,9.05-20.21,20.21-20.21h466.06
	c11.16,0,20.21,9.05,20.21,20.21v134.01C1428.66,1280.39,1419.61,1289.44,1408.45,1289.44z"/>
<text transform="matrix(1 0 0 1 1057.9451 1262.5026)" class="st9 st2 st10">Surplus/Deficit</text>
<g>
	<text transform="matrix(1 0 0 1 1134.3425 1208.6569)" class="st9 st2 st11">$0</text>
</g>
<path class="st12" d="M717.99,787.42H367.49c-9.74,0-17.64-7.9-17.64-17.64V630.63c0-9.74,7.9-17.64,17.64-17.64h350.51
	c9.74,0,17.64,7.9,17.64,17.64v139.16C735.63,779.53,727.74,787.42,717.99,787.42z"/>
<g>
	<g>
		<text transform="matrix(1 0 0 1 515.1394 732.8629)" class="st1 st2 st13">$11,683</text>
	</g>
	<text transform="matrix(1 0 0 1 515.1394 676.3805)" class="st4 st2 st14">Living Expenses</text>
</g>
<g>
	<path class="st6" d="M436.28,756.88L436.28,756.88c-31.3,0-56.67-25.37-56.67-56.67v0c0-31.3,25.37-56.67,56.67-56.67h0
		c31.3,0,56.67,25.37,56.67,56.67v0C492.95,731.5,467.58,756.88,436.28,756.88z"/>
	<g>
		<path class="st1" d="M436.27,722.71c-6.59,0-13.17,0-19.76,0c-2.08,0-3.24-1.16-3.24-3.22c0-9.66,0-19.31-0.01-28.97
			c0-0.4,0.13-0.64,0.45-0.86c7.39-5.09,14.78-10.2,22.15-15.31c0.34-0.23,0.55-0.21,0.87,0.01c7.37,5.12,14.75,10.23,22.14,15.33
			c0.3,0.21,0.4,0.42,0.4,0.77c-0.01,9.71-0.01,19.42-0.01,29.13c0,1.91-1.21,3.11-3.13,3.11
			C449.52,722.71,442.89,722.71,436.27,722.71z M433.39,712.09c-0.4-0.22-0.61-0.48-0.82-0.73c-0.79-0.95-1.05-2.07-1.12-3.28
			c-0.09-1.63-1.63-2.83-3.24-2.59c-1.69,0.26-2.66,1.63-2.45,3.55c0.51,4.61,2.93,7.73,7.3,9.31c0.27,0.1,0.42,0.23,0.52,0.51
			c0.43,1.19,1.49,1.93,2.69,1.93c1.2,0,2.27-0.74,2.7-1.92c0.11-0.3,0.28-0.43,0.57-0.53c4.34-1.42,7.27-5.43,7.29-9.95
			c0.02-4.54-2.86-8.58-7.18-10.03c-0.4-0.13-0.5-0.32-0.49-0.71c0.02-2.62,0.01-5.24,0.01-7.86c0-0.16-0.06-0.33,0.07-0.48
			c0.2,0.05,0.31,0.2,0.44,0.33c1,1,1.35,2.23,1.43,3.61c0.09,1.75,1.8,2.96,3.5,2.55c1.5-0.37,2.33-1.63,2.2-3.38
			c-0.32-4.4-3.08-8-7.25-9.42c-0.31-0.11-0.48-0.24-0.6-0.56c-0.41-1.15-1.46-1.87-2.67-1.87c-1.2-0.01-2.28,0.71-2.69,1.85
			c-0.12,0.34-0.3,0.49-0.63,0.6c-4.12,1.33-7.06,5.22-7.23,9.54c-0.17,4.37,2.38,8.44,6.37,10.15c0.42,0.18,1.03,0.17,1.23,0.56
			c0.19,0.38,0.06,0.92,0.06,1.38C433.39,707.09,433.39,709.54,433.39,712.09z"/>
		<path class="st1" d="M436.29,669.08c0.17,0.11,0.35,0.21,0.51,0.33c5.94,4.11,11.87,8.22,17.81,12.33
			c2.69,1.86,5.38,3.73,8.08,5.58c0.35,0.24,0.41,0.39,0.12,0.71c-0.38,0.41-0.58,1.17-1.05,1.23c-0.41,0.05-0.9-0.52-1.34-0.82
			c-7.57-5.24-15.13-10.48-22.7-15.71c-1.12-0.77-1.76-0.77-2.87-0.01c-7.87,5.45-15.75,10.9-23.61,16.36
			c-0.4,0.28-0.64,0.34-0.89-0.14c-0.24-0.46-0.87-0.86-0.76-1.29c0.09-0.37,0.75-0.61,1.16-0.9c8.35-5.78,16.7-11.55,25.05-17.33
			C435.95,669.3,436.11,669.2,436.29,669.08z"/>
		<path class="st1" d="M435.31,708.03c0-1.74,0-3.48,0-5.22c0-1.01-0.14-1.19-1.11-1.44c-4.02-1.04-6.73-4.65-6.55-8.74
			c0.17-3.83,2.83-7.06,6.58-7.99c0.86-0.21,0.98-0.35,1.1-1.24c0.08-0.58,0.42-0.91,0.94-0.92c0.52,0,0.88,0.33,0.96,0.9
			c0.13,0.93,0.23,1.04,1.13,1.26c3.75,0.93,6.45,4.3,6.54,8.14c0.02,0.68-0.36,1.15-0.93,1.17c-0.56,0.02-0.94-0.39-0.98-1.06
			c-0.17-2.83-1.51-4.88-4.1-6.06c-1.03-0.47-1.64-0.06-1.65,1.06c0,3.57,0,7.15,0,10.72c0,0.9,0.16,1.1,1.03,1.33
			c4,1.02,6.69,4.48,6.64,8.52c-0.05,3.8-2.67,7.21-6.35,8.17c-0.81,0.21-1.37,0.49-1.37,1.45c0,0.48-0.48,0.83-0.93,0.79
			c-0.5-0.04-0.9-0.31-0.9-0.82c0-0.94-0.55-1.22-1.35-1.41c-3.59-0.87-6.37-4.47-6.36-8.17c0-0.64,0.39-1.09,0.96-1.09
			c0.54,0,0.92,0.39,0.95,1.03c0.17,2.93,1.57,5.01,4.28,6.16c0.85,0.36,1.43-0.06,1.47-0.98c0-0.13,0-0.26,0-0.39
			C435.31,711.47,435.31,709.75,435.31,708.03z M437.23,708.31c0,1.7,0,3.4,0,5.11c0,1.14,0.58,1.52,1.63,1.09
			c2.46-1.01,4.11-3.48,4.12-6.16c0.01-2.69-1.65-5.19-4.14-6.2c-1.03-0.42-1.6-0.05-1.61,1.05
			C437.22,704.91,437.23,706.61,437.23,708.31z M435.31,693c0-1.7,0-3.4,0-5.1c0-1.12-0.6-1.5-1.65-1.06
			c-2.46,1.03-4.1,3.5-4.1,6.17c0,2.68,1.64,5.14,4.11,6.16c1.06,0.44,1.64,0.08,1.64-1.06C435.31,696.41,435.31,694.71,435.31,693z
			"/>
		<path class="st1" d="M439.23,704.62c2.4,1.74,2.4,5.67,0.04,7.4C439.12,711.67,439.08,705.36,439.23,704.62z"/>
		<path class="st1" d="M433.37,689.19c0,2.59,0,5.04,0,7.59c-1.19-0.93-1.78-2.08-1.87-3.48
			C431.4,691.68,432.02,690.34,433.37,689.19z"/>
	</g>
</g>
<path class="st12" d="M717.99,993.61H367.49c-9.74,0-17.64-7.9-17.64-17.64V836.81c0-9.74,7.9-17.64,17.64-17.64h350.51
	c9.74,0,17.64,7.9,17.64,17.64v139.16C735.63,985.71,727.74,993.61,717.99,993.61z"/>
<g>
	<g>
		<text transform="matrix(1 0 0 1 515.1394 939.0436)" class="st1 st2 st13"> $3,896</text>
	</g>
	<text transform="matrix(1 0 0 1 515.1394 882.5612)" class="st4 st2 st14">Other Expenses</text>
</g>
<g>
	<path class="st6" d="M436.28,963.06L436.28,963.06c-31.3,0-56.67-25.37-56.67-56.67v0c0-31.3,25.37-56.67,56.67-56.67h0
		c31.3,0,56.67,25.37,56.67,56.67v0C492.95,937.68,467.58,963.06,436.28,963.06z"/>
	<g>
		<path class="st1" d="M436.26,880.52c0.89,0,1.52-0.01,2.15,0c1.23,0.02,2.16,0.93,2.17,2.11c0.01,1.15-0.97,2.11-2.19,2.09
			c-2.55-0.04-5.07,0.05-7.57,0.67c-8.5,2.14-14.98,9.47-16.05,18.18c-1.42,11.58,6.28,21.99,17.78,24.05
			c11.61,2.08,23-6,24.91-17.66c0.4-2.42,0.4-4.83,0-7.25c-0.27-1.66,0.61-2.87,2.07-2.89c1.09-0.02,2,0.73,2.2,1.81
			c2.63,14.14-6.64,27.62-20.83,30.31c-13.71,2.59-27.32-6.59-30.04-20.26c-2.83-14.25,6.19-27.82,20.41-30.68
			C433.01,880.64,434.76,880.47,436.26,880.52z"/>
		<path class="st1" d="M438.46,894.27c0,0.47-0.16,1.03,0.04,1.39c0.21,0.36,0.85,0.27,1.29,0.41c2.66,0.85,4.52,2.45,5.06,5.31
			c0.18,0.96-0.05,1.8-0.88,2.39c-0.7,0.49-1.46,0.55-2.23,0.15c-0.67-0.35-1.09-0.91-1.14-1.65c-0.06-0.93-0.54-1.54-1.33-1.86
			c-2-0.8-4.04-0.8-6.04,0.01c-0.69,0.28-1.27,0.79-1.27,1.6c0,0.81,0.59,1.28,1.26,1.6c0.95,0.46,1.98,0.55,3.02,0.55
			c1.54,0,3.05,0.2,4.48,0.81c2.02,0.86,3.43,2.3,4,4.45c0.67,2.51-0.7,5.22-3.25,6.55c-0.8,0.42-1.65,0.73-2.54,0.87
			c-0.44,0.07-0.55,0.26-0.53,0.66c0.03,0.61,0.02,1.21,0,1.82c-0.04,1.21-1.01,2.13-2.18,2.12c-1.15-0.01-2.08-0.93-2.13-2.1
			c-0.02-0.63-0.03-1.26,0-1.89c0.02-0.41-0.14-0.53-0.52-0.59c-1.77-0.28-3.25-1.13-4.45-2.46c-0.88-0.97-1.35-2.12-1.49-3.4
			c-0.14-1.3,0.68-2.37,1.9-2.5c1.21-0.13,2.26,0.73,2.39,2.03c0.08,0.84,0.57,1.39,1.28,1.68c2.02,0.84,4.07,0.83,6.1,0.01
			c0.64-0.26,1.2-0.75,1.24-1.48c0.03-0.71-0.53-1.16-1.09-1.52c-0.93-0.58-1.97-0.73-3.04-0.74c-1.47-0.01-2.92-0.17-4.3-0.69
			c-1.29-0.48-2.39-1.24-3.23-2.34c-2.29-3-1.3-6.96,2.19-8.74c0.83-0.42,1.7-0.71,2.61-0.87c0.34-0.06,0.44-0.2,0.43-0.53
			c-0.02-0.65-0.02-1.3,0-1.96c0.03-1.22,0.96-2.15,2.14-2.16c1.18-0.01,2.13,0.92,2.17,2.13c0.01,0.31,0,0.63,0,0.94
			C438.43,894.27,438.44,894.27,438.46,894.27z"/>
		<path class="st1" d="M452.47,884.72c-1.03,0-2.05,0.01-3.08,0c-1.36-0.01-2.33-0.92-2.32-2.18c0.01-1.23,0.97-2.13,2.29-2.14
			c2.79-0.01,5.58-0.01,8.36,0c1.38,0,2.29,0.91,2.3,2.28c0.01,2.81,0.01,5.62,0,8.43c-0.01,1.3-0.96,2.26-2.19,2.25
			c-1.2-0.02-2.11-0.97-2.13-2.24c-0.01-1.05,0-2.11,0-3.22c-0.3,0.09-0.43,0.31-0.6,0.47c-2.15,2.15-4.28,4.3-6.43,6.44
			c-0.77,0.76-1.71,0.92-2.59,0.47c-0.81-0.41-1.27-1.26-1.17-2.17c0.06-0.59,0.37-1.04,0.78-1.45c2.11-2.09,4.2-4.19,6.31-6.28
			c0.17-0.17,0.38-0.31,0.58-0.47C452.54,884.85,452.5,884.79,452.47,884.72z"/>
	</g>
</g>
<path class="st12" d="M1983.77,882.72h-350.51c-9.74,0-17.64-7.9-17.64-17.64V725.92c0-9.74,7.9-17.64,17.64-17.64h350.51
	c9.74,0,17.64,7.9,17.64,17.64v139.16C2001.42,874.82,1993.52,882.72,1983.77,882.72z"/>
<g>
	<g>
		<text transform="matrix(1 0 0 1 1780.9207 828.1549)" class="st1 st2 st13"> $0</text>
	</g>
	<text transform="matrix(1 0 0 1 1780.9207 771.6725)" class="st4 st2 st14">Super Contributions</text>
</g>
<g>
	<path class="st6" d="M1702.06,852.17L1702.06,852.17c-31.3,0-56.67-25.37-56.67-56.67v0c0-31.3,25.37-56.67,56.67-56.67h0
		c31.3,0,56.67,25.37,56.67,56.67v0C1758.73,826.8,1733.36,852.17,1702.06,852.17z"/>
	<g>
		<path class="st1" d="M1716.69,778.75c0.41,0.24,0.66,0.37,0.9,0.52c2.11,1.32,2.14,4.35,0.04,5.67c-0.56,0.35-0.95,0.49-0.07,0.98
			c0.99,0.55,1.44,1.52,1.34,2.67c-0.1,1.14-0.69,1.98-1.75,2.42c-0.49,0.2-0.68,0.32-0.4,0.93c0.99,2.15-0.34,4.19-2.68,4.22
			c-4.72,0.06-9.43,0.18-14.15,0.12c-1.29-0.01-2.47-0.15-3.3-1.28c-0.04-0.05-0.09-0.08-0.14-0.13c-2.19-2.01-4.56-3.31-7.74-2.85
			c-1.97,0.28-1.72,0.37-1.73-1.62c-0.01-4.68,0.01-9.37-0.02-14.05c-0.01-0.77,0.19-1.06,1-1.06c1.56,0,3.12-0.13,4.68-0.18
			c0.48-0.01,0.83-0.16,1.19-0.48c1.71-1.53,3.46-3.02,5.16-4.55c0.45-0.4,0.67-0.36,1.04,0.11c0.76,0.97,1.29,2.37,2.38,2.78
			c1.08,0.4,2.45,0.05,3.69,0c3.03-0.11,6.05-0.25,9.07-0.36c1.88-0.07,3.05,0.67,3.52,2.14c0.48,1.5-0.04,2.73-1.62,3.79
			C1717,778.6,1716.88,778.65,1716.69,778.75z"/>
		<path class="st1" d="M1706.65,825.33c-4.04-0.11-7.96-1.1-11.25-3.91c-3.38-2.9-4.48-6.7-4.15-10.99
			c0.33-4.35,1.9-8.28,4.15-11.98c0.25-0.41,0.45-0.71,0.88-0.19c0.47,0.55,1.15,0.52,1.77,0.54c5.67,0.22,11.34,0.02,17.02-0.01
			c0.86-0.01,1.59-0.44,2.27-0.92c0.32-0.23,0.53-0.25,0.76,0.12c2.52,4.1,4.35,8.44,4.44,13.34c0.12,6.35-3.13,10.88-9.15,12.94
			C1711.26,824.98,1709.07,825.3,1706.65,825.33z M1706.82,801c-0.62,0.06-1.22,0.42-1.18,1.09c0.07,1.15-0.57,1.44-1.47,1.78
			c-1.35,0.52-2.32,1.5-2.36,3.06c-0.04,1.6,0.91,2.57,2.25,3.26c1.02,0.52,2.14,0.57,3.25,0.69c0.81,0.09,1.73,0.14,2.05,1.09
			c0.17,0.5-0.9,1.09-2.06,1.18c-1.3,0.1-2.52-0.24-3.72-0.69c-0.74-0.28-1.39-0.09-1.74,0.71c-0.29,0.68-0.01,1.36,0.78,1.7
			c0.7,0.29,1.43,0.55,2.18,0.69c0.58,0.11,0.79,0.31,0.78,0.92c0,1.15,0.5,1.71,1.36,1.68c0.83-0.03,1.26-0.57,1.24-1.69
			c-0.01-0.58,0.17-0.87,0.74-0.99c0.37-0.08,0.73-0.24,1.06-0.42c1.19-0.65,2.01-1.58,2.04-3c0.03-1.39-0.77-2.3-1.89-3
			c-1.04-0.65-2.21-0.77-3.39-0.86c-0.68-0.05-1.33-0.16-1.89-0.57c-0.55-0.41-0.56-0.83,0.03-1.2c0.58-0.37,1.23-0.51,1.91-0.53
			c1.17-0.04,2.26,0.26,3.34,0.68c0.83,0.33,1.59,0.01,1.81-0.72c0.25-0.8-0.09-1.36-0.83-1.69c-0.61-0.27-1.24-0.54-1.9-0.61
			c-0.76-0.08-1.1-0.35-1.04-1.2C1708.23,801.55,1707.6,800.99,1706.82,801z"/>
		<path class="st1" d="M1675.47,783.63c0-2.87-0.01-5.73,0-8.6c0-1.47,0.63-2.11,2.08-2.13c1.59-0.02,3.19-0.02,4.78,0
			c1.39,0.02,2.07,0.67,2.07,2.06c0.02,5.77,0.02,11.53,0,17.3c0,1.43-0.69,2.08-2.14,2.1c-1.56,0.02-3.12,0.02-4.68,0
			c-1.45-0.02-2.1-0.68-2.1-2.12C1675.46,789.36,1675.47,786.49,1675.47,783.63z"/>
		<path class="st1" d="M1706.66,765.69c1.91,0,3.82,0,5.73,0c0.24,0,0.57-0.12,0.71,0.12c0.18,0.3-0.15,0.51-0.3,0.74
			c-0.38,0.59-0.89,1.11-1.17,1.74c-0.73,1.63-1.99,2.09-3.66,2c-1.27-0.06-2.54,0.06-3.82,0.12c-0.37,0.02-0.67-0.03-0.92-0.36
			c-0.91-1.22-1.85-2.43-2.77-3.65c-0.12-0.17-0.37-0.33-0.25-0.57c0.12-0.24,0.4-0.13,0.6-0.13
			C1702.77,765.69,1704.72,765.69,1706.66,765.69z"/>
	</g>
</g>
<path class="st12" d="M1983.77,1089.49h-350.51c-9.74,0-17.64-7.9-17.64-17.64V932.69c0-9.74,7.9-17.64,17.64-17.64h350.51
	c9.74,0,17.64,7.9,17.64,17.64v139.16C2001.42,1081.59,1993.52,1089.49,1983.77,1089.49z"/>
<g>
	<g>
		<text transform="matrix(1 0 0 1 1780.9207 1034.9283)" class="st1 st2 st13"> $440</text>
	</g>
	<text transform="matrix(1 0 0 1 1780.9207 978.4459)" class="st4 st2 st14">Loan Repayments</text>
</g>
<g>
	<path class="st6" d="M1702.06,1058.94L1702.06,1058.94c-31.3,0-56.67-25.37-56.67-56.67v0c0-31.3,25.37-56.67,56.67-56.67h0
		c31.3,0,56.67,25.37,56.67,56.67v0C1758.73,1033.57,1733.36,1058.94,1702.06,1058.94z"/>
	<g>
		<path class="st1" d="M1725.04,979.46c0.07,0.27-0.05,0.36-0.13,0.45c-1.44,1.6-2.02,3.48-2.02,5.61
			c0.03,6.99,0.01,13.97,0.01,20.96c0,4.66,0,9.32,0,13.97c0,3.87-2.34,6.22-6.2,6.22c-4.97,0-9.94,0-14.92,0
			c-0.3,0-0.63,0.1-0.94-0.14c0.06-0.11,0.12-0.22,0.19-0.32c4.28-5.87,4.59-12.09,1.63-18.58c-0.19-0.42-0.29-0.82-0.28-1.28
			c0.01-6.94,0-13.87,0.01-20.81c0-3.71,2.37-6.08,6.09-6.08c5.26,0,10.52,0,15.78,0C1724.52,979.46,1724.78,979.46,1725.04,979.46z
			 M1708.69,998.49c0.52,0.03,0.79-0.37,1.06-0.75c2.4-3.36,4.8-6.71,7.19-10.07c0.14-0.19,0.27-0.39,0.36-0.6
			c0.19-0.47,0.06-0.88-0.33-1.18c-0.43-0.32-0.88-0.3-1.29,0.04c-0.16,0.13-0.27,0.31-0.4,0.48c-2.41,3.38-4.83,6.75-7.24,10.13
			c-0.14,0.19-0.27,0.39-0.35,0.6C1707.45,997.81,1707.93,998.48,1708.69,998.49z M1713.68,1011.52c-1.62,0-3.24-0.01-4.86,0
			c-0.88,0-1.38,0.39-1.4,1.04c-0.02,0.67,0.5,1.08,1.42,1.09c1.2,0.01,2.4,0,3.61,0c2.04,0,4.08,0.01,6.12-0.01
			c0.86-0.01,1.35-0.44,1.31-1.11c-0.03-0.62-0.48-1-1.26-1.01C1716.97,1011.51,1715.32,1011.53,1713.68,1011.52z M1713.68,1021.21
			c1.59,0,3.19,0,4.78,0c0.94,0,1.43-0.39,1.42-1.08c-0.01-0.67-0.48-1.02-1.39-1.02c-3.21-0.01-6.43-0.01-9.64,0
			c-0.94,0-1.45,0.39-1.43,1.07c0.02,0.66,0.54,1.03,1.48,1.03C1710.49,1021.21,1712.08,1021.21,1713.68,1021.21z M1713.76,1003.97
			c-1.65,0-3.29,0-4.94,0c-0.87,0-1.38,0.38-1.4,1.03c-0.02,0.66,0.47,1.06,1.35,1.07c3.27,0.01,6.53,0.01,9.8,0
			c0.85,0,1.3-0.37,1.31-1.01c0.02-0.67-0.47-1.07-1.34-1.08C1716.94,1003.97,1715.35,1003.97,1713.76,1003.97z M1711.33,988.34
			c-0.01-1.5-1.2-2.69-2.68-2.69c-1.48,0-2.67,1.19-2.68,2.69c-0.01,1.47,1.21,2.69,2.68,2.69S1711.34,989.81,1711.33,988.34z
			 M1719.02,995.82c-0.01-1.5-1.2-2.69-2.68-2.69c-1.48,0-2.67,1.2-2.68,2.69c-0.01,1.49,1.18,2.67,2.68,2.67
			C1717.85,998.49,1719.04,997.31,1719.02,995.82z"/>
		<path class="st1" d="M1686.9,993.26c1.26,0,2.51,0.01,3.77,0c0.34,0,0.57,0.05,0.72,0.43c1.27,3.34,3.34,6.19,5.42,9.05
			c1.37,1.88,2.95,3.63,3.95,5.74c2.62,5.56,2.5,11.01-1.14,16.1c-2.02,2.82-5.04,4.16-8.35,4.86c-4.43,0.93-8.74,0.58-12.85-1.43
			c-4.28-2.1-6.38-5.73-6.98-10.31c-0.56-4.27,0.57-8.11,3.06-11.61c2.08-2.92,4.26-5.76,6.14-8.82c0.67-1.09,1.3-2.21,1.73-3.42
			c0.18-0.49,0.44-0.61,0.92-0.6C1684.5,993.28,1685.7,993.26,1686.9,993.26z M1691.46,1016.79c-0.04,0.65-0.35,1.15-0.84,1.54
			c-0.71,0.57-1.54,0.88-2.43,1.02c-2.22,0.37-4.3-0.18-6.34-0.99c-0.73-0.29-1.26-0.11-1.52,0.48c-0.25,0.57,0,1.11,0.7,1.44
			c1.07,0.5,2.2,0.83,3.36,1.05c0.44,0.08,0.95,0.03,1.29,0.25c0.44,0.28,0.12,0.87,0.2,1.31c0.1,0.58,0.44,0.91,0.99,0.93
			c0.59,0.02,0.99-0.31,1.06-0.93c0.03-0.23,0.04-0.47,0.01-0.7c-0.07-0.54,0.18-0.74,0.69-0.79c0.73-0.08,1.43-0.33,2.08-0.66
			c1.62-0.81,2.83-2,2.84-3.9c0.01-1.91-1.19-3.11-2.81-3.92c-1.12-0.56-2.31-0.8-3.56-0.83c-1.43-0.03-2.82-0.26-3.97-1.23
			c-1.05-0.88-1.04-2.07,0-2.95c0.62-0.52,1.35-0.8,2.12-0.96c2.29-0.46,4.46,0,6.57,0.9c0.71,0.3,1.26,0.13,1.53-0.45
			c0.27-0.57,0.04-1.11-0.66-1.45c-1.06-0.52-2.19-0.85-3.35-1.05c-0.44-0.08-0.96-0.02-1.29-0.24c-0.44-0.28-0.12-0.87-0.2-1.32
			c-0.1-0.61-0.45-0.96-1.05-0.95c-0.6,0.01-0.96,0.38-1.01,0.99c-0.02,0.23-0.03,0.47,0,0.71c0.05,0.45-0.11,0.65-0.58,0.72
			c-0.96,0.15-1.87,0.49-2.71,0.99c-2.95,1.77-3.02,5.21-0.14,7.09c1.38,0.9,2.93,1.21,4.55,1.26c1.22,0.03,2.39,0.27,3.42,0.97
			C1691,1015.53,1691.39,1016.07,1691.46,1016.79z"/>
		<path class="st1" d="M1686.92,985.99c-1.12,0-2.25-0.02-3.37,0.01c-0.43,0.01-0.65-0.14-0.81-0.54c-1.25-3.21-2.52-6.41-3.8-9.6
			c-0.18-0.46-0.11-0.61,0.36-0.77c2.26-0.75,4.38-0.65,6.45,0.66c2.34,1.48,4.76,1.54,7.19,0.15c0.5-0.28,1.04-0.48,1.57-0.71
			c0.18-0.08,0.39-0.28,0.56-0.1c0.17,0.17-0.02,0.39-0.08,0.58c-0.41,1.3-0.97,2.53-1.52,3.77c-0.89,2-1.88,3.96-2.42,6.1
			c-0.1,0.41-0.35,0.46-0.69,0.46C1689.22,985.98,1688.07,985.99,1686.92,985.99z"/>
		<path class="st1" d="M1728.9,991.64c-1.05,0-2.09,0-3.14,0c-0.33,0-0.63-0.01-0.61-0.48c0.07-2.4-0.14-4.81,0.12-7.21
			c0.15-1.33,0.77-2.46,1.49-3.58c0.94-1.46,3.12-1.24,4.02-0.18c0.5,0.59,0.87,1.24,1.11,1.97c0.94,2.93,1.04,5.95,0.86,8.99
			c-0.03,0.45-0.27,0.49-0.62,0.49C1731.05,991.64,1729.97,991.64,1728.9,991.64z"/>
		<path class="st1" d="M1686.82,991.15c-1.02,0-2.03-0.01-3.05,0.01c-0.44,0.01-0.61-0.13-0.55-0.59c0.1-0.67,0.14-1.35,0.05-2.03
			c-0.05-0.35,0.11-0.46,0.44-0.46c2.14,0.01,4.28,0.01,6.42,0c0.35,0,0.47,0.14,0.41,0.48c-0.11,0.65-0.06,1.31,0.04,1.95
			c0.09,0.56-0.16,0.66-0.64,0.65C1688.91,991.13,1687.86,991.15,1686.82,991.15z"/>
		<path class="st1" d="M1709.25,988.34c-0.06,0.35-0.24,0.57-0.62,0.56c-0.34-0.01-0.54-0.2-0.56-0.52
			c-0.02-0.36,0.19-0.58,0.56-0.6C1709.01,987.77,1709.19,987.99,1709.25,988.34z"/>
		<path class="st1" d="M1716.95,995.88c-0.1,0.33-0.28,0.58-0.66,0.52c-0.35-0.05-0.57-0.3-0.52-0.66c0.04-0.31,0.27-0.52,0.6-0.49
			C1716.72,995.27,1716.91,995.52,1716.95,995.88z"/>
	</g>
</g>
<g>
	<path class="st1" d="M1175.42,966.45c-61.21,0-111.21-6.65-114.51-9.14l41.33,80.02c0,2.86,32.76,12.83,73.18,12.83
		c40.41,0,73.18-9.97,73.18-12.83l41.33-80.02C1286.64,959.8,1236.63,966.45,1175.42,966.45z"/>
	<path class="st15" d="M1290.12,957.06c0,2.27-51.35,9.39-114.69,9.39s-114.69-7.12-114.69-9.39c0-2.27,51.35-4.11,114.69-4.11
		S1290.12,954.79,1290.12,957.06z"/>
	<path class="st1" d="M1175.42,870.15c-87.01,0-158.28-5.54-164.95-12.57l43.54,83.58c0,6.79,54.36,12.29,121.41,12.29
		c67.05,0,121.41-5.5,121.41-12.29l43.54-83.58C1333.7,864.61,1262.43,870.15,1175.42,870.15z"/>
	<ellipse class="st15" cx="1175.42" cy="856.5" rx="165.51" ry="13.65"/>
	<path class="st1" d="M1175.42,768c-112.78,0-205.18-8.52-213.89-19.33l38.95,88.23c0,11.6,78.32,21.01,174.94,21.01
		s174.94-9.4,174.94-21.01l38.95-88.23C1380.6,759.49,1288.2,768,1175.42,768z"/>
	<ellipse class="st16" cx="1175.42" cy="747" rx="214.63" ry="21.01"/>
	<ellipse class="st15" cx="1175.42" cy="747" rx="214.63" ry="21.01"/>
	<ellipse class="st17" cx="1175.42" cy="635.95" rx="270.09" ry="29.99"/>
	<g>
		<g>
			<path class="st6" d="M1058.4,582.78L1058.4,582.78c-19.99,11.16-45.25,4-56.41-15.99l0,0c-11.16-19.99-4-45.25,15.99-56.41l0,0
				c19.99-11.16,45.25-4,56.41,15.99v0C1085.55,546.37,1078.39,571.62,1058.4,582.78z"/>
			<g>
				<path class="st1" d="M1056.03,563.67c-4.38,2.45-8.76,4.88-13.14,7.34c-0.65,0.36-1.28,0.45-2,0.28
					c-6.27-1.53-12.54-3.05-18.8-4.57c-0.86-0.21-1.46-0.68-1.67-1.57c-0.19-0.81,0.05-1.51,0.68-2.05
					c0.57-0.49,1.24-0.56,1.96-0.39c3.2,0.78,6.4,1.56,9.59,2.34c2.72,0.66,5.43,1.31,8.15,1.99c0.4,0.1,0.72,0.04,1.07-0.16
					c8.44-4.72,16.88-9.43,25.32-14.15c0.99-0.55,1.91-0.49,2.61,0.16c1.01,0.94,0.85,2.57-0.35,3.27c-0.97,0.57-1.96,1.1-2.95,1.65
					C1063.03,559.76,1059.53,561.71,1056.03,563.67z"/>
				<path class="st1" d="M1042.12,553.75c-0.43,0.65-0.85,1.26-1.25,1.88c-0.15,0.23-0.34,0.15-0.53,0.12
					c-2.15-0.28-4.3-0.58-6.45-0.84c-1.77-0.21-3.25,1.06-3.28,2.78c-0.02,1.42,0.96,2.64,2.4,2.84c2.93,0.41,5.87,0.78,8.81,1.16
					c0.74,0.09,1.41-0.12,2.01-0.55c0.37-0.27,0.62-0.63,0.87-1c1.16-1.73,2.33-3.45,3.48-5.19c0.17-0.25,0.32-0.4,0.63-0.3
					c0.29,0.09,0.54-0.02,0.79-0.17c4.33-2.43,8.67-4.85,13.01-7.27c1.08-0.6,2.15-0.46,2.88,0.37c0.88,1,0.67,2.56-0.45,3.29
					c-0.14,0.09-0.29,0.17-0.43,0.25c-7.06,3.94-14.12,7.87-21.16,11.82c-1.31,0.74-2.65,0.93-4.11,0.58
					c-3.65-0.87-7.31-1.71-10.97-2.56c-1.32-0.31-1.74-1.3-1.03-2.46c0.78-1.29,1.56-2.57,2.35-3.85c0.58-0.94,1.35-1.67,2.44-1.99
					c0.44-0.13,0.88-0.17,1.32-0.11c2.79,0.38,5.57,0.76,8.36,1.14C1041.92,553.69,1041.99,553.72,1042.12,553.75z"/>
				<path class="st1" d="M1032.21,535.61c-2.99-5.4-1.04-12.18,4.37-15.18c5.41-3,12.21-1.06,15.18,4.34
					c2.97,5.4,1.03,12.17-4.34,15.16C1042.03,542.92,1035.19,540.98,1032.21,535.61z M1037.46,522.03
					c-4.49,2.5-6.12,8.18-3.63,12.66c2.51,4.52,8.17,6.13,12.69,3.62c4.49-2.5,6.12-8.16,3.64-12.65
					C1047.68,521.15,1041.96,519.53,1037.46,522.03z"/>
				<path class="st1" d="M1042.75,559.94c-0.3,0.19-0.59,0.19-0.89,0.15c-2.8-0.37-5.61-0.73-8.41-1.11
					c-0.83-0.11-1.3-0.67-1.22-1.4c0.09-0.75,0.71-1.2,1.54-1.09c2.15,0.27,4.3,0.54,6.45,0.85c0.89,0.13,1.52-0.14,2.02-0.9
					c1.65-2.5,3.33-4.98,5-7.46c0.51-0.75,1.29-0.93,1.91-0.45c0.56,0.43,0.66,1.14,0.21,1.81c-1.07,1.61-2.15,3.22-3.23,4.82
					c-0.94,1.4-1.88,2.8-2.82,4.2C1043.15,559.61,1043,559.85,1042.75,559.94z"/>
				<path class="st1" d="M1020.27,552.35c2.17-1.18,5.02-0.14,5.85,2.13c0.7,1.9-0.35,3.86-2.38,4.46c-2.05,0.6-4.32-0.51-5.08-2.49
					C1018.07,554.92,1018.75,553.17,1020.27,552.35z"/>
				<path class="st1" d="M1049.95,552.34c0.23-0.35,0.47-0.69,0.7-1.04c0.83-1.26,0.79-2.4-0.11-3.62c-0.07-0.1-0.17-0.18-0.13-0.35
					c0.3-1.33,1.26-1.9,2.55-1.5c1.71,0.53,3.41,1.06,5.11,1.59c0.15,0.05,0.33,0.04,0.46,0.24c-1.05,0.58-2.08,1.16-3.12,1.74
					c-0.15,0.08-0.29,0-0.43-0.04c-0.58-0.18-1.17-0.35-1.75-0.55c-0.25-0.09-0.38-0.05-0.48,0.21c-0.26,0.65-0.56,1.27-0.81,1.92
					c-0.15,0.39-0.39,0.66-0.77,0.84c-0.4,0.19-0.77,0.42-1.15,0.64C1050,552.4,1049.97,552.37,1049.95,552.34z"/>
				<path class="st1" d="M1037.07,551.42c0.87-1.48,1.69-2.89,2.54-4.28c0.36-0.58,1.09-0.72,1.66-0.39
					c0.59,0.34,0.82,1.05,0.48,1.67c-0.59,1.07-1.22,2.11-1.84,3.17c-0.08,0.15-0.18,0.2-0.36,0.18
					C1038.76,551.65,1037.96,551.54,1037.07,551.42z"/>
				<path class="st1" d="M1020.97,544.48c-0.54-0.97-1.08-1.93-1.61-2.9c-0.28-0.52-0.2-0.97,0.22-1.21
					c0.42-0.24,0.87-0.09,1.15,0.41c1.11,1.97,2.21,3.94,3.3,5.92c0.29,0.52,0.2,0.95-0.23,1.2c-0.45,0.26-0.86,0.1-1.17-0.45
					C1022.08,546.47,1021.52,545.48,1020.97,544.48z"/>
				<path class="st1" d="M1027.14,545.59c-0.55-0.98-1.1-1.96-1.64-2.94c-0.3-0.54-0.21-1.01,0.23-1.24
					c0.41-0.22,0.87-0.05,1.15,0.45c1.1,1.96,2.19,3.91,3.28,5.88c0.3,0.53,0.19,1.02-0.24,1.25c-0.42,0.22-0.85,0.06-1.14-0.46
					C1028.23,547.55,1027.69,546.56,1027.14,545.59z"/>
				<path class="st1" d="M1029.45,539.79c-0.55-0.98-1.1-1.96-1.64-2.95c-0.27-0.49-0.2-0.89,0.16-1.15
					c0.41-0.29,0.91-0.15,1.2,0.36c0.48,0.83,0.94,1.67,1.41,2.51c0.64,1.15,1.3,2.31,1.93,3.47c0.3,0.55,0.13,1.04-0.38,1.23
					c-0.39,0.15-0.75-0.01-1.02-0.48C1030.56,541.79,1030.01,540.79,1029.45,539.79z"/>
				<path class="st1" d="M1045.74,536.92c-3.76,2.09-8.45,0.74-10.54-3.03c-2.05-3.69-0.68-8.42,3.03-10.47
					c3.73-2.07,8.46-0.72,10.53,2.99C1050.83,530.14,1049.48,534.84,1045.74,536.92z M1044.74,531.16c0.17,0.25,0.17,0.54,0.04,0.83
					c-0.47,1.05-2.42,2.11-3.53,0.95c-0.33-0.35-0.8-0.29-1.11,0.03c-0.32,0.34-0.31,0.79,0.05,1.14c0.87,0.88,1.93,1.09,3.1,0.84
					c0.29-0.06,0.44-0.04,0.59,0.24c0.26,0.48,0.72,0.62,1.12,0.4c0.4-0.22,0.53-0.7,0.27-1.16c-0.16-0.27-0.12-0.44,0.11-0.62
					c0.15-0.12,0.28-0.28,0.4-0.44c0.66-0.86,0.94-1.78,0.44-2.82c-0.5-1.04-1.35-1.54-2.5-1.57c-0.55-0.01-1.08,0.11-1.61,0.27
					c-0.49,0.15-0.96,0.35-1.48,0.39c-0.46,0.03-0.87-0.05-1.12-0.48c-0.25-0.43-0.18-0.86,0.08-1.26c0.62-0.96,1.94-1.26,2.82-0.59
					c0.41,0.31,0.87,0.21,1.14-0.16c0.27-0.38,0.18-0.85-0.25-1.16c-0.74-0.55-1.58-0.77-2.48-0.6c-0.4,0.08-0.61,0.03-0.81-0.35
					c-0.2-0.39-0.66-0.47-1.03-0.27c-0.37,0.2-0.58,0.65-0.34,1.01c0.28,0.42,0.11,0.65-0.15,0.97c-0.82,0.97-0.94,2.17-0.38,3.18
					c0.57,1.01,1.57,1.47,2.87,1.3c0.46-0.06,0.9-0.2,1.34-0.35c0.45-0.16,0.92-0.29,1.4-0.27
					C1044.16,530.6,1044.5,530.76,1044.74,531.16z"/>
			</g>
		</g>
		<g>
			<path class="st6" d="M1051.06,636.22L1051.06,636.22c-22.9,0-41.46-18.56-41.46-41.46v0c0-22.9,18.56-41.46,41.46-41.46l0,0
				c22.9,0,41.46,18.56,41.46,41.46v0C1092.53,617.66,1073.96,636.22,1051.06,636.22z"/>
			<g>
				<g>
					<path class="st1" d="M1065.11,610.29c0.55-0.59,1.12-1.15,1.64-1.76c0.87-1.04,1.59-2.18,2.26-3.35
						c0.28-0.49,0.19-0.67-0.33-0.91c-3.88-1.76-5.86-4.88-5.84-9.06c0.02-4,1.9-7.04,5.59-8.79c0.51-0.25,0.57-0.43,0.29-0.91
						c-1.9-3.31-4.51-5.9-7.84-7.76c-0.55-0.31-0.79-0.25-1.1,0.35c-1.88,3.69-5,5.46-9.07,5.36c-3.91-0.1-6.8-2.01-8.54-5.54
						c-0.23-0.47-0.42-0.49-0.83-0.26c-3.41,1.88-6.07,4.51-8.03,7.87c-0.35,0.6-0.03,0.74,0.41,0.95
						c6.13,2.99,7.43,11.22,2.52,15.94c-0.85,0.81-1.82,1.44-2.91,1.89c-0.33,0.14-0.6,0.26-0.37,0.7c1.03,1.92,2.28,3.68,3.89,5.17
						c0.03,0.03,0.08,0.02,0.23,0.05c0-0.47-0.02-0.93,0-1.38c0.04-0.84,0.5-1.3,1.25-1.28c0.71,0.02,1.15,0.47,1.17,1.29
						c0.02,1.37,0.02,2.75,0.01,4.12c-0.01,0.78-0.48,1.24-1.29,1.25c-1.35,0.02-2.7,0.02-4.05,0c-0.84-0.01-1.34-0.49-1.34-1.2
						c0-0.69,0.47-1.13,1.27-1.21c0.23-0.02,0.46-0.03,0.68-0.04c0.09-0.27-0.12-0.35-0.24-0.48c-1.53-1.65-2.84-3.46-3.81-5.49
						c-0.25-0.52-0.57-0.68-1.13-0.68c-5.08-0.01-9.04-3.29-9.77-8.3c-0.81-5.53,2.52-10.29,8.05-11.19
						c0.72-0.12,1.44-0.16,2.16-0.12c0.42,0.02,0.68-0.11,0.89-0.5c2.24-4.28,5.51-7.52,9.83-9.69c0.52-0.26,0.52-0.63,0.51-1.09
						c-0.15-3.77,1.4-6.71,4.5-8.76c5.98-3.94,14.07-0.19,15.02,6.9c0.09,0.7,0.18,1.39,0.06,2.08c-0.08,0.44,0.08,0.63,0.44,0.81
						c1.93,0.96,3.68,2.18,5.26,3.65c1.83,1.69,3.34,3.64,4.49,5.84c0.31,0.58,0.65,0.79,1.29,0.76c4.88-0.25,9.22,3.38,10.02,8.3
						c0.85,5.16-2.98,10.47-8.17,11.2c-0.65,0.09-1.29,0.15-1.95,0.12c-0.34-0.02-0.57,0.08-0.73,0.41
						c-1.08,2.24-2.49,4.26-4.23,6.03c-0.03,0.03-0.02,0.08-0.05,0.18c0.34,0.04,0.68,0.05,1.01,0.12c0.65,0.13,1.04,0.62,1,1.23
						c-0.04,0.62-0.48,1.1-1.13,1.11c-1.44,0.03-2.89,0.03-4.33-0.01c-0.73-0.02-1.19-0.49-1.22-1.28c-0.05-1.4-0.05-2.79,0-4.19
						c0.03-0.79,0.55-1.2,1.29-1.16c0.67,0.04,1.07,0.49,1.1,1.27c0.02,0.45,0,0.91,0,1.37
						C1064.98,610.24,1065.04,610.26,1065.11,610.29z M1032.44,593.09c-0.06-0.92-0.5-1.76-1.39-2.31
						c-0.31-0.19-0.54-0.38-0.65-0.76c-0.12-0.45-0.48-0.66-0.96-0.67c-0.48,0-0.83,0.23-0.95,0.67c-0.1,0.39-0.36,0.56-0.66,0.75
						c-1.09,0.72-1.49,1.77-1.31,3.02c0.16,1.14,0.83,1.89,1.93,2.25c0.46,0.15,0.93,0.3,1.38,0.5c0.54,0.23,0.68,0.72,0.39,1.2
						c-0.2,0.34-0.51,0.47-0.89,0.41c-0.52-0.07-0.72-0.42-0.82-0.9c-0.14-0.7-0.59-1.08-1.12-1.01c-0.61,0.08-0.97,0.54-0.92,1.27
						c0.07,1,0.58,1.75,1.39,2.31c0.29,0.2,0.55,0.37,0.64,0.76c0.11,0.46,0.51,0.68,0.96,0.66c0.44-0.02,0.84-0.22,0.95-0.69
						c0.09-0.36,0.3-0.54,0.59-0.71c1.09-0.66,1.52-1.69,1.39-2.91c-0.13-1.22-0.83-2.04-2.01-2.42c-0.46-0.15-0.94-0.28-1.38-0.49
						c-0.48-0.22-0.6-0.64-0.36-1.11c0.25-0.48,0.65-0.65,1.17-0.42c0.4,0.18,0.52,0.55,0.6,0.96c0.11,0.6,0.57,0.93,1.16,0.85
						C1032.19,594.2,1032.45,593.81,1032.44,593.09z M1053.98,576.11c0-1.77-0.66-2.7-1.95-3.16c-0.44-0.16-0.88-0.29-1.32-0.45
						c-0.42-0.15-0.66-0.44-0.57-0.91c0.08-0.43,0.32-0.72,0.79-0.76c0.48-0.04,0.81,0.18,0.97,0.63c0.05,0.13,0.04,0.28,0.08,0.41
						c0.14,0.57,0.5,0.9,1.1,0.87c0.57-0.02,0.92-0.46,0.92-1.1c0-1.1-0.51-1.91-1.42-2.48c-0.29-0.18-0.51-0.36-0.59-0.72
						c-0.1-0.44-0.44-0.63-0.88-0.64c-0.46-0.02-0.86,0.11-1,0.58c-0.12,0.42-0.42,0.63-0.75,0.86c-1,0.68-1.41,1.67-1.29,2.83
						c0.13,1.19,0.8,2.01,1.95,2.4c0.44,0.15,0.88,0.29,1.32,0.45c0.39,0.14,0.63,0.41,0.58,0.84c-0.05,0.44-0.3,0.74-0.73,0.83
						c-0.41,0.09-0.73-0.11-0.94-0.45c-0.1-0.17-0.15-0.39-0.19-0.59c-0.13-0.58-0.47-0.9-1.08-0.86c-0.57,0.04-0.96,0.47-0.95,1.09
						c0.02,1.03,0.53,1.82,1.34,2.41c0.33,0.24,0.6,0.46,0.74,0.87c0.15,0.44,0.54,0.61,1.01,0.59c0.44-0.02,0.77-0.23,0.87-0.67
						c0.08-0.36,0.31-0.54,0.6-0.71C1053.55,577.68,1053.96,576.79,1053.98,576.11z M1069.65,597.7c0.03,0.78,0.51,1.56,1.38,2.1
						c0.28,0.18,0.54,0.33,0.61,0.7c0.09,0.48,0.47,0.7,0.91,0.72c0.44,0.02,0.85-0.17,0.99-0.63c0.12-0.39,0.37-0.6,0.69-0.81
						c1-0.67,1.45-1.64,1.33-2.82c-0.13-1.24-0.8-2.1-2.05-2.47c-0.45-0.13-0.89-0.27-1.31-0.47c-0.56-0.26-0.67-0.87-0.27-1.33
						c0.21-0.24,0.48-0.37,0.81-0.3c0.53,0.12,0.72,0.52,0.83,1.01c0.14,0.67,0.58,0.98,1.19,0.87c0.56-0.09,0.89-0.54,0.83-1.18
						c-0.08-0.95-0.49-1.75-1.31-2.27c-0.35-0.22-0.61-0.44-0.74-0.86c-0.13-0.45-0.52-0.64-0.98-0.62c-0.44,0.01-0.79,0.2-0.9,0.64
						c-0.09,0.38-0.33,0.57-0.64,0.77c-1.11,0.69-1.5,1.74-1.35,3c0.14,1.16,0.82,1.89,1.89,2.28c0.46,0.17,0.92,0.32,1.38,0.48
						c0.56,0.2,0.67,0.61,0.47,1.12c-0.16,0.39-0.48,0.56-0.9,0.51c-0.52-0.06-0.74-0.39-0.84-0.88c-0.15-0.75-0.54-1.04-1.2-0.97
						C1069.88,596.37,1069.63,596.72,1069.65,597.7z"/>
					<path class="st1" d="M1051,625.65c-2.56,0-5.12,0-7.68,0c-1.8,0-2.65-0.86-2.65-2.66c0-1.84-0.03-3.68,0.01-5.51
						c0.09-4.02,1.93-7.01,5.4-9c0.56-0.32,0.55-0.47,0.12-0.91c-2-2.02-2.56-4.45-1.7-7.13c0.81-2.55,2.65-4.03,5.26-4.55
						c3.02-0.59,6.07,0.89,7.44,3.59c1.39,2.75,0.81,6.15-1.44,8.2c-0.39,0.35-0.35,0.46,0.09,0.7c3.7,2.07,5.51,5.27,5.57,9.49
						c0.02,1.7,0.01,3.4,0,5.1c-0.01,1.77-0.91,2.68-2.66,2.68C1056.17,625.66,1053.58,625.65,1051,625.65z"/>
				</g>
			</g>
		</g>
		<g>
			<path class="st6" d="M1181.37,534.3L1181.37,534.3c-22.32,5.13-44.57-8.8-49.7-31.12l0,0c-5.13-22.32,8.8-44.57,31.12-49.7l0,0
				c22.32-5.13,44.57,8.8,49.7,31.12v0C1217.62,506.92,1203.68,529.17,1181.37,534.3z"/>
			<g>
				<g>
					<path class="st1" d="M1189.24,505.88c0.4-0.69,0.84-1.37,1.2-2.08c0.62-1.2,1.07-2.48,1.46-3.77c0.16-0.54,0.04-0.7-0.52-0.81
						c-4.17-0.85-6.8-3.44-7.72-7.52c-0.88-3.9,0.28-7.28,3.48-9.82c0.45-0.35,0.46-0.55,0.08-0.95c-2.6-2.8-5.72-4.74-9.38-5.81
						c-0.6-0.18-0.83-0.07-0.99,0.58c-1.01,4.02-3.65,6.44-7.64,7.25c-3.84,0.78-7.08-0.43-9.57-3.49
						c-0.33-0.41-0.52-0.38-0.87-0.07c-2.9,2.6-4.91,5.75-6.06,9.47c-0.21,0.67,0.14,0.73,0.62,0.84c6.64,1.54,9.75,9.28,6.02,14.97
						c-0.64,0.98-1.45,1.81-2.41,2.5c-0.29,0.21-0.53,0.39-0.2,0.77c1.43,1.64,3.05,3.07,4.94,4.16c0.03,0.02,0.09,0,0.24,0
						c-0.11-0.46-0.23-0.9-0.31-1.35c-0.15-0.83,0.19-1.38,0.93-1.53c0.7-0.14,1.23,0.2,1.43,0.99c0.33,1.33,0.64,2.67,0.93,4.02
						c0.16,0.76-0.19,1.31-0.98,1.51c-1.31,0.32-2.63,0.62-3.95,0.91c-0.82,0.18-1.42-0.18-1.58-0.87c-0.16-0.67,0.2-1.21,0.97-1.46
						c0.22-0.07,0.44-0.13,0.66-0.19c0.03-0.28-0.2-0.32-0.34-0.41c-1.86-1.27-3.54-2.73-4.94-4.5c-0.36-0.45-0.7-0.54-1.26-0.41
						c-4.95,1.13-9.55-1.18-11.39-5.9c-2.03-5.2,0.15-10.59,5.34-12.71c0.67-0.27,1.36-0.47,2.07-0.6c0.41-0.08,0.64-0.26,0.75-0.69
						c1.22-4.67,3.68-8.57,7.41-11.65c0.45-0.37,0.37-0.74,0.25-1.18c-0.99-3.64-0.14-6.86,2.43-9.55
						c4.94-5.18,13.67-3.33,16.19,3.36c0.25,0.66,0.48,1.32,0.52,2.02c0.02,0.44,0.22,0.6,0.61,0.69c2.09,0.51,4.07,1.3,5.95,2.38
						c2.16,1.24,4.07,2.8,5.68,4.69c0.43,0.5,0.81,0.63,1.43,0.45c4.7-1.34,9.74,1.23,11.63,5.84c1.98,4.84-0.56,10.87-5.46,12.75
						c-0.61,0.23-1.23,0.44-1.87,0.55c-0.33,0.06-0.54,0.21-0.62,0.56c-0.55,2.43-1.47,4.7-2.77,6.83
						c-0.02,0.03-0.01,0.09-0.01,0.19c0.34-0.04,0.68-0.1,1.01-0.11c0.66-0.02,1.15,0.37,1.25,0.97c0.1,0.61-0.22,1.18-0.85,1.34
						c-1.4,0.35-2.81,0.68-4.22,0.96c-0.71,0.14-1.27-0.21-1.47-0.97c-0.36-1.35-0.67-2.71-0.94-4.08
						c-0.15-0.78,0.27-1.29,0.99-1.42c0.66-0.11,1.16,0.24,1.36,0.99c0.12,0.44,0.21,0.89,0.31,1.33
						C1189.11,505.86,1189.18,505.87,1189.24,505.88z M1153.56,496.44c-0.26-0.89-0.88-1.6-1.88-1.94c-0.34-0.12-0.61-0.24-0.8-0.6
						c-0.22-0.41-0.62-0.54-1.08-0.44c-0.47,0.1-0.76,0.41-0.78,0.87c-0.01,0.4-0.23,0.62-0.47,0.88c-0.9,0.94-1.05,2.05-0.6,3.24
						c0.41,1.08,1.23,1.66,2.39,1.76c0.49,0.05,0.98,0.09,1.45,0.17c0.58,0.11,0.83,0.55,0.65,1.08c-0.12,0.37-0.39,0.57-0.77,0.6
						c-0.52,0.05-0.8-0.25-1-0.7c-0.3-0.65-0.81-0.92-1.31-0.73c-0.58,0.22-0.82,0.75-0.61,1.44c0.29,0.96,0.96,1.58,1.87,1.94
						c0.33,0.13,0.62,0.24,0.8,0.6c0.21,0.42,0.65,0.55,1.08,0.43c0.42-0.12,0.77-0.4,0.78-0.88c0-0.37,0.17-0.59,0.42-0.83
						c0.91-0.89,1.1-1.98,0.71-3.15c-0.4-1.16-1.26-1.8-2.5-1.91c-0.49-0.04-0.98-0.07-1.45-0.17c-0.52-0.11-0.73-0.49-0.6-1
						c0.14-0.52,0.49-0.78,1.05-0.67c0.43,0.09,0.63,0.42,0.8,0.8c0.24,0.56,0.77,0.78,1.32,0.57
						C1153.56,497.58,1153.72,497.14,1153.56,496.44z M1170.74,475.07c-0.39-1.73-1.25-2.49-2.61-2.65
						c-0.46-0.05-0.93-0.09-1.39-0.15c-0.44-0.06-0.74-0.28-0.76-0.76c-0.02-0.44,0.15-0.78,0.6-0.91c0.46-0.14,0.83,0,1.09,0.4
						c0.08,0.11,0.1,0.26,0.17,0.38c0.27,0.52,0.69,0.76,1.26,0.61c0.55-0.15,0.8-0.65,0.65-1.28c-0.24-1.07-0.92-1.75-1.94-2.1
						c-0.32-0.11-0.58-0.23-0.74-0.57c-0.2-0.41-0.57-0.52-1-0.43c-0.45,0.09-0.82,0.3-0.85,0.79c-0.03,0.44-0.26,0.71-0.54,1
						c-0.82,0.88-1,1.94-0.62,3.05c0.39,1.13,1.23,1.78,2.44,1.9c0.46,0.05,0.93,0.08,1.39,0.14c0.41,0.05,0.71,0.26,0.76,0.69
						c0.05,0.44-0.13,0.78-0.53,0.97c-0.38,0.18-0.74,0.06-1.02-0.23c-0.14-0.15-0.23-0.35-0.32-0.53
						c-0.26-0.53-0.66-0.77-1.25-0.59c-0.55,0.17-0.83,0.67-0.68,1.27c0.25,1,0.92,1.65,1.84,2.05c0.37,0.16,0.68,0.31,0.91,0.68
						c0.25,0.4,0.67,0.47,1.11,0.35c0.43-0.12,0.7-0.4,0.7-0.84c0-0.37,0.18-0.59,0.42-0.83
						C1170.67,476.69,1170.88,475.74,1170.74,475.07z M1190.85,492.6c0.21,0.75,0.85,1.4,1.82,1.74c0.31,0.11,0.6,0.2,0.75,0.55
						c0.2,0.45,0.61,0.58,1.05,0.5c0.44-0.08,0.79-0.36,0.82-0.84c0.03-0.41,0.23-0.67,0.5-0.95c0.82-0.87,1.05-1.93,0.66-3.04
						c-0.4-1.18-1.25-1.87-2.55-1.95c-0.46-0.03-0.93-0.07-1.39-0.16c-0.6-0.12-0.85-0.7-0.56-1.24c0.15-0.29,0.39-0.47,0.72-0.47
						c0.55,0,0.82,0.34,1.03,0.8c0.29,0.62,0.78,0.82,1.35,0.58c0.52-0.22,0.75-0.72,0.55-1.34c-0.3-0.91-0.87-1.59-1.79-1.92
						c-0.39-0.14-0.69-0.29-0.91-0.67c-0.23-0.4-0.64-0.5-1.1-0.39c-0.43,0.11-0.72,0.38-0.73,0.82c-0.01,0.39-0.19,0.63-0.45,0.89
						c-0.93,0.92-1.07,2.03-0.64,3.22c0.39,1.1,1.22,1.66,2.36,1.8c0.48,0.06,0.97,0.1,1.46,0.16c0.59,0.07,0.79,0.45,0.71,0.99
						c-0.06,0.42-0.34,0.65-0.76,0.7c-0.52,0.06-0.81-0.21-1.02-0.67c-0.31-0.7-0.76-0.89-1.39-0.68
						C1190.78,491.25,1190.61,491.65,1190.85,492.6z"/>
					<path class="st1" d="M1178.94,524.02c-2.49,0.57-4.99,1.15-7.48,1.72c-1.76,0.4-2.77-0.24-3.18-1.99
						c-0.41-1.79-0.86-3.58-1.23-5.38c-0.81-3.93,0.31-7.26,3.24-9.98c0.48-0.44,0.43-0.58-0.09-0.91c-2.4-1.52-3.49-3.76-3.25-6.57
						c0.22-2.67,1.68-4.52,4.11-5.61c2.81-1.26,6.12-0.5,8.06,1.83c1.97,2.37,2.17,5.81,0.43,8.31c-0.3,0.43-0.24,0.52,0.24,0.66
						c4.07,1.19,6.55,3.91,7.55,8c0.4,1.65,0.77,3.31,1.14,4.97c0.39,1.72-0.28,2.81-1.99,3.21
						C1183.97,522.87,1181.46,523.44,1178.94,524.02z"/>
				</g>
			</g>
		</g>
		<g>
			<path class="st6" d="M1310.48,701.77L1310.48,701.77c-22.9,0-41.46-18.56-41.46-41.46v0c0-22.9,18.56-41.46,41.46-41.46h0
				c22.9,0,41.46,18.56,41.46,41.46v0C1351.94,683.21,1333.38,701.77,1310.48,701.77z"/>
			<g>
				<g>
					<path class="st1" d="M1324.52,675.84c0.55-0.59,1.12-1.15,1.64-1.76c0.87-1.04,1.59-2.18,2.26-3.35
						c0.28-0.49,0.19-0.67-0.33-0.91c-3.88-1.76-5.86-4.88-5.84-9.06c0.02-4,1.9-7.04,5.59-8.79c0.51-0.25,0.57-0.43,0.29-0.91
						c-1.9-3.31-4.51-5.9-7.84-7.76c-0.55-0.31-0.79-0.25-1.1,0.35c-1.88,3.69-5,5.46-9.07,5.36c-3.91-0.1-6.8-2.01-8.54-5.54
						c-0.23-0.47-0.42-0.49-0.83-0.26c-3.41,1.88-6.07,4.51-8.03,7.87c-0.35,0.6-0.03,0.74,0.41,0.95
						c6.13,2.99,7.43,11.22,2.52,15.94c-0.85,0.81-1.82,1.44-2.91,1.89c-0.33,0.14-0.6,0.26-0.37,0.7c1.03,1.92,2.28,3.68,3.89,5.17
						c0.03,0.03,0.08,0.02,0.23,0.05c0-0.47-0.02-0.93,0-1.38c0.04-0.84,0.5-1.3,1.25-1.28c0.71,0.02,1.15,0.47,1.17,1.29
						c0.02,1.37,0.02,2.75,0.01,4.12c-0.01,0.78-0.48,1.24-1.29,1.25c-1.35,0.02-2.7,0.02-4.05,0c-0.84-0.01-1.34-0.49-1.34-1.2
						c0-0.69,0.47-1.13,1.27-1.21c0.23-0.02,0.46-0.03,0.68-0.04c0.09-0.27-0.12-0.35-0.24-0.48c-1.53-1.65-2.84-3.46-3.81-5.49
						c-0.25-0.52-0.57-0.68-1.13-0.68c-5.08-0.01-9.04-3.29-9.77-8.3c-0.81-5.53,2.52-10.29,8.05-11.19
						c0.72-0.12,1.44-0.16,2.16-0.12c0.42,0.02,0.68-0.11,0.89-0.5c2.24-4.28,5.51-7.52,9.83-9.69c0.52-0.26,0.52-0.63,0.51-1.09
						c-0.15-3.77,1.4-6.71,4.5-8.76c5.98-3.94,14.07-0.19,15.02,6.9c0.09,0.7,0.18,1.39,0.06,2.08c-0.08,0.44,0.08,0.63,0.44,0.81
						c1.93,0.96,3.68,2.18,5.26,3.65c1.83,1.69,3.34,3.64,4.49,5.84c0.31,0.58,0.65,0.79,1.29,0.76c4.88-0.25,9.22,3.38,10.02,8.3
						c0.85,5.16-2.98,10.47-8.17,11.2c-0.65,0.09-1.29,0.15-1.95,0.12c-0.34-0.02-0.57,0.08-0.73,0.41
						c-1.08,2.24-2.49,4.26-4.23,6.03c-0.03,0.03-0.02,0.08-0.05,0.18c0.34,0.04,0.68,0.05,1.01,0.12c0.65,0.13,1.04,0.62,1,1.23
						c-0.04,0.62-0.48,1.1-1.13,1.11c-1.44,0.03-2.89,0.03-4.33-0.01c-0.73-0.02-1.19-0.49-1.22-1.28c-0.05-1.4-0.05-2.79,0-4.19
						c0.03-0.79,0.55-1.2,1.29-1.16c0.67,0.04,1.07,0.49,1.1,1.27c0.02,0.45,0,0.91,0,1.37
						C1324.4,675.79,1324.46,675.81,1324.52,675.84z M1291.86,658.64c-0.06-0.92-0.5-1.76-1.39-2.31c-0.31-0.19-0.54-0.38-0.65-0.76
						c-0.12-0.45-0.48-0.66-0.96-0.67c-0.48,0-0.83,0.23-0.95,0.67c-0.1,0.39-0.36,0.56-0.66,0.75c-1.09,0.72-1.49,1.77-1.31,3.02
						c0.16,1.14,0.83,1.89,1.93,2.25c0.46,0.15,0.93,0.3,1.38,0.5c0.54,0.23,0.68,0.72,0.39,1.2c-0.2,0.34-0.51,0.47-0.89,0.41
						c-0.52-0.07-0.72-0.42-0.82-0.9c-0.14-0.7-0.59-1.08-1.12-1.01c-0.61,0.08-0.97,0.54-0.92,1.27c0.07,1,0.58,1.75,1.39,2.31
						c0.29,0.2,0.55,0.37,0.64,0.76c0.11,0.46,0.51,0.68,0.96,0.66c0.44-0.02,0.84-0.22,0.95-0.69c0.09-0.36,0.3-0.54,0.59-0.71
						c1.09-0.66,1.52-1.69,1.39-2.91c-0.13-1.22-0.83-2.04-2.01-2.42c-0.46-0.15-0.94-0.28-1.38-0.49c-0.48-0.22-0.6-0.64-0.36-1.11
						c0.25-0.48,0.65-0.65,1.17-0.42c0.4,0.18,0.52,0.55,0.6,0.96c0.11,0.6,0.57,0.93,1.16,0.85
						C1291.6,659.75,1291.86,659.36,1291.86,658.64z M1313.39,641.66c0-1.77-0.66-2.7-1.95-3.16c-0.44-0.16-0.88-0.29-1.32-0.45
						c-0.42-0.15-0.66-0.44-0.57-0.91c0.08-0.43,0.32-0.72,0.79-0.76c0.48-0.04,0.81,0.18,0.97,0.63c0.05,0.13,0.04,0.28,0.08,0.41
						c0.14,0.57,0.5,0.9,1.1,0.87c0.57-0.02,0.92-0.46,0.92-1.1c0-1.1-0.51-1.91-1.42-2.48c-0.29-0.18-0.51-0.36-0.59-0.72
						c-0.1-0.44-0.44-0.63-0.88-0.64c-0.46-0.02-0.86,0.11-1,0.58c-0.12,0.42-0.42,0.63-0.75,0.86c-1,0.68-1.41,1.67-1.29,2.83
						c0.13,1.19,0.8,2.01,1.95,2.4c0.44,0.15,0.88,0.29,1.32,0.45c0.39,0.14,0.63,0.41,0.58,0.84c-0.05,0.44-0.3,0.74-0.73,0.83
						c-0.41,0.09-0.73-0.11-0.94-0.45c-0.1-0.17-0.15-0.39-0.19-0.59c-0.13-0.58-0.47-0.9-1.08-0.86c-0.57,0.04-0.96,0.47-0.95,1.09
						c0.02,1.03,0.53,1.82,1.34,2.41c0.33,0.24,0.6,0.46,0.74,0.87c0.15,0.44,0.54,0.61,1.01,0.59c0.44-0.02,0.77-0.23,0.87-0.67
						c0.08-0.36,0.31-0.54,0.6-0.71C1312.96,643.23,1313.38,642.34,1313.39,641.66z M1329.07,663.25c0.03,0.78,0.51,1.56,1.38,2.1
						c0.28,0.18,0.54,0.33,0.61,0.7c0.09,0.48,0.47,0.7,0.91,0.72c0.44,0.02,0.85-0.17,0.99-0.63c0.12-0.39,0.37-0.6,0.69-0.81
						c1-0.67,1.45-1.64,1.33-2.82c-0.13-1.24-0.8-2.1-2.05-2.47c-0.45-0.13-0.89-0.27-1.31-0.47c-0.56-0.26-0.67-0.87-0.27-1.33
						c0.21-0.24,0.48-0.37,0.81-0.3c0.53,0.12,0.72,0.52,0.83,1.01c0.14,0.67,0.58,0.98,1.19,0.87c0.56-0.09,0.89-0.54,0.83-1.18
						c-0.08-0.95-0.49-1.75-1.31-2.27c-0.35-0.22-0.61-0.44-0.74-0.86c-0.13-0.45-0.52-0.64-0.98-0.62c-0.44,0.01-0.79,0.2-0.9,0.64
						c-0.09,0.38-0.33,0.57-0.64,0.77c-1.11,0.69-1.5,1.74-1.35,3c0.14,1.16,0.82,1.89,1.89,2.28c0.46,0.17,0.92,0.32,1.38,0.48
						c0.56,0.2,0.67,0.61,0.47,1.12c-0.16,0.39-0.48,0.56-0.9,0.51c-0.52-0.06-0.74-0.39-0.84-0.88c-0.15-0.75-0.54-1.04-1.2-0.97
						C1329.3,661.92,1329.04,662.27,1329.07,663.25z"/>
					<path class="st1" d="M1310.42,691.21c-2.56,0-5.12,0-7.68,0c-1.8,0-2.65-0.86-2.65-2.66c0-1.84-0.03-3.68,0.01-5.51
						c0.09-4.02,1.93-7.01,5.39-9c0.56-0.32,0.55-0.47,0.12-0.91c-2-2.02-2.56-4.45-1.7-7.13c0.81-2.55,2.65-4.03,5.26-4.55
						c3.02-0.59,6.07,0.89,7.44,3.59c1.39,2.75,0.81,6.15-1.44,8.2c-0.39,0.35-0.35,0.46,0.09,0.7c3.7,2.07,5.51,5.27,5.57,9.49
						c0.02,1.7,0.01,3.4,0,5.1c-0.01,1.77-0.91,2.68-2.66,2.68C1315.58,691.21,1313,691.21,1310.42,691.21z"/>
				</g>
			</g>
		</g>
		<g>
			<path class="st6" d="M1239.88,678.8L1239.88,678.8c-22.9,0-41.46-18.56-41.46-41.46v0c0-22.9,18.56-41.46,41.46-41.46h0
				c22.9,0,41.46,18.56,41.46,41.46v0C1281.34,660.24,1262.78,678.8,1239.88,678.8z"/>
			<g>
				<path class="st1" d="M1247.14,660.96c-5.02,0-10.03-0.01-15.05,0.01c-0.74,0-1.34-0.23-1.88-0.73
					c-4.72-4.39-9.46-8.78-14.19-13.16c-0.65-0.6-0.94-1.31-0.69-2.18c0.23-0.8,0.78-1.29,1.6-1.46c0.74-0.15,1.36,0.12,1.9,0.62
					c2.41,2.24,4.83,4.48,7.24,6.72c2.05,1.9,4.11,3.8,6.14,5.71c0.3,0.28,0.61,0.39,1.01,0.38c9.67-0.01,19.34-0.01,29.01-0.01
					c1.14,0,1.91,0.5,2.2,1.41c0.42,1.31-0.51,2.65-1.89,2.68c-1.13,0.02-2.25,0.01-3.38,0.01
					C1255.15,660.96,1251.14,660.96,1247.14,660.96z"/>
				<path class="st1" d="M1239.82,645.52c-0.69,0.36-1.35,0.68-2,1.03c-0.24,0.13-0.37-0.04-0.52-0.15
					c-1.74-1.29-3.47-2.6-5.22-3.87c-1.44-1.05-3.35-0.66-4.21,0.83c-0.71,1.23-0.45,2.77,0.71,3.65c2.36,1.79,4.74,3.54,7.13,5.3
					c0.6,0.44,1.29,0.58,2.02,0.5c0.45-0.05,0.85-0.25,1.25-0.45c1.86-0.94,3.72-1.88,5.57-2.84c0.27-0.14,0.47-0.2,0.7,0.04
					c0.21,0.22,0.48,0.24,0.77,0.24c4.97-0.01,9.94-0.01,14.9,0c1.24,0,2.1,0.65,2.33,1.73c0.28,1.31-0.66,2.56-1.99,2.66
					c-0.16,0.01-0.33,0.01-0.5,0.01c-8.08,0-16.16-0.01-24.24,0.01c-1.5,0-2.76-0.48-3.87-1.49c-2.76-2.54-5.55-5.06-8.33-7.59
					c-1.01-0.91-0.89-1.98,0.3-2.65c1.31-0.74,2.62-1.48,3.93-2.22c0.97-0.54,1.99-0.8,3.1-0.55c0.44,0.1,0.85,0.28,1.21,0.55
					c2.25,1.69,4.49,3.38,6.74,5.07C1239.67,645.37,1239.73,645.43,1239.82,645.52z"/>
				<path class="st1" d="M1240.02,624.85c0.02-6.17,5.03-11.14,11.22-11.13c6.19,0.01,11.18,5.03,11.14,11.19
					c-0.04,6.16-5.03,11.13-11.18,11.12C1245.03,636.02,1240,630.99,1240.02,624.85z M1251.21,615.55
					c-5.13-0.01-9.33,4.16-9.34,9.28c-0.01,5.17,4.14,9.33,9.32,9.34c5.14,0.01,9.33-4.14,9.35-9.27
					C1260.56,619.77,1256.37,615.56,1251.21,615.55z"/>
				<path class="st1" d="M1237.35,651.23c-0.35,0.02-0.61-0.12-0.85-0.3c-2.27-1.69-4.54-3.37-6.81-5.07
					c-0.67-0.5-0.81-1.22-0.38-1.82c0.44-0.61,1.2-0.7,1.88-0.2c1.74,1.29,3.49,2.57,5.22,3.88c0.72,0.55,1.4,0.62,2.2,0.2
					c2.66-1.38,5.33-2.72,8-4.08c0.81-0.41,1.58-0.18,1.89,0.54c0.28,0.65,0.02,1.31-0.7,1.68c-1.72,0.89-3.44,1.76-5.17,2.64
					c-1.5,0.76-3.01,1.53-4.51,2.29C1237.87,651.14,1237.62,651.27,1237.35,651.23z"/>
				<path class="st1" d="M1221.42,633.65c2.47,0.03,4.46,2.32,4.07,4.71c-0.32,2-2.19,3.2-4.25,2.73c-2.08-0.47-3.52-2.55-3.22-4.65
					C1218.26,634.82,1219.7,633.63,1221.42,633.65z"/>
				<path class="st1" d="M1247.34,648.1c0.37-0.19,0.75-0.38,1.12-0.57c1.34-0.7,1.86-1.71,1.67-3.21
					c-0.02-0.12-0.06-0.24,0.06-0.37c0.91-1.02,2.02-1.05,2.96-0.07c1.23,1.29,2.46,2.59,3.69,3.88c0.11,0.11,0.27,0.2,0.28,0.44
					c-1.2,0-2.38,0-3.57,0c-0.17,0-0.26-0.14-0.36-0.25c-0.42-0.44-0.85-0.88-1.26-1.33c-0.18-0.2-0.31-0.23-0.52-0.05
					c-0.54,0.44-1.11,0.83-1.64,1.28c-0.33,0.27-0.66,0.39-1.09,0.36c-0.44-0.03-0.88-0.01-1.31-0.01
					C1247.36,648.18,1247.35,648.14,1247.34,648.1z"/>
				<path class="st1" d="M1236.55,641.03c1.48-0.87,2.88-1.71,4.31-2.5c0.6-0.33,1.3-0.09,1.64,0.47c0.35,0.58,0.21,1.32-0.39,1.7
					c-1.04,0.65-2.1,1.25-3.15,1.87c-0.15,0.09-0.26,0.09-0.4-0.02C1237.91,642.05,1237.26,641.56,1236.55,641.03z"/>
				<path class="st1" d="M1225.87,627.12c0-1.11,0-2.21,0-3.32c0-0.59,0.3-0.94,0.78-0.95c0.49-0.01,0.8,0.34,0.8,0.92
					c0,2.26,0,4.52,0,6.78c0,0.6-0.29,0.93-0.78,0.94c-0.52,0.01-0.8-0.33-0.8-0.97C1225.87,629.39,1225.87,628.26,1225.87,627.12z"
					/>
				<path class="st1" d="M1230.72,631.09c0-1.12,0-2.24,0-3.36c0-0.62,0.31-0.99,0.8-0.97c0.47,0.01,0.78,0.38,0.78,0.96
					c0.01,2.24,0.01,4.49,0,6.73c0,0.61-0.33,0.98-0.82,0.97c-0.48-0.01-0.77-0.36-0.77-0.96
					C1230.72,633.33,1230.72,632.21,1230.72,631.09z"/>
				<path class="st1" d="M1235.56,627.16c0-1.12-0.01-2.25,0-3.37c0.01-0.55,0.27-0.88,0.7-0.92c0.5-0.06,0.87,0.31,0.88,0.9
					c0.01,0.96,0.01,1.92,0.01,2.88c0,1.32,0.01,2.64-0.01,3.97c-0.01,0.62-0.39,0.97-0.93,0.89c-0.42-0.06-0.65-0.37-0.65-0.91
					C1235.56,629.44,1235.56,628.3,1235.56,627.16z"/>
				<path class="st1" d="M1251.19,632.59c-4.3-0.01-7.74-3.47-7.72-7.78c0.01-4.22,3.51-7.68,7.75-7.67
					c4.27,0.01,7.74,3.49,7.73,7.75C1258.94,629.14,1255.46,632.59,1251.19,632.59z M1253.12,627.07c0.02,0.3-0.12,0.55-0.37,0.74
					c-0.92,0.69-3.14,0.66-3.54-0.89c-0.12-0.46-0.56-0.64-0.98-0.51c-0.44,0.14-0.65,0.54-0.52,1.02c0.33,1.19,1.15,1.9,2.3,2.25
					c0.29,0.09,0.4,0.18,0.4,0.5c0,0.55,0.32,0.89,0.78,0.89c0.45,0,0.81-0.35,0.8-0.88c0-0.32,0.1-0.44,0.4-0.48
					c0.19-0.03,0.38-0.11,0.56-0.18c0.99-0.43,1.69-1.1,1.76-2.24c0.07-1.15-0.43-2.01-1.42-2.59c-0.47-0.28-1-0.44-1.53-0.55
					c-0.5-0.11-1.01-0.17-1.48-0.38c-0.42-0.19-0.73-0.47-0.74-0.96c-0.01-0.49,0.26-0.84,0.69-1.06c1.01-0.54,2.31-0.15,2.75,0.86
					c0.2,0.47,0.66,0.61,1.07,0.42c0.43-0.2,0.57-0.65,0.35-1.14c-0.38-0.84-1-1.44-1.87-1.73c-0.39-0.13-0.55-0.27-0.54-0.7
					c0.01-0.44-0.35-0.73-0.77-0.74c-0.42-0.01-0.82,0.29-0.79,0.71c0.04,0.5-0.22,0.62-0.6,0.77c-1.19,0.45-1.88,1.44-1.88,2.59
					c0,1.16,0.66,2.05,1.88,2.53c0.43,0.17,0.88,0.27,1.34,0.35c0.47,0.08,0.94,0.2,1.36,0.44
					C1252.89,626.3,1253.11,626.6,1253.12,627.07z"/>
			</g>
		</g>
		<g>
			<path class="st6" d="M1266.73,613.92L1266.73,613.92c-20.48-10.24-28.79-35.14-18.56-55.62v0
				c10.24-20.48,35.14-28.79,55.62-18.56l0,0c20.48,10.24,28.79,35.14,18.56,55.62l0,0
				C1312.12,615.85,1287.22,624.15,1266.73,613.92z"/>
			<g>
				<path class="st1" d="M1281.67,582.09c2.37,1.18,4.75,2.36,7.11,3.56c2.08,1.05,2.69,3.31,1.44,5.18
					c-0.79,1.17-2.28,1.72-3.75,1.33c-0.37-0.1-0.47-0.04-0.57,0.33c-0.6,2.37-0.84,4.77-0.72,7.21c0.02,0.35,0.13,0.45,0.47,0.48
					c2.58,0.2,5.15,0.15,7.72-0.16c0.4-0.05,0.79-0.07,1.14,0.17c0.44,0.3,0.66,0.83,0.55,1.34c-0.12,0.54-0.54,0.92-1.16,1
					c-1.46,0.19-2.92,0.3-4.39,0.32c-7.84,0.11-15.1-1.91-21.76-6.03c-5.69-3.53-10.19-8.24-13.53-14.05
					c-0.43-0.75-0.28-1.48,0.37-1.88c0.66-0.4,1.41-0.16,1.85,0.61c1.29,2.24,2.79,4.33,4.49,6.28c0.28,0.32,0.44,0.32,0.77,0.08
					c6-4.36,10.21-10.04,12.54-17.09c1.67-5.03,2.1-10.17,1.37-15.41c-0.02-0.17-0.05-0.34-0.07-0.51
					c-0.07-0.78,0.37-1.39,1.08-1.49c0.72-0.1,1.33,0.36,1.45,1.13c0.31,1.94,0.46,3.9,0.44,5.87c-0.02,3.04-0.41,6.02-1.17,8.96
					c-0.07,0.28-0.02,0.47,0.14,0.7c1.51,2.16,3.5,3.42,6.19,3.56c2.18,0.11,4.31,0.49,6.22,1.67c0.49,0.31,0.98,0.63,1.42,1
					c0.57,0.48,0.66,1.24,0.24,1.79c-0.41,0.53-1.19,0.71-1.74,0.26c-1.95-1.62-4.26-2.05-6.69-2.21c-2.58-0.17-4.78-1.17-6.53-3.12
					c-0.14-0.16-0.27-0.35-0.41,0.01c-0.66,1.69-1.37,3.35-2.28,4.93c-0.19,0.34,0.11,0.37,0.29,0.46c1.6,0.81,3.21,1.61,4.81,2.41
					C1279.89,581.2,1280.78,581.64,1281.67,582.09z M1263.08,590c1.49,1.41,3.03,2.66,4.68,3.8c4.34,2.99,9.11,4.92,14.28,5.89
					c0.43,0.08,0.58,0.07,0.55-0.45c-0.12-2.66,0.2-5.28,0.94-7.84c0.14-0.48,0-0.64-0.4-0.84c-4.09-2.03-8.16-4.07-12.24-6.11
					c-1.11-0.56-1.12-0.56-1.96,0.36C1267.19,586.73,1265.25,588.44,1263.08,590z M1279.32,585.79c2.44,1.22,4.89,2.44,7.33,3.66
					c0.15,0.08,0.3,0.16,0.46,0.21c0.43,0.14,0.89-0.05,1.07-0.46c0.19-0.42,0.12-0.81-0.26-1.09c-0.18-0.13-0.38-0.23-0.58-0.33
					c-4.57-2.28-9.13-4.57-13.7-6.84c-0.39-0.2-0.8-0.6-1.19-0.5c-0.37,0.09-0.49,0.66-0.77,0.97c-0.3,0.32-0.2,0.47,0.17,0.65
					C1274.34,583.3,1276.83,584.55,1279.32,585.79z"/>
				<path class="st1" d="M1295.8,565.25c2.63-5.32,9.12-7.5,14.47-4.87c5.34,2.63,7.54,9.11,4.91,14.44
					c-2.65,5.37-9.12,7.57-14.48,4.92C1295.34,577.09,1293.15,570.6,1295.8,565.25z M1298.1,566.38c-2.03,4.07-0.36,9.03,3.71,11.06
					c4.08,2.03,9.01,0.37,11.05-3.72c2.02-4.06,0.37-8.98-3.69-11.02C1305.1,560.66,1300.13,562.31,1298.1,566.38z"/>
				<path class="st1" d="M1299.42,585.04c-0.33,0.66-0.65,1.32-0.99,1.97c-0.36,0.69-1.02,0.93-1.67,0.64
					c-0.66-0.3-0.97-1.02-0.63-1.72c0.66-1.39,1.35-2.76,2.06-4.12c0.36-0.69,1.1-0.89,1.75-0.54c0.63,0.33,0.84,1.02,0.51,1.71
					C1300.11,583.67,1299.76,584.36,1299.42,585.04z"/>
				<path class="st1" d="M1302.84,584.1c0.22-0.44,0.43-0.89,0.67-1.33c0.34-0.64,1.02-0.88,1.65-0.6c0.65,0.29,0.97,0.99,0.66,1.67
					c-0.44,0.96-0.91,1.91-1.42,2.84c-0.35,0.65-1.11,0.85-1.72,0.52c-0.62-0.33-0.84-1.04-0.52-1.72
					C1302.37,585.01,1302.61,584.56,1302.84,584.1z"/>
				<path class="st1" d="M1293.55,579.5c0.23-0.46,0.45-0.92,0.69-1.37c0.35-0.64,1.02-0.87,1.65-0.59
					c0.63,0.29,0.95,0.96,0.66,1.62c-0.44,1-0.93,1.98-1.46,2.93c-0.35,0.63-1.11,0.79-1.7,0.46c-0.6-0.33-0.82-1.02-0.52-1.68
					C1293.08,580.41,1293.32,579.96,1293.55,579.5z"/>
				<path class="st1" d="M1307.04,567.28c-0.57-0.3-1.05-0.46-1.58-0.41c-0.58,0.05-0.78,0.42-0.49,0.93
					c0.29,0.52,0.77,0.86,1.21,1.24c0.61,0.52,1.22,1.04,1.71,1.68c0.97,1.28,1.13,2.65,0.43,3.76c-0.73,1.17-2.08,1.69-3.64,1.35
					c-0.42-0.09-0.66-0.07-0.88,0.35c-0.29,0.55-1,0.7-1.57,0.43c-0.61-0.29-0.93-0.95-0.63-1.58c0.21-0.46,0.07-0.67-0.24-0.98
					c-0.86-0.88-1.35-1.92-1.2-3.19c0.11-0.86,0.67-1.38,1.4-1.32c0.78,0.07,1.22,0.66,1.14,1.57c-0.03,0.35,0.08,0.64,0.29,0.9
					c0.63,0.78,1.45,1.23,2.45,1.35c0.25,0.03,0.54,0.05,0.69-0.22c0.15-0.27-0.03-0.5-0.16-0.71c-0.39-0.6-0.95-1.02-1.48-1.47
					c-0.47-0.4-0.93-0.8-1.32-1.28c-0.96-1.18-1.15-2.59-0.51-3.77c0.61-1.14,1.97-1.78,3.46-1.59c0.47,0.06,0.79,0.07,1.07-0.42
					c0.33-0.57,1.08-0.68,1.63-0.37c0.58,0.33,0.83,1.01,0.52,1.63c-0.18,0.36-0.06,0.52,0.19,0.76c1.01,0.96,1.59,2.09,1.26,3.53
					c-0.11,0.5-0.45,0.8-0.93,0.93c-0.48,0.13-0.91-0.01-1.26-0.38c-0.22-0.23-0.37-0.53-0.32-0.84c0.16-0.9-0.41-1.34-1.03-1.77
					C1307.15,567.33,1307.04,567.28,1307.04,567.28z"/>
			</g>
		</g>
		<g>
			<path class="st6" d="M1100.34,578.63L1100.34,578.63c-20.48-10.24-28.79-35.14-18.56-55.62v0
				c10.24-20.48,35.14-28.79,55.62-18.56l0,0c20.48,10.24,28.79,35.14,18.56,55.62v0C1145.72,580.56,1120.82,588.86,1100.34,578.63z
				"/>
			<g>
				<path class="st1" d="M1115.27,546.8c2.37,1.18,4.75,2.36,7.11,3.56c2.08,1.05,2.69,3.31,1.44,5.18
					c-0.79,1.17-2.28,1.72-3.75,1.33c-0.37-0.1-0.47-0.04-0.57,0.33c-0.6,2.37-0.84,4.77-0.72,7.21c0.02,0.35,0.13,0.45,0.47,0.48
					c2.58,0.2,5.15,0.15,7.72-0.16c0.4-0.05,0.79-0.07,1.14,0.17c0.44,0.3,0.66,0.83,0.55,1.34c-0.12,0.54-0.54,0.92-1.16,1
					c-1.46,0.19-2.92,0.3-4.39,0.32c-7.84,0.11-15.1-1.91-21.76-6.03c-5.69-3.53-10.19-8.24-13.53-14.05
					c-0.43-0.75-0.28-1.48,0.37-1.88s1.41-0.16,1.85,0.61c1.29,2.24,2.79,4.33,4.49,6.28c0.28,0.32,0.44,0.32,0.77,0.08
					c6-4.36,10.21-10.04,12.54-17.09c1.67-5.03,2.1-10.17,1.37-15.41c-0.02-0.17-0.05-0.34-0.07-0.51
					c-0.07-0.78,0.37-1.39,1.08-1.49c0.72-0.1,1.33,0.36,1.45,1.13c0.31,1.94,0.46,3.9,0.44,5.87c-0.02,3.04-0.41,6.02-1.17,8.96
					c-0.07,0.28-0.02,0.47,0.14,0.7c1.51,2.16,3.5,3.42,6.19,3.56c2.18,0.11,4.31,0.49,6.22,1.67c0.49,0.31,0.98,0.63,1.42,1
					c0.57,0.48,0.66,1.24,0.24,1.79c-0.41,0.53-1.19,0.71-1.74,0.26c-1.95-1.62-4.26-2.05-6.69-2.21c-2.58-0.17-4.78-1.17-6.53-3.12
					c-0.14-0.16-0.27-0.35-0.41,0.01c-0.66,1.69-1.37,3.35-2.28,4.93c-0.19,0.34,0.11,0.37,0.29,0.46c1.6,0.81,3.21,1.61,4.81,2.41
					C1113.5,545.91,1114.38,546.36,1115.27,546.8z M1096.68,554.71c1.49,1.41,3.03,2.66,4.68,3.8c4.34,2.99,9.11,4.92,14.28,5.89
					c0.43,0.08,0.58,0.07,0.55-0.45c-0.12-2.66,0.2-5.28,0.94-7.84c0.14-0.48,0-0.64-0.4-0.84c-4.09-2.03-8.16-4.07-12.24-6.11
					c-1.11-0.56-1.12-0.56-1.96,0.36C1100.79,551.44,1098.85,553.15,1096.68,554.71z M1112.92,550.5c2.44,1.22,4.89,2.44,7.33,3.66
					c0.15,0.08,0.3,0.16,0.46,0.21c0.43,0.14,0.89-0.05,1.07-0.46c0.19-0.42,0.12-0.81-0.26-1.09c-0.18-0.13-0.38-0.23-0.58-0.33
					c-4.57-2.28-9.13-4.57-13.7-6.84c-0.39-0.2-0.8-0.6-1.19-0.5c-0.37,0.09-0.49,0.66-0.77,0.97c-0.3,0.32-0.2,0.47,0.17,0.65
					C1107.94,548.01,1110.43,549.26,1112.92,550.5z"/>
				<path class="st1" d="M1129.4,529.96c2.63-5.32,9.12-7.5,14.47-4.87c5.34,2.63,7.54,9.11,4.91,14.44
					c-2.65,5.37-9.12,7.57-14.48,4.92C1128.94,541.8,1126.75,535.31,1129.4,529.96z M1131.7,531.09c-2.03,4.07-0.36,9.03,3.71,11.06
					c4.08,2.03,9.01,0.37,11.05-3.72c2.02-4.06,0.37-8.98-3.69-11.02C1138.71,525.37,1133.73,527.02,1131.7,531.09z"/>
				<path class="st1" d="M1133.02,549.75c-0.33,0.66-0.65,1.32-0.99,1.97c-0.36,0.69-1.02,0.93-1.67,0.64
					c-0.66-0.3-0.97-1.02-0.63-1.72c0.66-1.39,1.35-2.76,2.06-4.12c0.36-0.69,1.1-0.89,1.75-0.54c0.63,0.33,0.84,1.02,0.51,1.71
					C1133.72,548.39,1133.36,549.07,1133.02,549.75z"/>
				<path class="st1" d="M1136.44,548.81c0.22-0.44,0.43-0.89,0.67-1.33c0.34-0.64,1.02-0.88,1.65-0.6
					c0.65,0.29,0.97,0.99,0.66,1.67c-0.44,0.96-0.91,1.91-1.42,2.84c-0.35,0.65-1.11,0.85-1.72,0.52c-0.62-0.33-0.84-1.04-0.52-1.72
					C1135.97,549.72,1136.21,549.27,1136.44,548.81z"/>
				<path class="st1" d="M1127.15,544.21c0.23-0.46,0.45-0.92,0.69-1.37c0.35-0.64,1.02-0.87,1.65-0.59
					c0.63,0.29,0.95,0.96,0.66,1.62c-0.44,1-0.93,1.98-1.46,2.93c-0.35,0.63-1.11,0.79-1.7,0.46c-0.6-0.33-0.82-1.02-0.52-1.68
					C1126.68,545.12,1126.92,544.67,1127.15,544.21z"/>
				<path class="st1" d="M1140.64,531.99c-0.57-0.3-1.05-0.46-1.58-0.41c-0.58,0.05-0.78,0.42-0.49,0.93
					c0.29,0.52,0.77,0.86,1.21,1.24c0.61,0.52,1.22,1.04,1.71,1.68c0.97,1.28,1.13,2.65,0.43,3.76c-0.73,1.17-2.08,1.69-3.64,1.35
					c-0.42-0.09-0.66-0.07-0.88,0.35c-0.29,0.55-1,0.7-1.57,0.43c-0.61-0.29-0.93-0.95-0.63-1.58c0.21-0.46,0.07-0.67-0.24-0.98
					c-0.86-0.88-1.35-1.92-1.2-3.19c0.11-0.86,0.67-1.38,1.4-1.32c0.78,0.07,1.22,0.66,1.14,1.57c-0.03,0.35,0.08,0.64,0.29,0.9
					c0.63,0.78,1.45,1.23,2.45,1.35c0.25,0.03,0.54,0.05,0.69-0.22c0.15-0.27-0.03-0.5-0.16-0.71c-0.39-0.6-0.95-1.02-1.48-1.47
					c-0.47-0.4-0.93-0.8-1.32-1.28c-0.96-1.18-1.15-2.59-0.51-3.77c0.62-1.14,1.97-1.78,3.46-1.59c0.47,0.06,0.79,0.07,1.07-0.42
					c0.33-0.57,1.08-0.68,1.63-0.37c0.58,0.33,0.83,1.01,0.52,1.63c-0.18,0.36-0.06,0.52,0.19,0.76c1.01,0.96,1.59,2.09,1.26,3.53
					c-0.11,0.5-0.45,0.8-0.93,0.93c-0.48,0.13-0.91-0.01-1.26-0.38c-0.22-0.23-0.37-0.53-0.32-0.84c0.16-0.9-0.41-1.34-1.03-1.77
					C1140.75,532.04,1140.64,531.99,1140.64,531.99z"/>
			</g>
		</g>
		<g>
			<path class="st6" d="M972.01,669.4L972.01,669.4c-20.48-10.24-28.79-35.14-18.56-55.62l0,0c10.24-20.48,35.14-28.79,55.62-18.56
				l0,0c20.48,10.24,28.79,35.14,18.56,55.62v0C1017.4,671.32,992.49,679.63,972.01,669.4z"/>
			<g>
				<path class="st1" d="M986.95,637.57c2.37,1.18,4.75,2.36,7.11,3.56c2.08,1.05,2.69,3.31,1.44,5.18
					c-0.79,1.17-2.28,1.72-3.75,1.33c-0.37-0.1-0.47-0.04-0.57,0.33c-0.6,2.37-0.84,4.77-0.72,7.21c0.02,0.35,0.13,0.45,0.47,0.48
					c2.58,0.2,5.15,0.15,7.72-0.16c0.4-0.05,0.79-0.07,1.14,0.17c0.44,0.3,0.66,0.83,0.55,1.34c-0.12,0.54-0.54,0.92-1.16,1
					c-1.46,0.19-2.92,0.3-4.39,0.32c-7.84,0.11-15.1-1.91-21.76-6.03c-5.69-3.53-10.19-8.24-13.53-14.05
					c-0.43-0.75-0.28-1.48,0.37-1.88c0.66-0.4,1.41-0.16,1.85,0.61c1.29,2.24,2.79,4.33,4.49,6.28c0.28,0.32,0.44,0.32,0.77,0.08
					c6-4.36,10.21-10.04,12.54-17.09c1.67-5.03,2.1-10.17,1.37-15.41c-0.02-0.17-0.05-0.34-0.07-0.51
					c-0.07-0.78,0.37-1.39,1.08-1.49c0.72-0.1,1.33,0.36,1.45,1.13c0.31,1.94,0.46,3.9,0.44,5.87c-0.02,3.04-0.41,6.02-1.17,8.96
					c-0.07,0.28-0.02,0.47,0.14,0.7c1.51,2.16,3.5,3.42,6.19,3.56c2.18,0.11,4.31,0.49,6.22,1.67c0.49,0.31,0.98,0.63,1.42,1
					c0.57,0.48,0.66,1.24,0.24,1.79c-0.41,0.53-1.19,0.71-1.74,0.26c-1.95-1.62-4.26-2.05-6.69-2.21c-2.58-0.17-4.78-1.17-6.53-3.12
					c-0.14-0.16-0.27-0.35-0.41,0.01c-0.66,1.69-1.37,3.35-2.28,4.93c-0.19,0.34,0.11,0.37,0.29,0.46c1.6,0.81,3.21,1.61,4.81,2.41
					C985.17,636.68,986.06,637.12,986.95,637.57z M968.36,645.48c1.49,1.41,3.03,2.66,4.68,3.8c4.34,2.99,9.11,4.92,14.28,5.89
					c0.43,0.08,0.58,0.07,0.55-0.45c-0.12-2.66,0.2-5.28,0.94-7.84c0.14-0.48,0-0.64-0.4-0.84c-4.09-2.03-8.16-4.07-12.24-6.11
					c-1.11-0.56-1.12-0.56-1.96,0.36C972.47,642.21,970.53,643.92,968.36,645.48z M984.59,641.27c2.44,1.22,4.89,2.44,7.33,3.66
					c0.15,0.08,0.3,0.16,0.46,0.21c0.43,0.14,0.89-0.05,1.07-0.46c0.19-0.42,0.12-0.81-0.26-1.09c-0.18-0.13-0.38-0.23-0.58-0.33
					c-4.57-2.28-9.13-4.57-13.7-6.84c-0.39-0.2-0.8-0.6-1.19-0.5c-0.37,0.09-0.49,0.66-0.77,0.97c-0.3,0.32-0.2,0.47,0.17,0.65
					C979.62,638.77,982.1,640.03,984.59,641.27z"/>
				<path class="st1" d="M1001.08,620.72c2.63-5.32,9.12-7.5,14.47-4.87c5.34,2.63,7.54,9.11,4.91,14.44
					c-2.65,5.37-9.12,7.57-14.48,4.92C1000.62,632.57,998.43,626.08,1001.08,620.72z M1003.38,621.86
					c-2.03,4.07-0.36,9.03,3.71,11.06c4.08,2.03,9.01,0.37,11.05-3.72c2.02-4.06,0.37-8.98-3.69-11.02
					C1010.38,616.14,1005.4,617.79,1003.38,621.86z"/>
				<path class="st1" d="M1004.69,640.52c-0.33,0.66-0.65,1.32-0.99,1.97c-0.36,0.69-1.02,0.93-1.67,0.64
					c-0.66-0.3-0.97-1.02-0.63-1.72c0.66-1.39,1.35-2.76,2.06-4.12c0.36-0.69,1.1-0.89,1.75-0.54c0.63,0.33,0.84,1.02,0.51,1.71
					C1005.39,639.15,1005.04,639.83,1004.69,640.52z"/>
				<path class="st1" d="M1008.12,639.58c0.22-0.44,0.43-0.89,0.67-1.33c0.34-0.64,1.02-0.88,1.65-0.6
					c0.65,0.29,0.97,0.99,0.66,1.67c-0.44,0.96-0.91,1.91-1.42,2.84c-0.35,0.65-1.11,0.85-1.72,0.52c-0.62-0.33-0.84-1.04-0.52-1.72
					C1007.65,640.49,1007.89,640.04,1008.12,639.58z"/>
				<path class="st1" d="M998.83,634.98c0.23-0.46,0.45-0.92,0.69-1.37c0.35-0.64,1.02-0.87,1.65-0.59
					c0.63,0.29,0.95,0.96,0.66,1.62c-0.44,1-0.93,1.98-1.47,2.93c-0.35,0.63-1.11,0.79-1.7,0.46c-0.6-0.33-0.82-1.02-0.52-1.68
					C998.36,635.89,998.6,635.43,998.83,634.98z"/>
				<path class="st1" d="M1012.32,622.76c-0.57-0.3-1.05-0.46-1.58-0.41c-0.58,0.05-0.78,0.42-0.49,0.93
					c0.29,0.52,0.77,0.86,1.21,1.24c0.61,0.52,1.22,1.04,1.71,1.68c0.97,1.28,1.13,2.65,0.43,3.76c-0.73,1.17-2.08,1.69-3.64,1.35
					c-0.42-0.09-0.66-0.07-0.88,0.35c-0.29,0.55-1,0.7-1.57,0.43c-0.61-0.29-0.93-0.95-0.63-1.58c0.21-0.46,0.07-0.67-0.24-0.98
					c-0.86-0.88-1.35-1.92-1.2-3.19c0.11-0.86,0.67-1.38,1.4-1.32c0.78,0.07,1.22,0.66,1.14,1.57c-0.03,0.35,0.08,0.64,0.29,0.9
					c0.63,0.78,1.45,1.23,2.45,1.35c0.25,0.03,0.54,0.05,0.69-0.22c0.15-0.27-0.03-0.5-0.16-0.71c-0.39-0.6-0.95-1.02-1.48-1.47
					c-0.47-0.4-0.93-0.8-1.32-1.28c-0.96-1.18-1.15-2.59-0.51-3.77c0.62-1.14,1.97-1.78,3.46-1.59c0.47,0.06,0.79,0.07,1.07-0.42
					c0.33-0.57,1.08-0.68,1.63-0.37c0.58,0.33,0.83,1.01,0.52,1.63c-0.18,0.36-0.06,0.52,0.19,0.76c1.01,0.96,1.59,2.09,1.26,3.53
					c-0.11,0.5-0.45,0.8-0.93,0.93c-0.48,0.13-0.91-0.01-1.26-0.38c-0.22-0.23-0.37-0.53-0.32-0.84c0.16-0.9-0.41-1.34-1.03-1.77
					C1012.43,622.81,1012.32,622.76,1012.32,622.76z"/>
			</g>
		</g>
		<g>
			<path class="st6" d="M1121.98,670.34L1121.98,670.34c-22.9,0-41.46-18.56-41.46-41.46v0c0-22.9,18.56-41.46,41.46-41.46h0
				c22.9,0,41.46,18.56,41.46,41.46v0C1163.44,651.77,1144.88,670.34,1121.98,670.34z"/>
			<g>
				<path class="st1" d="M1119.77,612.62c0.27,0.01,0.34,0.18,0.37,0.41c0.13,1.03,0.24,2.06,0.39,3.09
					c0.34,2.42,0.76,4.83,1.64,7.13c1.09,2.83,3.13,4.65,5.95,5.66c2.01,0.72,4.1,1.13,6.19,1.5c0.05,0.01,0.11,0.01,0.16,0.03
					c0.21,0.05,0.42,0.1,0.41,0.38c0,0.28-0.19,0.37-0.43,0.42c-0.91,0.17-1.82,0.32-2.73,0.51c-1.73,0.36-3.44,0.82-5.04,1.61
					c-2.25,1.11-3.71,2.91-4.59,5.23c-0.78,2.07-1.18,4.23-1.5,6.4c-0.17,1.15-0.29,2.3-0.44,3.46c-0.01,0.07-0.02,0.14-0.03,0.2
					c-0.03,0.24-0.09,0.45-0.38,0.45c-0.29,0-0.36-0.21-0.39-0.45c-0.09-0.74-0.17-1.48-0.26-2.22c-0.32-2.47-0.72-4.92-1.5-7.3
					c-1.14-3.48-3.54-5.6-6.99-6.64c-1.79-0.54-3.61-0.91-5.45-1.24c-0.04-0.01-0.08-0.01-0.12-0.02c-0.23-0.04-0.45-0.1-0.46-0.39
					c-0.01-0.29,0.21-0.36,0.44-0.4c0.82-0.15,1.63-0.28,2.45-0.45c1.83-0.37,3.63-0.84,5.33-1.66c2.48-1.2,3.96-3.24,4.82-5.79
					c0.72-2.15,1.09-4.37,1.4-6.6c0.13-0.96,0.23-1.92,0.35-2.88C1119.4,612.82,1119.48,612.63,1119.77,612.62z"/>
				<path class="st1" d="M1133.94,608.74c0.23,0.01,0.34,0.14,0.38,0.36c0.1,0.53,0.21,1.06,0.3,1.59c0.42,2.31,1.8,3.65,4.08,4.12
					c0.2,0.04,0.4,0.1,0.6,0.15c0.2,0.05,0.31,0.19,0.31,0.39c0,0.22-0.15,0.31-0.34,0.36c-0.45,0.11-0.91,0.22-1.36,0.35
					c-1.62,0.46-2.64,1.53-3.1,3.15c-0.2,0.7-0.35,1.42-0.46,2.14c-0.04,0.25-0.08,0.53-0.42,0.51c-0.3-0.02-0.34-0.27-0.38-0.51
					c-0.12-0.76-0.27-1.52-0.5-2.26c-0.47-1.53-1.44-2.55-2.97-3.02c-0.46-0.14-0.93-0.27-1.39-0.39c-0.23-0.06-0.4-0.15-0.39-0.4
					c0.01-0.25,0.18-0.34,0.41-0.38c0.28-0.05,0.56-0.15,0.84-0.21c2.04-0.46,3.23-1.75,3.67-3.76c0.13-0.58,0.23-1.16,0.34-1.75
					C1133.6,608.93,1133.68,608.75,1133.94,608.74z"/>
			</g>
		</g>
		<g>
			<path class="st6" d="M1229.63,578.84L1229.63,578.84c-22.9,0-41.46-18.56-41.46-41.46v0c0-22.9,18.56-41.46,41.46-41.46h0
				c22.9,0,41.46,18.56,41.46,41.46v0C1271.09,560.28,1252.53,578.84,1229.63,578.84z"/>
			<g>
				<path class="st1" d="M1227.42,521.13c0.27,0.01,0.34,0.18,0.37,0.41c0.13,1.03,0.24,2.06,0.39,3.09
					c0.34,2.42,0.76,4.83,1.64,7.13c1.09,2.83,3.13,4.65,5.95,5.66c2.01,0.72,4.1,1.13,6.19,1.5c0.05,0.01,0.11,0.01,0.16,0.03
					c0.21,0.05,0.42,0.1,0.41,0.38c0,0.28-0.19,0.37-0.43,0.42c-0.91,0.17-1.82,0.32-2.73,0.51c-1.73,0.36-3.44,0.82-5.04,1.61
					c-2.25,1.11-3.71,2.91-4.59,5.23c-0.78,2.07-1.18,4.23-1.5,6.4c-0.17,1.15-0.29,2.3-0.44,3.46c-0.01,0.07-0.02,0.14-0.03,0.2
					c-0.03,0.24-0.09,0.45-0.38,0.45c-0.29,0-0.36-0.21-0.39-0.45c-0.09-0.74-0.17-1.48-0.26-2.22c-0.32-2.47-0.72-4.92-1.5-7.3
					c-1.14-3.48-3.54-5.6-6.99-6.64c-1.79-0.54-3.61-0.91-5.45-1.24c-0.04-0.01-0.08-0.01-0.12-0.02c-0.23-0.04-0.45-0.1-0.46-0.39
					c-0.01-0.29,0.21-0.36,0.44-0.4c0.82-0.15,1.63-0.28,2.45-0.45c1.83-0.37,3.63-0.84,5.33-1.66c2.48-1.2,3.96-3.24,4.82-5.79
					c0.72-2.15,1.09-4.37,1.4-6.6c0.13-0.96,0.23-1.92,0.35-2.88C1227.06,521.33,1227.13,521.13,1227.42,521.13z"/>
				<path class="st1" d="M1241.6,517.24c0.23,0.01,0.34,0.14,0.38,0.36c0.1,0.53,0.21,1.06,0.3,1.59c0.42,2.31,1.8,3.65,4.08,4.12
					c0.2,0.04,0.4,0.1,0.6,0.15c0.2,0.05,0.31,0.19,0.31,0.39c0,0.22-0.15,0.31-0.34,0.36c-0.45,0.11-0.91,0.22-1.36,0.35
					c-1.62,0.46-2.64,1.53-3.1,3.15c-0.2,0.71-0.35,1.42-0.46,2.14c-0.04,0.25-0.08,0.53-0.42,0.51c-0.3-0.02-0.34-0.27-0.38-0.51
					c-0.12-0.76-0.27-1.52-0.5-2.26c-0.47-1.53-1.44-2.55-2.97-3.02c-0.46-0.14-0.93-0.27-1.39-0.39c-0.23-0.06-0.4-0.15-0.39-0.4
					c0.01-0.25,0.18-0.34,0.41-0.38c0.28-0.06,0.56-0.15,0.84-0.21c2.04-0.46,3.23-1.75,3.67-3.76c0.13-0.58,0.23-1.16,0.34-1.75
					C1241.26,517.44,1241.33,517.26,1241.6,517.24z"/>
			</g>
		</g>
		<g>
			<path class="st6" d="M1338.49,656.39L1338.49,656.39c-22.9,0-41.46-18.56-41.46-41.46v0c0-22.9,18.56-41.46,41.46-41.46h0
				c22.9,0,41.46,18.56,41.46,41.46v0C1379.96,637.83,1361.39,656.39,1338.49,656.39z"/>
			<g>
				<path class="st1" d="M1336.29,598.68c0.27,0.01,0.34,0.18,0.37,0.41c0.13,1.03,0.24,2.06,0.39,3.09
					c0.34,2.42,0.76,4.83,1.64,7.13c1.09,2.83,3.13,4.65,5.95,5.66c2.01,0.72,4.1,1.13,6.19,1.5c0.05,0.01,0.11,0.01,0.16,0.03
					c0.21,0.05,0.42,0.1,0.41,0.38c0,0.28-0.19,0.37-0.43,0.42c-0.91,0.17-1.82,0.32-2.73,0.51c-1.73,0.36-3.44,0.82-5.04,1.61
					c-2.25,1.11-3.71,2.91-4.59,5.23c-0.78,2.07-1.18,4.23-1.5,6.4c-0.17,1.15-0.29,2.3-0.44,3.46c-0.01,0.07-0.02,0.14-0.03,0.2
					c-0.03,0.24-0.09,0.45-0.38,0.45c-0.29,0-0.36-0.21-0.39-0.45c-0.09-0.74-0.17-1.48-0.26-2.22c-0.32-2.47-0.72-4.92-1.5-7.3
					c-1.14-3.48-3.54-5.6-6.99-6.64c-1.79-0.54-3.61-0.91-5.45-1.24c-0.04-0.01-0.08-0.01-0.12-0.02c-0.23-0.04-0.45-0.1-0.46-0.39
					c-0.01-0.29,0.21-0.36,0.44-0.4c0.82-0.15,1.63-0.28,2.45-0.45c1.83-0.37,3.63-0.84,5.33-1.66c2.48-1.2,3.96-3.24,4.82-5.79
					c0.72-2.15,1.09-4.37,1.4-6.6c0.13-0.96,0.23-1.92,0.35-2.88C1335.92,598.88,1336,598.68,1336.29,598.68z"/>
				<path class="st1" d="M1350.46,594.79c0.23,0.01,0.34,0.14,0.38,0.36c0.1,0.53,0.21,1.06,0.3,1.59c0.42,2.31,1.8,3.65,4.08,4.12
					c0.2,0.04,0.4,0.1,0.6,0.15c0.2,0.05,0.31,0.19,0.31,0.39c0,0.22-0.15,0.31-0.34,0.36c-0.45,0.11-0.91,0.22-1.36,0.35
					c-1.62,0.46-2.64,1.53-3.1,3.15c-0.2,0.71-0.35,1.42-0.46,2.14c-0.04,0.25-0.08,0.53-0.42,0.51c-0.3-0.02-0.34-0.27-0.38-0.51
					c-0.12-0.76-0.27-1.52-0.5-2.26c-0.47-1.53-1.44-2.55-2.97-3.02c-0.46-0.14-0.93-0.27-1.39-0.39c-0.23-0.06-0.4-0.15-0.39-0.4
					c0.01-0.25,0.18-0.34,0.41-0.38c0.28-0.05,0.56-0.15,0.84-0.21c2.04-0.46,3.23-1.75,3.67-3.76c0.13-0.58,0.23-1.16,0.34-1.75
					C1350.12,594.99,1350.2,594.81,1350.46,594.79z"/>
			</g>
		</g>
		<g>
			<path class="st6" d="M1184.41,623.33L1184.41,623.33c-22.9,0-41.46-18.56-41.46-41.46v0c0-22.9,18.56-41.46,41.46-41.46h0
				c22.9,0,41.46,18.56,41.46,41.46v0C1225.88,604.77,1207.31,623.33,1184.41,623.33z"/>
			<g>
				<path class="st1" d="M1187.56,597.57c-1.24,0.75-2.53,1.22-3.92,1.37c-1.55,0.18-3.12,0.06-4.68,0.08
					c-1.26,0.01-2.52,0.06-3.77-0.21c-4.83-1.06-8.17-5.41-7.92-10.34c0.13-2.46,1.03-4.61,2.75-6.38c1.64-1.69,3.32-3.34,5-5.01
					c0.17-0.17,0.26-0.34,0.25-0.59c-0.02-0.4,0.01-0.81-0.01-1.21c-0.01-0.23,0.07-0.27,0.28-0.27c2.86,0.01,5.72,0.01,8.57,0
					c0.23,0,0.33,0.06,0.3,0.29c-0.01,0.03,0,0.07,0,0.11c0.01,0.48-0.11,1,0.05,1.41c0.16,0.4,0.62,0.68,0.94,1
					c0.39,0.4,0.78,0.8,1.19,1.18c0.2,0.19,0.16,0.27-0.04,0.42c-1.97,1.47-3.33,3.38-4.01,5.75c-1.34,4.69,0.56,9.62,4.72,12.21
					C1187.35,597.43,1187.43,597.49,1187.56,597.57z M1171.26,588.97c-0.01,0.3,0.03,0.59,0.07,0.89c0.36,2.87,3.04,5.2,5.93,5.16
					c0.67-0.01,1.17-0.5,1.17-1.14c0-0.63-0.47-1.12-1.12-1.15c-0.3-0.01-0.59-0.04-0.88-0.11c-2.81-0.7-3.81-4.03-1.86-6.22
					c0.52-0.58,0.54-1.25,0.05-1.71c-0.5-0.48-1.19-0.42-1.73,0.17C1171.82,586.01,1171.29,587.39,1171.26,588.97z"/>
				<path class="st1" d="M1184.41,588.13c0.01-4.74,3.87-8.57,8.61-8.56c4.72,0.02,8.55,3.87,8.54,8.59
					c-0.01,4.74-3.87,8.57-8.61,8.56C1188.23,596.71,1184.41,592.86,1184.41,588.13z M1193.88,585.87c0.56,0,1.12,0.01,1.68,0
					c0.64-0.01,1.14-0.52,1.14-1.14c0-0.62-0.49-1.12-1.13-1.15c-0.25-0.01-0.5,0-0.75,0c-0.64,0-0.64,0-0.69-0.64
					c-0.05-0.6-0.54-1.07-1.13-1.07c-0.6,0-1.11,0.48-1.15,1.09c-0.01,0.13-0.01,0.26,0,0.39c0.01,0.18-0.03,0.26-0.24,0.3
					c-1.48,0.3-2.46,1.59-2.33,3.05c0.14,1.47,1.36,2.58,2.87,2.59c0.54,0.01,1.07,0,1.61,0c0.24,0,0.45,0.07,0.57,0.29
					c0.24,0.41-0.06,0.85-0.58,0.85c-1.12,0.01-2.24-0.01-3.36,0.01c-0.62,0.01-1.11,0.51-1.12,1.12c-0.01,0.62,0.48,1.14,1.11,1.16
					c0.29,0.01,0.57,0,0.86,0c0.58,0,0.58,0,0.6,0.59c0.04,0.84,0.9,1.38,1.63,1.01c0.48-0.24,0.69-0.65,0.65-1.17
					c-0.02-0.31,0.04-0.46,0.4-0.54c1.33-0.3,2.22-1.49,2.18-2.85c-0.04-1.32-1.01-2.45-2.33-2.69c-0.71-0.13-1.43-0.03-2.14-0.06
					c-0.42-0.01-0.67-0.23-0.67-0.58c0-0.35,0.25-0.56,0.68-0.57C1192.79,585.86,1193.34,585.87,1193.88,585.87z"/>
				<path class="st1" d="M1174.38,570.41c-0.79-1.32-1.55-2.58-2.3-3.84c-0.18-0.31-0.29-0.62-0.2-0.98
					c0.14-0.55,0.57-0.88,1.19-0.88c2.61,0,5.21,0,7.82,0c1.89,0,3.79,0.01,5.68,0c0.5,0,0.89,0.16,1.14,0.59
					c0.25,0.44,0.17,0.86-0.08,1.28c-0.7,1.16-1.4,2.32-2.09,3.49c-0.06,0.1-0.12,0.2-0.18,0.31c0.09,0.09,0.19,0.05,0.27,0.06
					c0.62,0.05,1.09,0.55,1.09,1.15c-0.01,0.61-0.49,1.1-1.11,1.13c-0.12,0.01-0.24,0-0.36,0c-3.64,0-7.29,0-10.93,0
					c-0.27,0-0.52-0.02-0.76-0.16c-0.42-0.25-0.65-0.77-0.54-1.22c0.11-0.48,0.52-0.84,1-0.9
					C1174.1,570.42,1174.21,570.42,1174.38,570.41z"/>
			</g>
		</g>
		<g>
			<path class="st6" d="M1043.22,709.06L1043.22,709.06c-22.9,0-41.46-18.56-41.46-41.46v0c0-22.9,18.56-41.46,41.46-41.46h0
				c22.9,0,41.46,18.56,41.46,41.46v0C1084.68,690.49,1066.12,709.06,1043.22,709.06z"/>
			<g>
				<path class="st1" d="M1046.37,683.29c-1.24,0.75-2.53,1.22-3.92,1.37c-1.55,0.18-3.12,0.06-4.68,0.08
					c-1.26,0.01-2.52,0.06-3.77-0.21c-4.83-1.06-8.17-5.41-7.92-10.34c0.13-2.46,1.03-4.61,2.75-6.38c1.64-1.69,3.32-3.34,5-5.01
					c0.17-0.17,0.26-0.34,0.25-0.59c-0.02-0.4,0.01-0.81-0.01-1.21c-0.01-0.23,0.07-0.27,0.28-0.27c2.86,0.01,5.72,0.01,8.57,0
					c0.23,0,0.33,0.06,0.3,0.29c-0.01,0.03,0,0.07,0,0.11c0.01,0.48-0.11,1,0.05,1.41c0.16,0.4,0.62,0.68,0.94,1
					c0.39,0.4,0.78,0.8,1.19,1.18c0.2,0.19,0.16,0.27-0.04,0.42c-1.97,1.47-3.33,3.38-4.01,5.75c-1.34,4.69,0.56,9.62,4.72,12.21
					C1046.16,683.16,1046.24,683.21,1046.37,683.29z M1030.07,674.69c-0.01,0.3,0.03,0.59,0.07,0.89c0.36,2.87,3.04,5.2,5.93,5.16
					c0.67-0.01,1.17-0.5,1.17-1.14c0-0.63-0.47-1.12-1.12-1.15c-0.3-0.01-0.59-0.04-0.88-0.11c-2.81-0.7-3.81-4.03-1.86-6.22
					c0.52-0.58,0.54-1.25,0.05-1.71c-0.5-0.48-1.19-0.42-1.73,0.17C1030.62,671.74,1030.09,673.12,1030.07,674.69z"/>
				<path class="st1" d="M1043.22,673.86c0.01-4.74,3.87-8.57,8.61-8.56c4.72,0.02,8.55,3.87,8.54,8.59
					c-0.01,4.74-3.87,8.57-8.61,8.56C1047.04,682.44,1043.21,678.58,1043.22,673.86z M1052.69,671.59c0.56,0,1.12,0.01,1.68,0
					c0.64-0.01,1.14-0.52,1.14-1.14c0-0.62-0.49-1.12-1.13-1.15c-0.25-0.01-0.5,0-0.75,0c-0.64,0-0.64,0-0.69-0.64
					c-0.05-0.6-0.54-1.07-1.13-1.07c-0.6,0-1.11,0.48-1.15,1.09c-0.01,0.13-0.01,0.26,0,0.39c0.01,0.18-0.03,0.26-0.24,0.3
					c-1.48,0.3-2.46,1.59-2.33,3.05c0.14,1.47,1.36,2.58,2.87,2.59c0.54,0.01,1.07,0,1.61,0c0.24,0,0.45,0.07,0.57,0.29
					c0.24,0.41-0.06,0.85-0.58,0.85c-1.12,0.01-2.24-0.01-3.36,0.01c-0.62,0.01-1.11,0.51-1.12,1.12c-0.01,0.62,0.48,1.14,1.11,1.16
					c0.29,0.01,0.57,0,0.86,0c0.58,0,0.58,0,0.6,0.59c0.04,0.84,0.9,1.38,1.63,1.01c0.48-0.24,0.69-0.65,0.65-1.17
					c-0.02-0.31,0.04-0.46,0.4-0.54c1.33-0.3,2.22-1.49,2.18-2.85c-0.04-1.32-1.01-2.45-2.33-2.69c-0.71-0.13-1.43-0.03-2.14-0.06
					c-0.42-0.01-0.67-0.23-0.67-0.58c0-0.35,0.25-0.56,0.68-0.57C1051.6,671.59,1052.14,671.59,1052.69,671.59z"/>
				<path class="st1" d="M1033.18,656.14c-0.79-1.32-1.55-2.58-2.3-3.84c-0.18-0.31-0.29-0.62-0.2-0.98
					c0.14-0.55,0.57-0.88,1.19-0.88c2.61,0,5.21,0,7.82,0c1.89,0,3.79,0.01,5.68,0c0.5,0,0.89,0.16,1.14,0.59
					c0.25,0.44,0.17,0.86-0.08,1.28c-0.7,1.16-1.4,2.32-2.09,3.49c-0.06,0.1-0.12,0.2-0.18,0.31c0.09,0.09,0.19,0.05,0.27,0.06
					c0.62,0.05,1.09,0.55,1.09,1.15c-0.01,0.61-0.49,1.1-1.11,1.13c-0.12,0.01-0.24,0-0.36,0c-3.64,0-7.29,0-10.93,0
					c-0.27,0-0.52-0.02-0.76-0.16c-0.42-0.25-0.65-0.77-0.54-1.22c0.11-0.48,0.52-0.84,1-0.9
					C1032.91,656.15,1033.02,656.15,1033.18,656.14z"/>
			</g>
		</g>
		<g>
			<path class="st6" d="M1174.33,706.82L1174.33,706.82c-22.9,0-41.46-18.56-41.46-41.46v0c0-22.9,18.56-41.46,41.46-41.46h0
				c22.9,0,41.46,18.56,41.46,41.46v0C1215.79,688.25,1197.23,706.82,1174.33,706.82z"/>
			<g>
				<path class="st1" d="M1177.47,681.05c-1.24,0.75-2.53,1.22-3.92,1.37c-1.55,0.18-3.12,0.06-4.68,0.08
					c-1.26,0.01-2.52,0.06-3.77-0.21c-4.83-1.06-8.17-5.41-7.92-10.34c0.13-2.46,1.03-4.61,2.75-6.38c1.64-1.69,3.32-3.34,5-5.01
					c0.17-0.17,0.26-0.34,0.25-0.59c-0.02-0.4,0.01-0.81-0.01-1.21c-0.01-0.23,0.07-0.27,0.28-0.27c2.86,0.01,5.72,0.01,8.57,0
					c0.23,0,0.33,0.06,0.3,0.29c-0.01,0.03,0,0.07,0,0.11c0.01,0.48-0.11,1,0.05,1.41c0.16,0.4,0.62,0.68,0.94,1
					c0.39,0.4,0.78,0.8,1.19,1.18c0.2,0.19,0.16,0.27-0.04,0.42c-1.97,1.47-3.33,3.38-4.01,5.75c-1.34,4.69,0.56,9.62,4.72,12.21
					C1177.27,680.92,1177.35,680.97,1177.47,681.05z M1161.18,672.45c-0.01,0.3,0.03,0.59,0.07,0.89c0.36,2.87,3.04,5.2,5.93,5.16
					c0.67-0.01,1.17-0.5,1.17-1.14c0-0.63-0.47-1.12-1.12-1.15c-0.3-0.01-0.59-0.04-0.88-0.11c-2.81-0.7-3.81-4.03-1.86-6.22
					c0.52-0.58,0.54-1.25,0.05-1.71c-0.5-0.48-1.19-0.42-1.73,0.17C1161.73,669.5,1161.2,670.88,1161.18,672.45z"/>
				<path class="st1" d="M1174.33,671.62c0.01-4.74,3.87-8.57,8.61-8.56c4.72,0.02,8.55,3.87,8.54,8.59
					c-0.01,4.74-3.87,8.57-8.61,8.56C1178.15,680.19,1174.32,676.34,1174.33,671.62z M1183.8,669.35c0.56,0,1.12,0.01,1.68,0
					c0.64-0.01,1.14-0.52,1.14-1.14c0-0.62-0.49-1.12-1.13-1.15c-0.25-0.01-0.5,0-0.75,0c-0.64,0-0.64,0-0.69-0.64
					c-0.05-0.6-0.54-1.07-1.13-1.07c-0.6,0-1.11,0.48-1.15,1.09c-0.01,0.13-0.01,0.26,0,0.39c0.01,0.18-0.03,0.26-0.24,0.3
					c-1.48,0.3-2.46,1.59-2.33,3.05c0.14,1.47,1.36,2.58,2.87,2.59c0.54,0.01,1.07,0,1.61,0c0.24,0,0.45,0.07,0.57,0.29
					c0.24,0.41-0.06,0.85-0.58,0.85c-1.12,0.01-2.24-0.01-3.36,0.01c-0.62,0.01-1.11,0.51-1.12,1.12c-0.01,0.62,0.48,1.14,1.11,1.16
					c0.29,0.01,0.57,0,0.86,0c0.58,0,0.58,0,0.6,0.59c0.04,0.84,0.9,1.38,1.63,1.01c0.48-0.24,0.69-0.65,0.65-1.17
					c-0.02-0.31,0.04-0.46,0.4-0.54c1.33-0.3,2.22-1.49,2.18-2.85c-0.04-1.32-1.01-2.45-2.33-2.69c-0.71-0.13-1.43-0.03-2.14-0.06
					c-0.42-0.01-0.67-0.23-0.67-0.58c0-0.35,0.25-0.56,0.68-0.57C1182.7,669.35,1183.25,669.35,1183.8,669.35z"/>
				<path class="st1" d="M1164.29,653.9c-0.79-1.32-1.55-2.58-2.3-3.84c-0.18-0.31-0.29-0.62-0.2-0.98
					c0.14-0.55,0.57-0.88,1.19-0.88c2.61,0,5.21,0,7.82,0c1.89,0,3.79,0.01,5.68,0c0.5,0,0.89,0.16,1.14,0.59
					c0.25,0.44,0.17,0.86-0.08,1.28c-0.7,1.16-1.4,2.32-2.09,3.49c-0.06,0.1-0.12,0.2-0.18,0.31c0.09,0.09,0.19,0.05,0.27,0.06
					c0.62,0.05,1.09,0.55,1.09,1.15c-0.01,0.61-0.49,1.1-1.11,1.13c-0.12,0.01-0.24,0-0.36,0c-3.64,0-7.29,0-10.93,0
					c-0.27,0-0.52-0.02-0.76-0.16c-0.42-0.25-0.65-0.77-0.54-1.22c0.11-0.48,0.52-0.84,1-0.9
					C1164.02,653.91,1164.13,653.91,1164.29,653.9z"/>
			</g>
		</g>
	</g>
	<path class="st1" d="M1175.42,665.94c-139.81,0-254.8-11.79-268.68-26.91l39.6,86.66c0,16.56,102.56,29.99,229.08,29.99
		c126.52,0,229.08-13.43,229.08-29.99l39.6-86.66C1430.22,654.15,1315.23,665.94,1175.42,665.94z"/>
</g>
<g>
	<g>
		<line class="st18" x1="788.71" y1="906.38" x2="1036.58" y2="906.38"/>
		<g>
			<path class="st1" d="M779.46,906.38c4.35,1.61,9.75,4.37,13.09,7.28l-2.63-7.28l2.63-7.28
				C789.21,902.02,783.81,904.77,779.46,906.38z"/>
		</g>
	</g>
</g>
<g>
	<g>
		<line class="st18" x1="788.71" y1="700.2" x2="1036.58" y2="700.2"/>
		<g>
			<path class="st1" d="M779.46,700.2c4.35,1.61,9.75,4.37,13.09,7.28l-2.63-7.28l2.63-7.28
				C789.21,695.84,783.81,698.59,779.46,700.2z"/>
		</g>
	</g>
</g>
<g>
	<g>
		<line class="st18" x1="1562.55" y1="795.5" x2="1314.68" y2="795.5"/>
		<g>
			<path class="st1" d="M1571.8,795.5c-4.35-1.61-9.75-4.37-13.09-7.28l2.63,7.28l-2.63,7.28
				C1562.05,799.86,1567.45,797.11,1571.8,795.5z"/>
		</g>
	</g>
</g>
<g>
	<g>
		<line class="st18" x1="1562.55" y1="1002.27" x2="1253.6" y2="1002.27"/>
		<g>
			<path class="st1" d="M1571.8,1002.27c-4.35-1.61-9.75-4.37-13.09-7.28l2.63,7.28l-2.63,7.28
				C1562.05,1006.64,1567.45,1003.88,1571.8,1002.27z"/>
		</g>
	</g>
</g>
<g>
	<g>
		<path class="st1" d="M554.51,941.45c2.46,0,2.47-3.83,0-3.83C552.04,937.62,552.04,941.45,554.51,941.45L554.51,941.45z"/>
	</g>
</g>
</svg>
