<?xml version="1.0" encoding="UTF-8"?>
<svg id="Layer_2" data-name="Layer 2" xmlns="http://www.w3.org/2000/svg" viewBox="0 0 124.9 124.9">
  <defs>
    <style>
      .cls-1 {
        fill: #dcffdf;
      }

      .cls-1, .cls-2 {
        stroke-width: 0px;
      }

      .cls-2 {
        fill: #38b14a;
      }
    </style>
  </defs>
  <g id="Layer_1-2" data-name="Layer 1">
    <g>
      <rect class="cls-1" x="0" y="0" width="124.9" height="124.9" rx="62.45" ry="62.45"/>
      <g>
        <path class="cls-2" d="M83.6,85.84c.82-.88,1.69-1.73,2.47-2.65,1.31-1.56,2.4-3.28,3.41-5.05.42-.73.29-1.01-.49-1.36-5.84-2.66-8.82-7.35-8.8-13.64.02-6.03,2.86-10.6,8.42-13.25.78-.37.86-.65.44-1.37-2.87-4.99-6.8-8.88-11.82-11.69-.83-.46-1.19-.38-1.65.52-2.84,5.56-7.53,8.22-13.67,8.07-5.9-.15-10.25-3.02-12.87-8.35-.35-.71-.63-.74-1.25-.4-5.13,2.84-9.14,6.79-12.1,11.85-.53.91-.04,1.11.62,1.44,9.23,4.5,11.19,16.91,3.79,24.01-1.28,1.23-2.75,2.17-4.39,2.85-.5.21-.91.39-.55,1.06,1.55,2.9,3.43,5.54,5.85,7.78.04.04.13.03.35.07,0-.71-.03-1.4,0-2.08.06-1.27.75-1.96,1.88-1.93,1.07.02,1.73.71,1.76,1.94.04,2.07.04,4.14,0,6.21-.02,1.18-.73,1.86-1.95,1.88-2.03.03-4.07.03-6.1,0-1.26-.02-2.02-.74-2.03-1.81,0-1.03.7-1.71,1.92-1.82.35-.03.69-.04,1.03-.06.14-.4-.18-.53-.35-.72-2.3-2.49-4.27-5.21-5.74-8.27-.38-.79-.85-1.02-1.71-1.03-7.65-.02-13.62-4.96-14.72-12.51-1.22-8.32,3.79-15.5,12.13-16.85,1.08-.18,2.16-.23,3.25-.18.63.03,1.03-.16,1.34-.75,3.37-6.45,8.3-11.33,14.8-14.6.78-.39.79-.95.76-1.64-.23-5.68,2.1-10.11,6.78-13.2,9-5.93,21.19-.28,22.63,10.4.14,1.05.26,2.1.08,3.14-.12.66.12.95.66,1.22,2.9,1.45,5.54,3.29,7.93,5.49,2.76,2.55,5.02,5.48,6.76,8.8.46.88.97,1.19,1.95,1.14,7.35-.38,13.88,5.1,15.1,12.5,1.28,7.77-4.49,15.77-12.31,16.87-.98.14-1.95.23-2.93.18-.51-.03-.86.13-1.1.61-1.63,3.38-3.75,6.41-6.38,9.09-.04.04-.04.12-.08.27.52.06,1.03.08,1.53.18.98.19,1.57.94,1.51,1.85-.06.93-.72,1.66-1.7,1.68-2.17.04-4.35.05-6.52,0-1.1-.03-1.79-.74-1.83-1.93-.07-2.1-.07-4.21,0-6.31.04-1.19.83-1.8,1.94-1.74,1.01.06,1.62.74,1.66,1.92.03.69,0,1.37,0,2.06.09.04.18.08.27.12ZM34.41,59.93c-.08-1.39-.75-2.64-2.1-3.49-.46-.29-.82-.57-.97-1.14-.18-.67-.73-1-1.44-1.01-.72,0-1.26.35-1.43,1.01-.16.59-.55.84-.99,1.13-1.64,1.08-2.24,2.66-1.98,4.55.24,1.72,1.25,2.85,2.91,3.39.7.23,1.4.45,2.08.75.81.35,1.03,1.08.59,1.81-.31.51-.77.7-1.34.62-.78-.11-1.09-.64-1.24-1.36-.21-1.05-.88-1.63-1.68-1.52-.92.12-1.45.82-1.38,1.91.1,1.5.87,2.64,2.09,3.47.44.3.82.56.97,1.15.17.69.76,1.02,1.45.99.66-.03,1.27-.33,1.44-1.03.13-.54.46-.81.89-1.08,1.64-1,2.29-2.54,2.1-4.39-.19-1.84-1.25-3.07-3.03-3.65-.7-.23-1.41-.43-2.08-.74-.72-.34-.91-.97-.54-1.67.38-.72.99-.98,1.76-.63.6.28.79.82.9,1.44.17.91.86,1.4,1.74,1.27.91-.13,1.31-.73,1.3-1.81ZM66.84,34.36c0-2.67-.99-4.07-2.93-4.76-.66-.24-1.33-.44-1.99-.68-.63-.23-.99-.66-.86-1.37.12-.65.48-1.09,1.18-1.14.72-.05,1.21.28,1.46.95.07.19.07.41.12.62.22.85.76,1.35,1.65,1.31.86-.03,1.39-.69,1.39-1.66,0-1.65-.76-2.88-2.14-3.74-.43-.27-.77-.54-.89-1.08-.15-.66-.66-.95-1.33-.97-.69-.02-1.3.17-1.51.88-.19.64-.63.95-1.13,1.29-1.51,1.02-2.13,2.51-1.94,4.27.19,1.79,1.2,3.02,2.94,3.61.66.22,1.33.44,1.99.68.58.21.95.61.88,1.27-.07.66-.45,1.11-1.1,1.25-.62.13-1.1-.16-1.41-.68-.16-.26-.22-.59-.29-.89-.2-.87-.71-1.35-1.63-1.29-.86.06-1.45.71-1.43,1.64.03,1.55.8,2.74,2.01,3.62.49.36.9.69,1.11,1.3.23.67.82.92,1.52.88.67-.03,1.16-.35,1.31-1,.13-.54.46-.81.9-1.07,1.46-.86,2.09-2.2,2.11-3.23ZM90.45,66.88c.05,1.17.77,2.35,2.08,3.17.42.26.81.5.92,1.06.14.72.7,1.06,1.38,1.08.67.02,1.28-.26,1.48-.95.18-.59.56-.9,1.05-1.22,1.5-1,2.19-2.48,2-4.24-.2-1.87-1.21-3.17-3.08-3.72-.67-.2-1.35-.41-1.98-.7-.84-.39-1.01-1.31-.4-2.01.32-.37.73-.56,1.22-.45.8.18,1.09.78,1.25,1.52.22,1.02.87,1.47,1.79,1.31.84-.14,1.34-.81,1.25-1.78-.13-1.44-.74-2.63-1.98-3.42-.52-.33-.92-.66-1.11-1.3-.2-.67-.78-.96-1.48-.94-.67.02-1.19.31-1.35.96-.14.58-.5.86-.96,1.15-1.68,1.04-2.26,2.62-2.03,4.51.21,1.74,1.23,2.85,2.85,3.44.69.25,1.39.48,2.08.73.84.31,1,.93.7,1.69-.23.59-.72.84-1.35.77-.78-.09-1.12-.58-1.26-1.32-.22-1.13-.81-1.57-1.81-1.46-.9.1-1.29.63-1.25,2.11Z"/>
        <path class="cls-2" d="M62.36,108.99c-3.86,0-7.71,0-11.57,0-2.71,0-3.99-1.29-3.99-4,0-2.77-.05-5.54.01-8.31.13-6.05,2.91-10.56,8.13-13.55.85-.49.82-.71.18-1.37-3.01-3.05-3.85-6.7-2.56-10.74,1.23-3.85,3.99-6.07,7.93-6.85,4.54-.9,9.15,1.34,11.21,5.41,2.1,4.15,1.22,9.26-2.18,12.35-.58.53-.53.69.13,1.05,5.58,3.12,8.3,7.95,8.39,14.29.04,2.56.01,5.12,0,7.68-.01,2.66-1.37,4.03-4.01,4.04-3.89.01-7.78,0-11.67,0Z"/>
      </g>
    </g>
  </g>
</svg>