<?xml version="1.0" encoding="UTF-8"?>
<svg id="Layer_2" data-name="Layer 2" xmlns="http://www.w3.org/2000/svg" viewBox="0 0 124.9 124.9">
  <defs>
    <style>
      .cls-1 {
        fill: #dcffdf;
      }

      .cls-1, .cls-2 {
        stroke-width: 0px;
      }

      .cls-2 {
        fill: #38b14a;
      }
    </style>
  </defs>
  <g id="Layer_1-2" data-name="Layer 1">
    <g>
      <rect class="cls-1" x="0" y="0" width="124.9" height="124.9" rx="62.45" ry="62.45"/>
      <g>
        <path class="cls-2" d="M59.13,37.97c.4.02.51.28.56.62.19,1.55.36,3.1.58,4.65.51,3.65,1.14,7.27,2.47,10.74,1.64,4.27,4.71,7.01,8.97,8.52,3.03,1.08,6.17,1.7,9.33,2.25.08.01.17.02.25.04.32.07.63.15.62.57,0,.42-.29.56-.64.63-1.37.25-2.75.48-4.11.77-2.61.54-5.18,1.24-7.59,2.43-3.39,1.67-5.59,4.39-6.91,7.87-1.18,3.12-1.78,6.37-2.26,9.64-.25,1.73-.44,3.47-.66,5.2-.01.1-.04.21-.05.31-.04.36-.13.68-.57.68-.44,0-.54-.32-.58-.67-.13-1.12-.25-2.23-.4-3.35-.49-3.72-1.09-7.41-2.25-10.99-1.71-5.25-5.33-8.44-10.53-10-2.7-.81-5.44-1.38-8.21-1.86-.06-.01-.12-.01-.19-.02-.34-.06-.68-.15-.69-.59-.01-.44.32-.54.66-.6,1.23-.22,2.46-.42,3.68-.67,2.76-.56,5.47-1.26,8.02-2.5,3.74-1.81,5.96-4.88,7.26-8.72,1.09-3.23,1.65-6.57,2.11-9.94.2-1.44.35-2.89.53-4.34.04-.36.15-.66.59-.66Z"/>
        <path class="cls-2" d="M80.47,32.12c.35.01.51.21.57.54.14.8.31,1.59.46,2.39.63,3.47,2.72,5.5,6.14,6.21.31.06.61.15.91.22.3.08.46.28.46.59,0,.33-.22.47-.51.54-.68.17-1.37.33-2.05.52-2.45.7-3.98,2.3-4.68,4.74-.3,1.06-.53,2.14-.69,3.23-.06.38-.12.79-.63.76-.45-.03-.51-.4-.57-.77-.17-1.15-.41-2.29-.75-3.41-.7-2.3-2.18-3.84-4.48-4.56-.69-.22-1.4-.41-2.1-.58-.34-.09-.6-.23-.59-.61.01-.38.28-.51.62-.58.43-.08.84-.22,1.27-.32,3.07-.7,4.87-2.63,5.53-5.67.19-.87.35-1.75.51-2.63.06-.33.18-.6.57-.63Z"/>
      </g>
    </g>
  </g>
</svg>