<?xml version="1.0" encoding="UTF-8"?>
<svg id="Layer_2" data-name="Layer 2" xmlns="http://www.w3.org/2000/svg" viewBox="0 0 540.18 597.74">
  <defs>
    <style>
      .cls-1, .cls-2 {
        stroke: #233239;
        stroke-linecap: round;
        stroke-linejoin: round;
        stroke-width: .85px;
      }

      .cls-1, .cls-3 {
        fill: #38b14a;
      }

      .cls-4, .cls-5, .cls-3 {
        stroke-width: 0px;
      }

      .cls-4, .cls-2 {
        fill: #233239;
      }

      .cls-5 {
        fill: #dcffdf;
      }
    </style>
  </defs>
  <g id="Layer_1-2" data-name="Layer 1">
    <g>
      <path class="cls-3" d="M270.09,514.03c-61.21,0-111.21-6.65-114.51-9.14l41.33,80.02c0,2.86,32.76,12.83,73.18,12.83s73.18-9.97,73.18-12.83l41.33-80.02c-3.3,2.49-53.3,9.14-114.51,9.14Z"/>
      <path class="cls-2" d="M384.78,504.64c0,2.27-51.35,9.39-114.69,9.39s-114.69-7.12-114.69-9.39,51.35-4.11,114.69-4.11,114.69,1.84,114.69,4.11Z"/>
      <path class="cls-3" d="M270.09,417.72c-87.01,0-158.28-5.54-164.95-12.57l43.54,83.58c0,6.79,54.36,12.29,121.41,12.29s121.41-5.5,121.41-12.29l43.54-83.58c-6.67,7.03-77.94,12.57-164.95,12.57Z"/>
      <ellipse class="cls-2" cx="270.09" cy="404.07" rx="165.51" ry="13.65"/>
      <path class="cls-3" d="M270.09,315.58c-112.78,0-205.18-8.52-213.89-19.33l38.95,88.23c0,11.6,78.32,21.01,174.94,21.01s174.94-9.4,174.94-21.01l38.95-88.23c-8.71,10.82-101.11,19.33-213.89,19.33Z"/>
      <ellipse class="cls-1" cx="270.09" cy="294.57" rx="214.63" ry="21.01"/>
      <ellipse class="cls-2" cx="270.09" cy="294.57" rx="214.63" ry="21.01"/>
      <ellipse class="cls-4" cx="270.09" cy="183.53" rx="270.09" ry="29.99"/>
      <g>
        <g>
          <rect class="cls-5" x="91.39" y="52.69" width="82.92" height="82.92" rx="41.46" ry="41.46" transform="translate(-29.04 76.7) rotate(-29.17)"/>
          <g>
            <path class="cls-3" d="M150.7,111.24c-4.38,2.45-8.76,4.88-13.14,7.34-.65.36-1.28.45-2,.28-6.27-1.53-12.54-3.05-18.8-4.57-.86-.21-1.46-.68-1.67-1.57-.19-.81.05-1.51.68-2.05.57-.49,1.24-.56,1.96-.39,3.2.78,6.4,1.56,9.59,2.34,2.72.66,5.43,1.31,8.15,1.99.4.1.72.04,1.07-.16,8.44-4.72,16.88-9.43,25.32-14.15.99-.55,1.91-.49,2.61.16,1.01.94.85,2.57-.35,3.27-.97.57-1.96,1.1-2.95,1.65-3.5,1.95-7,3.91-10.5,5.86Z"/>
            <path class="cls-3" d="M136.79,101.33c-.43.65-.85,1.26-1.25,1.88-.15.23-.34.15-.53.12-2.15-.28-4.3-.58-6.45-.84-1.77-.21-3.25,1.06-3.28,2.78-.02,1.42.96,2.64,2.4,2.84,2.93.41,5.87.78,8.81,1.16.74.09,1.41-.12,2.01-.55.37-.27.62-.63.87-1,1.16-1.73,2.33-3.45,3.48-5.19.17-.25.32-.4.63-.3.29.09.54-.02.79-.17,4.33-2.43,8.67-4.85,13.01-7.27,1.08-.6,2.15-.46,2.88.37.88,1,.67,2.56-.45,3.29-.14.09-.29.17-.43.25-7.06,3.94-14.12,7.87-21.16,11.82-1.31.74-2.65.93-4.11.58-3.65-.87-7.31-1.71-10.97-2.56-1.32-.31-1.74-1.3-1.03-2.46.78-1.29,1.56-2.57,2.35-3.85.58-.94,1.35-1.67,2.44-1.99.44-.13.88-.17,1.32-.11,2.79.38,5.57.76,8.36,1.14.08.01.16.04.28.07Z"/>
            <path class="cls-3" d="M126.88,83.18c-2.99-5.4-1.04-12.18,4.37-15.18,5.41-3,12.21-1.06,15.18,4.34,2.97,5.4,1.03,12.17-4.34,15.16-5.39,3-12.24,1.06-15.21-4.32ZM132.12,69.6c-4.49,2.5-6.12,8.18-3.63,12.66,2.51,4.52,8.17,6.13,12.69,3.62,4.49-2.5,6.12-8.16,3.64-12.65-2.48-4.5-8.2-6.13-12.7-3.62Z"/>
            <path class="cls-3" d="M137.42,107.52c-.3.19-.59.19-.89.15-2.8-.37-5.61-.73-8.41-1.11-.83-.11-1.3-.67-1.22-1.4.09-.75.71-1.2,1.54-1.09,2.15.27,4.3.54,6.45.85.89.13,1.52-.14,2.02-.9,1.65-2.5,3.33-4.98,5-7.46.51-.75,1.29-.93,1.91-.45.56.43.66,1.14.21,1.81-1.07,1.61-2.15,3.22-3.23,4.82-.94,1.4-1.88,2.8-2.82,4.2-.16.23-.31.47-.56.57Z"/>
            <path class="cls-3" d="M114.93,99.93c2.17-1.18,5.02-.14,5.85,2.13.7,1.9-.35,3.86-2.38,4.46-2.05.6-4.32-.51-5.08-2.49-.59-1.54.09-3.28,1.6-4.1Z"/>
            <path class="cls-3" d="M144.62,99.92c.23-.35.47-.69.7-1.04.83-1.26.79-2.4-.11-3.62-.07-.1-.17-.18-.13-.35.3-1.33,1.26-1.9,2.55-1.5,1.71.53,3.41,1.06,5.11,1.59.15.05.33.04.46.24-1.04.58-2.08,1.16-3.12,1.74-.15.08-.29,0-.43-.04-.58-.18-1.17-.35-1.75-.55-.25-.09-.38-.05-.48.21-.26.65-.56,1.27-.81,1.92-.15.39-.39.66-.77.84-.4.19-.77.42-1.15.64-.03-.03-.05-.05-.08-.08Z"/>
            <path class="cls-3" d="M131.74,99c.87-1.48,1.69-2.89,2.54-4.28.36-.58,1.09-.72,1.66-.39.59.34.82,1.05.48,1.67-.59,1.07-1.22,2.11-1.84,3.17-.08.15-.18.2-.36.18-.8-.12-1.6-.22-2.49-.35Z"/>
            <path class="cls-3" d="M115.64,92.06c-.54-.97-1.08-1.93-1.61-2.9-.28-.52-.2-.97.22-1.21.42-.24.87-.09,1.15.41,1.11,1.97,2.21,3.94,3.3,5.92.29.52.2.95-.23,1.2-.45.26-.86.1-1.17-.45-.56-.99-1.11-1.99-1.67-2.98Z"/>
            <path class="cls-3" d="M121.81,93.16c-.55-.98-1.1-1.96-1.64-2.94-.3-.54-.21-1.01.23-1.24.41-.22.87-.05,1.15.45,1.1,1.96,2.19,3.91,3.28,5.88.3.53.19,1.02-.24,1.25-.42.22-.85.06-1.14-.46-.55-.98-1.09-1.96-1.64-2.94Z"/>
            <path class="cls-3" d="M124.12,87.37c-.55-.98-1.1-1.96-1.64-2.95-.27-.49-.2-.89.16-1.15.41-.29.91-.15,1.2.36.48.83.94,1.67,1.41,2.51.64,1.15,1.3,2.31,1.93,3.47.3.55.13,1.04-.38,1.23-.39.15-.75,0-1.02-.48-.56-.99-1.11-1.99-1.67-2.99Z"/>
            <path class="cls-3" d="M140.41,84.49c-3.76,2.09-8.45.74-10.54-3.03-2.05-3.69-.68-8.42,3.03-10.47,3.73-2.07,8.46-.72,10.53,2.99,2.07,3.73.72,8.43-3.02,10.51ZM139.41,78.73c.17.25.17.54.04.83-.47,1.05-2.42,2.11-3.53.95-.33-.35-.8-.29-1.11.03-.32.34-.31.79.05,1.14.87.88,1.93,1.09,3.1.84.29-.06.44-.04.59.24.26.48.72.62,1.12.4.4-.22.53-.7.27-1.16-.16-.27-.12-.44.11-.62.15-.12.28-.28.4-.44.66-.86.94-1.78.44-2.82-.5-1.04-1.35-1.54-2.5-1.57-.55-.01-1.08.11-1.61.27-.49.15-.96.35-1.48.39-.46.03-.87-.05-1.12-.48-.25-.43-.18-.86.08-1.26.62-.96,1.94-1.26,2.82-.59.41.31.87.21,1.14-.16.27-.38.18-.85-.25-1.16-.74-.55-1.58-.77-2.48-.6-.4.08-.61.03-.81-.35-.2-.39-.66-.47-1.03-.27-.37.2-.58.65-.34,1.01.28.42.11.65-.15.97-.82.97-.94,2.17-.38,3.18.57,1.01,1.57,1.47,2.87,1.3.46-.06.9-.2,1.34-.35.45-.16.92-.29,1.4-.27.42,0,.77.17,1.01.57Z"/>
          </g>
        </g>
        <g>
          <rect class="cls-5" x="104.27" y="100.87" width="82.92" height="82.92" rx="41.46" ry="41.46"/>
          <g>
            <path class="cls-3" d="M159.77,157.86c.55-.59,1.12-1.15,1.64-1.76.87-1.04,1.59-2.18,2.26-3.35.28-.49.19-.67-.33-.91-3.88-1.76-5.86-4.88-5.84-9.06.02-4,1.9-7.04,5.59-8.79.51-.25.57-.43.29-.91-1.9-3.31-4.51-5.9-7.84-7.76-.55-.31-.79-.25-1.1.35-1.88,3.69-5,5.46-9.07,5.36-3.91-.1-6.8-2.01-8.54-5.54-.23-.47-.42-.49-.83-.26-3.41,1.88-6.07,4.51-8.03,7.87-.35.6-.03.74.41.95,6.13,2.99,7.43,11.22,2.52,15.94-.85.81-1.82,1.44-2.91,1.89-.33.14-.6.26-.37.7,1.03,1.92,2.28,3.68,3.89,5.17.03.03.08.02.23.05,0-.47-.02-.93,0-1.38.04-.84.5-1.3,1.25-1.28.71.02,1.15.47,1.17,1.29.02,1.37.02,2.75,0,4.12-.01.78-.48,1.24-1.29,1.25-1.35.02-2.7.02-4.05,0-.84-.01-1.34-.49-1.34-1.2,0-.69.47-1.13,1.27-1.21.23-.02.46-.03.68-.04.09-.27-.12-.35-.24-.48-1.53-1.65-2.84-3.46-3.81-5.49-.25-.52-.57-.68-1.13-.68-5.08-.01-9.04-3.29-9.77-8.3-.81-5.53,2.52-10.29,8.05-11.19.72-.12,1.44-.16,2.16-.12.42.02.68-.11.89-.5,2.24-4.28,5.51-7.52,9.83-9.69.52-.26.52-.63.51-1.09-.15-3.77,1.4-6.71,4.5-8.76,5.98-3.94,14.07-.19,15.02,6.9.09.7.18,1.39.06,2.08-.08.44.08.63.44.81,1.93.96,3.68,2.18,5.26,3.65,1.83,1.69,3.34,3.64,4.49,5.84.31.58.65.79,1.29.76,4.88-.25,9.22,3.38,10.02,8.3.85,5.16-2.98,10.47-8.17,11.2-.65.09-1.29.15-1.95.12-.34-.02-.57.08-.73.41-1.08,2.24-2.49,4.26-4.23,6.03-.03.03-.02.08-.05.18.34.04.68.05,1.01.12.65.13,1.04.62,1,1.23-.04.62-.48,1.1-1.13,1.11-1.44.03-2.89.03-4.33,0-.73-.02-1.19-.49-1.22-1.28-.05-1.4-.05-2.79,0-4.19.03-.79.55-1.2,1.29-1.16.67.04,1.07.49,1.1,1.27.02.45,0,.91,0,1.37.06.03.12.05.18.08ZM127.11,140.66c-.06-.92-.5-1.76-1.39-2.31-.31-.19-.54-.38-.65-.76-.12-.45-.48-.66-.96-.67-.48,0-.83.23-.95.67-.1.39-.36.56-.66.75-1.09.72-1.49,1.77-1.31,3.02.16,1.14.83,1.89,1.93,2.25.46.15.93.3,1.38.5.54.23.68.72.39,1.2-.2.34-.51.47-.89.41-.52-.07-.72-.42-.82-.9-.14-.7-.59-1.08-1.12-1.01-.61.08-.97.54-.92,1.27.07,1,.58,1.75,1.39,2.31.29.2.55.37.64.76.11.46.51.68.96.66.44-.02.84-.22.95-.69.09-.36.3-.54.59-.71,1.09-.66,1.52-1.69,1.39-2.91-.13-1.22-.83-2.04-2.01-2.42-.46-.15-.94-.28-1.38-.49-.48-.22-.6-.64-.36-1.11.25-.48.65-.65,1.17-.42.4.18.52.55.6.96.11.6.57.93,1.16.85.61-.09.87-.48.86-1.2ZM148.64,123.68c0-1.77-.66-2.7-1.95-3.16-.44-.16-.88-.29-1.32-.45-.42-.15-.66-.44-.57-.91.08-.43.32-.72.79-.76.48-.04.81.18.97.63.05.13.04.28.08.41.14.57.5.9,1.1.87.57-.02.92-.46.92-1.1,0-1.1-.51-1.91-1.42-2.48-.29-.18-.51-.36-.59-.72-.1-.44-.44-.63-.88-.64-.46-.02-.86.11-1,.58-.12.42-.42.63-.75.86-1,.68-1.41,1.67-1.29,2.83.13,1.19.8,2.01,1.95,2.4.44.15.88.29,1.32.45.39.14.63.41.58.84-.05.44-.3.74-.73.83-.41.09-.73-.11-.94-.45-.1-.17-.15-.39-.19-.59-.13-.58-.47-.9-1.08-.86-.57.04-.96.47-.95,1.09.02,1.03.53,1.82,1.34,2.41.33.24.6.46.74.87.15.44.54.61,1.01.59.44-.02.77-.23.87-.67.08-.36.31-.54.6-.71.97-.57,1.38-1.46,1.4-2.14ZM164.32,145.27c.03.78.51,1.56,1.38,2.1.28.18.54.33.61.7.09.48.47.7.91.72.44.02.85-.17.99-.63.12-.39.37-.6.69-.81,1-.67,1.45-1.64,1.33-2.82-.13-1.24-.8-2.1-2.05-2.47-.45-.13-.89-.27-1.31-.47-.56-.26-.67-.87-.27-1.33.21-.24.48-.37.81-.3.53.12.72.52.83,1.01.14.67.58.98,1.19.87.56-.09.89-.54.83-1.18-.08-.95-.49-1.75-1.31-2.27-.35-.22-.61-.44-.74-.86-.13-.45-.52-.64-.98-.62-.44.01-.79.2-.9.64-.09.38-.33.57-.64.77-1.11.69-1.5,1.74-1.35,3,.14,1.16.82,1.89,1.89,2.29.46.17.92.32,1.38.48.56.2.67.61.47,1.12-.16.39-.48.56-.9.51-.52-.06-.74-.39-.84-.88-.15-.75-.54-1.04-1.2-.97-.6.06-.86.42-.83,1.4Z"/>
            <path class="cls-3" d="M145.67,173.23c-2.56,0-5.12,0-7.68,0-1.8,0-2.65-.86-2.65-2.66,0-1.84-.03-3.68,0-5.51.09-4.02,1.93-7.01,5.39-9,.56-.32.55-.47.12-.91-2-2.02-2.56-4.45-1.7-7.13.81-2.55,2.65-4.03,5.26-4.55,3.02-.59,6.07.89,7.44,3.59,1.39,2.75.81,6.15-1.44,8.2-.39.35-.35.46.09.7,3.7,2.07,5.51,5.27,5.57,9.49.02,1.7,0,3.4,0,5.1,0,1.77-.91,2.68-2.66,2.68-2.58,0-5.17,0-7.75,0Z"/>
          </g>
        </g>
        <g>
          <rect class="cls-5" x="225.28" y="0" width="82.92" height="82.92" rx="41.46" ry="41.46" transform="translate(-2.51 60.81) rotate(-12.95)"/>
          <g>
            <path class="cls-3" d="M283.91,53.46c.4-.69.84-1.37,1.2-2.08.62-1.2,1.07-2.48,1.46-3.77.16-.54.04-.7-.52-.81-4.17-.85-6.8-3.44-7.72-7.52-.88-3.9.28-7.28,3.48-9.82.45-.35.46-.55.08-.95-2.6-2.8-5.72-4.74-9.38-5.81-.6-.18-.83-.07-.99.58-1.01,4.02-3.65,6.44-7.64,7.25-3.84.78-7.08-.43-9.57-3.49-.33-.41-.52-.38-.87-.07-2.9,2.6-4.91,5.75-6.06,9.47-.21.67.14.73.62.84,6.64,1.54,9.75,9.28,6.02,14.97-.64.98-1.45,1.81-2.41,2.5-.29.21-.53.39-.2.77,1.43,1.64,3.05,3.07,4.94,4.16.03.02.09,0,.24,0-.11-.46-.23-.9-.31-1.35-.15-.83.19-1.38.93-1.53.7-.14,1.23.2,1.43.99.33,1.33.64,2.67.93,4.02.16.76-.19,1.31-.98,1.51-1.31.32-2.63.62-3.95.91-.82.18-1.42-.18-1.58-.87-.16-.67.2-1.21.97-1.46.22-.07.44-.13.66-.19.03-.28-.2-.32-.34-.41-1.86-1.27-3.54-2.73-4.94-4.5-.36-.45-.7-.54-1.26-.41-4.95,1.13-9.55-1.18-11.39-5.9-2.03-5.2.15-10.59,5.34-12.71.67-.27,1.36-.47,2.07-.6.41-.08.64-.26.75-.69,1.22-4.67,3.68-8.57,7.41-11.65.45-.37.37-.74.25-1.18-.99-3.64-.14-6.86,2.43-9.55,4.94-5.18,13.67-3.33,16.19,3.36.25.66.48,1.32.52,2.02.02.44.22.6.61.69,2.09.51,4.07,1.3,5.95,2.38,2.16,1.24,4.07,2.8,5.68,4.69.43.5.81.63,1.43.45,4.7-1.34,9.74,1.23,11.63,5.84,1.98,4.84-.56,10.87-5.46,12.75-.61.23-1.23.44-1.87.55-.33.06-.54.21-.62.56-.55,2.43-1.47,4.7-2.77,6.83-.02.03,0,.09,0,.19.34-.04.68-.1,1.01-.11.66-.02,1.15.37,1.25.97.1.61-.22,1.18-.85,1.34-1.4.35-2.81.68-4.22.96-.71.14-1.27-.21-1.47-.97-.36-1.35-.67-2.71-.94-4.08-.15-.78.27-1.29.99-1.42.66-.11,1.16.24,1.36.99.12.44.21.89.31,1.33.06.01.13.02.19.03ZM248.23,44.01c-.26-.89-.88-1.6-1.88-1.94-.34-.12-.61-.24-.8-.6-.22-.41-.62-.54-1.08-.44-.47.1-.76.41-.78.87-.01.4-.23.62-.47.88-.9.94-1.05,2.05-.6,3.24.41,1.08,1.23,1.66,2.39,1.76.49.05.98.09,1.45.17.58.11.83.55.65,1.08-.12.37-.39.57-.77.6-.52.05-.8-.25-1-.7-.3-.65-.81-.92-1.31-.73-.58.22-.82.75-.61,1.44.29.96.96,1.58,1.87,1.94.33.13.62.24.8.6.21.42.65.55,1.08.43.42-.12.77-.4.78-.88,0-.37.17-.59.42-.83.91-.89,1.1-1.98.71-3.15-.4-1.16-1.26-1.8-2.5-1.91-.49-.04-.98-.07-1.45-.17-.52-.11-.73-.49-.6-1,.14-.52.49-.78,1.05-.67.43.09.63.42.8.8.24.56.77.78,1.32.57.57-.22.74-.66.57-1.36ZM265.4,22.64c-.39-1.73-1.25-2.49-2.61-2.65-.46-.05-.93-.09-1.39-.15-.44-.06-.74-.28-.76-.76-.02-.44.15-.78.6-.91.46-.14.83,0,1.09.4.07.11.1.26.17.38.27.52.69.76,1.26.61.55-.15.8-.65.65-1.28-.24-1.07-.92-1.75-1.94-2.1-.32-.11-.58-.23-.74-.57-.2-.41-.57-.52-1-.43-.45.09-.82.3-.85.79-.03.44-.26.71-.54,1-.82.88-1,1.94-.62,3.05.39,1.13,1.23,1.78,2.44,1.9.46.05.93.08,1.39.14.41.05.71.26.76.69.05.44-.13.78-.53.97-.38.18-.74.06-1.01-.23-.14-.15-.23-.35-.32-.53-.26-.53-.66-.77-1.25-.59-.55.17-.83.67-.68,1.27.25,1,.92,1.65,1.84,2.05.37.16.69.31.91.68.25.4.67.47,1.11.35.43-.12.7-.4.7-.84,0-.37.18-.59.42-.83.82-.78,1.02-1.73.88-2.4ZM285.52,40.17c.21.75.85,1.4,1.82,1.74.31.11.6.2.75.55.2.45.61.58,1.05.5.44-.08.79-.36.82-.84.03-.41.23-.67.5-.95.82-.87,1.05-1.93.66-3.04-.4-1.18-1.25-1.87-2.55-1.95-.46-.03-.93-.07-1.39-.16-.6-.12-.85-.7-.56-1.24.15-.29.39-.47.72-.47.55,0,.82.34,1.03.8.29.62.78.82,1.35.58.52-.22.75-.72.55-1.34-.3-.91-.87-1.59-1.79-1.92-.39-.14-.69-.29-.91-.67-.23-.4-.64-.5-1.1-.39-.43.11-.72.38-.73.82,0,.39-.19.63-.45.89-.93.92-1.07,2.03-.64,3.22.39,1.1,1.22,1.66,2.36,1.8.48.06.97.1,1.46.16.59.07.79.45.71.99-.06.42-.34.65-.76.7-.52.06-.81-.21-1.02-.67-.31-.7-.76-.89-1.39-.68-.57.2-.74.6-.5,1.55Z"/>
            <path class="cls-3" d="M273.61,71.6c-2.49.57-4.99,1.15-7.48,1.72-1.76.4-2.77-.24-3.18-1.99-.41-1.79-.86-3.58-1.23-5.38-.81-3.93.31-7.26,3.24-9.98.48-.44.43-.58-.09-.91-2.4-1.52-3.49-3.76-3.25-6.57.22-2.67,1.68-4.52,4.11-5.61,2.81-1.26,6.12-.5,8.06,1.83,1.97,2.37,2.17,5.81.43,8.31-.3.43-.24.52.24.66,4.07,1.19,6.55,3.91,7.55,8,.4,1.65.77,3.31,1.14,4.97.39,1.72-.28,2.81-1.99,3.21-2.52.59-5.03,1.16-7.55,1.74Z"/>
          </g>
        </g>
        <g>
          <rect class="cls-5" x="363.69" y="166.42" width="82.92" height="82.92" rx="41.46" ry="41.46"/>
          <g>
            <path class="cls-3" d="M419.19,223.42c.55-.59,1.12-1.15,1.64-1.76.87-1.04,1.59-2.18,2.26-3.35.28-.49.19-.67-.33-.91-3.88-1.76-5.86-4.88-5.84-9.06.02-4,1.9-7.04,5.59-8.79.51-.25.57-.43.29-.91-1.9-3.31-4.51-5.9-7.84-7.76-.55-.31-.79-.25-1.1.35-1.88,3.69-5,5.46-9.07,5.36-3.91-.1-6.8-2.01-8.54-5.54-.23-.47-.42-.49-.83-.26-3.41,1.88-6.07,4.51-8.03,7.87-.35.6-.03.74.41.95,6.13,2.99,7.43,11.22,2.52,15.94-.85.81-1.82,1.44-2.91,1.89-.33.14-.6.26-.37.7,1.03,1.92,2.28,3.68,3.89,5.17.03.03.08.02.23.05,0-.47-.02-.93,0-1.38.04-.84.5-1.3,1.25-1.28.71.02,1.15.47,1.17,1.29.02,1.37.02,2.75,0,4.12-.01.78-.48,1.24-1.29,1.25-1.35.02-2.7.02-4.05,0-.84-.01-1.34-.49-1.34-1.2,0-.69.47-1.13,1.27-1.21.23-.02.46-.03.68-.04.09-.27-.12-.35-.24-.48-1.53-1.65-2.84-3.46-3.81-5.49-.25-.52-.57-.68-1.13-.68-5.08-.01-9.04-3.29-9.77-8.3-.81-5.53,2.52-10.29,8.05-11.19.72-.12,1.44-.16,2.16-.12.42.02.68-.11.89-.5,2.24-4.28,5.51-7.52,9.83-9.69.52-.26.52-.63.51-1.09-.15-3.77,1.4-6.71,4.5-8.76,5.98-3.94,14.07-.19,15.02,6.9.09.7.18,1.39.06,2.08-.08.44.08.63.44.81,1.93.96,3.68,2.18,5.26,3.65,1.83,1.69,3.34,3.64,4.49,5.84.31.58.65.79,1.29.76,4.88-.25,9.22,3.38,10.02,8.3.85,5.16-2.98,10.47-8.17,11.2-.65.09-1.29.15-1.95.12-.34-.02-.57.08-.73.41-1.08,2.24-2.49,4.26-4.23,6.03-.03.03-.02.08-.05.18.34.04.68.05,1.01.12.65.13,1.04.62,1,1.23-.04.62-.48,1.1-1.13,1.11-1.44.03-2.89.03-4.33,0-.73-.02-1.19-.49-1.22-1.28-.05-1.4-.05-2.79,0-4.19.03-.79.55-1.2,1.29-1.16.67.04,1.07.49,1.1,1.27.02.45,0,.91,0,1.37.06.03.12.05.18.08ZM386.53,206.22c-.06-.92-.5-1.76-1.39-2.31-.31-.19-.54-.38-.65-.76-.12-.45-.48-.66-.96-.67-.48,0-.83.23-.95.67-.1.39-.36.56-.66.75-1.09.72-1.49,1.77-1.31,3.02.16,1.14.83,1.89,1.93,2.25.46.15.93.3,1.38.5.54.23.68.72.39,1.2-.2.34-.51.47-.89.41-.52-.07-.72-.42-.82-.9-.14-.7-.59-1.08-1.12-1.01-.61.08-.97.54-.92,1.27.07,1,.58,1.75,1.39,2.31.29.2.55.37.64.76.11.46.51.68.96.66.44-.02.84-.22.95-.69.09-.36.3-.54.59-.71,1.09-.66,1.52-1.69,1.39-2.91-.13-1.22-.83-2.04-2.01-2.42-.46-.15-.94-.28-1.38-.49-.48-.22-.6-.64-.36-1.11.25-.48.65-.65,1.17-.42.4.18.52.55.6.96.11.6.57.93,1.16.85.61-.09.87-.48.86-1.2ZM408.06,189.24c0-1.77-.66-2.7-1.95-3.16-.44-.16-.88-.29-1.32-.45-.42-.15-.66-.44-.57-.91.08-.43.32-.72.79-.76.48-.04.81.18.97.63.05.13.04.28.08.41.14.57.5.9,1.1.87.57-.02.92-.46.92-1.1,0-1.1-.51-1.91-1.42-2.48-.29-.18-.51-.36-.59-.72-.1-.44-.44-.63-.88-.64-.46-.02-.86.11-1,.58-.12.42-.42.63-.75.86-1,.68-1.41,1.67-1.29,2.83.13,1.19.8,2.01,1.95,2.4.44.15.88.29,1.32.45.39.14.63.41.58.84-.05.44-.3.74-.73.83-.41.09-.73-.11-.94-.45-.1-.17-.15-.39-.19-.59-.13-.58-.47-.9-1.08-.86-.57.04-.96.47-.95,1.09.02,1.03.53,1.82,1.34,2.41.33.24.6.46.74.87.15.44.54.61,1.01.59.44-.02.77-.23.87-.67.08-.36.31-.54.6-.71.97-.57,1.38-1.46,1.4-2.14ZM423.73,210.83c.03.78.51,1.56,1.38,2.1.28.18.54.33.61.7.09.48.47.7.91.72.44.02.85-.17.99-.63.12-.39.37-.6.69-.81,1-.67,1.45-1.64,1.33-2.82-.13-1.24-.8-2.1-2.05-2.47-.45-.13-.89-.27-1.31-.47-.56-.26-.67-.87-.27-1.33.21-.24.48-.37.81-.3.53.12.72.52.83,1.01.14.67.58.98,1.19.87.56-.09.89-.54.83-1.18-.08-.95-.49-1.75-1.31-2.27-.35-.22-.61-.44-.74-.86-.13-.45-.52-.64-.98-.62-.44.01-.79.2-.9.64-.09.38-.33.57-.64.77-1.11.69-1.5,1.74-1.35,3,.14,1.16.82,1.89,1.89,2.29.46.17.92.32,1.38.48.56.2.67.61.47,1.12-.16.39-.48.56-.9.51-.52-.06-.74-.39-.84-.88-.15-.75-.54-1.04-1.2-.97-.6.06-.86.42-.83,1.4Z"/>
            <path class="cls-3" d="M405.08,238.78c-2.56,0-5.12,0-7.68,0-1.8,0-2.65-.86-2.65-2.66,0-1.84-.03-3.68,0-5.51.09-4.02,1.93-7.01,5.39-9,.56-.32.55-.47.12-.91-2-2.02-2.56-4.45-1.7-7.13.81-2.55,2.65-4.03,5.26-4.55,3.02-.59,6.07.89,7.44,3.59,1.39,2.75.81,6.15-1.44,8.2-.39.35-.35.46.09.7,3.7,2.07,5.51,5.27,5.57,9.49.02,1.7,0,3.4,0,5.1,0,1.77-.91,2.68-2.66,2.68-2.58,0-5.17,0-7.75,0Z"/>
          </g>
        </g>
        <g>
          <rect class="cls-5" x="293.09" y="143.45" width="82.92" height="82.92" rx="41.46" ry="41.46"/>
          <g>
            <path class="cls-3" d="M341.8,208.53c-5.02,0-10.03,0-15.05,0-.74,0-1.34-.23-1.88-.73-4.72-4.39-9.46-8.78-14.19-13.16-.65-.6-.94-1.31-.69-2.18.23-.8.78-1.29,1.6-1.46.74-.15,1.36.12,1.9.62,2.41,2.24,4.83,4.48,7.24,6.72,2.05,1.9,4.11,3.8,6.14,5.71.3.28.61.39,1.01.38,9.67-.01,19.34,0,29.01,0,1.14,0,1.91.5,2.2,1.41.42,1.31-.51,2.65-1.89,2.68-1.13.02-2.25,0-3.38,0-4.01,0-8.01,0-12.02,0Z"/>
            <path class="cls-3" d="M334.49,193.09c-.69.35-1.35.68-2,1.03-.24.13-.37-.04-.52-.15-1.74-1.29-3.47-2.6-5.22-3.87-1.44-1.05-3.35-.66-4.21.83-.71,1.23-.45,2.77.71,3.65,2.36,1.79,4.74,3.54,7.13,5.3.6.44,1.29.58,2.02.5.45-.05.85-.25,1.25-.45,1.86-.94,3.72-1.88,5.57-2.83.27-.14.47-.2.7.04.21.22.48.24.77.24,4.97,0,9.94,0,14.9,0,1.24,0,2.1.65,2.33,1.73.28,1.31-.66,2.56-1.99,2.66-.16.01-.33,0-.5,0-8.08,0-16.16,0-24.24,0-1.5,0-2.76-.48-3.87-1.49-2.76-2.54-5.55-5.06-8.33-7.59-1.01-.91-.88-1.98.3-2.65,1.31-.74,2.62-1.48,3.93-2.22.97-.54,1.99-.8,3.1-.55.44.1.85.28,1.21.55,2.25,1.69,4.49,3.38,6.74,5.07.06.05.12.11.21.2Z"/>
            <path class="cls-3" d="M334.68,172.42c.02-6.17,5.03-11.14,11.22-11.13,6.19.01,11.18,5.03,11.14,11.19-.04,6.16-5.03,11.13-11.18,11.12-6.17,0-11.2-5.04-11.18-11.18ZM345.88,163.12c-5.13,0-9.33,4.16-9.34,9.28,0,5.17,4.14,9.33,9.32,9.34,5.14,0,9.33-4.14,9.35-9.27.02-5.14-4.17-9.35-9.33-9.35Z"/>
            <path class="cls-3" d="M332.02,198.81c-.35.02-.61-.12-.85-.3-2.27-1.69-4.54-3.37-6.81-5.07-.67-.5-.81-1.22-.38-1.82.44-.61,1.2-.7,1.88-.2,1.74,1.29,3.49,2.57,5.22,3.88.72.55,1.4.62,2.2.2,2.66-1.38,5.33-2.72,8-4.08.81-.41,1.58-.18,1.89.54.28.65.02,1.31-.7,1.68-1.72.89-3.44,1.76-5.17,2.64-1.5.76-3.01,1.53-4.51,2.29-.25.13-.5.26-.77.22Z"/>
            <path class="cls-3" d="M316.09,181.22c2.47.03,4.46,2.32,4.07,4.71-.32,2-2.19,3.2-4.25,2.73-2.08-.47-3.52-2.55-3.22-4.65.23-1.63,1.68-2.82,3.4-2.8Z"/>
            <path class="cls-3" d="M342.01,195.68c.37-.19.75-.38,1.12-.57,1.34-.7,1.86-1.71,1.67-3.21-.02-.12-.06-.24.06-.37.91-1.02,2.02-1.05,2.96-.07,1.23,1.29,2.46,2.59,3.69,3.88.11.11.27.2.28.44-1.2,0-2.38,0-3.57,0-.17,0-.25-.14-.36-.25-.42-.44-.85-.88-1.26-1.33-.18-.2-.31-.23-.52-.05-.54.44-1.11.83-1.64,1.28-.33.27-.66.39-1.09.36-.44-.03-.88,0-1.31,0,0-.04-.02-.07-.03-.11Z"/>
            <path class="cls-3" d="M331.22,188.6c1.48-.87,2.88-1.71,4.31-2.5.6-.33,1.3-.09,1.64.47.35.58.21,1.32-.39,1.7-1.04.65-2.1,1.25-3.15,1.87-.15.09-.26.09-.4-.02-.64-.49-1.29-.98-2-1.51Z"/>
            <path class="cls-3" d="M320.54,174.69c0-1.11,0-2.21,0-3.32,0-.59.3-.94.78-.95.49,0,.8.34.8.92,0,2.26,0,4.52,0,6.78,0,.6-.29.93-.78.94-.52,0-.8-.33-.8-.97,0-1.14,0-2.28,0-3.41Z"/>
            <path class="cls-3" d="M325.39,178.66c0-1.12,0-2.24,0-3.36,0-.62.31-.99.8-.97.47.01.78.38.78.96,0,2.24,0,4.49,0,6.73,0,.61-.33.98-.82.97-.48-.01-.77-.36-.77-.96,0-1.12,0-2.24,0-3.36Z"/>
            <path class="cls-3" d="M330.23,174.73c0-1.12,0-2.25,0-3.37,0-.55.27-.88.7-.92.5-.06.87.31.88.9.01.96,0,1.92,0,2.88,0,1.32,0,2.64,0,3.97,0,.62-.39.97-.93.89-.42-.06-.65-.37-.65-.91,0-1.14,0-2.28,0-3.42Z"/>
            <path class="cls-3" d="M345.85,180.16c-4.3,0-7.74-3.47-7.72-7.78.01-4.22,3.51-7.68,7.75-7.67,4.27.01,7.74,3.49,7.73,7.75,0,4.26-3.49,7.71-7.76,7.7ZM347.79,174.64c.02.3-.12.55-.37.74-.92.69-3.14.66-3.54-.89-.12-.46-.56-.64-.98-.51-.44.14-.65.54-.52,1.02.33,1.19,1.15,1.9,2.3,2.25.29.09.4.18.4.5,0,.55.32.89.78.89.45,0,.81-.35.8-.88,0-.32.1-.44.4-.48.19-.03.38-.11.56-.18.99-.43,1.69-1.1,1.76-2.24.07-1.15-.43-2.01-1.42-2.59-.47-.28-1-.44-1.53-.55-.5-.11-1.01-.17-1.48-.38-.42-.19-.73-.47-.74-.96,0-.49.26-.84.69-1.06,1.01-.54,2.31-.15,2.75.86.2.47.66.61,1.07.42.43-.2.57-.65.35-1.14-.38-.84-1-1.44-1.87-1.73-.39-.13-.55-.27-.54-.7.01-.44-.35-.73-.77-.74-.42,0-.82.29-.79.71.04.5-.22.62-.6.77-1.19.45-1.88,1.44-1.88,2.59,0,1.16.66,2.05,1.88,2.53.43.17.88.27,1.34.35.47.08.94.2,1.36.44.37.22.59.52.6.99Z"/>
          </g>
        </g>
        <g>
          <rect class="cls-5" x="338.47" y="82.94" width="82.92" height="82.92" rx="41.46" ry="41.46" transform="translate(98.82 408.66) rotate(-63.45)"/>
          <g>
            <path class="cls-3" d="M376.34,129.66c2.37,1.18,4.75,2.36,7.11,3.56,2.08,1.05,2.69,3.31,1.44,5.18-.79,1.17-2.28,1.72-3.75,1.33-.37-.1-.47-.04-.57.33-.6,2.37-.84,4.77-.72,7.21.02.35.13.45.47.48,2.58.2,5.15.15,7.72-.16.4-.05.79-.07,1.14.17.44.3.66.83.55,1.34-.12.54-.54.92-1.16,1-1.46.19-2.92.3-4.39.32-7.84.11-15.1-1.91-21.76-6.03-5.69-3.53-10.19-8.24-13.53-14.05-.43-.75-.28-1.48.37-1.88.66-.4,1.41-.16,1.85.61,1.29,2.24,2.79,4.33,4.49,6.28.27.32.44.32.77.08,6-4.36,10.21-10.04,12.54-17.09,1.67-5.03,2.1-10.17,1.37-15.41-.02-.17-.05-.34-.07-.51-.07-.78.37-1.39,1.08-1.49.72-.1,1.33.36,1.45,1.13.31,1.94.46,3.9.44,5.87-.02,3.04-.41,6.02-1.17,8.96-.07.28-.02.47.14.7,1.51,2.16,3.5,3.42,6.19,3.56,2.18.11,4.31.49,6.22,1.67.49.31.98.63,1.42,1,.57.48.66,1.24.24,1.79-.41.53-1.19.71-1.74.26-1.95-1.62-4.26-2.05-6.69-2.21-2.58-.17-4.78-1.17-6.53-3.12-.14-.16-.27-.35-.41.01-.66,1.69-1.37,3.35-2.28,4.93-.19.34.11.37.29.46,1.6.81,3.21,1.61,4.81,2.41.89.44,1.77.89,2.66,1.33ZM357.75,137.57c1.49,1.41,3.03,2.66,4.68,3.8,4.34,2.99,9.11,4.92,14.28,5.89.43.08.58.07.55-.45-.12-2.66.2-5.28.94-7.84.14-.48,0-.64-.4-.84-4.09-2.03-8.16-4.07-12.24-6.11-1.11-.56-1.12-.56-1.96.36-1.75,1.92-3.69,3.63-5.86,5.19ZM373.98,133.37c2.44,1.22,4.89,2.44,7.33,3.66.15.08.3.16.46.21.43.14.89-.05,1.07-.46.19-.42.12-.81-.26-1.09-.18-.13-.38-.23-.58-.33-4.57-2.28-9.13-4.57-13.7-6.84-.39-.2-.8-.6-1.19-.5-.37.09-.49.66-.77.97-.3.32-.2.47.17.65,2.5,1.23,4.98,2.48,7.47,3.73Z"/>
            <path class="cls-3" d="M390.47,112.82c2.63-5.32,9.12-7.5,14.47-4.87,5.34,2.63,7.54,9.11,4.91,14.44-2.65,5.37-9.12,7.57-14.48,4.92-5.35-2.65-7.55-9.14-4.9-14.49ZM392.77,113.95c-2.03,4.07-.36,9.03,3.71,11.06,4.08,2.03,9.01.37,11.05-3.72,2.02-4.06.37-8.98-3.69-11.02-4.07-2.04-9.04-.38-11.07,3.68Z"/>
            <path class="cls-3" d="M394.08,132.62c-.33.66-.65,1.32-.99,1.97-.36.69-1.02.93-1.67.64-.66-.3-.97-1.02-.63-1.72.66-1.39,1.35-2.76,2.06-4.12.36-.69,1.1-.89,1.75-.54.63.33.84,1.02.51,1.71-.33.69-.68,1.38-1.03,2.06Z"/>
            <path class="cls-3" d="M397.51,131.67c.22-.44.43-.89.67-1.33.34-.64,1.02-.88,1.65-.6.65.29.97.99.66,1.67-.44.96-.91,1.91-1.42,2.84-.35.65-1.11.85-1.72.52-.62-.33-.84-1.04-.52-1.72.22-.46.46-.92.69-1.38Z"/>
            <path class="cls-3" d="M388.22,127.07c.23-.46.45-.92.69-1.37.35-.64,1.02-.87,1.65-.59.63.29.95.96.66,1.62-.44,1-.93,1.98-1.47,2.93-.35.63-1.11.79-1.7.46-.6-.33-.82-1.02-.52-1.68.21-.47.46-.92.68-1.38Z"/>
            <path class="cls-3" d="M401.71,114.86c-.57-.3-1.05-.46-1.58-.41-.58.05-.78.42-.49.93.29.52.77.86,1.21,1.24.61.52,1.22,1.04,1.71,1.68.97,1.28,1.13,2.65.43,3.76-.73,1.17-2.08,1.69-3.64,1.35-.42-.09-.66-.07-.88.35-.29.55-1,.7-1.57.43-.61-.29-.93-.95-.63-1.58.21-.46.07-.67-.24-.98-.86-.88-1.35-1.92-1.2-3.19.11-.86.67-1.38,1.4-1.32.78.07,1.22.66,1.14,1.57-.03.35.08.64.29.9.63.78,1.45,1.23,2.45,1.35.25.03.54.05.69-.22.15-.27-.03-.5-.16-.71-.39-.6-.95-1.02-1.48-1.47-.47-.4-.93-.8-1.32-1.28-.96-1.18-1.15-2.59-.51-3.77.62-1.14,1.97-1.78,3.46-1.59.47.06.79.07,1.07-.42.33-.57,1.08-.68,1.63-.37.58.33.83,1.01.52,1.63-.18.36-.06.52.19.76,1.01.96,1.59,2.09,1.26,3.53-.11.5-.45.8-.93.93-.48.13-.91,0-1.26-.38-.22-.23-.37-.53-.32-.84.16-.9-.41-1.34-1.03-1.77-.1-.07-.21-.12-.21-.12Z"/>
          </g>
        </g>
        <g>
          <rect class="cls-5" x="172.08" y="47.65" width="82.92" height="82.92" rx="41.46" ry="41.46" transform="translate(38.37 240.3) rotate(-63.45)"/>
          <g>
            <path class="cls-3" d="M209.94,94.37c2.37,1.18,4.75,2.36,7.11,3.56,2.08,1.05,2.69,3.31,1.44,5.18-.79,1.17-2.28,1.72-3.75,1.33-.37-.1-.47-.04-.57.33-.6,2.37-.84,4.77-.72,7.21.02.35.13.45.47.48,2.58.2,5.15.15,7.72-.16.4-.05.79-.07,1.14.17.44.3.66.83.55,1.34-.12.54-.54.92-1.16,1-1.46.19-2.92.3-4.39.32-7.84.11-15.1-1.91-21.76-6.03-5.69-3.53-10.19-8.24-13.53-14.05-.43-.75-.28-1.48.37-1.88.66-.4,1.41-.16,1.85.61,1.29,2.24,2.79,4.33,4.49,6.28.27.32.44.32.77.08,6-4.36,10.21-10.04,12.54-17.09,1.67-5.03,2.1-10.17,1.37-15.41-.02-.17-.05-.34-.07-.51-.07-.78.37-1.39,1.08-1.49.72-.1,1.33.36,1.45,1.13.31,1.94.46,3.9.44,5.87-.02,3.04-.41,6.02-1.17,8.96-.07.28-.02.47.14.7,1.51,2.16,3.5,3.42,6.19,3.56,2.18.11,4.31.49,6.22,1.67.49.31.98.63,1.42,1,.57.48.66,1.24.24,1.79-.41.53-1.19.71-1.74.26-1.95-1.62-4.26-2.05-6.69-2.21-2.58-.17-4.78-1.17-6.53-3.12-.14-.16-.27-.35-.41.01-.66,1.69-1.37,3.35-2.28,4.93-.19.34.11.37.29.46,1.6.81,3.21,1.61,4.81,2.41.89.44,1.77.89,2.66,1.33ZM191.35,102.28c1.49,1.41,3.03,2.66,4.68,3.8,4.34,2.99,9.11,4.92,14.28,5.89.43.08.58.07.55-.45-.12-2.66.2-5.28.94-7.84.14-.48,0-.64-.4-.84-4.09-2.03-8.16-4.07-12.24-6.11-1.11-.56-1.12-.56-1.96.36-1.75,1.92-3.69,3.63-5.86,5.19ZM207.59,98.08c2.44,1.22,4.89,2.44,7.33,3.66.15.08.3.16.46.21.43.14.89-.05,1.07-.46.19-.42.12-.81-.26-1.09-.18-.13-.38-.23-.58-.33-4.57-2.28-9.13-4.57-13.7-6.84-.39-.2-.8-.6-1.19-.5-.37.09-.49.66-.77.97-.3.32-.2.47.17.65,2.5,1.23,4.98,2.48,7.47,3.73Z"/>
            <path class="cls-3" d="M224.07,77.53c2.63-5.32,9.12-7.5,14.47-4.87,5.34,2.63,7.54,9.11,4.91,14.44-2.65,5.37-9.12,7.57-14.48,4.92-5.35-2.65-7.55-9.14-4.9-14.49ZM226.37,78.66c-2.03,4.07-.36,9.03,3.71,11.06,4.08,2.03,9.01.37,11.05-3.72,2.02-4.06.37-8.98-3.69-11.02-4.07-2.04-9.04-.38-11.07,3.68Z"/>
            <path class="cls-3" d="M227.69,97.33c-.33.66-.65,1.32-.99,1.97-.36.69-1.02.93-1.67.64-.66-.3-.97-1.02-.63-1.72.66-1.39,1.35-2.76,2.06-4.12.36-.69,1.1-.89,1.75-.54.63.33.84,1.02.51,1.71-.33.69-.68,1.38-1.03,2.06Z"/>
            <path class="cls-3" d="M231.11,96.38c.22-.44.43-.89.67-1.33.34-.64,1.02-.88,1.65-.6.65.29.97.99.66,1.67-.44.96-.91,1.91-1.42,2.84-.35.65-1.11.85-1.72.52-.62-.33-.84-1.04-.52-1.72.22-.46.46-.92.69-1.38Z"/>
            <path class="cls-3" d="M221.82,91.78c.23-.46.45-.92.69-1.37.35-.64,1.02-.87,1.65-.59.63.29.95.96.66,1.62-.44,1-.93,1.98-1.47,2.93-.35.63-1.11.79-1.7.46-.6-.33-.82-1.02-.52-1.68.21-.47.46-.92.68-1.38Z"/>
            <path class="cls-3" d="M235.31,79.57c-.57-.3-1.05-.46-1.58-.41-.58.05-.78.42-.49.93.29.52.77.86,1.21,1.24.61.52,1.22,1.04,1.71,1.68.97,1.28,1.13,2.65.43,3.76-.73,1.17-2.08,1.69-3.64,1.35-.42-.09-.66-.07-.88.35-.29.55-1,.7-1.57.43-.61-.29-.93-.95-.63-1.58.21-.46.07-.67-.24-.98-.86-.88-1.35-1.92-1.2-3.19.11-.86.67-1.38,1.4-1.32.78.07,1.22.66,1.14,1.57-.03.35.08.64.29.9.63.78,1.45,1.23,2.45,1.35.25.03.54.05.69-.22.15-.27-.03-.5-.16-.71-.39-.6-.95-1.02-1.48-1.47-.47-.4-.93-.8-1.32-1.28-.96-1.18-1.15-2.59-.51-3.77.62-1.14,1.97-1.78,3.46-1.59.47.06.79.07,1.07-.42.33-.57,1.08-.68,1.63-.37.58.33.83,1.01.52,1.63-.18.36-.06.52.19.76,1.01.96,1.59,2.09,1.26,3.53-.11.5-.45.8-.93.93-.48.13-.91,0-1.26-.38-.22-.23-.37-.53-.32-.84.16-.9-.41-1.34-1.03-1.77-.1-.07-.21-.12-.21-.12Z"/>
          </g>
        </g>
        <g>
          <rect class="cls-5" x="43.75" y="138.42" width="82.92" height="82.92" rx="41.46" ry="41.46" transform="translate(-113.79 175.7) rotate(-63.45)"/>
          <g>
            <path class="cls-3" d="M81.61,185.14c2.37,1.18,4.75,2.36,7.11,3.56,2.08,1.05,2.69,3.31,1.44,5.18-.79,1.17-2.28,1.72-3.75,1.33-.37-.1-.47-.04-.57.33-.6,2.37-.84,4.77-.72,7.21.02.35.13.45.47.48,2.58.2,5.15.15,7.72-.16.4-.05.79-.07,1.14.17.44.3.66.83.55,1.34-.12.54-.54.92-1.16,1-1.46.19-2.92.3-4.39.32-7.84.11-15.1-1.91-21.76-6.03-5.69-3.53-10.19-8.24-13.53-14.05-.43-.75-.28-1.48.37-1.88.66-.4,1.41-.16,1.85.61,1.29,2.24,2.79,4.33,4.49,6.28.27.32.44.32.77.08,6-4.36,10.21-10.04,12.54-17.09,1.67-5.03,2.1-10.17,1.37-15.41-.02-.17-.05-.34-.07-.51-.07-.78.37-1.39,1.08-1.49.72-.1,1.33.36,1.45,1.13.31,1.94.46,3.9.44,5.87-.02,3.04-.41,6.02-1.17,8.96-.07.28-.02.47.14.7,1.51,2.16,3.5,3.42,6.19,3.56,2.18.11,4.31.49,6.22,1.67.49.31.98.63,1.42,1,.57.48.66,1.24.24,1.79-.41.53-1.19.71-1.74.26-1.95-1.62-4.26-2.05-6.69-2.21-2.58-.17-4.78-1.17-6.53-3.12-.14-.16-.27-.35-.41.01-.66,1.69-1.37,3.35-2.28,4.93-.19.34.11.37.29.46,1.6.81,3.21,1.61,4.81,2.41.89.44,1.77.89,2.66,1.33ZM63.03,193.05c1.49,1.41,3.03,2.66,4.68,3.8,4.34,2.99,9.11,4.92,14.28,5.89.43.08.58.07.55-.45-.12-2.66.2-5.28.94-7.84.14-.48,0-.64-.4-.84-4.09-2.03-8.16-4.07-12.24-6.11-1.11-.56-1.12-.56-1.96.36-1.75,1.92-3.69,3.63-5.86,5.19ZM79.26,188.84c2.44,1.22,4.89,2.44,7.33,3.66.15.08.3.16.46.21.43.14.89-.05,1.07-.46.19-.42.12-.81-.26-1.09-.18-.13-.38-.23-.58-.33-4.57-2.28-9.13-4.57-13.7-6.84-.39-.2-.8-.6-1.19-.5-.37.09-.49.66-.77.97-.3.32-.2.47.17.65,2.5,1.23,4.98,2.48,7.47,3.73Z"/>
            <path class="cls-3" d="M95.75,168.3c2.63-5.32,9.12-7.5,14.47-4.87,5.34,2.63,7.54,9.11,4.91,14.44-2.65,5.37-9.12,7.57-14.48,4.92-5.35-2.65-7.55-9.14-4.9-14.49ZM98.05,169.43c-2.03,4.07-.36,9.03,3.71,11.06,4.08,2.03,9.01.37,11.05-3.72,2.02-4.06.37-8.98-3.69-11.02-4.07-2.04-9.04-.38-11.07,3.68Z"/>
            <path class="cls-3" d="M99.36,188.1c-.33.66-.65,1.32-.99,1.97-.36.69-1.02.93-1.67.64-.66-.3-.97-1.02-.63-1.72.66-1.39,1.35-2.76,2.06-4.12.36-.69,1.1-.89,1.75-.54.63.33.84,1.02.51,1.71-.33.69-.68,1.38-1.03,2.06Z"/>
            <path class="cls-3" d="M102.78,187.15c.22-.44.43-.89.67-1.33.34-.64,1.02-.88,1.65-.6.65.29.97.99.66,1.67-.44.96-.91,1.91-1.42,2.84-.35.65-1.11.85-1.72.52-.62-.33-.84-1.04-.52-1.72.22-.46.46-.92.69-1.38Z"/>
            <path class="cls-3" d="M93.5,182.55c.23-.46.45-.92.69-1.37.35-.64,1.02-.87,1.65-.59.63.29.95.96.66,1.62-.44,1-.93,1.98-1.47,2.93-.35.63-1.11.79-1.7.46-.6-.33-.82-1.02-.52-1.68.21-.47.46-.92.68-1.38Z"/>
            <path class="cls-3" d="M106.99,170.34c-.57-.3-1.05-.46-1.58-.41-.58.05-.78.42-.49.93.29.52.77.86,1.21,1.24.61.52,1.22,1.04,1.71,1.68.97,1.28,1.13,2.65.43,3.76-.73,1.17-2.08,1.69-3.64,1.35-.42-.09-.66-.07-.88.35-.29.55-1,.7-1.57.43-.61-.29-.93-.95-.63-1.58.21-.46.07-.67-.24-.98-.86-.88-1.35-1.92-1.2-3.19.11-.86.67-1.38,1.4-1.32.78.07,1.22.66,1.14,1.57-.03.35.08.64.29.9.63.78,1.45,1.23,2.45,1.35.25.03.54.05.69-.22.15-.27-.03-.5-.16-.71-.39-.6-.95-1.02-1.48-1.47-.47-.4-.93-.8-1.32-1.28-.96-1.18-1.15-2.59-.51-3.77.62-1.14,1.97-1.78,3.46-1.59.47.06.79.07,1.07-.42.33-.57,1.08-.68,1.63-.37.58.33.83,1.01.52,1.63-.18.36-.06.52.19.76,1.01.96,1.59,2.09,1.26,3.53-.11.5-.45.8-.93.93-.48.13-.91,0-1.26-.38-.22-.23-.37-.53-.32-.84.16-.9-.41-1.34-1.03-1.77-.1-.07-.21-.12-.21-.12Z"/>
          </g>
        </g>
        <g>
          <rect class="cls-5" x="175.18" y="134.99" width="82.92" height="82.92" rx="41.46" ry="41.46"/>
          <g>
            <path class="cls-3" d="M214.44,160.2c.27.01.34.18.37.41.13,1.03.24,2.06.39,3.09.34,2.42.76,4.83,1.64,7.13,1.09,2.83,3.13,4.65,5.95,5.66,2.01.72,4.1,1.13,6.19,1.5.05,0,.11.01.16.03.21.05.42.1.41.38,0,.28-.19.37-.43.42-.91.17-1.82.32-2.73.51-1.73.36-3.44.82-5.04,1.61-2.25,1.11-3.71,2.91-4.59,5.23-.78,2.07-1.18,4.23-1.5,6.4-.17,1.15-.29,2.3-.44,3.46,0,.07-.02.14-.03.2-.03.24-.09.45-.38.45-.29,0-.36-.21-.39-.45-.09-.74-.17-1.48-.26-2.22-.32-2.47-.72-4.92-1.5-7.3-1.14-3.48-3.54-5.6-6.99-6.64-1.79-.54-3.61-.91-5.45-1.24-.04,0-.08,0-.12-.02-.23-.04-.45-.1-.46-.39,0-.29.21-.36.44-.4.82-.15,1.63-.28,2.45-.45,1.83-.37,3.63-.84,5.33-1.66,2.48-1.2,3.96-3.24,4.82-5.79.72-2.15,1.09-4.37,1.4-6.6.13-.96.23-1.92.35-2.88.03-.24.1-.44.39-.44Z"/>
            <path class="cls-3" d="M228.61,156.31c.23,0,.34.14.38.36.1.53.21,1.06.3,1.59.42,2.31,1.8,3.65,4.08,4.12.2.04.4.1.6.15.2.05.31.19.31.39,0,.22-.15.31-.34.36-.45.11-.91.22-1.36.35-1.63.46-2.64,1.53-3.1,3.15-.2.7-.35,1.42-.46,2.14-.04.25-.08.53-.42.51-.3-.02-.34-.27-.38-.51-.12-.76-.27-1.52-.5-2.26-.47-1.53-1.44-2.55-2.97-3.02-.46-.14-.93-.27-1.39-.39-.23-.06-.4-.15-.39-.4,0-.25.18-.34.41-.38.28-.05.56-.15.84-.21,2.04-.46,3.23-1.75,3.67-3.76.13-.58.23-1.16.34-1.75.04-.22.12-.4.38-.42Z"/>
          </g>
        </g>
        <g>
          <rect class="cls-5" x="282.84" y="43.49" width="82.92" height="82.92" rx="41.46" ry="41.46"/>
          <g>
            <path class="cls-3" d="M322.09,68.7c.27.01.34.18.37.41.13,1.03.24,2.06.39,3.09.34,2.42.76,4.83,1.64,7.13,1.09,2.83,3.13,4.65,5.95,5.66,2.01.72,4.1,1.13,6.19,1.5.05,0,.11.01.16.03.21.05.42.1.41.38,0,.28-.19.37-.43.42-.91.17-1.82.32-2.73.51-1.73.36-3.44.82-5.04,1.61-2.25,1.11-3.71,2.91-4.59,5.23-.78,2.07-1.18,4.23-1.5,6.4-.17,1.15-.29,2.3-.44,3.46,0,.07-.02.14-.03.2-.03.24-.09.45-.38.45-.29,0-.36-.21-.39-.45-.09-.74-.17-1.48-.26-2.22-.32-2.47-.72-4.92-1.5-7.3-1.14-3.48-3.54-5.6-6.99-6.64-1.79-.54-3.61-.91-5.45-1.24-.04,0-.08,0-.12-.02-.23-.04-.45-.1-.46-.39,0-.29.21-.36.44-.4.82-.15,1.63-.28,2.45-.45,1.83-.37,3.63-.84,5.33-1.66,2.48-1.2,3.96-3.24,4.82-5.79.72-2.15,1.09-4.37,1.4-6.6.13-.96.23-1.92.35-2.88.03-.24.1-.44.39-.44Z"/>
            <path class="cls-3" d="M336.26,64.82c.23,0,.34.14.38.36.1.53.21,1.06.3,1.59.42,2.31,1.8,3.65,4.08,4.12.2.04.4.1.6.15.2.05.31.19.31.39,0,.22-.15.31-.34.36-.45.11-.91.22-1.36.35-1.63.46-2.64,1.53-3.1,3.15-.2.7-.35,1.42-.46,2.14-.04.25-.08.53-.42.51-.3-.02-.34-.27-.38-.51-.12-.76-.27-1.52-.5-2.26-.47-1.53-1.44-2.55-2.97-3.02-.46-.14-.93-.27-1.39-.39-.23-.06-.4-.15-.39-.4,0-.25.18-.34.41-.38.28-.05.56-.15.84-.21,2.04-.46,3.23-1.75,3.67-3.76.13-.58.23-1.16.34-1.75.04-.22.12-.4.38-.42Z"/>
          </g>
        </g>
        <g>
          <rect class="cls-5" x="391.7" y="121.04" width="82.92" height="82.92" rx="41.46" ry="41.46"/>
          <g>
            <path class="cls-3" d="M430.95,146.25c.27.01.34.18.37.41.13,1.03.24,2.06.39,3.09.34,2.42.76,4.83,1.64,7.13,1.09,2.83,3.13,4.65,5.95,5.66,2.01.72,4.1,1.13,6.19,1.5.05,0,.11.01.16.03.21.05.42.1.41.38,0,.28-.19.37-.43.42-.91.17-1.82.32-2.73.51-1.73.36-3.44.82-5.04,1.61-2.25,1.11-3.71,2.91-4.59,5.23-.78,2.07-1.18,4.23-1.5,6.4-.17,1.15-.29,2.3-.44,3.46,0,.07-.02.14-.03.2-.03.24-.09.45-.38.45-.29,0-.36-.21-.39-.45-.09-.74-.17-1.48-.26-2.22-.32-2.47-.72-4.92-1.5-7.3-1.14-3.48-3.54-5.6-6.99-6.64-1.79-.54-3.61-.91-5.45-1.24-.04,0-.08,0-.12-.02-.23-.04-.45-.1-.46-.39,0-.29.21-.36.44-.4.82-.15,1.63-.28,2.45-.45,1.83-.37,3.63-.84,5.33-1.66,2.48-1.2,3.96-3.24,4.82-5.79.72-2.15,1.09-4.37,1.4-6.6.13-.96.23-1.92.35-2.88.03-.24.1-.44.39-.44Z"/>
            <path class="cls-3" d="M445.13,142.37c.23,0,.34.14.38.36.1.53.21,1.06.3,1.59.42,2.31,1.8,3.65,4.08,4.12.2.04.4.1.6.15.2.05.31.19.31.39,0,.22-.15.31-.34.36-.45.11-.91.22-1.36.35-1.63.46-2.64,1.53-3.1,3.15-.2.7-.35,1.42-.46,2.14-.04.25-.08.53-.42.51-.3-.02-.34-.27-.38-.51-.12-.76-.27-1.52-.5-2.26-.47-1.53-1.44-2.55-2.97-3.02-.46-.14-.93-.27-1.39-.39-.23-.06-.4-.15-.39-.4,0-.25.18-.34.41-.38.28-.05.56-.15.84-.21,2.04-.46,3.23-1.75,3.67-3.76.13-.58.23-1.16.34-1.75.04-.22.12-.4.38-.42Z"/>
          </g>
        </g>
        <g>
          <rect class="cls-5" x="237.62" y="87.98" width="82.92" height="82.92" rx="41.46" ry="41.46"/>
          <g>
            <path class="cls-3" d="M282.23,145.14c-1.24.75-2.53,1.22-3.92,1.37-1.55.18-3.12.06-4.68.08-1.26.01-2.52.06-3.77-.21-4.83-1.06-8.17-5.41-7.92-10.34.13-2.46,1.03-4.61,2.75-6.38,1.64-1.69,3.32-3.34,5-5.01.17-.17.26-.34.25-.59-.02-.4,0-.81-.01-1.21-.01-.23.07-.27.28-.27,2.86,0,5.72,0,8.57,0,.23,0,.33.06.3.29,0,.03,0,.07,0,.11,0,.48-.11,1,.05,1.41.16.4.62.68.94,1,.39.4.78.8,1.19,1.18.2.19.16.27-.04.42-1.97,1.47-3.33,3.38-4.01,5.75-1.34,4.69.56,9.62,4.72,12.21.08.05.16.1.29.18ZM265.93,136.54c0,.3.03.59.07.89.36,2.87,3.04,5.2,5.93,5.16.67,0,1.17-.5,1.17-1.14,0-.63-.47-1.12-1.12-1.15-.3-.01-.59-.04-.88-.11-2.81-.7-3.81-4.03-1.86-6.22.52-.58.54-1.25.05-1.71-.5-.48-1.19-.42-1.73.17-1.08,1.16-1.61,2.53-1.63,4.11Z"/>
            <path class="cls-3" d="M279.08,135.71c0-4.74,3.87-8.57,8.61-8.56,4.72.02,8.55,3.87,8.54,8.59,0,4.74-3.87,8.57-8.61,8.56-4.72-.02-8.55-3.87-8.54-8.59ZM288.55,133.44c.56,0,1.12,0,1.68,0,.64-.01,1.14-.52,1.14-1.14,0-.62-.49-1.12-1.13-1.15-.25,0-.5,0-.75,0q-.64,0-.69-.64c-.05-.6-.54-1.07-1.13-1.07-.6,0-1.11.48-1.15,1.09,0,.13-.01.26,0,.39.01.18-.03.26-.24.3-1.48.3-2.46,1.59-2.33,3.05.14,1.47,1.36,2.58,2.87,2.59.54,0,1.07,0,1.61,0,.24,0,.45.07.57.29.24.41-.06.85-.58.85-1.12,0-2.24,0-3.36,0-.62,0-1.11.51-1.12,1.12-.01.62.48,1.14,1.11,1.16.29.01.57,0,.86,0q.58,0,.6.59c.04.84.9,1.38,1.63,1.01.48-.24.69-.65.65-1.17-.02-.31.04-.46.4-.54,1.33-.3,2.22-1.49,2.18-2.85-.04-1.32-1.01-2.45-2.33-2.69-.71-.13-1.43-.03-2.14-.06-.42-.01-.67-.23-.67-.58,0-.35.25-.56.68-.57.55,0,1.1,0,1.64,0Z"/>
            <path class="cls-3" d="M269.04,117.99c-.79-1.32-1.55-2.58-2.3-3.84-.18-.31-.29-.62-.2-.98.14-.55.57-.88,1.19-.88,2.61,0,5.21,0,7.82,0,1.89,0,3.79,0,5.68,0,.5,0,.89.16,1.14.59.25.44.17.86-.08,1.28-.7,1.16-1.4,2.32-2.09,3.49-.06.1-.12.2-.18.31.09.09.19.05.27.06.62.05,1.09.55,1.09,1.15,0,.61-.49,1.1-1.11,1.13-.12,0-.24,0-.36,0-3.64,0-7.29,0-10.93,0-.27,0-.52-.02-.76-.16-.42-.25-.65-.77-.54-1.22.11-.48.52-.84,1-.9.1-.01.21-.01.38-.02Z"/>
          </g>
        </g>
        <g>
          <rect class="cls-5" x="96.43" y="173.71" width="82.92" height="82.92" rx="41.46" ry="41.46"/>
          <g>
            <path class="cls-3" d="M141.03,230.86c-1.24.75-2.53,1.22-3.92,1.37-1.55.18-3.12.06-4.68.08-1.26.01-2.52.06-3.77-.21-4.83-1.06-8.17-5.41-7.92-10.34.13-2.46,1.03-4.61,2.75-6.38,1.64-1.69,3.32-3.34,5-5.01.17-.17.26-.34.25-.59-.02-.4,0-.81-.01-1.21-.01-.23.07-.27.28-.27,2.86,0,5.72,0,8.57,0,.23,0,.33.06.3.29,0,.03,0,.07,0,.11,0,.48-.11,1,.05,1.41.16.4.62.68.94,1,.39.4.78.8,1.19,1.18.2.19.16.27-.04.42-1.97,1.47-3.33,3.38-4.01,5.75-1.34,4.69.56,9.62,4.72,12.21.08.05.16.1.29.18ZM124.74,222.27c0,.3.03.59.07.89.36,2.87,3.04,5.2,5.93,5.16.67,0,1.17-.5,1.17-1.14,0-.63-.47-1.12-1.12-1.15-.3-.01-.59-.04-.88-.11-2.81-.7-3.81-4.03-1.86-6.22.52-.58.54-1.25.05-1.71-.5-.48-1.19-.42-1.73.17-1.08,1.16-1.61,2.53-1.63,4.11Z"/>
            <path class="cls-3" d="M137.89,221.43c0-4.74,3.87-8.57,8.61-8.56,4.72.02,8.55,3.87,8.54,8.59,0,4.74-3.87,8.57-8.61,8.56-4.72-.02-8.55-3.87-8.54-8.59ZM147.36,219.16c.56,0,1.12,0,1.68,0,.64-.01,1.14-.52,1.14-1.14,0-.62-.49-1.12-1.13-1.15-.25,0-.5,0-.75,0q-.64,0-.69-.64c-.05-.6-.54-1.07-1.13-1.07-.6,0-1.11.48-1.15,1.09,0,.13-.01.26,0,.39.01.18-.03.26-.24.3-1.48.3-2.46,1.59-2.33,3.05.14,1.47,1.36,2.58,2.87,2.59.54,0,1.07,0,1.61,0,.24,0,.45.07.57.29.24.41-.06.85-.58.85-1.12,0-2.24,0-3.36,0-.62,0-1.11.51-1.12,1.12-.01.62.48,1.14,1.11,1.16.29.01.57,0,.86,0q.58,0,.6.59c.04.84.9,1.38,1.63,1.01.48-.24.69-.65.65-1.17-.02-.31.04-.46.4-.54,1.33-.3,2.22-1.49,2.18-2.85-.04-1.32-1.01-2.45-2.33-2.69-.71-.13-1.43-.03-2.14-.06-.42-.01-.67-.23-.67-.58,0-.35.25-.56.68-.57.55,0,1.1,0,1.64,0Z"/>
            <path class="cls-3" d="M127.85,203.71c-.79-1.32-1.55-2.58-2.3-3.84-.18-.31-.29-.62-.2-.98.14-.55.57-.88,1.19-.88,2.61,0,5.21,0,7.82,0,1.89,0,3.79,0,5.68,0,.5,0,.89.16,1.14.59.25.44.17.86-.08,1.28-.7,1.16-1.4,2.32-2.09,3.49-.06.1-.12.2-.18.31.09.09.19.05.27.06.62.05,1.09.55,1.09,1.15,0,.61-.49,1.1-1.11,1.13-.12,0-.24,0-.36,0-3.64,0-7.29,0-10.93,0-.27,0-.52-.02-.76-.16-.42-.25-.65-.77-.54-1.22.11-.48.52-.84,1-.9.1-.01.21-.01.38-.02Z"/>
          </g>
        </g>
        <g>
          <rect class="cls-5" x="227.54" y="171.47" width="82.92" height="82.92" rx="41.46" ry="41.46"/>
          <g>
            <path class="cls-3" d="M272.14,228.62c-1.24.75-2.53,1.22-3.92,1.37-1.55.18-3.12.06-4.68.08-1.26.01-2.52.06-3.77-.21-4.83-1.06-8.17-5.41-7.92-10.34.13-2.46,1.03-4.61,2.75-6.38,1.64-1.69,3.32-3.34,5-5.01.17-.17.26-.34.25-.59-.02-.4,0-.81-.01-1.21-.01-.23.07-.27.28-.27,2.86,0,5.72,0,8.57,0,.23,0,.33.06.3.29,0,.03,0,.07,0,.11,0,.48-.11,1,.05,1.41.16.4.62.68.94,1,.39.4.78.8,1.19,1.18.2.19.16.27-.04.42-1.97,1.47-3.33,3.38-4.01,5.75-1.34,4.69.56,9.62,4.72,12.21.08.05.16.1.29.18ZM255.85,220.03c0,.3.03.59.07.89.36,2.87,3.04,5.2,5.93,5.16.67,0,1.17-.5,1.17-1.14,0-.63-.47-1.12-1.12-1.15-.3-.01-.59-.04-.88-.11-2.81-.7-3.81-4.03-1.86-6.22.52-.58.54-1.25.05-1.71-.5-.48-1.19-.42-1.73.17-1.08,1.16-1.61,2.53-1.63,4.11Z"/>
            <path class="cls-3" d="M269,219.19c0-4.74,3.87-8.57,8.61-8.56,4.72.02,8.55,3.87,8.54,8.59,0,4.74-3.87,8.57-8.61,8.56-4.72-.02-8.55-3.87-8.54-8.59ZM278.47,216.92c.56,0,1.12,0,1.68,0,.64-.01,1.14-.52,1.14-1.14,0-.62-.49-1.12-1.13-1.15-.25,0-.5,0-.75,0q-.64,0-.69-.64c-.05-.6-.54-1.07-1.13-1.07-.6,0-1.11.48-1.15,1.09,0,.13-.01.26,0,.39.01.18-.03.26-.24.3-1.48.3-2.46,1.59-2.33,3.05.14,1.47,1.36,2.58,2.87,2.59.54,0,1.07,0,1.61,0,.24,0,.45.07.57.29.24.41-.06.85-.58.85-1.12,0-2.24,0-3.36,0-.62,0-1.11.51-1.12,1.12-.01.62.48,1.14,1.11,1.16.29.01.57,0,.86,0q.58,0,.6.59c.04.84.9,1.38,1.63,1.01.48-.24.69-.65.65-1.17-.02-.31.04-.46.4-.54,1.33-.3,2.22-1.49,2.18-2.85-.04-1.32-1.01-2.45-2.33-2.69-.71-.13-1.43-.03-2.14-.06-.42-.01-.67-.23-.67-.58,0-.35.25-.56.68-.57.55,0,1.1,0,1.64,0Z"/>
            <path class="cls-3" d="M258.96,201.47c-.79-1.32-1.55-2.58-2.3-3.84-.18-.31-.29-.62-.2-.98.14-.55.57-.88,1.19-.88,2.61,0,5.21,0,7.82,0,1.89,0,3.79,0,5.68,0,.5,0,.89.16,1.14.59.25.44.17.86-.08,1.28-.7,1.16-1.4,2.32-2.09,3.49-.06.1-.12.2-.18.31.09.09.19.05.27.06.62.05,1.09.55,1.09,1.15,0,.61-.49,1.1-1.11,1.13-.12,0-.24,0-.36,0-3.64,0-7.29,0-10.93,0-.27,0-.52-.02-.76-.16-.42-.25-.65-.77-.54-1.22.11-.48.52-.84,1-.9.1-.01.21-.01.38-.02Z"/>
          </g>
        </g>
      </g>
      <path class="cls-3" d="M270.09,213.52c-139.81,0-254.8-11.79-268.68-26.91l39.6,86.66c0,16.56,102.56,29.99,229.08,29.99s229.08-13.43,229.08-29.99l39.6-86.66c-13.88,15.12-128.88,26.91-268.68,26.91Z"/>
    </g>
  </g>
</svg>