<?xml version="1.0" encoding="UTF-8"?>
<svg id="Layer_2" data-name="Layer 2" xmlns="http://www.w3.org/2000/svg" viewBox="0 0 113.34 113.34">
  <defs>
    <style>
      .cls-1 {
        fill: #dcffdf;
      }

      .cls-1, .cls-2 {
        stroke-width: 0px;
      }

      .cls-2 {
        fill: #38b14a;
      }
    </style>
  </defs>
  <g id="Layer_1-2" data-name="Layer 1">
    <g>
      <rect class="cls-1" x="0" y="0" width="113.34" height="113.34" rx="56.67" ry="56.67"/>
      <g>
        <path class="cls-2" d="M56.66,79.18c-6.59,0-13.17,0-19.76,0-2.08,0-3.24-1.16-3.24-3.22,0-9.66,0-19.31-.01-28.97,0-.4.13-.63.45-.86,7.39-5.09,14.78-10.2,22.15-15.31.34-.23.55-.21.87.01,7.37,5.12,14.75,10.23,22.14,15.33.3.21.4.42.4.77-.01,9.71,0,19.42,0,29.13,0,1.91-1.21,3.11-3.13,3.11-6.62,0-13.25,0-19.87,0ZM53.78,68.56c-.4-.22-.61-.48-.82-.73-.79-.95-1.05-2.07-1.12-3.28-.09-1.63-1.63-2.83-3.24-2.59-1.69.26-2.66,1.63-2.45,3.55.51,4.61,2.93,7.73,7.3,9.31.27.1.42.23.52.51.43,1.19,1.49,1.93,2.69,1.93,1.2,0,2.27-.74,2.7-1.92.11-.3.28-.43.57-.53,4.34-1.42,7.27-5.43,7.29-9.95.02-4.54-2.86-8.58-7.18-10.03-.4-.13-.5-.32-.49-.71.02-2.62,0-5.24.01-7.86,0-.16-.06-.33.07-.48.2.05.31.2.44.33,1,1,1.35,2.23,1.43,3.61.09,1.75,1.8,2.96,3.5,2.55,1.5-.37,2.33-1.63,2.2-3.38-.32-4.4-3.08-8-7.25-9.42-.31-.11-.48-.24-.6-.56-.41-1.15-1.46-1.87-2.67-1.87-1.2,0-2.28.71-2.69,1.85-.12.34-.3.49-.63.6-4.12,1.33-7.06,5.22-7.23,9.54-.17,4.37,2.38,8.44,6.37,10.15.42.18,1.03.17,1.23.56.19.38.06.92.06,1.38,0,2.45,0,4.9,0,7.46Z"/>
        <path class="cls-2" d="M56.68,25.55c.17.11.35.21.51.33,5.94,4.11,11.87,8.22,17.81,12.33,2.69,1.86,5.38,3.73,8.08,5.58.35.24.41.39.12.71-.38.41-.58,1.17-1.05,1.23-.41.05-.9-.52-1.34-.82-7.57-5.24-15.13-10.48-22.7-15.71-1.12-.77-1.76-.77-2.87,0-7.87,5.45-15.75,10.9-23.61,16.36-.4.28-.64.34-.89-.14-.24-.46-.87-.86-.76-1.29.09-.37.75-.61,1.16-.9,8.35-5.78,16.7-11.55,25.05-17.33.15-.11.31-.21.49-.32Z"/>
        <path class="cls-2" d="M55.7,64.5c0-1.74,0-3.48,0-5.22,0-1.01-.14-1.19-1.11-1.44-4.02-1.04-6.73-4.65-6.55-8.74.17-3.83,2.83-7.06,6.58-7.99.86-.21.98-.35,1.1-1.24.08-.58.42-.91.94-.92.52,0,.88.33.96.9.13.93.23,1.04,1.13,1.26,3.75.93,6.45,4.3,6.54,8.14.02.68-.36,1.15-.93,1.17-.56.02-.94-.39-.98-1.06-.17-2.83-1.51-4.88-4.1-6.06-1.03-.47-1.64-.06-1.65,1.06,0,3.57,0,7.15,0,10.72,0,.9.16,1.1,1.03,1.33,4,1.02,6.69,4.48,6.64,8.52-.05,3.8-2.67,7.21-6.35,8.17-.81.21-1.37.49-1.37,1.45,0,.48-.48.83-.93.79-.5-.04-.9-.31-.9-.82,0-.94-.55-1.22-1.35-1.41-3.59-.87-6.37-4.47-6.36-8.17,0-.64.39-1.09.96-1.09.54,0,.92.39.95,1.03.17,2.93,1.57,5.01,4.28,6.16.85.36,1.43-.06,1.47-.98,0-.13,0-.26,0-.39,0-1.72,0-3.44,0-5.16ZM57.63,64.78c0,1.7,0,3.4,0,5.11,0,1.14.58,1.52,1.63,1.09,2.46-1.01,4.11-3.48,4.12-6.16.01-2.69-1.65-5.19-4.14-6.2-1.03-.42-1.6-.05-1.61,1.05,0,1.7,0,3.4,0,5.11ZM55.7,49.47c0-1.7,0-3.4,0-5.1,0-1.12-.6-1.5-1.65-1.06-2.46,1.03-4.1,3.5-4.1,6.17,0,2.68,1.64,5.14,4.11,6.16,1.06.44,1.64.08,1.64-1.06,0-1.7,0-3.4,0-5.1Z"/>
        <path class="cls-2" d="M59.63,61.09c2.4,1.74,2.4,5.67.04,7.4-.15-.36-.19-6.66-.04-7.4Z"/>
        <path class="cls-2" d="M53.76,45.66v7.59c-1.19-.93-1.78-2.08-1.87-3.48-.1-1.63.52-2.97,1.87-4.12Z"/>
      </g>
    </g>
  </g>
</svg>