<?xml version="1.0" encoding="UTF-8"?>
<svg id="Layer_2" data-name="Layer 2" xmlns="http://www.w3.org/2000/svg" viewBox="0 0 124.9 124.9">
  <defs>
    <style>
      .cls-1 {
        fill: #dcffdf;
      }

      .cls-1, .cls-2 {
        stroke-width: 0px;
      }

      .cls-2 {
        fill: #38b14a;
      }
    </style>
  </defs>
  <g id="Layer_1-2" data-name="Layer 1">
    <g>
      <rect class="cls-1" x="0" y="0" width="124.9" height="124.9" rx="62.45" ry="62.45"/>
      <g>
        <path class="cls-2" d="M67.19,86.09c-1.87,1.13-3.81,1.83-5.9,2.07-2.34.27-4.69.09-7.04.12-1.9.02-3.8.1-5.68-.32-7.27-1.6-12.31-8.14-11.93-15.58.19-3.7,1.56-6.94,4.14-9.61,2.47-2.55,5.01-5.04,7.53-7.54.26-.26.4-.51.38-.89-.03-.61.01-1.22-.02-1.83-.02-.35.11-.41.43-.41,4.3,0,8.61.01,12.91,0,.35,0,.5.09.44.44,0,.05,0,.11,0,.16,0,.72-.17,1.51.08,2.13.24.6.93,1.02,1.42,1.51.59.6,1.18,1.21,1.79,1.78.3.28.24.41-.06.63-2.97,2.22-5.01,5.09-6.03,8.66-2.02,7.07.85,14.49,7.11,18.4.12.08.24.15.43.27ZM42.64,73.14c-.01.45.05.9.1,1.34.54,4.32,4.59,7.83,8.94,7.77,1-.01,1.76-.75,1.77-1.71,0-.94-.71-1.69-1.69-1.73-.45-.02-.89-.06-1.33-.17-4.23-1.05-5.73-6.07-2.8-9.36.78-.87.81-1.88.08-2.58-.76-.72-1.79-.63-2.61.25-1.63,1.74-2.42,3.82-2.46,6.19Z"/>
        <path class="cls-2" d="M62.45,71.88c.01-7.13,5.83-12.91,12.97-12.89,7.11.03,12.88,5.83,12.86,12.94-.01,7.13-5.83,12.92-12.97,12.89-7.11-.03-12.87-5.83-12.86-12.95ZM76.72,68.47c.84,0,1.69.01,2.53,0,.97-.02,1.71-.78,1.72-1.71,0-.93-.74-1.69-1.7-1.73-.38-.01-.75,0-1.13,0q-.97,0-1.04-.97c-.07-.9-.82-1.61-1.71-1.61-.91,0-1.68.72-1.73,1.65-.01.2-.02.4,0,.59.02.27-.05.4-.36.46-2.23.45-3.71,2.4-3.5,4.59.21,2.22,2.05,3.88,4.33,3.9.81,0,1.61,0,2.42,0,.37,0,.67.1.86.43.36.61-.09,1.28-.88,1.29-1.69,0-3.37-.01-5.06,0-.94.01-1.67.77-1.69,1.68-.02.93.72,1.71,1.68,1.75.43.02.86,0,1.29,0q.87,0,.91.89c.05,1.27,1.35,2.07,2.46,1.52.72-.36,1.03-.98.98-1.77-.03-.47.06-.69.6-.81,2-.45,3.34-2.24,3.28-4.29-.06-1.99-1.52-3.69-3.51-4.06-1.07-.19-2.15-.05-3.22-.09-.63-.02-1.01-.34-1.01-.87,0-.53.38-.85,1.02-.85.82,0,1.65,0,2.47,0Z"/>
        <path class="cls-2" d="M47.33,45.19c-1.19-1.98-2.33-3.89-3.47-5.79-.28-.46-.44-.94-.31-1.48.21-.83.86-1.32,1.79-1.32,3.93,0,7.85,0,11.78,0,2.85,0,5.7,0,8.55,0,.75,0,1.34.23,1.72.89.38.66.26,1.3-.13,1.93-1.06,1.75-2.1,3.5-3.15,5.25-.09.15-.17.31-.27.47.13.13.28.07.41.09.94.08,1.65.83,1.64,1.74,0,.91-.74,1.66-1.67,1.7-.18,0-.36,0-.54,0-5.49,0-10.97,0-16.46,0-.4,0-.79-.03-1.14-.24-.63-.38-.98-1.15-.82-1.84.17-.72.78-1.27,1.5-1.35.16-.02.32-.02.57-.03Z"/>
      </g>
    </g>
  </g>
</svg>