<?xml version="1.0" encoding="UTF-8"?>
<svg id="Layer_2" data-name="Layer 2" xmlns="http://www.w3.org/2000/svg" viewBox="0 0 113.34 113.34">
  <defs>
    <style>
      .cls-1 {
        fill: #dcffdf;
      }

      .cls-1, .cls-2 {
        stroke-width: 0px;
      }

      .cls-2 {
        fill: #38b14a;
      }
    </style>
  </defs>
  <g id="Layer_1-2" data-name="Layer 1">
    <g>
      <rect class="cls-1" x="0" y="0" width="113.34" height="113.34" rx="56.67" ry="56.67"/>
      <g>
        <path class="cls-2" d="M56.65,30.81c.89,0,1.52,0,2.15,0,1.23.02,2.16.93,2.17,2.11,0,1.15-.97,2.11-2.19,2.09-2.55-.04-5.07.05-7.57.67-8.5,2.14-14.98,9.47-16.05,18.18-1.42,11.58,6.28,21.99,17.78,24.05,11.61,2.08,23-6,24.91-17.66.4-2.42.4-4.83,0-7.25-.27-1.66.61-2.87,2.07-2.89,1.09-.02,2,.73,2.2,1.81,2.63,14.14-6.64,27.62-20.83,30.31-13.71,2.59-27.32-6.59-30.04-20.26-2.83-14.25,6.19-27.82,20.41-30.68,1.72-.35,3.47-.51,4.97-.47Z"/>
        <path class="cls-2" d="M58.85,44.56c0,.47-.16,1.03.04,1.39.21.36.85.27,1.29.41,2.66.85,4.52,2.45,5.06,5.31.18.96-.05,1.8-.88,2.39-.7.49-1.46.55-2.23.15-.67-.35-1.09-.91-1.14-1.65-.06-.93-.54-1.54-1.33-1.86-2-.8-4.04-.8-6.04,0-.69.28-1.27.79-1.27,1.6,0,.81.59,1.28,1.26,1.6.95.46,1.98.55,3.02.55,1.54,0,3.05.2,4.48.81,2.02.86,3.43,2.3,4,4.45.67,2.51-.7,5.22-3.25,6.55-.8.42-1.65.73-2.54.87-.44.07-.55.26-.53.66.03.61.02,1.21,0,1.82-.04,1.21-1.01,2.13-2.18,2.12-1.15-.01-2.08-.93-2.13-2.1-.02-.63-.03-1.26,0-1.89.02-.41-.14-.53-.52-.59-1.77-.28-3.25-1.13-4.45-2.46-.88-.97-1.35-2.12-1.49-3.4-.14-1.3.68-2.37,1.9-2.5,1.21-.13,2.26.73,2.39,2.03.08.84.57,1.39,1.28,1.68,2.02.84,4.07.83,6.1.01.64-.26,1.2-.75,1.24-1.48.03-.71-.53-1.16-1.09-1.52-.93-.58-1.97-.73-3.04-.74-1.47,0-2.92-.17-4.3-.69-1.29-.48-2.39-1.24-3.23-2.34-2.29-3-1.3-6.96,2.19-8.74.83-.42,1.7-.71,2.61-.87.34-.06.44-.2.43-.53-.02-.65-.02-1.3,0-1.96.03-1.22.96-2.15,2.14-2.16,1.18,0,2.13.92,2.17,2.13.01.31,0,.63,0,.94.01,0,.03,0,.04,0Z"/>
        <path class="cls-2" d="M72.86,35.01c-1.03,0-2.05,0-3.08,0-1.36,0-2.33-.92-2.32-2.18,0-1.23.97-2.13,2.29-2.14,2.79,0,5.58,0,8.36,0,1.38,0,2.29.91,2.3,2.28.01,2.81.01,5.62,0,8.43,0,1.3-.96,2.26-2.19,2.25-1.2-.02-2.11-.97-2.13-2.24-.01-1.05,0-2.11,0-3.22-.3.09-.43.31-.6.47-2.15,2.15-4.28,4.3-6.43,6.44-.77.76-1.71.92-2.59.47-.81-.41-1.27-1.26-1.17-2.17.06-.59.37-1.04.78-1.45,2.11-2.09,4.2-4.19,6.31-6.28.17-.17.38-.31.58-.47-.04-.06-.07-.13-.11-.19Z"/>
      </g>
    </g>
  </g>
</svg>