<?xml version="1.0" encoding="UTF-8"?>
<svg id="Layer_2" data-name="Layer 2" xmlns="http://www.w3.org/2000/svg" viewBox="0 0 124.9 124.9">
  <defs>
    <style>
      .cls-1 {
        fill: #dcffdf;
      }

      .cls-1, .cls-2 {
        stroke-width: 0px;
      }

      .cls-2 {
        fill: #38b14a;
      }
    </style>
  </defs>
  <g id="Layer_1-2" data-name="Layer 1">
    <g>
      <rect class="cls-1" x="0" y="0" width="124.9" height="124.9" rx="62.45" ry="62.45"/>
      <g>
        <path class="cls-2" d="M73.38,98.02c-7.56,0-15.11-.01-22.67.01-1.12,0-2.02-.35-2.83-1.1-7.12-6.62-14.24-13.22-21.37-19.82-.98-.9-1.42-1.97-1.04-3.29.35-1.21,1.18-1.94,2.4-2.19,1.12-.23,2.05.17,2.86.93,3.63,3.38,7.27,6.74,10.9,10.12,3.09,2.86,6.18,5.72,9.25,8.6.45.43.91.58,1.53.58,14.56-.02,29.13-.01,43.69-.01,1.71,0,2.87.75,3.32,2.13.64,1.97-.77,4-2.85,4.04-1.7.04-3.39.01-5.09.01-6.04,0-12.07,0-18.11,0Z"/>
        <path class="cls-2" d="M62.36,74.77c-1.04.53-2.04,1.03-3.02,1.55-.36.19-.56-.06-.78-.22-2.62-1.94-5.23-3.91-7.86-5.83-2.17-1.58-5.05-.99-6.34,1.25-1.07,1.85-.68,4.17,1.07,5.5,3.55,2.7,7.15,5.34,10.73,7.99.9.67,1.94.87,3.05.75.68-.08,1.29-.37,1.89-.68,2.8-1.42,5.6-2.83,8.39-4.27.4-.21.71-.29,1.05.07.32.34.73.37,1.17.37,7.48,0,14.96,0,22.45,0,1.86,0,3.16.98,3.52,2.61.42,1.97-.99,3.86-3,4-.25.02-.5,0-.75,0-12.17,0-24.34-.01-36.51.01-2.26,0-4.16-.72-5.83-2.25-4.16-3.83-8.36-7.62-12.55-11.43-1.51-1.38-1.33-2.99.45-4,1.97-1.12,3.94-2.24,5.92-3.34,1.46-.81,3-1.2,4.67-.83.67.15,1.28.42,1.82.82,3.39,2.54,6.77,5.09,10.15,7.64.1.07.18.16.32.3Z"/>
        <path class="cls-2" d="M62.65,43.63c.03-9.3,7.57-16.78,16.89-16.76,9.32.02,16.83,7.57,16.78,16.86-.06,9.28-7.57,16.77-16.84,16.75-9.29-.01-16.87-7.6-16.84-16.85ZM79.52,29.63c-7.73-.01-14.05,6.27-14.07,13.98-.01,7.79,6.24,14.06,14.04,14.07,7.74.01,14.05-6.24,14.08-13.97.04-7.74-6.29-14.08-14.05-14.09Z"/>
        <path class="cls-2" d="M58.64,83.38c-.52.03-.92-.18-1.28-.45-3.42-2.54-6.84-5.08-10.26-7.63-1.01-.76-1.22-1.84-.57-2.73.66-.92,1.81-1.06,2.83-.3,2.63,1.94,5.26,3.87,7.86,5.85,1.08.83,2.11.93,3.32.3,4-2.07,8.03-4.1,12.05-6.14,1.22-.62,2.38-.27,2.85.81.42.98.03,1.98-1.06,2.54-2.59,1.33-5.19,2.65-7.78,3.97-2.26,1.15-4.53,2.3-6.8,3.45-.38.19-.76.39-1.16.34Z"/>
        <path class="cls-2" d="M34.64,56.89c3.72.04,6.71,3.5,6.14,7.1-.48,3.01-3.29,4.82-6.41,4.12-3.13-.71-5.3-3.84-4.85-7,.35-2.45,2.53-4.24,5.12-4.21Z"/>
        <path class="cls-2" d="M73.69,78.67c.56-.29,1.13-.56,1.69-.86,2.02-1.05,2.8-2.57,2.51-4.83-.02-.19-.08-.36.09-.55,1.36-1.53,3.05-1.58,4.45-.1,1.86,1.95,3.71,3.89,5.56,5.85.16.17.4.29.43.66-1.8,0-3.59,0-5.37,0-.25,0-.38-.21-.54-.37-.64-.67-1.28-1.32-1.9-2.01-.27-.3-.46-.34-.79-.07-.81.66-1.67,1.26-2.48,1.92-.49.41-1,.59-1.63.54-.66-.04-1.32,0-1.98,0-.01-.05-.03-.11-.04-.16Z"/>
        <path class="cls-2" d="M57.43,68c2.23-1.3,4.34-2.57,6.49-3.77.9-.5,1.96-.14,2.47.71.53.88.31,1.99-.59,2.55-1.56.97-3.16,1.88-4.74,2.82-.22.13-.39.13-.6-.03-.96-.74-1.94-1.47-3.01-2.28Z"/>
        <path class="cls-2" d="M41.35,47.06c0-1.66,0-3.33,0-4.99,0-.89.45-1.41,1.18-1.42.73-.01,1.21.52,1.21,1.39,0,3.4,0,6.81,0,10.21,0,.9-.44,1.4-1.18,1.41-.78,0-1.21-.5-1.21-1.45,0-1.71,0-3.43,0-5.14Z"/>
        <path class="cls-2" d="M48.66,53.04c0-1.69,0-3.38,0-5.07,0-.93.47-1.48,1.21-1.47.7.02,1.18.57,1.18,1.44,0,3.38,0,6.76,0,10.14,0,.92-.49,1.48-1.23,1.46-.72-.02-1.15-.54-1.16-1.44,0-1.69,0-3.38,0-5.07Z"/>
        <path class="cls-2" d="M55.95,47.11c0-1.69-.01-3.39,0-5.08,0-.83.4-1.32,1.06-1.39.75-.08,1.31.46,1.32,1.36.02,1.44,0,2.89,0,4.33,0,1.99.01,3.98,0,5.97,0,.94-.59,1.46-1.4,1.34-.63-.1-.98-.56-.99-1.37-.01-1.72,0-3.44,0-5.15Z"/>
        <path class="cls-2" d="M79.48,55.29c-6.48-.01-11.66-5.23-11.63-11.73.02-6.36,5.29-11.57,11.68-11.55,6.43.02,11.66,5.26,11.65,11.67-.02,6.42-5.25,11.62-11.69,11.6ZM82.4,46.98c.04.45-.18.83-.56,1.12-1.39,1.04-4.73,1-5.33-1.35-.18-.7-.85-.97-1.48-.77-.66.21-.98.81-.78,1.54.5,1.79,1.74,2.86,3.46,3.38.43.13.61.27.6.75,0,.83.48,1.34,1.18,1.35.68,0,1.21-.53,1.21-1.33,0-.47.16-.66.61-.73.29-.04.58-.16.85-.28,1.5-.64,2.55-1.65,2.65-3.38.1-1.73-.65-3.03-2.13-3.9-.71-.42-1.5-.66-2.31-.83-.75-.16-1.53-.25-2.24-.58-.63-.29-1.11-.71-1.12-1.45-.01-.74.39-1.26,1.04-1.6,1.52-.81,3.48-.23,4.14,1.29.31.71,1,.92,1.61.63.64-.3.85-.98.52-1.72-.57-1.26-1.51-2.18-2.82-2.61-.58-.19-.83-.41-.81-1.06.02-.66-.53-1.11-1.16-1.12-.64-.01-1.23.43-1.18,1.07.06.75-.33.94-.91,1.16-1.79.67-2.84,2.17-2.84,3.91,0,1.75.99,3.09,2.83,3.82.65.26,1.33.4,2.02.53.71.13,1.41.3,2.05.67.55.32.89.79.91,1.49Z"/>
      </g>
    </g>
  </g>
</svg>