<?xml version="1.0" encoding="UTF-8"?>
<svg id="Layer_2" data-name="Layer 2" xmlns="http://www.w3.org/2000/svg" viewBox="0 0 124.9 124.9">
  <defs>
    <style>
      .cls-1 {
        fill: #dcffdf;
      }

      .cls-1, .cls-2 {
        stroke-width: 0px;
      }

      .cls-2 {
        fill: #38b14a;
      }
    </style>
  </defs>
  <g id="Layer_1-2" data-name="Layer 1">
    <g>
      <rect class="cls-1" x="0" y="0" width="124.9" height="124.9" rx="62.45" ry="62.45"/>
      <g>
        <path class="cls-2" d="M61.14,71.96c3.99,0,7.98-.02,11.97,0,3.51.02,5.85,2.65,5.42,6.01-.27,2.11-1.92,3.86-4.16,4.32-.57.12-.67.27-.54.83.78,3.6,2.07,6.99,3.88,10.19.26.46.48.52.96.33,3.61-1.47,7.04-3.26,10.29-5.42.5-.33,1.01-.62,1.65-.53.8.11,1.45.68,1.64,1.44.2.82-.1,1.6-.89,2.13-1.83,1.24-3.73,2.37-5.7,3.39-10.49,5.43-21.63,7.6-33.38,6.52-10.05-.92-19.28-4.24-27.69-9.83-1.09-.72-1.38-1.8-.76-2.78.62-.97,1.79-1.17,2.9-.43,3.25,2.15,6.67,3.96,10.28,5.44.58.24.81.14,1.09-.41,5.15-9.92,6.99-20.41,5.39-31.48-1.14-7.9-4.01-15.12-8.53-21.69-.15-.21-.3-.42-.44-.64-.62-1-.43-2.13.45-2.73.9-.62,2.03-.41,2.72.54,1.73,2.41,3.24,4.95,4.55,7.61,2.02,4.1,3.51,8.39,4.45,12.86.09.43.3.65.67.85,3.49,1.9,7.02,2.26,10.74.63,3.01-1.32,6.14-2.24,9.5-1.93.87.08,1.74.18,2.59.39,1.09.27,1.72,1.22,1.53,2.25-.19.99-1.12,1.76-2.16,1.52-3.72-.87-7.12.11-10.49,1.53-3.6,1.51-7.24,1.64-10.89.19-.3-.12-.6-.29-.55.29.25,2.72.41,5.44.25,8.17-.03.58.4.43.69.43,2.7,0,5.41,0,8.11,0,1.49,0,2.99,0,4.48,0ZM41.43,95.13c2.95.9,5.88,1.54,8.86,1.96,7.86,1.1,15.59.5,23.21-1.68.63-.18.82-.29.44-.98-1.95-3.51-3.29-7.25-4.01-11.2-.14-.75-.43-.86-1.1-.86-6.87.02-13.74.01-20.61.01-1.88,0-1.89,0-2.4,1.8-1.06,3.77-2.53,7.38-4.4,10.94ZM60.47,78.54c4.12,0,8.23,0,12.35,0,.26,0,.52.01.77-.02.68-.1,1.16-.66,1.14-1.34-.03-.7-.38-1.17-1.09-1.3-.33-.06-.67-.05-1-.05-7.69,0-15.38,0-23.07,0-.66,0-1.47-.27-1.95.13-.44.37-.22,1.21-.39,1.83-.18.63.05.77.66.76,4.19-.02,8.39-.01,12.58-.01Z"/>
        <path class="cls-2" d="M68.85,39.75c-.03-8.94,7.24-16.25,16.22-16.3,8.96-.05,16.29,7.2,16.34,16.16.04,9.02-7.19,16.34-16.2,16.37-9,.03-16.32-7.23-16.35-16.23ZM72.71,39.73c0,6.85,5.59,12.41,12.45,12.39,6.87-.01,12.4-5.57,12.38-12.45-.02-6.83-5.55-12.35-12.39-12.36-6.85,0-12.44,5.57-12.43,12.41Z"/>
        <path class="cls-2" d="M87.05,64c0,1.11.02,2.21,0,3.32-.02,1.17-.75,1.94-1.82,1.99-1.1.05-1.99-.72-2.01-1.89-.05-2.31-.05-4.63,0-6.94.02-1.17.89-1.94,1.99-1.91,1.07.03,1.82.81,1.85,1.96.02,1.16,0,2.31,0,3.47Z"/>
        <path class="cls-2" d="M91.02,60.42c0-.75-.02-1.49,0-2.24.03-1.1.78-1.88,1.81-1.92,1.08-.05,1.97.69,2.01,1.8.06,1.59.06,3.19,0,4.79-.04,1.11-.93,1.9-1.97,1.86-1.06-.03-1.83-.84-1.86-1.97-.02-.77,0-1.54,0-2.32Z"/>
        <path class="cls-2" d="M75.41,60.47c0-.77-.02-1.54,0-2.32.04-1.1.79-1.87,1.83-1.9,1.05-.03,1.93.66,1.98,1.74.08,1.64.07,3.29,0,4.94-.05,1.08-.96,1.81-1.98,1.76-1.03-.05-1.8-.82-1.83-1.91-.03-.77,0-1.54,0-2.32Z"/>
        <path class="cls-2" d="M85.36,34.93c-.96-.02-1.73.09-2.41.51-.75.46-.76,1.09-.03,1.58.74.5,1.62.65,2.46.86,1.17.29,2.35.57,3.44,1.11,2.17,1.08,3.3,2.8,3.12,4.78-.19,2.06-1.67,3.68-3.99,4.27-.63.16-.94.34-.95,1.07-.02.94-.88,1.62-1.83,1.63-1.02.02-1.89-.66-1.92-1.71-.03-.76-.36-.95-.98-1.16-1.75-.61-3.12-1.68-3.76-3.49-.44-1.23-.03-2.31,1.01-2.72,1.09-.43,2.08.07,2.59,1.35.19.49.54.82.99,1.03,1.37.63,2.78.68,4.2.17.36-.13.75-.3.78-.76.03-.47-.37-.65-.7-.84-.92-.54-1.97-.73-2.99-.99-.9-.22-1.8-.45-2.64-.83-2.09-.95-3.29-2.72-3.23-4.74.06-1.95,1.46-3.73,3.59-4.47.68-.23,1.11-.43,1.15-1.29.05-.99.99-1.65,1.95-1.6,1.01.05,1.8.8,1.8,1.85,0,.61.26.74.77.9,2,.61,3.55,1.74,4.08,3.9.18.75-.06,1.38-.62,1.87-.57.5-1.24.61-1.95.34-.45-.17-.86-.46-.99-.91-.39-1.32-1.46-1.53-2.58-1.69-.18-.02-.36-.02-.36-.02Z"/>
      </g>
    </g>
  </g>
</svg>