<!DOCTYPE svg PUBLIC "-//W3C//DTD SVG 1.1//EN" "http://www.w3.org/Graphics/SVG/1.1/DTD/svg11.dtd">
<!-- Uploaded to: SVG Repo, www.svgrepo.com, Transformed by: SVG Repo Mixer Tools -->
<svg fill="#E86767" width="800px" height="800px" viewBox="0 0 14 14" role="img" focusable="false" aria-hidden="true" xmlns="http://www.w3.org/2000/svg">
<g id="SVGRepo_bgCarrier" stroke-width="0"/>
<g id="SVGRepo_tracerCarrier" stroke-linecap="round" stroke-linejoin="round"/>
<g id="SVGRepo_iconCarrier">
<path d="m 10.39,7.32625 c -1.441,0 -2.61,1.168 -2.61,2.61 0,1.442 1.169,2.61 2.61,2.61 1.441,0 2.61,-1.17 2.61,-2.61 0,-1.44 -1.168,-2.61 -2.61,-2.61 z m -6.78,0 c -1.44,0 -2.61,1.1685 -2.61,2.61 0,1.4415 1.169,2.61 2.61,2.61 1.441,0 2.61,-1.169 2.61,-2.61 0,-1.441 -1.168,-2.61 -2.61,-2.61 z m 6,-3.2625 c 0,1.4415 -1.1685,2.61 -2.61,2.61 -1.441,0 -2.61,-1.1685 -2.61,-2.61 0,-1.44 1.169,-2.61 2.61,-2.61 1.4415,0 2.61,1.17 2.61,2.61 z"/>
</g>
</svg>