<?xml version="1.0" encoding="iso-8859-1"?>
<!-- Uploaded to: SVG Repo, www.svgrepo.com, Generator: SVG Repo Mixer Tools -->
<svg fill="#000000" version="1.1" id="Layer_1" xmlns="http://www.w3.org/2000/svg" xmlns:xlink="http://www.w3.org/1999/xlink" 
	 viewBox="0 0 490 490" xml:space="preserve">
<g>
	<g>
		<g>
			<path d="M460,20h-75V0h-20v20H115V0H95v20H30C13.458,20,0,33.458,0,50v90v340c0,5.523,4.478,10,10,10h470c5.522,0,10-4.477,10-10
				V140V50C490,33.458,476.542,20,460,20z M375,70c5.514,0,10,4.486,10,10s-4.486,10-10,10c-5.514,0-10-4.486-10-10
				S369.486,70,375,70z M105,70c5.514,0,10,4.486,10,10s-4.486,10-10,10s-10-4.486-10-10S99.486,70,105,70z M470,470H20V150h450V470
				z M470,130H20V50c0-5.514,4.486-10,10-10h65v11.72C83.361,55.848,75,66.964,75,80c0,16.542,13.458,30,30,30s30-13.458,30-30
				c0-13.036-8.361-24.152-20-28.28V40h250v11.72c-11.639,4.128-20,15.243-20,28.28c0,16.542,13.458,30,30,30s30-13.458,30-30
				c0-13.036-8.361-24.152-20-28.28V40h75c5.514,0,10,4.486,10,10V130z"/>
			<rect x="215" y="70" width="60" height="20"/>
			<rect x="290" y="70" width="20" height="20"/>
			<rect x="180" y="70" width="20" height="20"/>
			<path d="M175,250h40c11.028,0,20-8.972,20-20v-40c0-11.028-8.972-20-20-20h-40c-11.028,0-20,8.972-20,20v40
				C155,241.028,163.972,250,175,250z M175,190h40v40l-40,0.002V190z"/>
			<path d="M275,250h40c11.028,0,20-8.972,20-20v-40c0-11.028-8.972-20-20-20h-40c-11.028,0-20,8.972-20,20v40
				C255,241.028,263.972,250,275,250z M275,190h40v40l-40,0.002V190z"/>
			<path d="M75,250h40c11.028,0,20-8.972,20-20v-40c0-11.028-8.972-20-20-20H75c-11.028,0-20,8.972-20,20v40
				C55,241.028,63.972,250,75,250z M75,190h40v40l-40,0.002V190z"/>
			<path d="M375,345h40c11.028,0,20-8.972,20-20v-40c0-11.028-8.972-20-20-20h-40c-11.028,0-20,8.972-20,20v40
				C355,336.028,363.972,345,375,345z M375,285h40v40l-40,0.002V285z"/>
			<path d="M75,345h40c11.028,0,20-8.972,20-20v-40c0-11.028-8.972-20-20-20H75c-11.028,0-20,8.972-20,20v40
				C55,336.028,63.972,345,75,345z M75,285h40v40l-40,0.002V285z"/>
			<path d="M175,440h40c11.028,0,20-8.972,20-20v-40c0-11.028-8.972-20-20-20h-40c-11.028,0-20,8.972-20,20v40
				C155,431.028,163.972,440,175,440z M175,380h40v40l-40,0.002V380z"/>
			<path d="M275,440h40c11.028,0,20-8.972,20-20v-40c0-11.028-8.972-20-20-20h-40c-11.028,0-20,8.972-20,20v40
				C255,431.028,263.972,440,275,440z M275,380h40v40l-40,0.002V380z"/>
			<path d="M375,440h40c11.028,0,20-8.972,20-20v-40c0-11.028-8.972-20-20-20h-40c-11.028,0-20,8.972-20,20v40
				C355,431.028,363.972,440,375,440z M375,380h40v40l-40,0.002V380z"/>
			<path d="M375,250h40c11.028,0,20-8.972,20-20v-40c0-11.028-8.972-20-20-20h-40c-11.028,0-20,8.972-20,20v40
				C355,241.028,363.972,250,375,250z M415,230l-25.859,0.001L415,204.143V230z M375,190h25.857L375,215.857V190z"/>
			<path d="M175,345h40c11.028,0,20-8.972,20-20v-40c0-11.028-8.972-20-20-20h-40c-11.028,0-20,8.972-20,20v40
				C155,336.028,163.972,345,175,345z M215,325l-25.859,0.001L215,299.143V325z M175,285h25.857L175,310.857V285z"/>
			<path d="M275,345h40c11.028,0,20-8.972,20-20v-40c0-11.028-8.972-20-20-20h-40c-11.028,0-20,8.972-20,20v40
				C255,336.028,263.972,345,275,345z M315,325l-25.859,0.001L315,299.143V325z M275,285h25.857L275,310.857V285z"/>
			<path d="M75,440h40c11.028,0,20-8.972,20-20v-40c0-11.028-8.972-20-20-20H75c-11.028,0-20,8.972-20,20v40
				C55,431.028,63.972,440,75,440z M115,420l-24.635,0.001L115,397.605V420z M75,380h29.634L75,406.94V380z"/>
		</g>
	</g>
</g>
</svg>