<svg xmlns="http://www.w3.org/2000/svg" id="Layer_1" width="200" height="200" viewBox="0 0 200 200"><defs><style>.cls-1{fill:#36b446;}.cls-2{fill:#fff;}.cls-3{fill:#36b446;}.cls-4{fill:#979faf;}.cls-5{fill:#dedede;}.cls-6{stroke:#303e58;}.cls-6,.cls-7{fill:none;stroke-linecap:round;stroke-linejoin:round;stroke-width:3.99px;}.cls-7{stroke:#979faf;}</style></defs><circle class="cls-5" cx="121.26" cy="78.74" r="58.46"></circle><g><g><path class="cls-1" d="M73.43,46.85h-23.92v-10.63c0-2.92,2.39-5.31,5.31-5.31h1.78c2.07,0,3.93-1.2,4.81-3.03,2.13-4.49,6.7-7.6,12.01-7.6s9.89,3.11,12.01,7.6c.88,1.83,2.76,3.03,4.81,3.03h1.78c2.92,0,5.31,2.39,5.31,5.31v10.63h-23.92Zm0-7.97c2.92,0,5.31-2.39,5.31-5.31s-2.39-5.31-5.31-5.31-5.31,2.39-5.31,5.31,2.39,5.31,5.31,5.31Z"></path><rect class="cls-1" x="44.2" y="60.14" width="58.46" height="10.63"></rect><path class="cls-2" d="M30.91,46.85H115.94v42.06c-3.61,.4-7.17,.45-10.63,.45,0,26.49,3.99,43.53,10.63,55.03v24.69H30.91V46.85Zm71.75,23.92v-10.63H44.2v10.63h58.46Z"></path><path class="cls-4" d="M115.94,169.09v-24.69c3.03,5.26,6.62,9.35,10.63,12.68v17.33c0,2.92-2.39,5.31-5.31,5.31H25.6c-2.92,0-5.31-2.39-5.31-5.31V41.54c0-2.92,2.39-5.31,5.31-5.31h23.92v10.63H30.91v122.23H115.94Z"></path><path class="cls-4" d="M115.94,78.74v-31.89h-18.6v-10.63h23.92c2.92,0,5.31,2.39,5.31,5.31v44.99c-3.59,1.33-7.15,2.02-10.63,2.39v-10.18Z"></path><path class="cls-3" d="M179.72,89.37c0,52.99-15.94,68.08-37.2,77.06-5.77-2.44-11.16-5.34-15.94-9.35v-30.51h10.63v13.29h10.63v-13.29h13.29v-10.63h-13.29v-13.29h-10.63v13.29h-10.63v-29.42c5.26-1.89,10.6-5.1,15.94-10.44,12.78,12.78,25.56,13.29,37.2,13.29Z"></path><path class="cls-3" d="M115.94,144.4v-55.48c3.48-.37,7.04-1.06,10.63-2.39v29.42h-2.66v10.63h2.66v30.51c-4.01-3.32-7.6-7.41-10.63-12.68Z"></path><polygon class="cls-2" points="161.12 115.94 161.12 126.57 147.83 126.57 147.83 139.86 137.2 139.86 137.2 126.57 126.57 126.57 126.57 115.94 137.2 115.94 137.2 102.66 147.83 102.66 147.83 115.94 161.12 115.94"></polygon><rect class="cls-2" x="123.92" y="115.94" width="2.66" height="10.63"></rect><path class="cls-3" d="M115.94,88.92v55.48c-6.64-11.51-10.63-28.54-10.63-55.03,3.45,0,7.02-.05,10.63-.45Z"></path><circle class="cls-4" cx="73.43" cy="33.57" r="5.31"></circle></g><g><path class="cls-6" d="M126.57,86.53c5.26-1.89,10.6-5.1,15.94-10.44,12.78,12.78,25.56,13.29,37.2,13.29,0,52.99-15.94,68.08-37.2,77.06-5.77-2.44-11.16-5.34-15.94-9.35-4.01-3.32-7.6-7.41-10.63-12.68-6.64-11.51-10.63-28.54-10.63-55.03,3.45,0,7.02-.05,10.63-.45,3.48-.37,7.04-1.06,10.63-2.39Z"></path><path class="cls-6" d="M49.51,36.23c0-2.92,2.39-5.31,5.31-5.31h1.78c2.07,0,3.93-1.2,4.81-3.03,2.13-4.49,6.7-7.6,12.01-7.6s9.89,3.11,12.01,7.6c.88,1.83,2.76,3.03,4.81,3.03h1.78c2.92,0,5.31,2.39,5.31,5.31v10.63H49.51v-10.63Z"></path><path class="cls-6" d="M126.57,171.75v2.66c0,2.92-2.39,5.31-5.31,5.31H25.6c-2.92,0-5.31-2.39-5.31-5.31V41.54c0-2.92,2.39-5.31,5.31-5.31h23.92"></path><path class="cls-6" d="M97.34,36.23h23.92c2.92,0,5.31,2.39,5.31,5.31v31.89"></path><polyline class="cls-6" points="115.94 161.12 115.94 169.09 30.91 169.09 30.91 46.85 49.51 46.85"></polyline><polyline class="cls-6" points="97.34 46.85 115.94 46.85 115.94 78.74"></polyline><rect class="cls-6" x="44.2" y="60.14" width="58.46" height="10.63"></rect><polygon class="cls-6" points="126.57 115.94 137.2 115.94 137.2 102.66 147.83 102.66 147.83 115.94 161.12 115.94 161.12 126.57 147.83 126.57 147.83 139.86 137.2 139.86 137.2 126.57 126.57 126.57 123.92 126.57 123.92 115.94 126.57 115.94"></polygon><polyline class="cls-6" points="44.2 89.37 49.51 94.69 60.14 84.06"></polyline><line class="cls-7" x1="68.11" y1="92.03" x2="94.69" y2="92.03"></line><polyline class="cls-6" points="44.2 113.29 49.51 118.6 60.14 107.97"></polyline><line class="cls-7" x1="68.11" y1="115.94" x2="94.69" y2="115.94"></line><line class="cls-7" x1="44.2" y1="134.54" x2="94.69" y2="134.54"></line><line class="cls-7" x1="44.2" y1="147.83" x2="84.06" y2="147.83"></line></g></g></svg>