<?xml version="1.0" encoding="utf-8"?>
<!-- Generator: Adobe Illustrator 28.2.0, SVG Export Plug-In . SVG Version: 6.00 Build 0)  -->
<svg version="1.1" id="Layer_1" xmlns="http://www.w3.org/2000/svg" xmlns:xlink="http://www.w3.org/1999/xlink" x="0px" y="0px"
	 viewBox="0 0 124.9 124.9" style="enable-background:new 0 0 124.9 124.9;" xml:space="preserve">
<style type="text/css">
	.st0{fill:#DCFFDF;}
	.st1{fill:#38B14A;}
</style>
<g>
	<path class="st0" d="M62.45,124.9L62.45,124.9C27.96,124.9,0,96.94,0,62.45v0C0,27.96,27.96,0,62.45,0h0
		c34.49,0,62.45,27.96,62.45,62.45v0C124.9,96.94,96.94,124.9,62.45,124.9z"/>
	<g>
		<path class="st1" d="M63.68,97.45c-1.14-0.22-2.31-0.16-3.47-0.26c-6.58-0.52-13.06-1.58-19.29-3.85
			c-3.07-1.12-5.99-2.54-8.51-4.68c-0.66-0.56-1-1.25-0.81-2.11c0.34-1.55,2.11-2.13,3.38-1.07c1.7,1.42,3.61,2.45,5.61,3.35
			c0.52,0.23,0.74,0.22,0.94-0.4c1.75-5.48,3.54-10.95,5.3-16.43c0.17-0.53,0.37-0.69,0.94-0.63c5.19,0.52,10.38,1,15.57,1.49
			c5.35,0.51,10.7,1.02,16.05,1.51c0.47,0.04,0.64,0.21,0.71,0.69c0.88,5.39,1.81,10.77,2.7,16.16c0.08,0.48,0.25,0.53,0.68,0.42
			c2.3-0.58,4.55-1.29,6.7-2.31c1.25-0.59,2.46-0.22,2.97,0.88c0.51,1.1,0.01,2.25-1.24,2.84c-3.53,1.67-7.26,2.63-11.09,3.29
			c-3.19,0.55-6.4,0.88-9.64,1c-0.23,0.01-0.46-0.02-0.67,0.1C68.24,97.45,65.96,97.45,63.68,97.45z M67.17,93.34
			c1.78,0.05,3.55-0.06,5.33-0.16c1.98-0.11,3.95-0.31,5.91-0.59c0.36-0.05,0.51-0.15,0.44-0.55c-0.66-3.56-1.3-7.11-1.94-10.67
			c-0.06-0.35-0.21-0.49-0.57-0.51c-0.79-0.05-1.59-0.15-2.38-0.22c-4.33-0.39-8.66-0.78-12.99-1.18
			c-3.72-0.34-7.44-0.66-11.15-1.02c-0.6-0.06-0.81,0.15-0.99,0.69c-1.13,3.55-2.28,7.1-3.45,10.64c-0.17,0.51-0.13,0.71,0.46,0.87
			C52.82,92.56,59.95,93.27,67.17,93.34z"/>
		<path class="st1" d="M41.88,43.96c-0.04-9.03,7.32-16.46,16.37-16.51c9.12-0.05,16.53,7.3,16.57,16.44
			c0.04,9.06-7.36,16.49-16.43,16.51C49.3,60.42,41.91,53.06,41.88,43.96z M63.46,46.8c0-2.2-1.08-3.83-2.94-4.59
			c-0.78-0.32-1.6-0.54-2.38-0.84c-0.48-0.19-0.94-0.46-0.78-1.1c0.16-0.65,0.7-0.7,1.25-0.67c0.45,0.02,0.81,0.27,1.18,0.49
			c0.85,0.49,1.8,0.32,2.4-0.41c0.58-0.71,0.54-1.63-0.11-2.37c-0.33-0.39-0.75-0.67-1.22-0.85c-0.34-0.13-0.47-0.31-0.48-0.7
			c-0.01-1.29-0.74-2.08-1.85-2.07c-1.08,0-1.78,0.77-1.83,2.03c-0.01,0.26-0.02,0.46-0.32,0.59c-1.81,0.76-2.7,2.19-2.77,4.1
			c-0.07,1.92,0.98,3.19,2.59,4.09c0.86,0.48,1.81,0.72,2.72,1.08c0.89,0.35,1.1,1.15,0.52,1.92c-0.38,0.5-0.9,0.66-1.5,0.66
			c-0.76,0-1.39-0.37-2.04-0.71c-0.89-0.46-1.95-0.15-2.44,0.69c-0.48,0.81-0.25,1.86,0.54,2.43c0.57,0.41,1.19,0.79,1.89,0.93
			c0.61,0.12,0.84,0.34,0.82,1.01c-0.02,1.19,1,1.97,2.16,1.77c0.85-0.14,1.53-0.85,1.47-1.78c-0.06-0.87,0.27-1.3,0.97-1.77
			C62.76,49.75,63.42,48.3,63.46,46.8z"/>
		<path class="st1" d="M79.43,70.27c-6.66-0.64-13.33-1.28-19.99-1.91c-4.1-0.39-8.21-0.77-12.31-1.14
			c-0.99-0.09-1.75-0.47-2.09-1.46c-0.26-0.77-0.01-1.63,0.61-2.17c0.48-0.42,1.04-0.53,1.66-0.47c2.2,0.2,4.4,0.4,6.6,0.61
			c4.15,0.39,8.3,0.79,12.44,1.18c3.2,0.3,6.39,0.59,9.59,0.93c0.66,0.07,0.87-0.05,0.94-0.76c0.54-5.48,1.14-10.96,1.71-16.44
			c0.29-2.72,0.56-5.44,0.86-8.15c0.13-1.15,0.83-1.88,1.83-1.98c0.99-0.1,1.87,0.46,2.18,1.39c0.17,0.52,0.08,1.04,0.03,1.56
			c-0.91,8.67-1.82,17.34-2.73,26.02c-0.08,0.72-0.21,1.45-0.23,2.17c-0.01,0.62-0.21,0.84-0.81,0.65
			c-0.09-0.03-0.18-0.02-0.27-0.03C79.43,70.26,79.43,70.27,79.43,70.27z"/>
	</g>
</g>
</svg>
