<?xml version="1.0" encoding="UTF-8"?>
<svg id="Layer_2" data-name="Layer 2" xmlns="http://www.w3.org/2000/svg" viewBox="0 0 124.9 124.9">
  <defs>
    <style>
      .cls-1 {
        fill: #dcffdf;
      }

      .cls-1, .cls-2 {
        stroke-width: 0px;
      }

      .cls-2 {
        fill: #38b14a;
      }
    </style>
  </defs>
  <g id="Layer_1-2" data-name="Layer 1">
    <g>
      <rect class="cls-1" x="0" y="0" width="124.9" height="124.9" rx="62.45" ry="62.45"/>
      <g>
        <path class="cls-2" d="M97.45,68.49c0-2.87-5.67-4.03-10.48-4.5l1.18-13.64c1.82-.19,3.25-1.71,3.25-3.58v-8.45c0-1.33-1.09-2.41-2.41-2.41h-2.87c1.01-.88,1.67-2.17,1.67-3.62,0-2.67-2.16-4.83-4.83-4.83s-4.83,2.16-4.83,4.83c0,1.45.65,2.74,1.67,3.62h-2.87c-1.33,0-2.41,1.09-2.41,2.41v8.45c0,1.87,1.42,3.39,3.25,3.58l1.16,13.34c-1.65.05-4.25.18-6.82.53v-11.42c0-.66.54-1.21,1.21-1.21s1.21.54,1.21,1.21v1.21h2.41v-1.21c0-1.99-1.63-3.62-3.62-3.62s-3.62,1.63-3.62,3.62v11.84c-3.28.69-6.03,1.86-6.03,3.85,0,1,.69,1.79,1.79,2.41-1.18.68-1.79,1.47-1.79,2.41s.59,1.74,1.79,2.41c-1.18.68-1.79,1.47-1.79,2.41s.59,1.74,1.79,2.41c-1.18.68-1.79,1.47-1.79,2.41s.59,1.74,1.79,2.41c-1.18.68-1.79,1.47-1.79,2.41s.59,1.74,1.79,2.41c-1.18.68-1.79,1.47-1.79,2.41,0,4.69,15.17,4.83,16.9,4.83s16.9-.13,16.9-4.83c0-.94-.59-1.74-1.79-2.41,1.18-.68,1.79-1.47,1.79-2.41s-.59-1.74-1.79-2.41c1.18-.68,1.79-1.47,1.79-2.41s-.59-1.74-1.79-2.41c1.18-.68,1.79-1.47,1.79-2.41s-.59-1.74-1.79-2.41c1.18-.68,1.79-1.47,1.79-2.41s-.59-1.74-1.79-2.41c1.1-.63,1.79-1.41,1.79-2.41h.01ZM81.76,57.62c0-.66.54-1.21,1.21-1.21s1.21.54,1.21,1.21v6.14c-.94-.05-1.77-.08-2.41-.1v-6.05ZM91.95,89.04c-2.9.75-7.05,1.17-11.39,1.17s-8.5-.42-11.39-1.17c-1.89-.48-2.73-.99-3.01-1.24.27-.24,1.04-.71,2.74-1.17,3.07.74,7.28,1.17,11.67,1.17s8.61-.42,11.67-1.17c1.69.46,2.47.93,2.74,1.17-.28.25-1.11.76-3.01,1.24h-.02ZM91.95,79.38c-2.9.75-7.05,1.17-11.39,1.17s-8.5-.42-11.39-1.17c-1.89-.48-2.73-.99-3.01-1.24.27-.24,1.04-.71,2.74-1.17,3.07.74,7.28,1.17,11.67,1.17s8.61-.42,11.67-1.17c1.69.46,2.47.93,2.74,1.17-.28.25-1.11.76-3.01,1.24h-.02ZM80.56,70.9c-8.36,0-13.55-1.48-14.41-2.41.39-.41,1.59-.92,3.55-1.38v1.38h2.41v-1.82c1.93-.3,4.28-.52,7.04-.57l.21,2.4c1.33,0,2.4-1.07,2.41-2.4.84.01,1.64.05,2.41.08v2.32h.21c1.22,0,2.23-.91,2.39-2.11,4.69.48,7.58,1.44,8.21,2.11-.87.93-6.06,2.41-14.41,2.41h-.01Z"/>
        <path class="cls-2" d="M61.24,78.14c0-4.69-15.17-4.83-16.9-4.83s-16.9.13-16.9,4.83c0,1,.69,1.79,1.79,2.41-1.18.68-1.79,1.47-1.79,2.41s.59,1.74,1.79,2.41c-1.18.68-1.79,1.47-1.79,2.41s.59,1.74,1.79,2.41c-1.18.68-1.79,1.47-1.79,2.41,0,4.69,15.17,4.83,16.9,4.83s16.9-.13,16.9-4.83c0-.94-.59-1.74-1.79-2.41,1.18-.68,1.79-1.47,1.79-2.41s-.59-1.74-1.79-2.41c1.18-.68,1.79-1.47,1.79-2.41s-.59-1.74-1.79-2.41c1.1-.63,1.79-1.41,1.79-2.41ZM55.74,89.04c-2.9.75-7.05,1.17-11.39,1.17s-8.5-.42-11.39-1.17c-1.89-.48-2.73-.99-3.01-1.24.27-.24,1.04-.71,2.74-1.17,3.07.74,7.28,1.17,11.67,1.17s8.61-.42,11.67-1.17c1.69.46,2.47.93,2.74,1.17-.28.25-1.11.76-3.01,1.24h-.02ZM44.35,80.56c-8.36,0-13.55-1.48-14.41-2.41.87-.93,6.06-2.41,14.41-2.41s13.55,1.48,14.41,2.41c-.87.93-6.06,2.41-14.41,2.41Z"/>
        <path class="cls-2" d="M51.61,61.27s-.04-.04-.04,0c-.22,3.22-2.24,5.77-4.78,6-.04,0-.04.02,0,.04,2.53.22,4.56,2.78,4.78,6,0,.04.04.04.04,0,.22-3.22,2.24-5.77,4.78-6,.04,0,.04-.02,0-.04-2.53-.22-4.56-2.78-4.78-6Z"/>
        <path class="cls-2" d="M35.92,58.86s-.04-.04-.04,0c-.18,2.55-1.69,4.56-3.57,4.78-.04,0-.04.04,0,.04,1.88.22,3.39,2.23,3.57,4.78,0,.04.04.04.04,0,.18-2.55,1.69-4.56,3.57-4.78.04,0,.04-.04,0-.04-1.88-.22-3.39-2.23-3.57-4.78Z"/>
      </g>
    </g>
  </g>
</svg>