<?xml version="1.0" encoding="UTF-8"?>
<svg id="Layer_2" data-name="Layer 2" xmlns="http://www.w3.org/2000/svg" viewBox="0 0 124.9 124.9">
  <defs>
    <style>
      .cls-1 {
        fill: #38b14a;
        fill-rule: evenodd;
      }

      .cls-1, .cls-2 {
        stroke-width: 0px;
      }

      .cls-2 {
        fill: #dcffdf;
      }
    </style>
  </defs>
  <g id="Layer_1-2" data-name="Layer 1">
    <g>
      <rect class="cls-2" x="0" y="0" width="124.9" height="124.9" rx="62.45" ry="62.45"/>
      <path class="cls-1" d="M49.02,83.31l-2.22,3.85c-.56.98-1.82,1.31-2.79.75-.97-.56-1.31-1.82-.75-2.79l2.22-3.85c.56-.98,1.82-1.31,2.79-.75.97.56,1.31,1.82.75,2.79h0ZM53.63,83.61c-.32-.18-.67-.27-1.02-.27-.71,0-1.4.37-1.77,1.02l-3.6,6.24c-.56.98-.23,2.23.75,2.79.98.56,2.23.23,2.79-.75l3.6-6.24c.56-.98.23-2.23-.75-2.79h0ZM39.36,58.15c.08-.07.07-.19-.02-.24l-3.82-2.12c-.28-.15-.58-.13-.82.07-5.65,4.45-8.8,12.33-7.49,18.71.05.26.2.43.44.54l3,1.27c.1.04.2-.02.2-.13.07-7.2,3.02-13.46,8.52-18.09h0ZM59.93,87.94c-.14-.53-.48-.97-.95-1.24-.32-.18-.67-.27-1.02-.27-.71,0-1.4.37-1.77,1.02l-3,5.2c-.52.97-.18,2.19.78,2.74.47.27,1.02.34,1.55.2s.97-.48,1.24-.95l2.97-5.15c.27-.47.34-1.02.2-1.55h0ZM81.73,79.57l-9.58-5.53c-1.87-1.08-3.62-2.1-5.85-2.1-2,.01-3.8.89-5.55,1.75-2.76,1.35-5.88,2.87-9.26.08-.96-.8-1.51-1.98-1.43-3.11.07-1.03.64-1.93,1.61-2.53l7.88-4.91c-2.3-1.14-4.41-.96-6.8-.75-3.15.27-6.73.58-11.35-2.01l-.9-.51c-4.83,4.16-7.36,9.5-7.54,15.86l7.62,3.93c.11.05.2.13.29.22l1.83,1.97.99-1.71c1.14-1.98,3.68-2.66,5.66-1.51,1.06.61,1.75,1.63,1.98,2.75,1.08-.36,2.31-.27,3.37.34,1.06.61,1.75,1.63,1.98,2.75,1.08-.36,2.31-.27,3.37.34.96.55,1.64,1.44,1.93,2.51.02.08.04.16.06.24,1.08-.36,2.31-.27,3.37.34.79.45,1.39,1.14,1.74,1.97l4.62,2.67c.9.52,2.06.21,2.58-.69.51-.88.22-2.02-.65-2.55l-5.66-3.27c-.5-.29-.67-.93-.38-1.43.29-.5.93-.67,1.43-.38,2.19,1.26,4.37,2.52,6.56,3.79.99.57,2.27.23,2.84-.76.57-.98.23-2.25-.74-2.83l-5.55-3.2c-.5-.29-.67-.93-.38-1.43.29-.5.93-.67,1.43-.38,2.16,1.25,4.32,2.49,6.48,3.74.99.57,2.27.23,2.84-.76.63-1.1.14-2.17-.81-2.87h0ZM90.21,55.85c-.14-.11-.3-.17-.46-.17-.12,0-.25.03-.37.1l-3.82,2.12c-.05.03-.07.05-.08.12,0,.06,0,.09.05.13,5.5,4.63,8.45,10.89,8.52,18.09,0,.11.1.18.2.13l3-1.27c.24-.1.39-.28.44-.54,1.31-6.39-1.85-14.26-7.49-18.71h0ZM84.4,59.93l-1.87,1.04c-3.09,1.72-6.54,2.03-9.97.9-3.04-1-6.22-.42-9.74,1.77l-10.05,6.26c-.4.25-.6.54-.62.89-.03.46.24.99.68,1.35,2.23,1.84,4.02,1.11,7-.35,1.87-.91,3.99-1.95,6.46-1.96,2.7,0,4.65,1.07,6.92,2.38l9.63,5.56c.49.27,1.13.94,1.43,1.42l7.7-3.56c-.22-6.3-2.76-11.58-7.56-15.71h0ZM68.98,93.44l-1.63-.94c-.09.39-.24.78-.45,1.13l-1.11,1.92.88.49c1.53.88,2.53.4,2.96-.34.39-.67.35-1.66-.65-2.27h0ZM64.34,89.79c-.97-.56-2.22-.23-2.79.75l-2.22,3.85c-.56.97-.23,2.23.75,2.79.98.56,2.23.23,2.79-.75l2.22-3.85c.56-.97.22-2.23-.75-2.79h0ZM47.45,42.45c0-8.28,6.71-15,15-15s15,6.71,15,15-6.71,15-15,15-15-6.71-15-15h0ZM53.66,42.52l3.5,6.07c.35.61.91.98,1.61,1.07.7.09,1.33-.12,1.83-.62l10.31-10.31c.8-.8.8-2.11,0-2.91-.8-.8-2.11-.8-2.91,0l-8.53,8.53-2.24-3.89c-.57-.98-1.83-1.32-2.81-.75-.98.57-1.32,1.83-.75,2.81h0ZM84.09,38.48c.29-2.91,2.59-5.22,5.5-5.5-2.91-.29-5.22-2.59-5.5-5.5-.29,2.91-2.59,5.22-5.5,5.5,2.91.29,5.22,2.59,5.5,5.5ZM39.98,51.16c.24-2.38,2.12-4.27,4.5-4.5-2.38-.24-4.27-2.12-4.5-4.5-.24,2.38-2.12,4.27-4.5,4.5,2.38.24,4.27,2.12,4.5,4.5Z"/>
    </g>
  </g>
</svg>