<?xml version="1.0" encoding="UTF-8"?>
<svg id="Layer_2" data-name="Layer 2" xmlns="http://www.w3.org/2000/svg" viewBox="0 0 124.9 124.9">
  <defs>
    <style>
      .cls-1 {
        fill: #dcffdf;
      }

      .cls-1, .cls-2 {
        stroke-width: 0px;
      }

      .cls-2 {
        fill: #38b14a;
      }
    </style>
  </defs>
  <g id="Layer_1-2" data-name="Layer 1">
    <g>
      <rect class="cls-1" x="0" y="0" width="124.9" height="124.9" rx="62.45" ry="62.45"/>
      <g>
        <path class="cls-2" d="M27.52,53.83c.5-1.3,1.29-2.28,2.76-2.52.31-.05.63-.06.95-.06,20.81,0,41.61,0,62.42,0,2.45,0,3.74,1.29,3.74,3.75,0,9.89,0,19.78,0,29.67,0,2.41-1.29,3.7-3.7,3.7-20.69,0-41.38-.02-62.07.02-2.03,0-3.41-.67-4.08-2.63v-31.93ZM62.44,84c7.83,0,14.2-6.34,14.2-14.17,0-7.81-6.37-14.2-14.18-14.21-7.81,0-14.2,6.37-14.2,14.18,0,7.83,6.35,14.19,14.18,14.19ZM93.02,69.84c0-3.18,0-6.37,0-9.55,0-.96-.31-1.3-1.27-1.4-1.06-.12-1.85-.88-1.99-1.93-.15-1.1-.42-1.34-1.54-1.34-4.43,0-8.87,0-13.3,0-.23,0-.46-.01-.68.04-.54.14-.87.51-.85,1.08.02.6.39.95.98,1.04.22.03.45.01.68.01,3.98,0,7.96,0,11.94,0,.47,0,.75.12.93.59.45,1.13,1.27,1.93,2.4,2.38.41.16.54.4.54.82-.01,5.48-.01,10.96,0,16.44,0,.5-.2.73-.63.9-1.06.43-1.84,1.18-2.26,2.24-.22.56-.54.67-1.08.66-4.05-.02-8.09-.01-12.14,0-.85,0-1.36.42-1.36,1.1,0,.67.5,1.08,1.37,1.08,4.55,0,9.09,0,13.64,0,.94,0,1.27-.3,1.37-1.22.12-1.11.86-1.88,1.96-2.04,1.09-.16,1.31-.41,1.31-1.49,0-3.14,0-6.27,0-9.41ZM31.89,69.79c0,3.21,0,6.41,0,9.62,0,.84.32,1.22,1.06,1.32,1.41.18,2.04.81,2.22,2.22.08.67.45,1.05,1.11,1.05,4.71.01,9.41,0,14.12,0,.67,0,1.11-.43,1.14-1.02.03-.57-.41-1.06-1.04-1.14-.22-.03-.45-.01-.68-.01-3.96,0-7.91,0-11.87,0-.5,0-.78-.14-.97-.63-.43-1.08-1.22-1.86-2.3-2.29-.45-.18-.61-.43-.6-.92.02-5.46.02-10.91,0-16.37,0-.49.18-.72.62-.9,1.08-.44,1.86-1.22,2.29-2.3.19-.48.47-.63.98-.63,2.73.02,5.46.01,8.18,0,1.41,0,2.82,0,4.23,0,.72,0,1.2-.5,1.17-1.13-.04-.65-.56-1.04-1.43-1.04-4.5,0-9,0-13.5,0-1.01,0-1.32.29-1.45,1.3-.13,1.06-.91,1.85-1.95,1.97-1.05.12-1.32.43-1.32,1.5,0,3.14,0,6.27,0,9.41ZM40.62,73.08c1.8,0,3.26-1.44,3.28-3.23.02-1.81-1.47-3.31-3.27-3.31-1.78,0-3.26,1.47-3.28,3.24-.02,1.82,1.45,3.3,3.27,3.3ZM84.3,73.08c1.79,0,3.25-1.46,3.26-3.24,0-1.81-1.48-3.31-3.29-3.3-1.78,0-3.25,1.48-3.26,3.26,0,1.82,1.46,3.29,3.29,3.28Z"/>
        <path class="cls-2" d="M47.84,48.89c.64-.26,1.35-.26,2.02-.36,6.58-.96,13.17-1.9,19.76-2.84,6.68-.95,13.36-1.91,20.04-2.86,1.73-.24,3.36,1,3.62,2.76.15.97.23,1.94.37,2.91.06.44-.1.59-.51.56-.16-.01-.32,0-.48,0-14.66,0-29.33,0-43.99,0h-.81c0-.06-.01-.12-.02-.18Z"/>
        <path class="cls-2" d="M48.56,46.25c1.14-.33,2.29-.66,3.43-.98,10.18-2.85,20.35-5.71,30.53-8.56,2.31-.65,3.94.29,4.53,2.59.03.13.07.26.1.4.34,1.37.51,1.21-.96,1.42-6.9,1-13.8,1.98-20.7,2.96-5.48.78-10.97,1.57-16.45,2.35-.15.02-.3,0-.45,0,0-.06-.02-.13-.03-.19Z"/>
        <path class="cls-2" d="M62.46,81.82c-6.64,0-12.02-5.37-12.02-12,0-6.62,5.41-12.02,12.03-12.01,6.59.01,11.97,5.4,11.99,11.98.01,6.63-5.36,12.02-11.99,12.03ZM58.09,73.4c.12,1.48.83,2.81,2.33,3.51.76.36,1.03.76.97,1.57-.06.69.45,1.15,1.07,1.14.62,0,1.04-.46,1.09-1.16,0-.07.01-.14,0-.2-.13-.66.15-.99.78-1.26,1.66-.72,2.62-2.46,2.48-4.26-.13-1.78-1.39-3.32-3.11-3.84-.48-.14-.98-.16-1.48-.22-1.11-.12-1.96-1.1-1.94-2.19.02-1.13.93-2.08,2.07-2.15,1.08-.07,2.09.75,2.27,1.85.03.16,0,.32.04.48.11.55.44.9,1.02.93.62.03.98-.33,1.11-.89.06-.26.04-.55-.01-.81-.28-1.59-1.15-2.76-2.65-3.38-.47-.19-.59-.44-.58-.91.02-1.11-.35-1.64-1.09-1.63-.72,0-1.1.55-1.07,1.66.01.5-.17.7-.61.89-1.65.72-2.56,2.01-2.66,3.8-.13,2.44,1.73,4.43,4.18,4.55,1.58.08,2.61,1.25,2.31,2.62-.24,1.08-1.19,1.8-2.29,1.74-1.09-.06-1.9-.89-2.03-2.1-.08-.74-.55-1.2-1.16-1.16-.59.05-1.01.56-1.02,1.39Z"/>
        <path class="cls-2" d="M40.6,68.73c.58-.01,1.09.49,1.11,1.07.01.6-.46,1.09-1.07,1.1-.6,0-1.09-.46-1.11-1.06-.01-.59.48-1.1,1.07-1.11Z"/>
        <path class="cls-2" d="M84.31,68.73c.58.02,1.07.54,1.06,1.12-.02.6-.51,1.06-1.12,1.05-.6-.02-1.07-.51-1.05-1.11.02-.59.54-1.08,1.12-1.06Z"/>
      </g>
    </g>
  </g>
</svg>