<?xml version="1.0" encoding="UTF-8"?>
<svg id="Layer_2" data-name="Layer 2" xmlns="http://www.w3.org/2000/svg" viewBox="0 0 124.9 124.9">
  <defs>
    <style>
      .cls-1 {
        fill: #dcffdf;
      }

      .cls-1, .cls-2 {
        stroke-width: 0px;
      }

      .cls-2 {
        fill: #38b14a;
      }
    </style>
  </defs>
  <g id="Layer_1-2" data-name="Layer 1">
    <g>
      <rect class="cls-1" x="0" y="0" width="124.9" height="124.9" rx="62.45" ry="62.45"/>
      <g>
        <path class="cls-2" d="M38.25,66.64h6.24v4.61h-6.24v-4.61Z"/>
        <path class="cls-2" d="M93.3,54.44H31.6c-2.26,0-4.1,1.83-4.1,4.1v34.82c0,2.26,1.83,4.1,4.1,4.1h61.7c2.26,0,4.1-1.83,4.1-4.1v-34.82c0-2.26-1.83-4.1-4.1-4.1h0ZM44.02,88.57h-10.14v-4.1h10.14v4.1ZM48.59,71.93c0,1.88-1.53,3.41-3.41,3.41h-7.6c-1.88,0-3.41-1.53-3.41-3.41v-5.97c0-1.88,1.53-3.41,3.41-3.41h7.6c1.88,0,3.41,1.53,3.41,3.41v5.97h0ZM59.69,88.57h-10.14v-4.1h10.14v4.1ZM75.35,88.57h-10.14v-4.1h10.14v4.1ZM91.02,88.57h-10.14v-4.1h10.14v4.1Z"/>
        <path class="cls-2" d="M82.48,37.4l-8.75-8.75c-1.6-1.6-4.19-1.6-5.79,0l-21.69,21.69h24.03l12.2-12.94Z"/>
        <path class="cls-2" d="M82.23,50.34l6.4-6.79-3.26-3.26-9.47,10.05h6.32Z"/>
        <path class="cls-2" d="M93.3,50.34c.88,0,1.73.14,2.52.4l-4.29-4.29-3.67,3.89h5.44Z"/>
      </g>
    </g>
  </g>
</svg>