<?xml version="1.0" encoding="UTF-8"?>
<svg id="Layer_2" data-name="Layer 2" xmlns="http://www.w3.org/2000/svg" viewBox="0 0 124.9 124.9">
  <defs>
    <style>
      .cls-1 {
        fill: #dcffdf;
      }

      .cls-1, .cls-2 {
        stroke-width: 0px;
      }

      .cls-2 {
        fill: #38b14a;
      }
    </style>
  </defs>
  <g id="Layer_1-2" data-name="Layer 1">
    <g>
      <rect class="cls-1" x="0" y="0" width="124.9" height="124.9" rx="62.45" ry="62.45"/>
      <g>
        <path class="cls-2" d="M97.39,64.91v21.7c-.27.72-.41,1.48-.84,2.14-1.27,1.97-3.08,2.82-5.41,2.82-19.12-.02-38.24,0-57.36-.01-.25,0-.5,0-.75-.02-2.95-.13-5.46-2.55-5.49-5.49-.06-6.89-.03-13.78-.02-20.66,0-1.28,1.26-1.95,2.31-1.21,1.25.87,2.6,1.19,4.11,1.19,7.32-.03,14.64,0,21.96-.02.56,0,.75.14.72.72-.04,1.16-.03,2.32,0,3.48.02,1.08.58,1.64,1.65,1.65,2.77,0,5.55,0,8.32,0,1.11,0,1.67-.56,1.69-1.68.02-1.09,0-2.18,0-3.27q0-.88.88-.88c7.34,0,14.69,0,22.03,0,1.29,0,2.47-.27,3.55-.98,1.22-.81,1.87-.67,2.64.53Z"/>
        <path class="cls-2" d="M97.39,47.03v10.37c-.03.08-.07.16-.1.24-.89,3.27-2.89,4.81-6.26,4.81-7.12,0-14.23,0-21.35,0q-1.33,0-1.39-1.3c-.04-.95-.52-1.56-1.36-1.57-2.98-.03-5.96-.02-8.93,0-.71,0-1.19.46-1.32,1.16-.06.35-.08.73-.05,1.09.05.51-.12.65-.64.65-7.5-.02-15,0-22.51-.02-3.42,0-5.95-2.53-5.96-5.94-.01-2.84,0-5.68,0-8.53,0-.55.07-1.09.21-1.62.73-2.65,2.98-4.27,5.93-4.28,4.52,0,9.05,0,13.57,0,.49,0,.69-.11.66-.64-.04-.75-.03-1.5,0-2.25.09-3.28,2.46-5.8,5.64-5.83,5.96-.05,11.91-.04,17.87,0,2.59.02,4.73,1.81,5.4,4.32.32,1.19.23,2.4.2,3.59-.02.68.2.82.84.81,4.59-.03,9.18-.04,13.78,0,2.56.02,4.69,1.61,5.47,3.97.1.32.2.64.3.96ZM62.46,42.09c2.66,0,5.32-.02,7.98.01.57,0,.84-.09.76-.73-.06-.49-.05-1,0-1.5.05-.55-.11-.73-.7-.73-5.36.02-10.73.02-16.09,0-.59,0-.74.19-.69.73.04.5.05,1,0,1.5-.05.55.11.74.7.73,2.68-.03,5.36-.01,8.05-.01Z"/>
      </g>
    </g>
  </g>
</svg>