<?xml version="1.0" encoding="UTF-8"?>
<svg id="Layer_2" data-name="Layer 2" xmlns="http://www.w3.org/2000/svg" viewBox="0 0 124.9 124.9">
  <defs>
    <style>
      .cls-1 {
        fill: #dcffdf;
      }

      .cls-1, .cls-2 {
        stroke-width: 0px;
      }

      .cls-2 {
        fill: #38b14a;
      }
    </style>
  </defs>
  <g id="Layer_1-2" data-name="Layer 1">
    <g>
      <rect class="cls-1" x="0" y="0" width="124.9" height="124.9" rx="62.45" ry="62.45"/>
      <g>
        <path class="cls-2" d="M97.45,97.44c-6.63,0-13.26-.01-19.89.02-.65,0-.77-.19-.77-.79.02-9.18,0-18.36.03-27.54,0-.63-.17-.95-.76-1.22-5.35-2.46-10.69-4.95-16.02-7.46-3.78-1.78-4.92-6.37-2.37-9.51,1.84-2.27,4.81-2.92,7.59-1.63,7.22,3.34,14.44,6.7,21.66,10.05,1.51.7,3.02,1.39,4.51,2.11,3.25,1.55,5.21,4.1,5.88,7.64.03.15.09.3.13.45v27.88Z"/>
        <path class="cls-2" d="M66.29,27.45c.19.2.47.15.7.22,4.43,1.26,6.03,6.72,2.88,10.07-2.3,2.44-4.72,4.75-7.08,7.13-.25.26-.4.25-.66,0-2.33-2.34-4.69-4.65-6.99-7.02-1.65-1.71-2.13-3.8-1.43-6.07.69-2.24,2.26-3.62,4.54-4.19.13-.03.28-.01.37-.14h1.78c.62.22,1.27.31,1.86.63.13.07.26.07.39,0,.58-.32,1.24-.41,1.86-.63h1.78Z"/>
        <path class="cls-2" d="M97.45,49.18c-.31,1.43-.76,2.8-1.67,3.99-1.99,2.61-5.33,3.8-8.51,3-3.24-.82-5.62-3.42-6.12-6.7-.67-4.39,2.29-8.56,6.6-9.31,4.49-.78,8.65,2.07,9.55,6.53.03.15,0,.32.14.44v2.05Z"/>
        <path class="cls-2" d="M52.38,52.72c-.61,4.84,1.14,8.47,5.13,11.04-.09.23-.31.25-.49.33-2.76,1.3-5.51,2.6-8.28,3.87-.48.22-.65.47-.65,1.01.02,9.22,0,18.45.03,27.67,0,.67-.17.81-.82.81-6.38-.03-12.76-.02-19.13,0-.55,0-.72-.12-.72-.7.02-8.63.01-17.27.01-25.9,0-3.98,1.77-6.96,5.2-8.9,2.97-1.68,6.16-2.93,9.24-4.39,3.29-1.56,6.6-3.06,9.91-4.59.16-.07.32-.15.57-.26Z"/>
        <path class="cls-2" d="M61.25,85.07c-2.59-.49-4.62-1.82-5.93-4.13-.99-1.75-1.29-3.63-.91-5.6.77-3.98,4.41-6.79,8.52-6.6,3.98.19,7.32,3.4,7.7,7.46.33,3.52-1.78,7.89-7.19,8.93.5.1.85.17,1.19.25,4.73,1.05,8.04,5.12,8.08,9.95,0,.48-.04.96.01,1.43.07.6-.18.69-.72.69-3.69-.02-7.38-.01-11.07-.01-2.71,0-5.42-.01-8.13.01-.48,0-.59-.13-.61-.6-.1-2.58.27-5.04,1.79-7.22,1.69-2.41,3.98-3.88,6.89-4.37.13-.02.28.02.38-.19Z"/>
        <path class="cls-2" d="M43.87,48.26c-.01,4.51-3.72,8.19-8.25,8.17-4.5-.02-8.18-3.74-8.15-8.27.02-4.47,3.73-8.14,8.22-8.13,4.51,0,8.2,3.71,8.19,8.23Z"/>
      </g>
    </g>
  </g>
</svg>