<?xml version="1.0" encoding="UTF-8"?>
<svg id="Layer_2" data-name="Layer 2" xmlns="http://www.w3.org/2000/svg" viewBox="0 0 124.9 124.9">
  <defs>
    <style>
      .cls-1 {
        fill: #38b14a;
        fill-rule: evenodd;
      }

      .cls-1, .cls-2 {
        stroke-width: 0px;
      }

      .cls-2 {
        fill: #dcffdf;
      }
    </style>
  </defs>
  <g id="Layer_1-2" data-name="Layer 1">
    <g>
      <rect class="cls-2" x="0" y="0" width="124.9" height="124.9" rx="62.45" ry="62.45"/>
      <path class="cls-1" d="M51.16,29.7c-2.99-2.99-7.85-2.99-10.84,0-2.99,2.99-2.99,7.85,0,10.84,2.99,2.99,7.85,2.99,10.84,0,2.99-2.99,2.99-7.85,0-10.84ZM79.05,42.78c4.24,0,7.67-3.43,7.67-7.67s-3.43-7.67-7.67-7.67-7.67,3.43-7.67,7.67,3.43,7.66,7.66,7.67ZM52.54,79.23c-.41-.41-.72-.85-1.26-.85-.25,0-.51.1-.7.29l-5.81,5.81c-.38.38-.38,1.02,0,1.4.41.41.72.85,1.26.85.41,0,.6-.19.84-.43l5.67-5.67c.38-.38.38-1.02,0-1.4ZM50.56,89.71c-.25.25-.44.43-.84.43-.54,0-.84-.42-1.26-.85-.38-.38-.38-1.02,0-1.4l5.67-5.67c.25-.25.44-.43.84-.43.54,0,.84.42,1.26.85.38.38.38,1.02,0,1.4l-5.67,5.67ZM63.63,89.46c-.43-.43-.72-.85-1.26-.85-.4,0-.59.18-.84.43l-5.67,5.67c-.38.38-.38,1.01,0,1.39.43.43.72.85,1.26.85.25,0,.51-.1.7-.29l5.81-5.81c.38-.38.38-1.02,0-1.4h0ZM54.26,93.12c-.25.25-.44.43-.84.43-.54,0-.84-.42-1.26-.85-.38-.38-.38-1.01,0-1.4l5.67-5.67c.24-.24.43-.43.84-.43.54,0,.85.44,1.26.85.38.38.38,1.01,0,1.39l-5.68,5.68ZM64.65,87.3c-.61-.61-1.41-.92-2.21-.94-.14-1.19-.73-1.71-1.49-2.47-.61-.61-1.41-.92-2.21-.94-.14-1.19-.73-1.71-1.49-2.47-.61-.61-1.41-.92-2.21-.94-.14-1.19-.73-1.71-1.49-2.47-1.26-1.26-3.32-1.26-4.58,0l-4.75,4.75-3.04-2.36c-.13-.1-.28-.17-.44-.2h0s-10.21-2.25-10.21-2.25c-.95-.21-1.6-.99-1.64-1.96l-.51-12.85c-.06-1.57,1.54-2.64,2.96-1.99l13.03,5.97c.34.16.72.13,1.02-.04h0c4.79-2.71,10.39-2.73,15.93-1.45-2.09.96-4.13,2.31-6.13,3.95-4.11,3.38-2.36,8.81,3.49,7.92,5.41-.83,7.14-5.28,11.41-.95,2.63,2.66,5.34,5.17,8.05,7.7-2.34,2.7-4.2,4.94-5.77,6.83-5.84,7.04-7.26,8.77-11.01,6.14l3.84-3.84c1.26-1.26,1.26-3.32,0-4.58l-.57-.57ZM57.32,54.49l-3.48-3.48c-1.05-1.05-1.57-2.43-1.57-3.81h0c0-.54.08-1.08.24-1.6-1.18-.58-2.47-.89-3.81-.89h-5.93c-4.74,0-8.62,3.88-8.62,8.62v5.7l10.66,4.88c3.81-2.01,8.07-2.59,12.51-2.16v-7.26h0ZM65.54,57.17l-2.09,2.09c-.38.38-.99.38-1.36,0l-2.84-2.84v5.58c1.87.29,3.82.76,5.86,1.4.17-.04.34-.07.51-.11-.05-.3-.08-.59-.08-.9v-5.23h0ZM72.79,45.37c.75,1.96.32,4.23-1.21,5.76l-4.11,4.11v7.16c0,.23.02.44.06.65,3.1-.21,6.27.51,9.52,2.4l13.6-7.78v-4.33c0-4.74-3.88-8.62-8.62-8.62h-5.93c-1.16,0-2.26.22-3.3.66h0ZM70.21,44.87c1.35,1.35,1.35,3.55,0,4.9l-7.44,7.44-7.56-7.56c-.67-.67-1.01-1.56-1.01-2.45h0c0-3.1,3.76-4.6,5.91-2.45l1.98,1.98c.38.38.99.38,1.36,0l1.86-1.86c1.35-1.35,3.55-1.35,4.9,0ZM92.91,58.95l-15.32,8.77c-.38.22-.84.19-1.19-.04-3.49-2.17-6.86-2.78-10.1-2.23-3.31.57-6.54,2.34-9.67,4.92-2.18,1.8-2.03,4.54,1.73,3.97,5.09-.78,7.63-6.09,13.34-.3,2.69,2.73,5.5,5.31,8.32,7.96l14.9-3.86c.96-.25,1.6-1.11,1.57-2.1l-.46-15.33c-.04-1.58-1.74-2.56-3.13-1.76h0Z"/>
    </g>
  </g>
</svg>