<?xml version="1.0" encoding="UTF-8"?>
<svg id="Layer_2" data-name="Layer 2" xmlns="http://www.w3.org/2000/svg" viewBox="0 0 124.9 124.9">
  <defs>
    <style>
      .cls-1 {
        fill: #dcffdf;
      }

      .cls-1, .cls-2 {
        stroke-width: 0px;
      }

      .cls-2 {
        fill: #38b14a;
      }
    </style>
  </defs>
  <g id="Layer_1-2" data-name="Layer 1">
    <g>
      <rect class="cls-1" x="0" y="0" width="124.9" height="124.9" rx="62.45" ry="62.45"/>
      <g id="_05-Real_Estate" data-name=" 05-Real Estate">
        <path class="cls-2" d="M90.45,38.71l-11.67-8.48v-1.61c0-.64.52-1.17,1.17-1.17h9.33c.64,0,1.17.52,1.17,1.17v10.1ZM65.95,67.12c-.05,0-.11,0-.16-.01l5.67,4.5c6.35-1.11,10.59-7.15,9.49-13.5-1.11-6.35-7.15-10.59-13.5-9.49-5.59.98-9.66,5.82-9.66,11.49,0,.29.01.6.04.87.64.37,1.25.78,1.82,1.24l5.23,4.14c-.06-.13-.09-.28-.08-.42,0-.64.52-1.16,1.17-1.17h4.08c.97,0,1.75-.78,1.75-1.75s-.78-1.75-1.75-1.75h-1.17c-2.25,0-4.08-1.82-4.08-4.08,0-2.03,1.49-3.75,3.5-4.04v-1.21c0-.64.52-1.17,1.17-1.17s1.17.52,1.17,1.17v1.17h2.33c.64,0,1.17.52,1.17,1.17s-.52,1.17-1.17,1.17h-4.08c-.97,0-1.75.78-1.75,1.75s.78,1.75,1.75,1.75h1.17c2.25,0,4.08,1.82,4.08,4.08,0,2.03-1.49,3.75-3.5,4.04v1.21c0,.64-.52,1.17-1.17,1.17s-1.17-.52-1.17-1.17v-1.17h-2.33ZM90.27,72.73l.18-.03v-21.53l-21-15.27-21,15.27v7.78h1.77c1.79,0,3.56.32,5.24.94.12-7.73,6.49-13.89,14.22-13.77s13.89,6.49,13.77,14.22c-.1,5.99-4,11.26-9.7,13.1.92.83,1.64,1.86,2.11,3l14.42-3.71ZM43.62,50.42c.39.49,1.09.58,1.6.21l23.54-17.12c.41-.29.96-.29,1.38,0l23.54,17.12c.5.37,1.21.27,1.6-.21l1.92-2.4c.2-.25.29-.57.24-.89-.04-.32-.21-.61-.47-.79l-24.72-17.98c-1.68-1.19-3.92-1.19-5.6,0l-24.72,17.98c-.26.19-.43.48-.47.79-.04.32.05.64.25.89l1.92,2.4ZM35.62,57.79h-7c-.64,0-1.17.52-1.17,1.17v30.33c0,.64.52,1.17,1.17,1.17h7c1.93,0,3.5-1.57,3.5-3.5v-25.67c0-1.93-1.57-3.5-3.5-3.5ZM97.17,78.53c-.88-2.63-3.61-4.16-6.31-3.53l-14.43,3.71s0,.06.01.08c.48,4.63-2.88,8.77-7.51,9.25-1.7.18-3.42-.17-4.92-.99l-13.73-7.53c-.56-.31-.77-1.02-.46-1.58.31-.56,1.02-.77,1.58-.46l13.73,7.53c2.96,1.61,6.67.52,8.28-2.44.59-1.08.84-2.31.71-3.54-.16-1.64-.99-3.14-2.29-4.15l-13.64-10.81c-2.27-1.8-5.08-2.77-7.97-2.78h-8.77v25.22l7.29,3.64,11.29,5.65c4.51,2.26,9.83,2.2,14.29-.15l20.25-10.66c2.34-1.22,3.44-3.96,2.59-6.45Z"/>
      </g>
    </g>
  </g>
</svg>