<?xml version="1.0" encoding="UTF-8"?>
<svg id="Layer_2" data-name="Layer 2" xmlns="http://www.w3.org/2000/svg" viewBox="0 0 124.9 124.9">
  <defs>
    <style>
      .cls-1 {
        fill: #dcffdf;
      }

      .cls-1, .cls-2 {
        stroke-width: 0px;
      }

      .cls-2 {
        fill: #38b14a;
      }
    </style>
  </defs>
  <g id="Layer_1-2" data-name="Layer 1">
    <g>
      <rect class="cls-1" x="0" y="0" width="124.9" height="124.9" rx="62.45" ry="62.45"/>
      <g>
        <path class="cls-2" d="M87.17,58.24c.17.32.09.61.09.89,0,13.32,0,26.64,0,39.97,0,2.4-.93,3.32-3.32,3.32-15.94,0-31.88-.02-47.81.03-1.87,0-3.34-.96-3.33-3.37.05-18.07.03-36.14.03-54.2,0-1.18-.13-1.03,1.03-1.03,3.37,0,6.74,0,10.11,0,3.18,0,5.28-2.07,5.31-5.25.03-3.48.01-6.96,0-10.44,0-.47-.01-.81.66-.81,4.8.03,9.6.01,14.4.02.1,0,.2.02.29.04.07.28-.16.28-.27.35-2.97,1.69-4.1,5.16-2.68,8.3.15.33.15.57,0,.9-1.24,2.72-.56,5.76,1.75,7.67.39.32.38.53.16.92-1.12,1.9-2.21,3.83-3.33,5.73-.69,1.17-.84,2.33-.04,3.49.83,1.2,2.02,1.43,3.37,1.16.66-.13,1.33-.22,1.98-.38.51-.13.79,0,.95.53.23.77.53,1.52.81,2.28.43,1.17,1.27,1.87,2.51,1.99,1.28.12,2.25-.44,2.89-1.54.99-1.7,1.99-3.39,2.94-5.11.26-.46.55-.54,1.06-.62,1.39-.23,2,.48,2.55,1.58.67,1.35,1.51,2.61,2.24,3.93.63,1.13,1.51,1.83,2.84,1.78,1.29-.05,2.16-.73,2.67-1.9.03-.06.08-.11.14-.2ZM59.96,63.76c5.85,0,11.7,0,17.56,0,.27,0,.54.02.81-.02.64-.09,1.02-.5,1.1-1.12.08-.63-.23-1.08-.82-1.34-.36-.16-.74-.11-1.12-.11-11.62,0-23.25,0-34.87,0-.37,0-.76-.05-1.12.11-.59.25-.9.7-.83,1.33.07.62.45,1.03,1.09,1.13.26.04.54.02.81.02,5.8,0,11.6,0,17.39,0ZM60.04,78.29c5.8,0,11.6,0,17.39,0,1.36,0,2.02-.43,2.01-1.32-.01-.87-.63-1.27-1.96-1.27-11.62,0-23.25,0-34.87,0-.27,0-.54-.01-.81.02-.69.08-1.08.51-1.14,1.16-.06.67.29,1.15.94,1.33.3.09.64.07.96.08,5.83,0,11.65,0,17.48,0ZM60.01,71.03c5.96,0,11.92,0,17.88,0,.95,0,1.54-.5,1.55-1.28.01-.77-.58-1.29-1.52-1.31-.13,0-.27,0-.4,0-11.65,0-23.3,0-34.95,0-.27,0-.55-.03-.81.03-.7.14-1.11.59-1.1,1.29.02.7.44,1.14,1.15,1.25.24.04.48.02.73.02,5.83,0,11.65,0,17.48,0ZM60.13,82.95c-3.32,0-6.63,0-9.95,0-2.45,0-4.91,0-7.36,0-.19,0-.38,0-.57,0-1.02.02-1.62.51-1.6,1.31.02.79.62,1.28,1.64,1.28,11.84,0,23.68,0,35.51,0,1.02,0,1.63-.49,1.64-1.28.01-.8-.58-1.28-1.6-1.31-.22,0-.43,0-.65,0-5.69,0-11.38,0-17.07,0ZM56.33,90.19c-4.58,0-9.16,0-13.74,0-.32,0-.65,0-.96.07-.64.14-.97.61-.96,1.23,0,.62.34,1.08.98,1.22.34.07.7.06,1.05.07,9.11,0,18.21,0,27.32,0,.3,0,.6,0,.89-.04.72-.11,1.12-.56,1.11-1.26,0-.71-.42-1.15-1.13-1.26-.26-.04-.54-.03-.81-.03-4.58,0-9.16,0-13.74,0ZM49.1,46.7c-2.32,0-4.63,0-6.95,0-.91,0-1.47.49-1.5,1.23-.03.73.55,1.34,1.41,1.34,4.66.02,9.32.01,13.98,0,.3,0,.59-.06.84-.24.49-.35.7-.83.52-1.41-.2-.65-.68-.93-1.35-.93-2.32,0-4.63,0-6.95,0ZM49.01,56.51c2.32,0,4.63,0,6.95,0,.92,0,1.47-.49,1.49-1.24.02-.76-.52-1.33-1.41-1.33-4.66-.02-9.32-.01-13.98,0-.48,0-.9.16-1.18.58-.27.41-.31.85-.08,1.3.27.51.71.7,1.27.7,2.32,0,4.63,0,6.95,0Z"/>
        <path class="cls-2" d="M83.09,48.58c-.15-.02-.45-.04-.74-.11-.94-.25-1.68.05-2.31.75-1.62,1.77-4.08,1.78-5.68.02-.66-.73-1.41-.98-2.39-.76-2.24.49-4.26-.95-4.53-3.22-.13-1.08-.63-1.76-1.63-2.2-1.98-.88-2.77-3.31-1.68-5.18.55-.94.56-1.78.01-2.72-1.11-1.91-.31-4.34,1.72-5.23.93-.41,1.43-1.05,1.56-2.06.32-2.41,2.22-3.77,4.59-3.31.92.18,1.68-.04,2.33-.76,1.62-1.78,4.07-1.79,5.67-.02.67.75,1.45.96,2.4.77,2.26-.46,4.26.95,4.53,3.21.12,1.07.62,1.76,1.63,2.19,1.97.85,2.77,3.33,1.68,5.18-.57.98-.54,1.83.02,2.8,1.06,1.82.25,4.27-1.68,5.12-1.03.45-1.54,1.15-1.66,2.26-.2,1.87-1.84,3.28-3.84,3.27ZM77.14,44.36c4.36.03,7.88-3.44,7.94-7.81.05-4.3-3.51-7.9-7.83-7.93-4.34-.02-7.89,3.47-7.94,7.82-.05,4.32,3.48,7.88,7.83,7.91Z"/>
        <path class="cls-2" d="M33.17,41.15c.11-.38.39-.63.65-.89,3.94-3.95,7.89-7.89,11.84-11.84.26-.26.56-.74.88-.62.38.13.16.67.16,1.02.02,3.18.01,6.36,0,9.54,0,2.01-.9,2.89-2.93,2.89-3.26,0-6.52,0-9.79,0-.26,0-.53.08-.82-.1Z"/>
        <path class="cls-2" d="M65.37,47.61c1.62,2.58,3.76,3.85,6.72,3.5.71-.08.95.54,1.35.88.3.25-.12.57-.26.83-.85,1.5-1.71,2.99-2.58,4.48-.12.2-.2.47-.51.45-.31-.03-.34-.31-.42-.53-.5-1.36-1.02-2.72-1.47-4.1-.16-.5-.41-.61-.88-.51-1.32.26-2.65.5-3.97.72-.33.06-.73.27-.98-.07-.23-.32.11-.6.26-.87.89-1.56,1.8-3.11,2.75-4.77Z"/>
        <path class="cls-2" d="M89.03,47.64c1.02,1.76,2.03,3.44,2.96,5.16.35.64-.2.65-.62.57-1.35-.23-2.71-.46-4.05-.75-.67-.14-1.01-.01-1.23.7-.39,1.29-.88,2.54-1.35,3.81-.09.24-.1.57-.45.61-.35.04-.42-.29-.55-.51-.84-1.44-1.68-2.89-2.5-4.34-.16-.28-.6-.63-.31-.9.42-.38.71-.99,1.51-.88,2.19.3,4.03-.47,5.52-2.08.36-.39.66-.85,1.07-1.39Z"/>
        <path class="cls-2" d="M82.04,34.53c0,.51-.2.85-.5,1.15-1.39,1.39-2.78,2.79-4.18,4.17-.72.71-1.39.7-2.12,0-.68-.66-1.35-1.32-2-2-.61-.63-.64-1.41-.1-1.94.53-.53,1.29-.48,1.94.12.41.38.78,1.13,1.22,1.07.48-.07.87-.73,1.3-1.15.75-.74,1.48-1.5,2.24-2.22.4-.38.88-.5,1.42-.26.49.22.72.62.78,1.06Z"/>
      </g>
    </g>
  </g>
</svg>