<?xml version="1.0" encoding="UTF-8"?>
<svg id="Layer_2" data-name="Layer 2" xmlns="http://www.w3.org/2000/svg" viewBox="0 0 124.9 124.9">
  <defs>
    <style>
      .cls-1 {
        fill: #dcffdf;
      }

      .cls-1, .cls-2 {
        stroke-width: 0px;
      }

      .cls-2 {
        fill: #38b14a;
      }
    </style>
  </defs>
  <g id="Layer_1-2" data-name="Layer 1">
    <g>
      <rect class="cls-1" x="0" y="0" width="124.9" height="124.9" rx="62.45" ry="62.45"/>
      <g>
        <path class="cls-2" d="M54.65,60.12c-2.58,0-4.67,2.09-4.67,4.67,0,2.58,2.09,4.67,4.67,4.67,2.58,0,4.67-2.09,4.67-4.67,0-2.58-2.09-4.67-4.67-4.67h0Z"/>
        <path class="cls-2" d="M68.22,39.12c-2.58.02-4.65,2.13-4.62,4.71.02,2.54,2.08,4.6,4.62,4.62,2.58-.02,4.65-2.13,4.62-4.71-.02-2.54-2.08-4.6-4.62-4.62Z"/>
        <path class="cls-2" d="M88.34,70.62h.89c.64,0,1.17-.52,1.17-1.17h0v-21.08c1.9.38,3.75-.85,4.13-2.75.29-1.43-.34-2.88-1.57-3.66l-22.91-14c-1.12-.69-2.53-.69-3.65,0l-22.91,14c-1.64,1.03-2.13,3.19-1.1,4.83.78,1.24,2.25,1.86,3.68,1.56v4.74l-16.16,9.87c-1.64,1.03-2.13,3.19-1.11,4.83.78,1.24,2.25,1.87,3.68,1.57v19.97c-2.23.34-3.76,2.43-3.41,4.66.3,1.98,2,3.44,4,3.46h33.49c-2.98-1.22-5.56-3.24-7.47-5.83h3c8.91,9.87,34.11,6.65,34.56-6.42,0-5.3-3.37-11.04-8.31-14.58h0ZM77.39,90.45v-1.17h-2.33c-.64,0-1.16-.54-1.15-1.18,0-.63.52-1.14,1.15-1.15h4.08c.97,0,1.75-.78,1.75-1.75,0-.97-.78-1.75-1.75-1.75h-1.17c-2.26-.02-4.07-1.87-4.04-4.13.02-2,1.48-3.69,3.46-3.99v-1.21c0-.64.52-1.17,1.17-1.17s1.17.52,1.17,1.17v1.17h2.33c.64.01,1.15.55,1.14,1.19-.01.62-.52,1.13-1.14,1.14h-4.08c-.97.02-1.73.82-1.71,1.79.02.94.77,1.69,1.71,1.71h1.17c2.26.02,4.07,1.87,4.04,4.13-.02,2-1.48,3.69-3.46,3.99v1.21c0,.64-.54,1.16-1.18,1.15-.63,0-1.14-.52-1.15-1.15ZM70.71,68.29c-.01-.63.49-1.16,1.13-1.17.01,0,.03,0,.04,0h11.67c.64,0,1.17.52,1.17,1.17,0,.64-.52,1.17-1.17,1.17h-11.67c-.64,0-1.16-.52-1.17-1.17h0ZM47.65,89.29v-12.83c0-1.29,1.05-2.33,2.33-2.33h9.33c.46,0,.91.13,1.29.38.44-.63.92-1.25,1.42-1.83-.79-.58-1.74-.89-2.72-.89h-9.33c-2.58,0-4.67,2.09-4.67,4.66h0v12.84h-10.5v-21.12l19.83-12.12,13.16,8.05.17.1c-1.14-2.51-.71-5.45,1.12-7.51l-5.82-3.56c.09,0,.19-.01.28-.01h9.33c.83,0,1.6.44,2.02,1.17h2.5c-.53-2.06-2.39-3.5-4.51-3.5h-9.33c-.97,0-1.92.3-2.71.86-7.04-4.32-5.45-4.23-12.46.02v-4.5l19.83-12.11,19.83,12.12v21.1h-1.01c0-1.59-1.08-2.98-2.62-3.38l.71-1.29c1.25-2.29.41-5.16-1.88-6.41-.68-.37-1.45-.57-2.23-.58h-6.64c-2.62.03-4.71,2.17-4.68,4.79,0,.76.2,1.51.56,2.19l.72,1.31c-1.88.5-2.99,2.43-2.49,4.31.06.23.14.44.25.65-6.08,3.86-11.82,12.32-8.38,19.42h-12.73Z"/>
      </g>
    </g>
  </g>
</svg>