<?xml version="1.0" encoding="UTF-8"?>
<svg id="Layer_2" data-name="Layer 2" xmlns="http://www.w3.org/2000/svg" viewBox="0 0 124.9 124.9">
  <defs>
    <style>
      .cls-1 {
        fill: #dcffdf;
      }

      .cls-1, .cls-2 {
        stroke-width: 0px;
      }

      .cls-2 {
        fill: #38b14a;
      }
    </style>
  </defs>
  <g id="Layer_1-2" data-name="Layer 1">
    <g>
      <rect class="cls-1" x="0" y="0" width="124.9" height="124.9" rx="62.45" ry="62.45"/>
      <g>
        <path class="cls-2" d="M37.47,84.97c0-3.88.01-7.76-.01-11.63,0-.52.17-.78.59-1.04,7.96-4.88,15.91-9.77,23.85-14.67.4-.25.69-.27,1.11-.01,7.94,4.91,15.89,9.8,23.85,14.68.46.28.6.6.6,1.12-.02,7.73-.02,15.46,0,23.19,0,.68-.14.86-.85.86-5.28-.03-10.57-.04-15.85,0-.73,0-.83-.23-.83-.88.02-5.78.01-11.56.01-17.33,0-1.44-.36-1.8-1.79-1.8-3.85,0-7.7,0-11.56,0-1.23,0-1.65.41-1.65,1.63,0,5.86-.01,11.71.01,17.57,0,.66-.17.81-.82.81-5.31-.03-10.62-.02-15.93,0-.6,0-.78-.13-.78-.76.03-3.9.02-7.81.02-11.71Z"/>
        <path class="cls-2" d="M27.47,62.63c0-2.4.01-4.66-.01-6.92,0-.5.35-.59.64-.77,4.87-3,9.74-6,14.61-9,5.91-3.64,11.83-7.26,17.73-10.92,1.37-.85,2.64-.85,4.01-.01,3.1,1.9,6.24,3.74,9.35,5.64.47.29.75.33,1.17-.11,1.98-2.03,3.99-4.04,6.02-6.02.43-.42.4-.64-.01-1.04-1.5-1.45-2.95-2.93-4.43-4.41-.3-.3-.62-.59-.42-1.08.21-.51.64-.53,1.1-.53,4.84,0,9.68.01,14.52-.01.56,0,.69.16.68.7-.02,4.84-.01,9.68,0,14.52,0,.46-.03.9-.54,1.09-.49.19-.78-.14-1.08-.43-1.46-1.45-2.93-2.89-4.35-4.37-.46-.49-.71-.43-1.15.02-2.57,2.62-5.18,5.2-7.77,7.79-1.55,1.55-2.8,1.7-4.67.57-3.21-1.93-6.43-3.84-9.62-5.79-.56-.34-.96-.35-1.53,0-11.15,6.89-22.31,13.75-33.47,20.62-.22.13-.44.26-.78.46Z"/>
        <path class="cls-2" d="M97.44,69.85c-.01,2.07-2.11,3.22-3.84,2.19-2.08-1.23-4.12-2.53-6.18-3.79-8.08-4.98-16.17-9.94-24.24-14.94-.54-.34-.91-.31-1.44.02-9.98,6.16-19.97,12.3-29.95,18.46-.72.45-1.45.83-2.34.6-1.07-.27-1.74-.96-1.92-2.03-.18-1.11.26-1.99,1.23-2.58,2.63-1.62,5.27-3.24,7.91-4.87,8.06-4.96,16.13-9.91,24.18-14.89,1.1-.68,2.11-.71,3.21-.04,10.67,6.58,21.34,13.15,32.02,19.71.87.53,1.36,1.26,1.38,2.16Z"/>
      </g>
    </g>
  </g>
</svg>