<?xml version="1.0" encoding="UTF-8"?>
<svg id="Layer_2" data-name="Layer 2" xmlns="http://www.w3.org/2000/svg" viewBox="0 0 124.9 124.9">
  <defs>
    <style>
      .cls-1 {
        fill: #dcffdf;
      }

      .cls-1, .cls-2 {
        stroke-width: 0px;
      }

      .cls-2 {
        fill: #38b14a;
      }
    </style>
  </defs>
  <g id="Layer_1-2" data-name="Layer 1">
    <g>
      <rect class="cls-1" x="0" y="0" width="124.9" height="124.9" rx="62.45" ry="62.45"/>
      <g id="Layer_10" data-name="Layer 10">
        <path class="cls-2" d="M41.86,52.16c-12.51,0-22.65,10.14-22.65,22.65s10.14,22.65,22.65,22.65,22.65-10.14,22.65-22.65-10.14-22.65-22.65-22.65ZM34.66,64.51c1.71,0,3.09,1.38,3.09,3.09s-1.38,3.09-3.09,3.09-3.09-1.38-3.09-3.09,1.38-3.09,3.09-3.09ZM49.07,85.1c-1.71,0-3.09-1.38-3.09-3.09s1.38-3.09,3.09-3.09,3.09,1.38,3.09,3.09-1.38,3.09-3.09,3.09ZM51.56,68.03l-16.47,16.47c-.8.81-2.1.81-2.91.01,0,0,0,0-.01-.01-.81-.8-.81-2.1-.01-2.91,0,0,0,0,.01-.01l16.47-16.47c.81-.81,2.12-.81,2.92,0s.81,2.12,0,2.92Z"/>
        <ellipse class="cls-2" cx="83.04" cy="37.75" rx="22.65" ry="10.29"/>
        <path class="cls-2" d="M60.39,45.73v9.78c1.68,1.62,3.14,3.44,4.34,5.44,5.76,2.53,12.01,3.74,18.3,3.56,12.7,0,22.65-4.12,22.65-8.24v-10.54c-4.61,3.95-12.76,6.42-22.65,6.42s-18.04-2.47-22.65-6.42Z"/>
        <path class="cls-2" d="M67.13,66.01c.99,2.83,1.49,5.8,1.5,8.79,0,1.38-.13,2.76-.35,4.12,4.78,1.44,9.76,2.14,14.76,2.06,12.7,0,22.65-4.12,22.65-8.24v-10.54c-4.61,3.95-12.76,6.42-22.65,6.42-5.42.09-10.81-.79-15.91-2.61Z"/>
        <path class="cls-2" d="M67.45,82.61c-.99,3.31-2.63,6.39-4.82,9.06,3.62,3.46,11.28,5.79,20.4,5.79,12.7,0,22.65-4.53,22.65-10.29v-8.48c-4.61,3.95-12.76,6.42-22.65,6.42-5.3.08-10.57-.76-15.59-2.49Z"/>
      </g>
    </g>
  </g>
</svg>