<?xml version="1.0" encoding="UTF-8"?>
<svg id="Layer_2" data-name="Layer 2" xmlns="http://www.w3.org/2000/svg" viewBox="0 0 124.9 124.9">
  <defs>
    <style>
      .cls-1 {
        fill: #dcffdf;
      }

      .cls-1, .cls-2 {
        stroke-width: 0px;
      }

      .cls-2 {
        fill: #38b14a;
      }
    </style>
  </defs>
  <g id="Layer_1-2" data-name="Layer 1">
    <g>
      <rect class="cls-1" x="0" y="0" width="124.9" height="124.9" rx="62.45" ry="62.45"/>
      <g>
        <path class="cls-2" d="M62.45,102.45c-6.69,0-13.39,0-20.08,0-1.86,0-2.37-.56-2.15-2.4,1.16-9.79,8.1-17.42,17.77-19.51,11.77-2.55,23.92,5.39,26.32,17.2.16.79.27,1.59.37,2.4.22,1.72-.32,2.32-2.08,2.32-6.72,0-13.44,0-20.16,0Z"/>
        <path class="cls-2" d="M62.8,78.91c-6.5.32-12.09-4.92-12.45-11.66-.34-6.54,4.94-12.22,11.66-12.53,6.62-.3,12.24,4.96,12.53,11.74.28,6.57-4.95,12.11-11.74,12.44Z"/>
        <path class="cls-2" d="M89.26,65.89c-7.29-.02-13.19-5.93-13.16-13.19.03-7.29,5.95-13.15,13.24-13.11,7.29.03,13.14,5.93,13.11,13.23-.03,7.24-5.94,13.09-13.19,13.08ZM91.98,47.82s-.04,0-.06,0c0-.51,0-1.02,0-1.54-.01-1-.31-1.31-1.29-1.32-.89,0-1.78,0-2.67,0-1.02,0-1.33.32-1.34,1.37,0,1.02-.03,2.05,0,3.07.02.58-.2.73-.75.72-1.08-.04-2.16-.02-3.24,0-.81.01-1.12.32-1.14,1.13-.02,1-.02,2,0,2.99.02.81.33,1.12,1.14,1.13,1.08.02,2.16.03,3.24,0,.55-.02.77.14.74.72-.04,1.02-.02,2.05,0,3.07,0,1.05.32,1.36,1.34,1.37.89,0,1.78,0,2.67,0,.97,0,1.28-.32,1.29-1.32,0-1.08.02-2.16,0-3.24-.01-.47.15-.6.6-.59,1.13.02,2.26,0,3.4,0,.72,0,1.13-.34,1.15-1.06.03-1.05.03-2.1,0-3.15-.02-.66-.38-1.04-1.08-1.05-.59,0-1.19.02-1.78,0-.74-.04-1.74.34-2.16-.17-.36-.43-.07-1.39-.07-2.11Z"/>
        <path class="cls-2" d="M35.63,65.89c-7.29,0-13.18-5.88-13.18-13.17,0-7.25,5.86-13.12,13.12-13.14,7.29-.02,13.21,5.84,13.23,13.13.02,7.27-5.88,13.17-13.17,13.18ZM42.02,51.15c.11-.04.15-.06.16-.05.44.31.88.62,1.32.92.8.55,1.53.49,1.99-.16.47-.65.31-1.36-.49-1.94-2.81-2.05-5.63-4.09-8.44-6.14-.66-.48-1.26-.48-1.92,0-2.8,2.06-5.62,4.09-8.43,6.14-.76.55-.94,1.32-.48,1.94.46.64,1.19.69,2,.15.48-.31.87-.78,1.5-.95,0,2.65.01,5.24,0,7.83,0,.72.31,1.05,1.01,1.05.7,0,1.41-.04,2.1.01.63.05.77-.2.76-.79-.04-1.51-.02-3.02,0-4.53.01-.9.38-1.25,1.29-1.27.78-.01,1.56,0,2.35,0,1.04,0,1.41.37,1.41,1.41,0,1.51.02,3.02,0,4.53,0,.49.12.68.63.65.73-.04,1.46-.02,2.18,0,.75,0,1.07-.36,1.06-1.1-.02-1.27,0-2.54,0-3.8,0-1.31,0-2.62,0-3.9Z"/>
        <path class="cls-2" d="M49.3,35.57c.02-7.29,5.92-13.14,13.22-13.12,7.24.02,13.09,5.92,13.08,13.18,0,7.29-5.92,13.2-13.18,13.17-7.29-.03-13.15-5.93-13.12-13.23ZM62.48,26.45c-5.06-.02-9.17,4.04-9.23,9.11-.06,5.01,4.07,9.22,9.09,9.25,5.14.03,9.32-4.09,9.31-9.2,0-5.04-4.11-9.14-9.17-9.16Z"/>
        <path class="cls-2" d="M62.44,28.88c.73.03,1.22.41,1.27,1.11.04.52.24.75.68.93.4.16.71.48.98.83.45.6.42,1.27-.08,1.75-.49.47-1.23.52-1.75.01-.35-.34-.71-.44-1.16-.42-.39.02-.72.14-.73.58-.01.49.33.62.76.63.27,0,.54.03.8.07,1.34.24,2.36,1.24,2.61,2.54.25,1.29-.33,2.63-1.5,3.32-.38.23-.58.44-.6.92-.03.73-.6,1.2-1.28,1.2-.68,0-1.21-.47-1.27-1.21-.03-.41-.14-.62-.53-.77-.45-.18-.83-.51-1.12-.91-.44-.6-.4-1.28.09-1.76.5-.48,1.2-.52,1.75,0,.35.33.69.47,1.15.44.4-.03.7-.16.73-.59.03-.44-.27-.61-.66-.66-.19-.02-.38,0-.57-.02-1.41-.09-2.54-1.04-2.9-2.41-.34-1.29.21-2.72,1.38-3.44.42-.26.67-.47.69-1.03.03-.7.52-1.09,1.24-1.13Z"/>
      </g>
    </g>
  </g>
</svg>