<?xml version="1.0" encoding="UTF-8"?>
<svg id="Layer_2" data-name="Layer 2" xmlns="http://www.w3.org/2000/svg" viewBox="0 0 124.9 124.9">
  <defs>
    <style>
      .cls-1 {
        fill: #dcffdf;
      }

      .cls-1, .cls-2 {
        stroke-width: 0px;
      }

      .cls-2 {
        fill: #38b14a;
      }
    </style>
  </defs>
  <g id="Layer_1-2" data-name="Layer 1">
    <g>
      <rect class="cls-1" x="0" y="0" width="124.9" height="124.9" rx="62.45" ry="62.45"/>
      <g>
        <path class="cls-2" d="M57.73,39.05c0,2.16-.01,4.32.01,6.48,0,.48-.12.7-.62.84-7.23,1.95-12.27,8.56-12.27,16.08,0,7.55,5.02,14.15,12.3,16.12.47.13.59.34.59.79-.02,4.3,0,8.6,0,12.89,0,.87,0,.88-.84.75-5.79-.92-10.96-3.24-15.4-7.07-5.84-5.04-9.32-11.41-10.51-19.03-1.86-11.85,3.95-24.36,14.21-30.64,3.57-2.19,7.4-3.64,11.54-4.31.13-.02.27-.02.41-.06.47-.12.62.03.61.53-.03,2.21-.01,4.41-.01,6.62Z"/>
        <path class="cls-2" d="M94.27,62.49c-.06,5.81-1.55,11.15-4.51,16.07-.3.49-.45.57-.89.12-3.16-3.2-6.35-6.38-9.55-9.55-.32-.32-.38-.57-.23-1,1.52-4.34,1.32-8.61-.61-12.79-.19-.41-.12-.63.18-.93,3.16-3.14,6.32-6.29,9.45-9.45.37-.37.52-.31.78.08,3.57,5.29,5.34,11.14,5.38,17.44Z"/>
        <path class="cls-2" d="M61.82,72.88c-5.85.02-10.6-4.69-10.62-10.54-.03-5.82,4.73-10.61,10.56-10.63,5.83-.02,10.59,4.72,10.63,10.56.03,5.83-4.71,10.59-10.56,10.61ZM62.53,59.05c.45,0,.91.01,1.36,0,.65-.02,1.03-.36,1.05-.91.02-.59-.37-.96-1.05-.99-.38-.02-.86.11-1.13-.08-.3-.21-.08-.72-.13-1.1-.07-.53-.35-.84-.88-.87-.56-.03-.89.28-.99.82-.04.22-.05.46-.02.68.04.41-.12.58-.52.7-1.48.46-2.33,1.88-2.1,3.4.21,1.4,1.46,2.49,2.94,2.56.39.02.77,0,1.16,0,.86.01,1.34.4,1.36,1.1.02.72-.48,1.18-1.35,1.2-.86.02-1.73,0-2.59,0-.59,0-.96.28-1,.88-.04.61.34,1.03.89.98,1.01-.09,1.33.26,1.27,1.26-.04.53.43.86.97.82.5-.03.83-.35.87-.88.01-.16.03-.32,0-.48-.05-.47.07-.7.61-.83,1.48-.35,2.38-1.76,2.22-3.31-.15-1.45-1.4-2.59-2.91-2.65-.41-.02-.82,0-1.23-.01-.83-.02-1.33-.44-1.33-1.14,0-.7.49-1.14,1.31-1.16.41,0,.82,0,1.23,0Z"/>
        <path class="cls-2" d="M65.37,85.88c0-2.18.01-4.36-.01-6.54,0-.44.13-.64.56-.75,2.32-.6,4.4-1.69,6.24-3.22.3-.25.49-.33.82,0,3.09,3.12,6.19,6.22,9.3,9.3.31.31.28.45-.03.73-4.6,4.09-9.93,6.63-16.01,7.6-.87.14-.87.13-.87-.72,0-2.14,0-4.27,0-6.41Z"/>
        <path class="cls-2" d="M65.68,31.85c2.39.33,4.58.88,6.72,1.68,3.2,1.2,6.11,2.89,8.76,5.04.32.26.37.4.05.71-3.13,3.11-6.25,6.23-9.36,9.36-.27.28-.45.33-.79.09-1.57-1.12-3.29-1.92-5.16-2.39-.4-.1-.53-.28-.53-.69.01-4.41,0-8.82,0-13.23,0-.28-.08-.65.3-.56Z"/>
      </g>
    </g>
  </g>
</svg>