<?xml version="1.0" encoding="UTF-8"?>
<svg id="Layer_2" data-name="Layer 2" xmlns="http://www.w3.org/2000/svg" viewBox="0 0 124.9 124.9">
  <defs>
    <style>
      .cls-1 {
        fill: #dcffdf;
      }

      .cls-1, .cls-2 {
        stroke-width: 0px;
      }

      .cls-2 {
        fill: #38b14a;
      }
    </style>
  </defs>
  <g id="Layer_1-2" data-name="Layer 1">
    <g>
      <rect class="cls-1" x="0" y="0" width="124.9" height="124.9" rx="62.45" ry="62.45"/>
      <g>
        <path class="cls-2" d="M52.22,97.39c0-17.55,0-35.1.02-52.65,0-.68-.14-.88-.84-.85-1.7.06-3.41.02-5.11.02-1.08,0-1.81-.48-2.12-1.38-.3-.86-.05-1.66.76-2.36,4.66-4,9.32-7.99,13.98-11.98,1.02-.87,1.98-.89,3-.02,4.68,4,9.36,8.01,14.03,12.03.8.69,1.04,1.51.72,2.37-.32.86-1.05,1.34-2.08,1.34-1.8,0-3.59.02-5.39,0-.49,0-.6.15-.59.61.03,1.84,0,3.68.02,5.52,0,.4-.1.64-.48.86-7.93,4.63-12.08,11.54-11.74,20.73.31,8.33,4.46,14.56,11.65,18.75.4.24.59.46.57.94-.04,1.11-.07,2.23,0,3.34.08,1.27-.34,2.2-1.52,2.75h-14.87Z"/>
        <path class="cls-2" d="M39.94,97.39c0-12.85,0-25.69,0-38.54,0-1.79.74-2.53,2.51-2.53,1.66,0,3.32.03,4.98-.01.57-.01.71.14.71.71-.02,13.46-.01,26.92-.01,40.38h-8.19Z"/>
        <path class="cls-2" d="M27.52,74.19c.54-1.18,1.48-1.58,2.75-1.52,1.54.07,3.09.05,4.63,0,.64-.02.83.12.83.8-.03,7.97-.02,15.94-.02,23.91h-6.69c-.67-.33-1.17-.83-1.5-1.5v-21.7Z"/>
        <path class="cls-2" d="M78.81,89.07c-10.16,0-18.43-8.3-18.41-18.46.02-10.13,8.29-18.38,18.42-18.38,10.19,0,18.56,8.31,18.56,18.43,0,10.11-8.38,18.42-18.57,18.41ZM80.87,59.52c0-.52.01-.86,0-1.2-.06-1.15-.97-2.02-2.08-2-1.09.02-1.96.89-2,2.01-.02.64-.03,1.27,0,1.91.02.4-.12.57-.49.74-2.79,1.23-4.21,4.31-3.37,7.24.75,2.63,2.97,4.34,5.85,4.47.93.04,1.61.46,1.95,1.34.31.8.13,1.53-.46,2.14-.66.68-1.47.77-2.33.44-.72-.28-1.25-.8-1.77-1.35-.85-.91-2.06-.99-2.92-.22-.89.79-.93,2.02-.09,2.98.9,1.02,1.94,1.85,3.22,2.33.3.11.41.27.4.6-.02.66-.02,1.32,0,1.98.03,1.16.91,2.05,2.03,2.05,1.11,0,2.01-.87,2.05-2.03.02-.54.04-1.09,0-1.64-.04-.54.13-.82.64-1.07,2.15-1.07,3.34-2.86,3.44-5.25.1-2.45-1-4.33-3.12-5.59-.92-.54-1.93-.77-2.99-.8-.9-.03-1.56-.47-1.9-1.31-.31-.77-.17-1.49.38-2.09.61-.67,1.37-.84,2.24-.56.62.2,1.1.62,1.59,1.02.88.72,2.09.63,2.83-.18.73-.81.7-2.03-.09-2.83-.53-.54-1.11-1.06-1.82-1.3-1.03-.35-1.46-.94-1.19-1.82Z"/>
      </g>
    </g>
  </g>
</svg>