<?xml version="1.0" encoding="UTF-8"?>
<svg id="Layer_2" data-name="Layer 2" xmlns="http://www.w3.org/2000/svg" viewBox="0 0 124.9 124.9">
  <defs>
    <style>
      .cls-1 {
        fill-rule: evenodd;
      }

      .cls-1, .cls-2, .cls-3 {
        stroke-width: 0px;
      }

      .cls-1, .cls-3 {
        fill: #38b14a;
      }

      .cls-2 {
        fill: #dcffdf;
      }
    </style>
  </defs>
  <g id="Layer_1-2" data-name="Layer 1">
    <g>
      <rect class="cls-2" x="0" y="0" width="124.9" height="124.9" rx="62.45" ry="62.45"/>
      <g>
        <rect class="cls-3" x="32.6" y="64.29" width="8.11" height="25.89" rx="1.94" ry="1.94" transform="translate(-33.29 28.07) rotate(-29.51)"/>
        <path class="cls-1" d="M32.27,68.53c-.72.11-1.22.77-1.11,1.49s.77,1.22,1.49,1.11,1.22-.77,1.11-1.49-.77-1.22-1.49-1.11Z"/>
        <path class="cls-1" d="M67.07,70.29c1.4.17,2.55-.23,2.94-1.69.35-1.3-.48-2.52-1.7-2.95-4.15-.76-8.17-2.21-11.33-3.36-4.5-1.63-5.65-2.01-10.09.56l-7.77,4.5,6.57,11.6.25-.15c.35-.2.75-.24,1.12-.15l18.13,4.85c2.61.7,4.17.42,6.37-.94l24.89-15.33c.74-.45,1.1-1.52.99-2.56-.04-.43-.17-.84-.4-1.2-.21-.33-.5-.62-.88-.81-1.26-.64-3.48-.44-6.92,1.56l-13.77,8.02c-1.12.65-2.27,1.07-3.47,1.27-3.44.58-8.58-1.03-11.67-1.91-.98-.28-1.98-.57-2.95-.83-.79-.21-1.26-1.02-1.05-1.81s1.02-1.26,1.81-1.05c2.97.79,5.91,1.75,8.92,2.37Z"/>
        <path class="cls-1" d="M71.47,35.11c10.15,0,18.38,8.23,18.38,18.38,0,2.89-.67,5.62-1.85,8.05-2.16,1.23-4.31,2.51-6.46,3.76,3.46-2.96,5.45-7.25,5.45-11.81,0-8.57-6.95-15.52-15.52-15.52s-15.52,6.95-15.52,15.52c0,2,.38,3.92,1.07,5.68-.73-.26-1.42-.5-2.05-.71-.44-.14-.87-.25-1.29-.32-.39-1.49-.59-3.04-.59-4.65,0-10.15,8.23-18.38,18.38-18.38h0Z"/>
        <path class="cls-1" d="M76.97,48.65c-.74-1.77-2.16-2.93-4.02-3.38v-.67c0-.82-.66-1.48-1.48-1.48s-1.48.66-1.48,1.48v.69c-2.35.57-4.15,2.43-4.03,4.96.14,2.98,2.69,4.21,5.29,4.64,1.19.2,3.05.59,3.23,2.05.01.09.02.15.02.18.03,1.17-1.45,1.62-2.39,1.74-.19.02-.36.04-.49.04-1.36.03-2.86-.56-3.21-2-.2-.79-1-1.28-1.79-1.08-.79.2-1.28,1-1.08,1.79.55,2.2,2.3,3.63,4.46,4.09v.67c0,.39.15.75.4,1.01-.39-.24-.8-.43-1.25-.58-.08-.03-.17-.05-.25-.06-2.67-.49-5.34-1.3-7.74-2.12-1.41-2.03-2.23-4.49-2.23-7.14,0-6.93,5.62-12.55,12.55-12.55s12.55,5.62,12.55,12.55c0,6.48-4.94,11.9-11.38,12.5-.37-.88-.98-1.66-1.74-2.24.17.07.36.11.56.11.82,0,1.48-.66,1.48-1.48v-.64c2.4-.45,4.56-2.01,4.5-4.67,0-.18-.01-.33-.03-.46-.37-3.05-3.01-4.18-5.7-4.62-1.04-.17-2.74-.55-2.81-1.86-.05-1.12.91-1.78,1.9-1.98,1.4-.28,2.85.29,3.42,1.66.32.75,1.19,1.11,1.94.79.75-.32,1.11-1.19.79-1.94h0Z"/>
        <path class="cls-1" d="M76.75,68.08c-1.26.74-2.88,1.83-4.25,2.28.21-.45.37-.94.46-1.42,1.32-.13,2.59-.42,3.79-.85Z"/>
      </g>
    </g>
  </g>
</svg>