<?xml version="1.0" encoding="UTF-8"?>
<svg id="Layer_2" data-name="Layer 2" xmlns="http://www.w3.org/2000/svg" viewBox="0 0 124.9 124.9">
  <defs>
    <style>
      .cls-1 {
        fill: #dcffdf;
      }

      .cls-1, .cls-2 {
        stroke-width: 0px;
      }

      .cls-2 {
        fill: #38b14a;
      }
    </style>
  </defs>
  <g id="Layer_1-2" data-name="Layer 1">
    <g>
      <rect class="cls-1" x="0" y="0" width="124.9" height="124.9" rx="62.45" ry="62.45"/>
      <g id="_14_Assets" data-name="14 Assets">
        <g>
          <g>
            <g>
              <path class="cls-2" d="M78.47,35.11c-.11-.06-.25-.07-.36,0l-1.06.61v17.5h4.87c1.4,0,2.54,1.14,2.54,2.54v7.17h8.15c.1,0,.21,0,.31.01v-19.49l-14.45-8.34ZM90.74,49.23c0,1.4-1.14,2.54-2.54,2.54h-2.9c-1.4,0-2.54-1.14-2.54-2.54v-2.9c0-1.4,1.14-2.54,2.54-2.54h2.9c1.4,0,2.54,1.14,2.54,2.54v2.9Z"/>
              <path class="cls-2" d="M96.84,41.32c0,.19-.05.37-.15.54-.3.52-.97.7-1.49.4l-.64-.37s-.02-.01-.03-.02l-14.98-8.65c-.77-.44-1.73-.45-2.51-.02v-2.52l.33-.19c.56-.32,1.25-.32,1.82,0l17.1,9.87c.34.19.54.56.54.95Z"/>
              <path class="cls-2" d="M82.28,62.94h-5.23v-7.53h4.87c.2,0,.36.16.36.36v7.17Z"/>
              <path class="cls-2" d="M88.56,46.32v2.9c0,.2-.16.36-.36.36h-2.9c-.2,0-.36-.16-.36-.36v-2.9c0-.2.16-.36.36-.36h2.9c.2,0,.36.16.36.36Z"/>
            </g>
            <path class="cls-2" d="M71.6,25.9h-10.17c-1.8,0-3.27,1.47-3.27,3.27v14.94c1.61,3.09,2.42,6.32,2.42,9.62,0,1.47-.26,2.84-.77,4.06-.21.5-.1,1.07.27,1.46.84.86,1.3,1.84,1.3,2.77,0,.33-.05.64-.16.92h13.64V29.17c0-1.8-1.47-3.27-3.27-3.27ZM65.07,52.41c0,.6-.49,1.09-1.09,1.09s-1.09-.49-1.09-1.09v-2.18c0-.6.49-1.09,1.09-1.09s1.09.49,1.09,1.09v2.18ZM65.07,45.87c0,.6-.49,1.09-1.09,1.09s-1.09-.49-1.09-1.09v-2.18c0-.6.49-1.09,1.09-1.09s1.09.49,1.09,1.09v2.18ZM65.07,39.34c0,.6-.49,1.09-1.09,1.09s-1.09-.49-1.09-1.09v-2.18c0-.6.49-1.09,1.09-1.09s1.09.49,1.09,1.09v2.18ZM65.07,32.8c0,.6-.49,1.09-1.09,1.09s-1.09-.49-1.09-1.09v-2.18c0-.6.49-1.09,1.09-1.09s1.09.49,1.09,1.09v2.18ZM70.15,52.41c0,.6-.49,1.09-1.09,1.09s-1.09-.49-1.09-1.09v-2.18c0-.6.49-1.09,1.09-1.09s1.09.49,1.09,1.09v2.18ZM70.15,45.87c0,.6-.49,1.09-1.09,1.09s-1.09-.49-1.09-1.09v-2.18c0-.6.49-1.09,1.09-1.09s1.09.49,1.09,1.09v2.18ZM70.15,39.34c0,.6-.49,1.09-1.09,1.09s-1.09-.49-1.09-1.09v-2.18c0-.6.49-1.09,1.09-1.09s1.09.49,1.09,1.09v2.18ZM70.15,32.8c0,.6-.49,1.09-1.09,1.09s-1.09-.49-1.09-1.09v-2.18c0-.6.49-1.09,1.09-1.09s1.09.49,1.09,1.09v2.18Z"/>
            <path class="cls-2" d="M90.02,69.48l-7.18,7.18s-.04-.04-.06-.06c-1.13-1.13-2.64-1.76-4.24-1.76h-8.58c-.38,0-.74-.11-1.04-.33l-.39-.28c-2.64-1.86-5.75-2.85-8.99-2.85h-4.59c-3.44,0-6.83,1.16-9.54,3.26l-.35.27c-.32.24-.71.38-1.11.38h-4.4c-.47-1.67-2.02-2.9-3.84-2.9h-2.45l-1.44-4.95c-.16-.55-.06-1.14.29-1.6.35-.46.88-.73,1.45-.73h59.06c.58,0,1.11.26,1.45.73.35.46.45,1.04.29,1.6l-.09.29c-1.54,0-3.07.58-4.24,1.75h0Z"/>
            <g>
              <path class="cls-2" d="M58.53,60.78c-.99-1.01-1.28-2.51-.72-3.82.4-.96.6-2.04.6-3.22,0-4.44-1.7-11.06-9.76-17.52h-8.77c-8.06,6.46-9.76,13.08-9.76,17.52,0,1.18.2,2.26.6,3.22.55,1.31.27,2.81-.73,3.82-.5.51-.68.98-.68,1.24,0,.46,1.15.92,3.72.92h22.46c2.57,0,3.72-.46,3.72-.92,0-.27-.18-.73-.68-1.24h0ZM45.35,56.08v.61c0,.6-.49,1.09-1.09,1.09s-1.09-.49-1.09-1.09v-.61c-.55-.17-1.06-.48-1.49-.9-.45-.45-.78-1.02-.94-1.63-.16-.58.19-1.18.77-1.33.58-.16,1.18.19,1.33.77.07.25.2.47.38.66.28.28.67.44,1.07.43.79-.01,1.44-.7,1.44-1.52,0-.24-.07-.46-.21-.65-.13-.19-.32-.33-.54-.42l-2.18-.79c-1.3-.47-2.18-1.73-2.18-3.11v-.02c0-1.64,1.08-3.06,2.56-3.53v-.61c0-.6.49-1.09,1.09-1.09s1.09.49,1.09,1.09v.61c.56.17,1.07.48,1.49.9.45.45.78,1.02.94,1.63.16.58-.19,1.18-.77,1.33-.58.16-1.18-.19-1.33-.77-.07-.25-.2-.47-.38-.65-.28-.28-.67-.44-1.07-.43-.79.02-1.44.7-1.44,1.52v.02c0,.47.3.9.75,1.07l2.18.79c.64.24,1.19.66,1.58,1.21.39.56.6,1.22.6,1.9,0,1.64-1.08,3.06-2.56,3.53h0Z"/>
              <path class="cls-2" d="M48.56,34.03h-8.59c-1.32-1.46-4.12-4.9-2.59-6.44.46-.46,1.35-.34,1.97-.1,1.04.41,2.2.15,2.97-.64.53-.55,1.35-.95,1.95-.95s1.42.4,1.95.95c.76.8,1.93,1.05,2.97.64.62-.24,1.51-.36,1.97.1,1.53,1.53-1.26,4.98-2.59,6.44Z"/>
            </g>
          </g>
          <g>
            <path class="cls-2" d="M96.96,76.42l-13.49,13.49c-1.99,1.99-4.63,3.08-7.44,3.08h-36.33v-15.53h4.25c.88,0,1.75-.3,2.44-.83l.35-.27c2.34-1.81,5.25-2.8,8.21-2.8h4.59c2.78,0,5.46.85,7.73,2.45l.39.28c.68.48,1.47.73,2.3.73h8.58c1.02,0,1.98.4,2.7,1.12.72.72,1.12,1.68,1.12,2.7,0,2.11-1.71,3.82-3.82,3.82h-12.92c-.6,0-1.09.49-1.09,1.09s.49,1.09,1.09,1.09h12.92c3.31,0,5.99-2.69,5.99-6,0-.81-.16-1.6-.46-2.32l7.49-7.49c1.49-1.49,3.91-1.49,5.4,0,1.49,1.49,1.49,3.91,0,5.4h0Z"/>
            <path class="cls-2" d="M35.7,74.57h-7.26c-.2,0-.36.16-.36.36v20.61c0,.2.16.36.36.36h7.26c1,0,1.82-.81,1.82-1.82v-17.7c0-1-.81-1.82-1.82-1.82h0ZM33.88,90.68c0,.6-.49,1.09-1.09,1.09s-1.09-.49-1.09-1.09v-2.18c0-.6.49-1.09,1.09-1.09s1.09.49,1.09,1.09v2.18Z"/>
          </g>
        </g>
      </g>
    </g>
  </g>
</svg>