<?xml version="1.0" encoding="UTF-8"?>
<svg id="Layer_2" data-name="Layer 2" xmlns="http://www.w3.org/2000/svg" viewBox="0 0 124.9 124.9">
  <defs>
    <style>
      .cls-1 {
        fill: #dcffdf;
      }

      .cls-1, .cls-2 {
        stroke-width: 0px;
      }

      .cls-2 {
        fill: #38b14a;
      }
    </style>
  </defs>
  <g id="Layer_1-2" data-name="Layer 1">
    <g>
      <rect class="cls-1" x="0" y="0" width="124.9" height="124.9" rx="62.45" ry="62.45"/>
      <g>
        <path class="cls-2" d="M51.65,27.45c1.05.27,2.14.35,3.19.65,8.22,2.34,13.6,10.19,12.78,18.7-.81,8.42-7.56,15.08-16.03,15.82-9.42.82-17.76-5.93-18.97-15.34-1.25-9.71,5.72-18.61,15.44-19.7.16-.02.32,0,.45-.12h3.14ZM49.96,57.12c1.48,0,1.53-.04,1.53-1.53,0-.05,0-.09,0-.14,0-1.29,0-1.27,1.2-1.74,2.04-.79,3.33-2.24,3.58-4.43.25-2.21-.71-3.93-2.56-5.15-.71-.46-1.49-.78-2.26-1.11-.73-.31-1.49-.57-2.16-1-.82-.52-1.17-1.12-1.03-1.76.15-.67.77-1.13,1.7-1.23,1.34-.14,2.62.11,3.85.67.73.33.87.26,1.12-.52.18-.56.35-1.13.51-1.7.15-.52-.02-.87-.54-1.08-.8-.33-1.63-.58-2.49-.69-.59-.08-.85-.35-.79-.94.02-.18,0-.36,0-.55-.02-1.1-.12-1.2-1.22-1.22-2.08-.03-1.8.02-1.78,1.69,0,.73-.18,1.22-.96,1.41-.39.1-.76.31-1.11.51-3.17,1.79-3.48,5.99-.61,8.22,1.06.82,2.3,1.28,3.52,1.77.65.27,1.31.53,1.86.99,1.12.92.92,2.37-.4,2.98-.59.27-1.22.35-1.87.31-1.29-.09-2.51-.44-3.65-1.02-.52-.26-.82-.13-.97.41-.18.63-.36,1.27-.54,1.9-.14.51.02.87.51,1.11.76.37,1.56.62,2.39.79,1.63.33,1.55-.05,1.57,1.94,0,.94.17,1.1,1.12,1.11.16,0,.32,0,.48,0Z"/>
        <path class="cls-2" d="M37.22,61.95c1.94,1.44,4.01,2.56,6.28,3.3,11.52,3.77,23.93-2.91,27.03-14.64,1.01-3.83,3.77-5.48,7.22-6.46.5-.14,1.02-.21,1.54-.3.75-.13,1.41.01,1.86.69.44.67.33,1.32-.07,1.99-.64,1.06-1.1,2.19-1.31,3.42-.19,1.13-.05,2.22.2,3.31.06.28.29.4.47.56,3.17,2.7,5.55,5.94,6.94,9.88.13.36.32.49.7.47.57-.03,1.14-.02,1.71,0,1.44.08,2.6,1.2,2.62,2.65.04,2.39.04,4.78,0,7.17-.02,1.44-1.18,2.57-2.63,2.64-.55.03-1.09.02-1.64,0-.32-.01-.47.09-.58.41-1.35,4.05-3.75,7.39-6.95,10.2-2.14,1.89-3.27,4.28-3.18,7.18.02.52.02,1.05-.03,1.57-.08.84-.64,1.4-1.48,1.4-3.1.02-6.2.02-9.29,0-.86,0-1.42-.63-1.46-1.49-.02-.57-.02-1.14,0-1.71.01-.35-.08-.49-.46-.45-2.14.23-4.28.17-6.41-.07-.36-.04-.5.03-.48.41.02.59.02,1.18,0,1.78-.03.93-.62,1.54-1.56,1.54-3.03.02-6.06.01-9.09,0-.94,0-1.56-.6-1.57-1.53-.05-3.73-1.54-6.77-3.98-9.59-4.01-4.63-6.43-10.01-6.31-16.3.05-2.62.62-5.14,1.66-7.55.07-.16.16-.32.26-.52ZM78.05,64.65c1.29,0,2.3-1,2.3-2.28,0-1.28-1.02-2.28-2.31-2.27-1.26,0-2.24.98-2.26,2.24-.02,1.28.99,2.3,2.27,2.31Z"/>
      </g>
    </g>
  </g>
</svg>