<?xml version="1.0" encoding="UTF-8"?>
<svg id="Layer_2" data-name="Layer 2" xmlns="http://www.w3.org/2000/svg" viewBox="0 0 124.9 124.9">
  <defs>
    <style>
      .cls-1 {
        fill: #dcffdf;
      }

      .cls-1, .cls-2 {
        stroke-width: 0px;
      }

      .cls-2 {
        fill: #38b14a;
      }
    </style>
  </defs>
  <g id="Layer_1-2" data-name="Layer 1">
    <g>
      <rect class="cls-1" x="0" y="0" width="124.9" height="124.9" rx="62.45" ry="62.45"/>
      <g>
        <path class="cls-2" d="M49.59,87.46c-4.84,0-9.69.01-14.53,0-4.46-.02-7.84-3.5-7.59-7.93.16-2.91,1.65-5.06,4.29-6.32.58-.28.71-.58.7-1.16-.02-4.74-.06-9.48,0-14.22.1-8.33,3.87-14.45,11.25-18.33.47-.25.52-.43.29-.88-1.23-2.41-2.43-4.83-3.63-7.26-1.02-2.07.09-3.9,2.39-3.9,8.13,0,16.25,0,24.38,0,2.3,0,3.42,1.82,2.4,3.89-1.19,2.43-2.4,4.85-3.62,7.26-.22.44-.21.63.28.88,6.18,3.15,9.85,8.15,11.03,14.98.26,1.52.24,3.06.23,4.6,0,2.14-.01,4.27,0,6.41,0,.43-.12.62-.53.8-6.54,2.72-10.47,7.58-11.75,14.56-.36,1.96-.34,3.94.03,5.91.11.58.01.75-.62.75-5-.03-10-.01-15-.01ZM53.35,67.46c-1.15,0-2.29-.02-3.44,0-1.41.03-2.47,1.13-2.47,2.5,0,1.36,1.08,2.44,2.49,2.49.62.02,1.25.03,1.87,0,.42-.02.61.07.72.54.27,1.19,1.26,1.95,2.4,1.96,1.15,0,2.17-.74,2.43-1.92.11-.5.34-.56.76-.63,2.58-.4,4.3-2.41,4.33-5.02,0-.83.02-1.67,0-2.5-.06-2.74-2.2-4.87-4.94-4.92-1.09-.02-2.19,0-3.28,0-1.79,0-1.75,0-1.79-1.77-.02-.66.23-.75.8-.75,2.21.03,4.42.02,6.64,0,1.47-.01,2.57-1.08,2.58-2.47.01-1.42-1.1-2.5-2.61-2.52-.6,0-1.2-.02-1.8,0-.4.02-.56-.08-.66-.51-.29-1.24-1.28-2.01-2.45-2-1.16,0-2.12.76-2.41,1.96-.09.38-.21.52-.62.58-2.71.38-4.43,2.4-4.45,5.15,0,.81-.01,1.61,0,2.42.07,2.69,2.21,4.82,4.9,4.88,1.07.02,2.13,0,3.2,0,1.97,0,1.96,0,1.91,1.96-.01.47-.18.55-.6.55-1.17-.02-2.34,0-3.51,0Z"/>
        <path class="cls-2" d="M83.74,97.45c-7.65,0-13.79-6.14-13.79-13.8,0-7.55,6.2-13.7,13.82-13.69,7.48.01,13.67,6.2,13.68,13.69,0,7.61-6.14,13.8-13.71,13.81ZM81.2,81.17c0,.86-.02,1.72,0,2.58.04,1.37,1.07,2.43,2.43,2.45,1.69.03,3.38.03,5.07,0,1.41-.02,2.48-1.13,2.48-2.49,0-1.36-1.07-2.46-2.48-2.5-.65-.02-1.3-.03-1.95,0-.43.02-.61-.1-.58-.56.04-.6.01-1.2,0-1.8-.02-1.53-1.07-2.64-2.48-2.65-1.43,0-2.49,1.1-2.51,2.62-.01.78,0,1.56,0,2.34Z"/>
      </g>
    </g>
  </g>
</svg>