<?xml version="1.0" encoding="UTF-8"?>
<svg id="Layer_2" data-name="Layer 2" xmlns="http://www.w3.org/2000/svg" viewBox="0 0 124.9 124.9">
  <defs>
    <style>
      .cls-1 {
        fill: #38b14a;
        fill-rule: evenodd;
      }

      .cls-1, .cls-2 {
        stroke-width: 0px;
      }

      .cls-2 {
        fill: #dcffdf;
      }
    </style>
  </defs>
  <g id="Layer_1-2" data-name="Layer 1">
    <g>
      <rect class="cls-2" x="0" y="0" width="124.9" height="124.9" rx="62.45" ry="62.45"/>
      <path class="cls-1" d="M35.21,52.48l-8.14,4.28c-.25.13-.4.38-.4.66v32.42c0,.41.33.75.75.75h7.79v-38.1ZM82.7,66.37c8.58,0,15.54,6.96,15.54,15.54s-6.96,15.54-15.54,15.54-15.54-6.96-15.54-15.54,6.96-15.54,15.54-15.54ZM71.91,43.99c-.38.53-1.13.65-1.66.27-.53-.38-.65-1.13-.27-1.66l5.93-8.27c.6-.83,1.88-.56,2.12.41l1.6,6.49.74-3.56c.23-1.14,1.79-1.29,2.25-.24l.62,1.27.81-5.58c.18-1.24,1.92-1.39,2.31-.21l.84,2.24,3.59-4.1c-.61.02-1.14-.42-1.22-1.03-.08-.65.37-1.25,1.03-1.33l3.01-.39c.65-.08,1.25.37,1.33,1.03.09.67-.15,2.48-.2,3.26-.04.66-.61,1.15-1.27,1.11-.52-.03-.93-.39-1.07-.86l-4.68,5.35c-.52.65-1.56.58-1.97-.16l-.7,4.84c-.16,1.14-1.73,1.41-2.24.35l-.81-1.65-1.09,5.24c-.2,1.27-2.02,1.36-2.33.1l-2.24-9.07-4.43,6.17ZM90.57,39.24c.48,3.41-.65,6.86-3.1,9.31-6.81,6.81-18.71,2.09-18.71-7.75,0-7.12,6.78-12.41,13.71-10.61.91.24,1.77.58,2.57,1.03.57.32,1.3.11,1.62-.46s.11-1.3-.46-1.62c-.97-.54-2.02-.97-3.13-1.25-8.46-2.19-16.7,4.23-16.7,12.92,0,11.97,14.49,17.73,22.78,9.44,2.99-2.99,4.36-7.16,3.77-11.32-.09-.65-.69-1.11-1.34-1.02-.65.09-1.11.69-1.02,1.34ZM88.37,76.73c-.8-1.91-2.33-3.02-4.02-3.45-.15-.04-.31-.07-.47-.1v-1.11c0-.66-.53-1.19-1.19-1.19s-1.19.53-1.19,1.19v1.12l-.09.02c-2.5.5-4.5,2.41-4.37,5.09.08,1.66.91,2.77,2.06,3.52,2.22,1.45,7.32.96,7.39,4.1.04,1.58-1.74,2.22-3.04,2.38-1.89.23-4.08-.47-4.59-2.51-.16-.64-.8-1.03-1.44-.87-.64.16-1.03.8-.87,1.44.6,2.4,2.59,3.88,4.95,4.26v1.11c0,.66.53,1.19,1.19,1.19s1.19-.53,1.19-1.19v-1.09c2.55-.36,5.05-1.92,4.98-4.78-.04-1.75-.89-3.12-2.38-4.02-2.17-1.31-6.94-1-7.07-3.66-.07-1.48,1.14-2.39,2.46-2.65,1.77-.36,3.57.38,4.29,2.1.25.61.95.89,1.56.64s.89-.95.64-1.56h0ZM38.34,39.34h24.2c.41,0,.75.33.75.75v6.44h-25.69v-6.44c0-.41.33-.75.75-.75ZM63.29,48.91v41.67h-8.5v-13.85c0-.41-.33-.75-.75-.75h-7.16c-.41,0-.75.33-.75.75v13.85h-8.54v-41.67h25.69ZM42.22,51.73c-.41,0-.75.33-.75.75v4.93c0,.41.33.75.75.75h16.43c.41,0,.75-.33.75-.75v-4.93c0-.41-.33-.75-.75-.75h-16.43ZM40.29,62.41v4.07c0,.66.53,1.19,1.19,1.19s1.19-.53,1.19-1.19v-4.07c0-.66-.53-1.19-1.19-1.19s-1.19.53-1.19,1.19ZM58.21,62.41v4.07c0,.66.53,1.19,1.19,1.19s1.19-.53,1.19-1.19v-4.07c0-.66-.53-1.19-1.19-1.19s-1.19.53-1.19,1.19ZM44.77,62.41v4.07c0,.66.53,1.19,1.19,1.19s1.19-.53,1.19-1.19v-4.07c0-.66-.53-1.19-1.19-1.19s-1.19.53-1.19,1.19ZM49.25,62.41v4.07c0,.66.53,1.19,1.19,1.19s1.19-.53,1.19-1.19v-4.07c0-.66-.53-1.19-1.19-1.19s-1.19.53-1.19,1.19ZM53.73,62.41v4.07c0,.66.53,1.19,1.19,1.19s1.19-.53,1.19-1.19v-4.07c0-.66-.53-1.19-1.19-1.19s-1.19.53-1.19,1.19ZM57.63,36.95v-.9c0-.41-.33-.75-.75-.75h-12.88c-.41,0-.75.33-.75.75v.9h14.37ZM65.67,52.48v23.81c1.45-4.38,4.54-8.02,8.54-10.17v-8.7c0-.28-.15-.53-.4-.66l-8.14-4.28ZM67,90.58h-1.33v-3.05c.35,1.06.8,2.08,1.33,3.05Z"/>
    </g>
  </g>
</svg>