<?xml version="1.0" encoding="utf-8"?>
<!-- Generator: Adobe Illustrator 25.4.1, SVG Export Plug-In . SVG Version: 6.00 Build 0)  -->
<svg version="1.1" id="Layer_1" xmlns="http://www.w3.org/2000/svg" xmlns:xlink="http://www.w3.org/1999/xlink" x="0px" y="0px"
	 viewBox="0 0 455.7 140" style="enable-background:new 0 0 455.7 140;" xml:space="preserve">
<style type="text/css">
	
		.st0{clip-path:url(#SVGID_00000043430631642693114140000018418138644897218227_);fill:#38B44A;stroke:#3DB54B;stroke-miterlimit:10;}
	.st1{clip-path:url(#SVGID_00000164473117565147482120000015039347347067695758_);fill:#38B44A;}
	.st2{clip-path:url(#SVGID_00000014595013524333992210000004155250793043425426_);fill:#38B44A;}
	.st3{fill:#010101;}
</style>
<g>
	<g>
		<defs>
			<path id="SVGID_1_" d="M4.9,70c0-35.9,29.4-65.1,65.5-65.1c11.5,0,22.3,3,31.7,8.1l0,59.5c0,0.1,0.3,13.9-10.1,24
				c-7.8,7.6-19.7,11.3-35.2,10.8V53.4c6.5,0.3,25.1,2,25.9,13.3c0.6,9.5-0.8,19.4-16.7,21.3l0.5,4.4c22.2-2.7,21-20.2,20.6-26
				C86,48.5,55.8,48.9,54.6,48.9l-2.2,0v62.7l2.1,0.1c1.6,0.1,3.3,0.1,4.8,0.1c15.5,0,27.5-4.1,35.8-12.1
				c11.8-11.5,11.4-26.7,11.4-27.2V15.7c17.7,11.7,29.4,31.6,29.4,54.2c0,35.9-29.4,65.1-65.5,65.1c-10.9,0-21.1-2.7-30.1-7.3V35
				c17.2-0.8,43.4,0,48.1,5.9l4.7-1.7c-8.6-12.4-50.5-8.7-55.2-8.5l-2.1,0.1v94.5C17.3,113.7,4.9,93.3,4.9,70 M0.5,70
				c0,38.3,31.4,69.5,69.9,69.5s69.9-31.2,69.9-69.5c0-38.3-31.4-69.5-69.9-69.5S0.5,31.7,0.5,70"/>
		</defs>
		<use xlink:href="#SVGID_1_"  style="overflow:visible;fill:#38B44A;"/>
		<clipPath id="SVGID_00000013900214043442327730000003547216692317334412_">
			<use xlink:href="#SVGID_1_"  style="overflow:visible;"/>
		</clipPath>
		
			<rect x="0.5" y="0.5" style="clip-path:url(#SVGID_00000013900214043442327730000003547216692317334412_);fill:#38B44A;stroke:#3DB54B;stroke-miterlimit:10;" width="139.9" height="139"/>
	</g>
	<g>
		<defs>
			<path id="SVGID_00000088833674380408377670000018266939141268363656_" d="M371.9,121.9c0.1-1.8,0.7-3.4,1.7-4.9
				c0.5-0.7,1.1-1.3,1.5-2c0.2-0.3,0.4-0.8,0.5-1.2c0-0.1,0-0.2,0.1-0.2c1.2-1.3,2.4-2.5,4.1-2.9c0.5-0.1,1-0.1,1.5-0.1
				c0.5,0.1,0.6,0.5,0.7,0.9c0,0.3,0,0.7,0,1c0,5.5-4,9.6-8,10.9c-0.4,0.1-0.7,0.2-1,0.2C372.2,123.7,371.9,123.1,371.9,121.9
				 M358.8,109.4c0.3-0.3,0.7-0.5,1-0.7c0.7-0.3,1.2,0,1.3,0.7c0.1,0.5,0.1,1.2-0.1,1.7c-0.3,0.7-0.7,1.3-1.2,1.9
				c-1.2,1.5-2.8,2.6-4.5,3.8C355.8,113.9,356.8,111.4,358.8,109.4 M398.6,98.1c-0.5,0.5-0.8,1.2-0.9,1.9c-0.2,1.5-0.4,3-0.7,4.5
				c-0.7,3.9-1.5,7.7-1.8,11.7c0,0.2-0.1,0.5-0.3,0.6c-1.1,0.9-2.2,1.9-3.4,2.7c-0.9,0.6-2,1-3,1.4c-2,0.6-3.4-0.3-4-2.2
				c-0.2-0.6-0.3-1.2-0.2-1.7c0.2-1.5,0.5-2.9,0.8-4.3c0.4-1.3,0.1-2.5-0.7-3.6c-0.2-0.3-0.6-0.6-1-0.7c-1.1-0.4-2.2-0.4-3.3-0.2
				c-1.2,0.2-2.3,0.8-3.3,1.5c-3.2,2.1-5.3,5-6.8,8.4c-0.1,0.3-0.3,0.5-0.5,0.7c-1.4,1-2.8,2.1-4.3,3c-1.9,1.2-4.1,1.9-6.4,1.8
				c-1.9-0.1-3.3-1.2-3.6-3c-0.1-0.3-0.1-0.6,0.2-0.9c1.2-0.9,2.3-1.7,3.5-2.7c1.5-1.2,3-2.5,4-4.1c0.8-1.2,1.2-2.4,1-3.8
				c-0.3-2.1-1.9-3.6-4.2-2.9c-1.6,0.4-2.8,1.3-3.8,2.6c-3,3.7-4.1,7.9-3.6,12.6c0.3,2.6,1.9,4.4,4.3,5c1.4,0.3,2.8,0.3,4.1,0
				c2.6-0.6,4.9-1.9,7-3.5c0.4-0.3,0.7-0.5,1.1-0.9c0,0.4,0,0.6,0,0.9c0.1,1.2,0.4,2.3,1.1,3.2c0.6,0.9,1.4,1.3,2.5,1
				c1-0.3,2.1-0.6,3.1-1.1c2.3-1.1,4-3.1,5.8-4.8c0.1-0.1,0.1-0.2,0.3-0.5c0.9,2.7,3.2,4.2,6.3,3.5c1.8-0.4,3.4-1.3,4.8-2.4
				c0.8-0.6,1.5-1.3,2.3-2c0.1,0.5,0.1,0.9,0.2,1.3c0.4,1.8,1.1,3.4,2.8,4.3c1.8,1.1,3.8,1.1,5.8,0.4c2.4-1,4.3-2.7,6-4.6
				c0.6-0.7,1.2-1.4,1.8-2.2c0,0.2,0,0.3-0.1,0.4c-0.4,1.7-0.8,3.4-1.1,5.1c-0.2,1.3-0.3,2.6,0.1,3.8c0.7,1.8,2.2,2.1,3.7,1.2
				c0.9-0.5,1-1.1,0.1-1.8c-0.8-0.6-1.1-1.3-1-2.2c0.1-1.1,0.2-2.2,0.5-3.3c0.5-2.5,1.2-4.9,1.7-7.3c0.1-0.4,0.3-0.6,0.7-0.6
				c2.4-0.3,4.8-0.6,7.2-0.8c0,0.2,0,0.3,0,0.5c-0.2,1.7-0.3,3.4-0.5,5c-0.3,2.8-0.7,5.6-1.1,8.3c-0.1,0.8,0.4,1.5,1.3,1.8
				c0.6,0.2,1.2-0.1,1.6-0.7c0.3-0.4,0.5-0.9,0.7-1.3c2.1-4.1,4.8-7.8,8.1-11c0.7-0.7,1.6-1.3,2.5-1.9c0.5-0.3,0.7-0.2,0.9,0.4
				c0.2,0.7,0.3,1.5,0.4,2.3c0.3,1.6,0.4,3.3,0.8,4.9c0.3,1.4,1.1,2.6,2.7,2.9c1.4,0.3,2.7,0.1,4-0.4c4.5-1.7,7.8-4.8,10.4-8.7
				c0.2-0.3,0.2-0.8,0.2-1.2c0-0.5-0.2-0.6-0.6-0.3c-0.5,0.4-1,0.8-1.4,1.2c-1.5,1.3-3,2.7-4.6,3.9c-1.8,1.3-3.9,2.3-6.2,2.3
				c-1,0-1.4-0.1-1.6-1.1c-0.3-1.2-0.5-2.5-0.7-3.7c-0.3-1.6-0.5-3.2-0.9-4.7c-0.3-1.1-1.2-1.6-2.3-1.3c-1.6,0.4-2.9,1.4-4.1,2.5
				c-2.5,2.4-4.6,5.1-6.5,8c-0.2,0.2-0.3,0.5-0.5,0.7c-0.5-0.4-0.4-0.9-0.3-1.3c0.2-2.3,0.5-4.5,0.7-6.8c0.1-0.6,0.2-1.1,1-1.3
				c0.5-0.1,0.9-0.4,1.3-0.7c0.4-0.3,0.6-0.7,0.6-1.2c0-0.5-0.2-0.7-0.7-0.7c-0.6,0.1-1.2,0.2-1.9,0.3c0.1-1,0.2-2.1,0.2-3.1
				c0.2-2.3,0.5-4.5,1.1-6.7c0.2-0.6,0.1-1.2-0.3-1.7c-0.7-0.8-2-0.6-2.6,0.5c-0.4,0.7-0.7,1.5-0.8,2.3c-0.2,1.9-0.2,3.8-0.4,5.8
				c-0.1,1.1-0.1,2.3-0.2,3.5c-2,0.1-4,0.3-6,0.4c-1.4,0.1-1.7-0.2-1.3-1.6c0.5-2.2,1.2-4.3,1.7-6.5c0.2-0.7,0.3-1.5,0.4-2.3
				c0-0.8-0.4-1.2-1-1.3c-0.7-0.1-1.3,0.1-1.7,0.8c-0.2,0.4-0.3,0.7-0.4,1.1c-0.4,1.9-0.9,3.8-1.3,5.7c-0.3,1.2-0.6,2.4-0.9,3.7
				c-0.2,0.7-0.4,0.9-1,1c-1.7,0.1-3.3,0.2-5,0.3c-0.3,0-0.6,0.1-0.9,0.2c-0.2,0.1-0.4,0.3-0.4,0.5c-0.1,1,0.2,1.9,1.4,2
				c0.3,0,0.5,0.1,0.8,0.1c1.1-0.1,2.2-0.2,3.3-0.2c0.3,0,0.5,0.1,0.9,0.2c-0.4,0.5-0.7,0.8-1.1,1.2c-1.3,1.5-2.6,3-4,4.4
				c-1.1,1.2-2.5,2.1-4.1,2.5c-2.4,0.7-4.3-0.4-4.9-2.9c-0.2-0.8-0.2-1.6-0.3-2.5c-0.1-0.6,0-1.2,0.4-1.8c0.2-0.4,0.3-0.9,0.4-1.4
				c0.1-0.5,0.1-1-0.5-1.2c0.2-1,0.3-2,0.5-3c0.7-3.8,1.5-7.5,2.2-11.3c0.1-0.7-0.2-1.2-0.9-1.3c-0.1,0-0.2,0-0.3,0
				C399.4,97.6,399,97.7,398.6,98.1"/>
		</defs>
		<use xlink:href="#SVGID_00000088833674380408377670000018266939141268363656_"  style="overflow:visible;fill:#38B44A;"/>
		<clipPath id="SVGID_00000013911046337051761700000004094869004147051687_">
			<use xlink:href="#SVGID_00000088833674380408377670000018266939141268363656_"  style="overflow:visible;"/>
		</clipPath>
		
			<rect x="352" y="97.6" style="clip-path:url(#SVGID_00000013911046337051761700000004094869004147051687_);fill:#38B44A;" width="103.7" height="32.6"/>
	</g>
	<g>
		<defs>
			<path id="SVGID_00000096748153267043953250000009701715341339297182_" d="M352.6,96.1c-0.6,0.1-1.2,0.9-1.2,1.5
				c-0.1,1.3-0.2,2.5-0.4,3.8c-0.8,5.4-2.2,10.6-4.4,15.5c-0.8,1.9-1.7,3.6-2.6,5.5c-0.1,0-0.1,0-0.2,0c-0.3-0.5-0.6-1.1-0.8-1.6
				c-1.3-2.9-2.6-5.9-3.9-8.8c-0.7-1.6-1.4-3.1-2.2-4.7c-0.7-1.2-1.5-0.9-2.2-0.1c-0.2,0.2-0.3,0.4-0.4,0.7
				c-0.8,1.9-1.6,3.8-2.6,5.6c-1.8,3.4-3.8,6.7-5.8,10c0,0-0.1,0.1-0.2,0.1c-0.2-0.7-0.4-1.4-0.6-2.1c-1.4-5.6-2.7-11.2-4.1-16.7
				c-0.4-1.5-0.9-2.9-1.9-4.1c-0.5-0.7-1-0.6-1.6-0.1c-0.7,0.6-0.6,1.3-0.4,2.1c0.4,1.5,0.8,2.9,1.1,4.4c1.1,4.6,2.1,9.2,3.2,13.8
				c0.5,1.9,1.1,3.8,1.7,5.6c0.3,0.7,0.8,1.4,1.3,1.9c0.7,0.8,1.4,0.6,2-0.2c0.3-0.3,0.5-0.7,0.7-1c1-1.8,2.1-3.6,3.1-5.4
				c1.6-2.9,3.2-5.9,4.7-8.8c0.2-0.3,0.4-0.6,0.6-0.9c1.2,2.7,2.3,5.3,3.5,7.9c0.8,1.8,1.6,3.5,2.5,5.3c0.3,0.6,0.8,1.1,1.4,1.5
				c0.8,0.6,2.2,0.2,2.5-0.7c1.5-3.3,3-6.6,4.4-9.9c2.2-5.2,3.5-10.6,4.2-16.2c0.1-0.9,0.3-1.9-0.1-2.8c-0.3-0.6-0.7-1-1.3-1
				C352.7,96,352.6,96,352.6,96.1"/>
		</defs>
		<use xlink:href="#SVGID_00000096748153267043953250000009701715341339297182_"  style="overflow:visible;fill:#38B44A;"/>
		<clipPath id="SVGID_00000177455237175627651490000017961439399662886567_">
			<use xlink:href="#SVGID_00000096748153267043953250000009701715341339297182_"  style="overflow:visible;"/>
		</clipPath>
		
			<rect x="317" y="96" style="clip-path:url(#SVGID_00000177455237175627651490000017961439399662886567_);fill:#38B44A;" width="37.6" height="32.9"/>
	</g>
	<path class="st3" d="M164.1,88.4V87c0-0.4,0.3-0.6,0.5-0.6h0.9c2.6,0,3.6-0.8,3.6-2.8V51.7c0-2.1-1-2.8-3.6-2.8h-0.9
		c-0.3,0-0.5-0.2-0.5-0.5v-1.5l0.1-0.1h19.2c13.1,0,23.4,9.8,23.4,21.8c0,15.9-12.6,20-22.2,20h-20.3L164.1,88.4z M182.6,85.9
		c8.3,0,15.6-3.1,15.6-15.8c0-9.8-4.5-20.8-17.2-20.8c-2.3,0-4,0.2-4,2.3v32.1C176.9,85.5,177.5,85.9,182.6,85.9"/>
	<path class="st3" d="M217.6,88.4V87c0-0.4,0.3-0.6,0.5-0.6h0.9c2.6,0,3.6-0.8,3.6-2.8V51.7c0-2.1-1-2.8-3.6-2.8h-0.9
		c-0.3,0-0.5-0.2-0.5-0.5v-1.5l0.2-0.1h30.2c0.3,3.8,0.7,7.2,1.4,10.5l-2.6,0.6c-0.9-3.3-2.5-8.1-6.9-8.1h-8.4
		c-0.6,0-0.9,0.5-0.9,1.9v13.3h7.3c1.6,0,1.9-2,2.3-4.6c0-0.3,0.4-0.7,1-0.7h1.4l0.4,0.6c-0.1,1-0.5,3.6-0.5,6c0,2.3,0.3,4.9,0.5,6
		l-0.4,0.6h-1.4c-0.6,0-1-0.4-1-0.6c-0.4-2.7-0.6-4.6-2.3-4.6h-7.3v16.1c0,1.5,0.3,1.9,0.9,1.9h9.9c3.6,0,5.9-3.8,7-8.6l2.8,0.6
		c-0.6,3.4-1.3,7.4-1.7,10.9h-31.6L217.6,88.4z"/>
	<path class="st3" d="M290.9,48.8H290c-0.3,0-0.6-0.2-0.6-0.5v-1.6l0.1-0.1c0,0,4.4,0.1,6.9,0.1c2.3,0,6.9-0.1,6.9-0.1l0.1,0.1v1.6
		c0,0.3-0.2,0.5-0.5,0.5h-0.9c-2.7,0-3.6,1-3.6,2.8v35.2c0,1.4-0.6,2.4-2.5,2.4c-1.6,0-2.4-0.9-3-1.7l-22.7-29.5v25.5
		c0,1.8,0.9,2.8,3.6,2.8h0.9c0.3,0,0.5,0.2,0.5,0.6v1.5l-0.1,0.1c0,0-4.7-0.1-7-0.1c-2.5,0-7.3,0.1-7.3,0.1l-0.1-0.1V87
		c0-0.4,0.3-0.6,0.5-0.6h0.9c2.6,0,4.1-0.8,4.1-2.8V52.3c-1.2-1.6-2.5-3.4-4.5-3.4c-1.1,0-1.3-0.3-1.3-0.7v-1.2l0.2-0.2h9.4
		l24.3,30.9v-26C294.4,49.6,293.5,48.8,290.9,48.8"/>
	<path class="st3" d="M391.1,69.6l6.7,12.7c1.4,2.8,3.4,4.1,6,3.8l0.3,2.3c-1.9,0.6-4.3,0.7-5.3,0.7c-3.8,0-6.7-2.5-8.4-5.5
		l-5.8-10.9c-0.9-1.6-2.8-1.9-6.2-1.9v12.9c0,2,1,2.8,3.6,2.8h0.9c0.3,0,0.5,0.2,0.5,0.6v1.5l-0.1,0.1c0,0-4.8-0.1-7.3-0.1
		c-2.3,0-10.3,0.1-10.3,0.1l-0.1-0.1v-1.5c0-0.4,0.2-0.6,0.5-0.6h0.9c2.7,0,3.6-1,3.6-2.8V52.5c0-1.8-0.3-2.9-1.9-2.9H368l-1.9,0.2
		c-0.3,0-0.5-0.2-0.5-0.5v-2.2c1.4-0.3,10.1-0.8,17.7-0.8c7.8,0,15.2,3.2,15.2,11.1C398.5,64,395.7,67.2,391.1,69.6 M383.6,49
		c-2.3,0-3.7,0.2-5.2,0.5v18.3h3.2c6.3,0,9.2-3,9.2-9.5C390.7,51.9,387.5,49,383.6,49"/>
	<path class="st3" d="M356.6,86.5c-0.9,0-2.1,0.2-3.2-0.2c-1-0.4-1.7-2-1.9-2.4c-0.2-0.3-13.8-36.2-13.8-36.2s-0.6-1.8-2.7-1.9
		c-1.4-0.1-2.3,0.9-2.8,1.9c-0.4,1-14.6,35.1-14.6,35.1s-1.2,3-3.7,3.7l-1.4,0.1c0,0-0.6-0.1-0.6,0.8c0,0.9,0,0.6,0,0.6
		s-0.2,0.7,1,0.7c1.1,0,12.4,0,12.4,0s0.6,0,0.6-0.4c0-0.5,0-1,0-1s0.1-0.7-1-0.7c-1.1,0-2.6,0.2-3.5-0.6c0,0-0.6-0.3-0.4-1.5
		c0-0.1,0-0.1,0.1-0.2c0.4-1.4,4-10.3,4-10.3s0.5-1,1.8-1h12.3l3.9,10.7c0,0,0.8,2.3-0.9,2.8c0,0-0.9,0.1-2,0.1c0,0-2-0.1-2,0.7V88
		c0,0-0.1,0.7,0.6,0.8c0.7,0,17.8,0.1,17.8,0.1s0.5,0.1,0.5-0.5c0-0.6,0-1.2,0-1.2S357.5,86.5,356.6,86.5 M327.9,70
		c-0.5,0-0.9-0.5-0.7-1l5.6-13.9l5.4,14.9H327.9z"/>
	<path class="st3" d="M434.1,89.2c-11.8,0-21.2-8-21.2-20.8c0-12.7,8.8-22.5,21.1-22.5c11.5,0,21.4,8.4,21.4,21.3
		C455.4,80.2,447.2,89.2,434.1,89.2 M421.4,67.3c0,12.2,6.3,19.2,14,19.2c6.5,0,11.5-6.8,11.5-18.1c0-13.1-6.3-19.9-13.7-19.9
		C427.7,48.6,421.4,54.1,421.4,67.3"/>
</g>
</svg>
