<?xml version="1.0" encoding="UTF-8"?>
<svg id="Layer_2" data-name="Layer 2" xmlns="http://www.w3.org/2000/svg" viewBox="0 0 113.34 113.34">
  <defs>
    <style>
      .cls-1 {
        fill: #dcffdf;
      }

      .cls-1, .cls-2 {
        stroke-width: 0px;
      }

      .cls-2 {
        fill: #38b14a;
      }
    </style>
  </defs>
  <g id="Layer_1-2" data-name="Layer 1">
    <g>
      <rect class="cls-1" x="0" y="0" width="113.34" height="113.34" rx="56.67" ry="56.67"/>
      <g>
        <path class="cls-2" d="M79.66,33.86c.07.27-.05.36-.13.45-1.44,1.6-2.02,3.48-2.02,5.61.03,6.99,0,13.97,0,20.96,0,4.66,0,9.32,0,13.97,0,3.87-2.34,6.22-6.2,6.22-4.97,0-9.94,0-14.92,0-.3,0-.63.1-.94-.14.06-.11.12-.22.19-.32,4.28-5.87,4.59-12.09,1.63-18.58-.19-.42-.29-.82-.28-1.28,0-6.94,0-13.87,0-20.81,0-3.71,2.37-6.08,6.09-6.08,5.26,0,10.52,0,15.78,0,.26,0,.52,0,.78,0ZM63.3,52.89c.52.03.78-.37,1.06-.75,2.4-3.36,4.8-6.71,7.19-10.07.14-.19.27-.39.36-.6.19-.47.06-.88-.33-1.18-.43-.32-.88-.3-1.3.04-.16.13-.27.31-.4.48-2.41,3.38-4.83,6.75-7.24,10.13-.14.19-.27.39-.35.6-.24.68.24,1.35,1,1.35ZM68.29,65.93c-1.62,0-3.24,0-4.86,0-.88,0-1.38.39-1.4,1.03-.02.67.5,1.08,1.42,1.09,1.2,0,2.4,0,3.61,0,2.04,0,4.08,0,6.12,0,.86,0,1.35-.44,1.31-1.11-.03-.62-.48-1-1.26-1.01-1.65-.02-3.29,0-4.94,0ZM68.29,75.61c1.59,0,3.19,0,4.78,0,.94,0,1.43-.39,1.42-1.08-.01-.67-.48-1.02-1.39-1.02-3.21,0-6.43,0-9.64,0-.94,0-1.45.39-1.43,1.07.02.66.54,1.03,1.48,1.03,1.59,0,3.19,0,4.78,0ZM68.37,58.37c-1.65,0-3.29,0-4.94,0-.87,0-1.38.38-1.4,1.03-.02.66.47,1.06,1.35,1.07,3.27,0,6.53,0,9.8,0,.85,0,1.3-.37,1.31-1.01.02-.67-.47-1.07-1.34-1.08-1.59,0-3.19,0-4.78,0ZM65.94,42.74c0-1.5-1.2-2.69-2.68-2.69-1.48,0-2.67,1.19-2.68,2.69,0,1.47,1.21,2.69,2.68,2.69,1.47,0,2.69-1.22,2.68-2.7ZM73.64,50.22c-.01-1.5-1.2-2.69-2.68-2.69-1.48,0-2.67,1.2-2.68,2.69,0,1.49,1.18,2.67,2.68,2.67,1.5,0,2.69-1.18,2.67-2.68Z"/>
        <path class="cls-2" d="M41.52,47.66c1.26,0,2.51,0,3.77,0,.34,0,.57.05.72.43,1.27,3.34,3.34,6.19,5.42,9.05,1.37,1.88,2.95,3.63,3.95,5.74,2.62,5.56,2.5,11.01-1.14,16.1-2.02,2.82-5.04,4.16-8.35,4.86-4.43.93-8.74.58-12.85-1.43-4.28-2.1-6.38-5.73-6.98-10.31-.56-4.27.57-8.11,3.06-11.61,2.08-2.92,4.26-5.76,6.14-8.82.67-1.09,1.3-2.21,1.73-3.42.18-.49.44-.61.92-.6,1.2.03,2.41,0,3.61,0ZM46.08,71.19c-.04.65-.35,1.15-.84,1.54-.71.57-1.54.88-2.43,1.02-2.22.37-4.3-.18-6.34-.99-.73-.29-1.26-.11-1.52.48-.25.57,0,1.11.7,1.44,1.07.5,2.2.83,3.36,1.05.44.08.95.03,1.29.25.44.28.12.87.2,1.31.1.58.44.91.99.93.59.02.99-.31,1.06-.93.03-.23.04-.47,0-.7-.07-.54.18-.74.69-.79.73-.08,1.43-.33,2.08-.66,1.62-.81,2.83-2,2.84-3.9,0-1.91-1.19-3.11-2.81-3.92-1.12-.56-2.31-.8-3.56-.83-1.43-.03-2.82-.26-3.97-1.23-1.05-.88-1.04-2.07,0-2.95.62-.52,1.35-.8,2.12-.96,2.29-.46,4.46,0,6.57.9.71.3,1.26.13,1.53-.45.27-.57.04-1.11-.66-1.45-1.06-.52-2.19-.85-3.35-1.05-.44-.08-.96-.02-1.29-.24-.44-.28-.12-.87-.2-1.32-.1-.61-.45-.96-1.05-.95-.6.01-.96.38-1.01.99-.02.23-.03.47,0,.71.05.45-.11.65-.58.72-.96.15-1.87.49-2.71.99-2.95,1.77-3.02,5.21-.14,7.09,1.38.9,2.93,1.21,4.55,1.26,1.22.03,2.39.27,3.42.97.59.4.98.93,1.05,1.66Z"/>
        <path class="cls-2" d="M41.53,40.39c-1.12,0-2.25-.02-3.37,0-.43,0-.65-.14-.81-.54-1.25-3.21-2.52-6.41-3.8-9.6-.18-.46-.11-.61.36-.77,2.26-.75,4.38-.65,6.45.66,2.34,1.48,4.76,1.54,7.19.15.5-.28,1.04-.48,1.57-.71.18-.08.39-.28.56-.1.17.17-.02.39-.08.58-.41,1.3-.97,2.53-1.52,3.77-.89,2-1.88,3.96-2.42,6.1-.1.41-.35.46-.69.46-1.15,0-2.3,0-3.45,0Z"/>
        <path class="cls-2" d="M83.52,46.04c-1.05,0-2.09,0-3.14,0-.33,0-.63,0-.61-.48.07-2.4-.14-4.81.12-7.21.15-1.33.77-2.46,1.49-3.58.94-1.46,3.12-1.24,4.02-.18.5.59.87,1.24,1.11,1.97.94,2.93,1.04,5.95.86,8.99-.03.45-.27.49-.62.49-1.07,0-2.14,0-3.22,0Z"/>
        <path class="cls-2" d="M41.43,45.55c-1.02,0-2.03-.01-3.05,0-.44,0-.61-.13-.55-.59.1-.67.14-1.35.05-2.03-.05-.35.11-.46.44-.46,2.14,0,4.28,0,6.42,0,.35,0,.47.14.41.48-.11.65-.06,1.31.04,1.95.09.56-.16.66-.64.65-1.04-.02-2.09,0-3.13,0Z"/>
        <path class="cls-2" d="M63.87,42.74c-.06.35-.24.57-.62.56-.34,0-.54-.2-.56-.52-.02-.36.19-.58.56-.6.38-.01.56.21.62.56Z"/>
        <path class="cls-2" d="M71.56,50.28c-.1.33-.28.58-.66.52-.35-.05-.57-.3-.52-.66.04-.31.27-.52.6-.49.36.03.54.27.58.63Z"/>
      </g>
    </g>
  </g>
</svg>