<!DOCTYPE svg PUBLIC "-//W3C//DTD SVG 1.1//EN" "http://www.w3.org/Graphics/SVG/1.1/DTD/svg11.dtd">

<!-- Uploaded to: SVG Repo, www.svgrepo.com, Transformed by: SVG Repo Mixer Tools -->
<svg fill="#656d73" width="800px" height="800px" viewBox="0 0 24 24" xmlns="http://www.w3.org/2000/svg" stroke="#656d73">

<g id="SVGRepo_bgCarrier" stroke-width="0"/>

<g id="SVGRepo_tracerCarrier" stroke-linecap="round" stroke-linejoin="round"/>

<g id="SVGRepo_iconCarrier"> <g id="Dollar"> <g> <path d="M12,21.934A9.934,9.934,0,1,1,21.934,12,9.945,9.945,0,0,1,12,21.934ZM12,3.066A8.934,8.934,0,1,0,20.934,12,8.944,8.944,0,0,0,12,3.066Z"/> <path d="M14.5,13.5a2.006,2.006,0,0,1-2,2v1.01a.5.5,0,0,1-1,0V15.5H10.25a.5.5,0,0,1,0-1H12.5a1,1,0,0,0,0-2h-1a2,2,0,0,1,0-4V7.49a.5.5,0,0,1,1,0V8.5h1.25a.5.5,0,0,1,0,1H11.5a1,1,0,0,0,0,2h1A2.006,2.006,0,0,1,14.5,13.5Z"/> </g> </g> </g>

</svg>