<svg xmlns="http://www.w3.org/2000/svg" width="133" height="105" fill="#ffffff" viewBox="0 0 133 105">
  <path stroke="#656d73" stroke-linecap="round" stroke-width="8.429" d="M5 100.531v-5.62c0-21.724 17.611-39.336 39.336-39.336 21.725 0 39.337 17.612 39.337 39.337v5.619"/>
  <path stroke="#656d73" stroke-linecap="round" stroke-width="8.429" d="M72.434 66.814c0-15.517 12.58-28.097 28.097-28.097 15.518 0 28.098 12.58 28.098 28.097v2.81"/>
  <path stroke="#656d73" stroke-linecap="round" stroke-linejoin="round" stroke-width="8.429" d="M44.336 55.575c12.414 0 22.478-10.064 22.478-22.478 0-12.414-10.064-22.477-22.478-22.477-12.414 0-22.478 10.063-22.478 22.477s10.064 22.478 22.478 22.478Zm56.195-16.858c9.311 0 16.859-7.548 16.859-16.859 0-9.31-7.548-16.858-16.859-16.858-9.31 0-16.858 7.548-16.858 16.858 0 9.311 7.547 16.859 16.858 16.859Z"/>
</svg>
