<svg xmlns="http://www.w3.org/2000/svg" width="70" height="101" fill="#ffffff" viewBox="0 0 70 101">
  <path stroke="#656d73" stroke-linecap="round" stroke-linejoin="round" stroke-width="7.727" 
  d="m24.605 34.959.051-.058m20.554.058.051-.058M24.605 55.563l.051-.057m20.554.057.051-.057M24.605 76.168l.051-.057m20.554.057.051-.057M4 93.63V17.394a3.09 3.09 0 0 1 3.09-3.09h27.817V7.09A3.09 3.09 0 0 1 37.997 4h24.727a3.09 3.09 0 0 1 3.09 3.09v86.54a3.09 3.09 0 0 1-3.09 3.091H7.09A3.09 3.09 0 0 1 4 93.631Z"
  />
</svg>
