<?xml version="1.0" encoding="utf-8"?>
<!-- Generator: Adobe Illustrator 28.2.0, SVG Export Plug-In . SVG Version: 6.00 Build 0)  -->
<svg version="1.1" id="Layer_1" xmlns="http://www.w3.org/2000/svg" xmlns:xlink="http://www.w3.org/1999/xlink" x="0px" y="0px"
	 viewBox="0 0 2346 2862.02" style="enable-background:new 0 0 2346 2862.02;" xml:space="preserve">
<style type="text/css">
	.st0{fill:#F4F4F4;}
	.st1{fill:#38B14A;}
	.st2{fill:#231F20;}
	.st3{font-family:'MyriadPro-Bold';}
	.st4{font-size:26.3311px;}
	.st5{fill:#FFFFFF;}
	.st6{fill:#FFFFFF;stroke:#38B14A;stroke-width:1.5134;stroke-miterlimit:10;}
	.st7{font-size:42.1971px;}
	.st8{font-size:24.2358px;}
	.st9{fill:#DCFFDF;}
	.st10{font-size:70px;}
	.st11{fill-rule:evenodd;clip-rule:evenodd;fill:#38B14A;}
	.st12{font-size:53.0956px;}
	.st13{font-size:74.0216px;}
	.st14{fill:none;stroke:#38B14A;stroke-width:5;stroke-miterlimit:10;}
	.st15{font-size:100px;}
	.st16{fill:none;stroke:#38B14A;stroke-width:1.5134;stroke-miterlimit:10;}
	.st17{fill:none;stroke:#38B14A;stroke-width:1.5134;stroke-miterlimit:10;stroke-dasharray:11.9559,11.9559;}
</style>
<g>
	<g>
		<path class="st0" d="M571.85,2780.74H193.37c-7.03,0-12.73-5.7-12.73-12.73v-61.25c0-7.03,5.7-12.73,12.73-12.73h378.48
			c7.03,0,12.73,5.7,12.73,12.73v61.25C584.57,2775.04,578.87,2780.74,571.85,2780.74z"/>
		<path class="st0" d="M2152.63,2780.74h-378.48c-7.03,0-12.73-5.7-12.73-12.73v-61.25c0-7.03,5.7-12.73,12.73-12.73h378.48
			c7.03,0,12.73,5.7,12.73,12.73v61.25C2165.36,2775.04,2159.66,2780.74,2152.63,2780.74z"/>
		<path class="st1" d="M1362.24,2780.74H983.76c-7.03,0-12.73-5.7-12.73-12.73v-61.25c0-7.03,5.7-12.73,12.73-12.73h378.48
			c7.03,0,12.73,5.7,12.73,12.73v61.25C1374.97,2775.04,1369.27,2780.74,1362.24,2780.74z"/>
		<text transform="matrix(1 0 0 1 236.9071 2745.1157)" class="st2 st3 st4">Back to Cashflow Section</text>
		<text transform="matrix(1 0 0 1 1048.5614 2745.1157)" class="st5 st3 st4">Scenario Comparison</text>
		<text transform="matrix(1 0 0 1 1910.1 2745.1157)" class="st2 st3 st4">Cashflow</text>
	</g>
	<g>
		<path class="st6" d="M449.93,771.34H200.47c-10.95,0-19.83-8.88-19.83-19.83V479.75c0-10.95,8.88-19.83,19.83-19.83h249.47
			c10.95,0,19.83,8.88,19.83,19.83v271.76C469.76,762.46,460.88,771.34,449.93,771.34z"/>
		<g>
			<text transform="matrix(1 0 0 1 243.5481 734.7623)" class="st1 st3 st7">$11,500</text>
		</g>
		<text transform="matrix(1 0 0 1 242.3625 515.8981)" class="st2 st3 st8">Lifestyle Assets</text>
		<path class="st9" d="M325.2,678.08L325.2,678.08c-34.49,0-62.45-27.96-62.45-62.45v0c0-34.49,27.96-62.45,62.45-62.45h0
			c34.49,0,62.45,27.96,62.45,62.45v0C387.65,650.12,359.69,678.08,325.2,678.08z"/>
		<g>
			<g>
				<path class="st1" d="M325.2,655.63c-6.69,0-13.39,0-20.08,0c-1.86,0-2.37-0.57-2.15-2.4c1.16-9.79,8.1-17.42,17.77-19.51
					c11.77-2.55,23.92,5.39,26.32,17.2c0.16,0.79,0.27,1.59,0.37,2.4c0.22,1.72-0.32,2.32-2.08,2.32
					C338.64,655.63,331.92,655.63,325.2,655.63z"/>
				<path class="st1" d="M325.55,632.08c-6.5,0.32-12.09-4.92-12.45-11.66c-0.34-6.54,4.94-12.22,11.66-12.53
					c6.62-0.3,12.24,4.96,12.53,11.74C337.58,626.21,332.35,631.75,325.55,632.08z"/>
				<path class="st1" d="M352.01,619.07c-7.29-0.02-13.19-5.93-13.16-13.2c0.03-7.29,5.95-13.15,13.24-13.11
					c7.29,0.03,13.14,5.93,13.11,13.23C365.17,613.23,359.26,619.08,352.01,619.07z M354.73,600.99c-0.02,0-0.04,0-0.06,0
					c0-0.51,0-1.02,0-1.54c-0.01-1-0.31-1.31-1.29-1.32c-0.89-0.01-1.78-0.01-2.67,0c-1.02,0.01-1.33,0.32-1.34,1.37
					c-0.01,1.02-0.03,2.05,0.01,3.07c0.02,0.58-0.2,0.73-0.75,0.72c-1.08-0.04-2.16-0.02-3.24,0c-0.81,0.01-1.12,0.32-1.14,1.13
					c-0.02,1-0.02,2,0,2.99c0.02,0.81,0.33,1.12,1.14,1.13c1.08,0.02,2.16,0.03,3.24,0c0.55-0.02,0.77,0.14,0.74,0.72
					c-0.04,1.02-0.02,2.05-0.01,3.07c0.01,1.05,0.32,1.36,1.34,1.37c0.89,0.01,1.78,0.01,2.67,0c0.97-0.01,1.28-0.32,1.29-1.32
					c0.01-1.08,0.02-2.16-0.01-3.24c-0.01-0.47,0.15-0.6,0.6-0.59c1.13,0.02,2.26,0,3.4,0.01c0.72,0,1.13-0.34,1.15-1.06
					c0.03-1.05,0.03-2.1,0-3.15c-0.02-0.66-0.38-1.04-1.08-1.05c-0.59,0-1.19,0.02-1.78-0.01c-0.74-0.04-1.74,0.34-2.16-0.17
					C354.45,602.68,354.73,601.72,354.73,600.99z"/>
				<path class="st1" d="M298.37,619.07c-7.29,0.01-13.18-5.88-13.18-13.17c0.01-7.25,5.86-13.12,13.12-13.14
					c7.29-0.02,13.21,5.84,13.23,13.13C311.57,613.15,305.67,619.06,298.37,619.07z M304.77,604.33c0.11-0.04,0.15-0.06,0.16-0.05
					c0.44,0.31,0.88,0.62,1.32,0.92c0.8,0.55,1.53,0.49,1.99-0.16c0.47-0.65,0.31-1.36-0.49-1.94c-2.81-2.05-5.63-4.09-8.44-6.14
					c-0.66-0.48-1.26-0.48-1.92,0c-2.8,2.06-5.62,4.09-8.43,6.14c-0.76,0.55-0.94,1.32-0.48,1.94c0.46,0.64,1.19,0.69,2,0.15
					c0.48-0.31,0.87-0.78,1.5-0.95c0,2.65,0.01,5.24-0.01,7.83c-0.01,0.72,0.31,1.05,1.01,1.05c0.7,0,1.41-0.04,2.1,0.01
					c0.63,0.05,0.77-0.2,0.76-0.79c-0.04-1.51-0.02-3.02-0.01-4.53c0.01-0.9,0.38-1.25,1.29-1.27c0.78-0.01,1.56-0.01,2.35,0
					c1.04,0.01,1.41,0.37,1.41,1.41c0.01,1.51,0.02,3.02-0.01,4.53c-0.01,0.49,0.12,0.68,0.63,0.65c0.73-0.04,1.46-0.02,2.18-0.01
					c0.75,0.01,1.07-0.36,1.06-1.1c-0.02-1.27,0-2.54,0-3.8C304.77,606.92,304.77,605.61,304.77,604.33z"/>
				<path class="st1" d="M312.05,588.75c0.02-7.29,5.92-13.14,13.22-13.12c7.24,0.02,13.09,5.92,13.08,13.18
					c-0.01,7.29-5.92,13.2-13.18,13.17C317.88,601.95,312.02,596.05,312.05,588.75z M325.23,579.63c-5.06-0.02-9.17,4.04-9.23,9.11
					c-0.06,5.01,4.07,9.22,9.09,9.25c5.14,0.03,9.32-4.09,9.31-9.2C334.4,583.75,330.29,579.65,325.23,579.63z"/>
				<path class="st1" d="M325.19,582.06c0.73,0.03,1.22,0.41,1.27,1.11c0.04,0.52,0.24,0.75,0.68,0.93c0.4,0.16,0.71,0.48,0.98,0.83
					c0.45,0.6,0.42,1.27-0.08,1.75c-0.49,0.47-1.23,0.52-1.75,0.01c-0.35-0.34-0.71-0.44-1.16-0.42c-0.39,0.02-0.72,0.14-0.73,0.58
					c-0.01,0.49,0.33,0.62,0.76,0.63c0.27,0.01,0.54,0.03,0.8,0.07c1.34,0.24,2.36,1.24,2.61,2.54c0.25,1.29-0.33,2.63-1.5,3.32
					c-0.38,0.23-0.58,0.44-0.6,0.92c-0.03,0.73-0.6,1.2-1.28,1.2c-0.68,0-1.21-0.47-1.27-1.21c-0.03-0.41-0.14-0.62-0.53-0.77
					c-0.45-0.18-0.83-0.51-1.12-0.91c-0.44-0.6-0.4-1.28,0.09-1.76c0.5-0.48,1.2-0.52,1.75,0c0.35,0.33,0.69,0.47,1.15,0.44
					c0.4-0.03,0.7-0.16,0.73-0.59c0.03-0.44-0.27-0.61-0.66-0.66c-0.19-0.02-0.38-0.01-0.57-0.02c-1.41-0.09-2.54-1.04-2.9-2.41
					c-0.34-1.29,0.21-2.72,1.38-3.44c0.42-0.26,0.67-0.47,0.69-1.03C323.97,582.49,324.47,582.1,325.19,582.06z"/>
			</g>
		</g>
	</g>
	<text transform="matrix(1 0 0 1 180.6394 380.8796)" class="st2 st3 st10">Asset </text>
	<g>
		<path class="st6" d="M789.05,771.34H539.59c-10.95,0-19.83-8.88-19.83-19.83V479.75c0-10.95,8.88-19.83,19.83-19.83h249.47
			c10.95,0,19.83,8.88,19.83,19.83v271.76C808.88,762.46,800,771.34,789.05,771.34z"/>
		<g>
			<text transform="matrix(1 0 0 1 566.6975 734.7623)" class="st1 st3 st7"> $816,000</text>
		</g>
		<text transform="matrix(1 0 0 1 593.5149 515.8981)" class="st2 st3 st8">Family Home</text>
		<path class="st9" d="M664.32,678.08L664.32,678.08c-34.49,0-62.45-27.96-62.45-62.45v0c0-34.49,27.96-62.45,62.45-62.45h0
			c34.49,0,62.45,27.96,62.45,62.45v0C726.77,650.12,698.81,678.08,664.32,678.08z"/>
		<g>
			<g>
				<path class="st1" d="M699.32,650.62c-6.63,0-13.26-0.01-19.89,0.02c-0.65,0-0.77-0.19-0.77-0.79
					c0.02-9.18,0.01-18.36,0.03-27.54c0-0.63-0.17-0.95-0.76-1.22c-5.35-2.46-10.69-4.95-16.02-7.46c-3.78-1.78-4.92-6.37-2.37-9.51
					c1.84-2.27,4.81-2.92,7.59-1.63c7.22,3.34,14.44,6.7,21.66,10.05c1.51,0.7,3.02,1.39,4.51,2.11c3.25,1.55,5.21,4.1,5.88,7.64
					c0.03,0.15,0.09,0.3,0.13,0.45C699.32,632.03,699.32,641.32,699.32,650.62z"/>
				<path class="st1" d="M668.15,580.63c0.19,0.2,0.47,0.15,0.7,0.22c4.43,1.26,6.03,6.72,2.88,10.07c-2.3,2.44-4.72,4.75-7.08,7.13
					c-0.25,0.26-0.4,0.25-0.66,0c-2.33-2.34-4.69-4.65-6.99-7.02c-1.65-1.71-2.13-3.8-1.43-6.07c0.69-2.24,2.26-3.62,4.54-4.19
					c0.13-0.03,0.28-0.01,0.37-0.14c0.59,0,1.18,0,1.78,0c0.62,0.22,1.27,0.31,1.86,0.63c0.13,0.07,0.26,0.07,0.39,0
					c0.58-0.32,1.24-0.41,1.86-0.63C666.97,580.63,667.56,580.63,668.15,580.63z"/>
				<path class="st1" d="M699.32,602.36c-0.31,1.43-0.76,2.8-1.67,3.99c-1.99,2.61-5.33,3.8-8.51,3c-3.24-0.82-5.62-3.42-6.12-6.7
					c-0.67-4.39,2.29-8.56,6.6-9.31c4.49-0.78,8.65,2.07,9.55,6.53c0.03,0.15,0,0.32,0.14,0.44
					C699.32,601,699.32,601.68,699.32,602.36z"/>
				<path class="st1" d="M654.25,605.9c-0.61,4.84,1.14,8.47,5.13,11.04c-0.09,0.23-0.31,0.25-0.49,0.33
					c-2.76,1.3-5.51,2.6-8.28,3.87c-0.48,0.22-0.65,0.47-0.65,1.01c0.02,9.22,0.01,18.45,0.03,27.67c0,0.67-0.17,0.81-0.82,0.81
					c-6.38-0.03-12.76-0.02-19.13,0c-0.55,0-0.72-0.12-0.72-0.7c0.02-8.63,0.01-17.27,0.01-25.9c0-3.98,1.77-6.96,5.2-8.9
					c2.97-1.68,6.16-2.93,9.24-4.39c3.29-1.56,6.6-3.06,9.91-4.59C653.84,606.08,654,606.01,654.25,605.9z"/>
				<path class="st1" d="M663.12,638.24c-2.59-0.49-4.62-1.82-5.93-4.13c-0.99-1.75-1.29-3.63-0.91-5.6
					c0.77-3.98,4.41-6.79,8.52-6.6c3.98,0.19,7.32,3.4,7.7,7.46c0.33,3.52-1.78,7.89-7.19,8.93c0.5,0.1,0.85,0.17,1.19,0.25
					c4.73,1.05,8.04,5.12,8.08,9.95c0,0.48-0.04,0.96,0.01,1.43c0.07,0.6-0.18,0.69-0.72,0.69c-3.69-0.02-7.38-0.01-11.07-0.01
					c-2.71,0-5.42-0.01-8.13,0.01c-0.48,0-0.59-0.13-0.61-0.6c-0.1-2.58,0.27-5.04,1.79-7.22c1.69-2.41,3.98-3.88,6.89-4.37
					C662.87,638.42,663.03,638.46,663.12,638.24z"/>
				<path class="st1" d="M645.74,601.44c-0.01,4.51-3.72,8.19-8.25,8.17c-4.5-0.02-8.18-3.74-8.15-8.27
					c0.02-4.47,3.73-8.14,8.22-8.13C642.06,593.21,645.75,596.92,645.74,601.44z"/>
			</g>
		</g>
	</g>
	<g>
		<path class="st6" d="M1128.17,771.34H878.71c-10.95,0-19.83-8.88-19.83-19.83V479.75c0-10.95,8.88-19.83,19.83-19.83h249.47
			c10.95,0,19.83,8.88,19.83,19.83v271.76C1148,762.46,1139.12,771.34,1128.17,771.34z"/>
		<g>
			<text transform="matrix(1 0 0 1 969.8513 734.7623)" class="st1 st3 st7"> $0</text>
		</g>
		<text transform="matrix(1 0 0 1 881.7166 515.8981)" class="st2 st3 st8">Direct Share Portfolios</text>
		<path class="st9" d="M1003.44,678.08L1003.44,678.08c-34.49,0-62.45-27.96-62.45-62.45v0c0-34.49,27.96-62.45,62.45-62.45h0
			c34.49,0,62.45,27.96,62.45,62.45v0C1065.89,650.12,1037.93,678.08,1003.44,678.08z"/>
		<g>
			<g>
				<path class="st1" d="M1038.38,618.09c0,7.23,0,14.46,0,21.7c-0.27,0.72-0.41,1.48-0.84,2.14c-1.27,1.97-3.08,2.82-5.41,2.82
					c-19.12-0.02-38.24-0.01-57.36-0.01c-0.25,0-0.5,0-0.75-0.02c-2.95-0.13-5.46-2.55-5.49-5.49c-0.06-6.89-0.03-13.78-0.02-20.66
					c0-1.28,1.26-1.95,2.31-1.21c1.25,0.87,2.6,1.19,4.11,1.19c7.32-0.03,14.64-0.01,21.96-0.02c0.56,0,0.75,0.14,0.72,0.72
					c-0.04,1.16-0.03,2.32-0.01,3.48c0.02,1.08,0.58,1.64,1.65,1.65c2.77,0.01,5.55,0.01,8.32,0c1.11,0,1.67-0.56,1.69-1.68
					c0.02-1.09,0-2.18,0-3.27c0-0.88,0-0.88,0.88-0.88c7.34,0,14.69-0.01,22.03,0.01c1.29,0,2.47-0.27,3.55-0.98
					C1036.96,616.75,1037.61,616.88,1038.38,618.09z"/>
				<path class="st1" d="M1038.38,600.21c0,3.46,0,6.91,0,10.37c-0.03,0.08-0.07,0.16-0.1,0.24c-0.89,3.27-2.89,4.81-6.27,4.81
					c-7.12,0-14.23,0-21.35,0c-1.33,0-1.33,0-1.39-1.3c-0.04-0.95-0.52-1.56-1.36-1.57c-2.98-0.03-5.96-0.02-8.93,0
					c-0.71,0-1.19,0.46-1.32,1.16c-0.06,0.35-0.08,0.73-0.05,1.09c0.05,0.51-0.12,0.65-0.64,0.65c-7.5-0.02-15,0-22.51-0.02
					c-3.42-0.01-5.95-2.53-5.96-5.94c-0.01-2.84,0-5.68,0-8.53c0-0.55,0.07-1.09,0.21-1.62c0.73-2.65,2.98-4.27,5.93-4.28
					c4.52-0.01,9.05-0.01,13.57,0.01c0.49,0,0.69-0.11,0.66-0.64c-0.04-0.75-0.03-1.5-0.01-2.25c0.09-3.28,2.46-5.8,5.64-5.83
					c5.96-0.05,11.91-0.04,17.87,0c2.59,0.02,4.73,1.81,5.4,4.32c0.32,1.19,0.23,2.4,0.2,3.59c-0.02,0.68,0.2,0.82,0.84,0.81
					c4.59-0.03,9.18-0.04,13.78,0c2.56,0.02,4.69,1.61,5.47,3.97C1038.18,599.57,1038.28,599.89,1038.38,600.21z M1003.45,595.27
					c2.66,0,5.32-0.02,7.98,0.01c0.57,0.01,0.84-0.09,0.76-0.73c-0.06-0.49-0.05-1,0-1.5c0.05-0.55-0.11-0.73-0.7-0.73
					c-5.36,0.02-10.73,0.02-16.09,0c-0.59,0-0.74,0.19-0.69,0.73c0.04,0.5,0.05,1,0,1.5c-0.05,0.55,0.11,0.74,0.7,0.73
					C998.08,595.25,1000.77,595.27,1003.45,595.27z"/>
			</g>
		</g>
	</g>
	<g>
		<path class="st6" d="M1467.29,771.34h-249.47c-10.95,0-19.83-8.88-19.83-19.83V479.75c0-10.95,8.88-19.83,19.83-19.83h249.47
			c10.95,0,19.83,8.88,19.83,19.83v271.76C1487.12,762.46,1478.24,771.34,1467.29,771.34z"/>
		<g>
			<text transform="matrix(1 0 0 1 1313.2329 734.7623)" class="st1 st3 st7">$0</text>
		</g>
		<text transform="matrix(1 0 0 1 1256.2202 515.8981)" class="st2 st3 st8">Managed Funds</text>
		<path class="st9" d="M1342.56,678.08L1342.56,678.08c-34.49,0-62.45-27.96-62.45-62.45v0c0-34.49,27.96-62.45,62.45-62.45h0
			c34.49,0,62.45,27.96,62.45,62.45v0C1405.01,650.12,1377.05,678.08,1342.56,678.08z"/>
		<g>
			<g>
				<path class="st1" d="M1337.84,592.22c0,2.16-0.01,4.32,0.01,6.48c0.01,0.48-0.12,0.7-0.62,0.84
					c-7.23,1.95-12.27,8.56-12.27,16.08c-0.01,7.55,5.02,14.15,12.3,16.12c0.47,0.13,0.59,0.34,0.59,0.79
					c-0.02,4.3-0.01,8.6-0.01,12.89c0,0.87,0,0.88-0.84,0.75c-5.79-0.92-10.96-3.24-15.4-7.07c-5.84-5.04-9.32-11.41-10.51-19.03
					c-1.86-11.85,3.95-24.36,14.21-30.64c3.57-2.19,7.4-3.64,11.54-4.31c0.13-0.02,0.27-0.02,0.41-0.06
					c0.47-0.12,0.62,0.03,0.61,0.53C1337.83,587.81,1337.84,590.02,1337.84,592.22z"/>
				<path class="st1" d="M1374.37,615.67c-0.06,5.81-1.54,11.15-4.51,16.07c-0.3,0.49-0.45,0.57-0.89,0.12
					c-3.16-3.2-6.35-6.38-9.55-9.55c-0.32-0.32-0.38-0.57-0.23-1c1.52-4.34,1.32-8.61-0.61-12.79c-0.19-0.41-0.12-0.63,0.18-0.93
					c3.16-3.14,6.32-6.29,9.45-9.45c0.37-0.37,0.52-0.31,0.78,0.08C1372.57,603.52,1374.34,609.36,1374.37,615.67z"/>
				<path class="st1" d="M1341.93,626.06c-5.85,0.02-10.6-4.69-10.62-10.54c-0.03-5.82,4.73-10.61,10.56-10.63
					c5.83-0.02,10.59,4.72,10.63,10.56C1352.52,621.28,1347.78,626.04,1341.93,626.06z M1342.64,612.23c0.45,0,0.91,0.01,1.36,0
					c0.65-0.02,1.03-0.36,1.05-0.91c0.02-0.59-0.37-0.96-1.05-0.99c-0.38-0.02-0.86,0.11-1.13-0.08c-0.3-0.21-0.08-0.72-0.13-1.1
					c-0.07-0.53-0.35-0.84-0.88-0.87c-0.56-0.03-0.89,0.28-0.99,0.82c-0.04,0.22-0.05,0.46-0.02,0.68c0.04,0.41-0.12,0.58-0.52,0.7
					c-1.48,0.46-2.33,1.88-2.1,3.4c0.21,1.4,1.46,2.49,2.94,2.56c0.39,0.02,0.77,0,1.16,0.01c0.86,0.01,1.34,0.4,1.36,1.1
					c0.02,0.72-0.48,1.18-1.35,1.2c-0.86,0.02-1.73,0-2.59,0.01c-0.59,0-0.96,0.28-1,0.88c-0.04,0.61,0.34,1.03,0.89,0.98
					c1.01-0.09,1.33,0.26,1.27,1.26c-0.04,0.53,0.43,0.86,0.97,0.82c0.5-0.03,0.83-0.35,0.87-0.88c0.01-0.16,0.03-0.32,0.01-0.48
					c-0.05-0.47,0.07-0.7,0.61-0.83c1.48-0.35,2.38-1.76,2.22-3.31c-0.15-1.45-1.4-2.59-2.91-2.65c-0.41-0.02-0.82,0-1.23-0.01
					c-0.83-0.02-1.33-0.44-1.33-1.14c-0.01-0.7,0.49-1.14,1.31-1.16C1341.82,612.22,1342.23,612.23,1342.64,612.23z"/>
				<path class="st1" d="M1345.48,639.05c0-2.18,0.01-4.36-0.01-6.54c0-0.44,0.13-0.64,0.56-0.75c2.32-0.6,4.4-1.69,6.24-3.22
					c0.3-0.25,0.49-0.33,0.82,0c3.09,3.12,6.19,6.22,9.3,9.3c0.31,0.31,0.28,0.45-0.03,0.73c-4.6,4.09-9.93,6.63-16.01,7.6
					c-0.87,0.14-0.87,0.13-0.87-0.72C1345.48,643.33,1345.48,641.19,1345.48,639.05z"/>
				<path class="st1" d="M1345.79,585.03c2.39,0.33,4.58,0.88,6.72,1.68c3.2,1.2,6.11,2.89,8.76,5.04c0.32,0.26,0.37,0.4,0.05,0.71
					c-3.13,3.11-6.25,6.23-9.36,9.36c-0.27,0.28-0.45,0.33-0.79,0.09c-1.57-1.12-3.29-1.92-5.16-2.39c-0.4-0.1-0.53-0.28-0.53-0.69
					c0.01-4.41,0.01-8.82,0.01-13.23C1345.48,585.3,1345.4,584.93,1345.79,585.03z"/>
			</g>
		</g>
	</g>
	<g>
		<path class="st6" d="M1806.41,771.34h-249.47c-10.95,0-19.83-8.88-19.83-19.83V479.75c0-10.95,8.88-19.83,19.83-19.83h249.47
			c10.95,0,19.83,8.88,19.83,19.83v271.76C1826.24,762.46,1817.36,771.34,1806.41,771.34z"/>
		<g>
			<text transform="matrix(1 0 0 1 1652.3538 734.7623)" class="st1 st3 st7">$0</text>
		</g>
		<text transform="matrix(1 0 0 1 1581.2844 515.8981)" class="st2 st3 st8">Other Investments</text>
		<path class="st9" d="M1681.68,678.08L1681.68,678.08c-34.49,0-62.45-27.96-62.45-62.45v0c0-34.49,27.96-62.45,62.45-62.45h0
			c34.49,0,62.45,27.96,62.45,62.45v0C1744.13,650.12,1716.17,678.08,1681.68,678.08z"/>
		<g>
			<g>
				<path class="st1" d="M1671.45,650.57c0-17.55,0-35.1,0.02-52.65c0-0.68-0.15-0.88-0.84-0.85c-1.7,0.06-3.41,0.02-5.11,0.02
					c-1.08,0-1.81-0.48-2.12-1.38c-0.3-0.86-0.05-1.66,0.76-2.36c4.66-4,9.32-7.99,13.98-11.98c1.02-0.87,1.98-0.89,3-0.02
					c4.68,4,9.36,8.01,14.03,12.03c0.8,0.69,1.03,1.51,0.72,2.37c-0.32,0.86-1.05,1.34-2.08,1.34c-1.8,0.01-3.59,0.02-5.39-0.01
					c-0.49-0.01-0.6,0.15-0.59,0.61c0.03,1.84,0,3.68,0.02,5.52c0,0.4-0.1,0.64-0.48,0.86c-7.93,4.63-12.08,11.54-11.74,20.73
					c0.31,8.33,4.46,14.56,11.65,18.75c0.4,0.24,0.59,0.46,0.57,0.94c-0.04,1.11-0.07,2.23,0,3.34c0.08,1.27-0.34,2.2-1.52,2.75
					C1681.36,650.57,1676.4,650.57,1671.45,650.57z"/>
				<path class="st1" d="M1659.17,650.57c0-12.85,0-25.69,0-38.54c0-1.79,0.74-2.53,2.51-2.53c1.66,0,3.32,0.03,4.98-0.01
					c0.57-0.01,0.71,0.14,0.71,0.71c-0.02,13.46-0.01,26.92-0.01,40.38C1664.62,650.57,1661.9,650.57,1659.17,650.57z"/>
				<path class="st1" d="M1646.75,627.37c0.54-1.18,1.48-1.58,2.75-1.52c1.54,0.07,3.09,0.05,4.63,0c0.64-0.02,0.83,0.12,0.83,0.8
					c-0.03,7.97-0.02,15.94-0.02,23.91c-2.23,0-4.46,0-6.69,0c-0.67-0.33-1.17-0.83-1.5-1.5
					C1646.75,641.84,1646.75,634.6,1646.75,627.37z"/>
				<path class="st1" d="M1698.04,642.24c-10.16-0.01-18.43-8.3-18.41-18.46c0.02-10.13,8.29-18.38,18.42-18.38
					c10.19,0,18.56,8.31,18.56,18.43C1716.61,633.95,1708.23,642.25,1698.04,642.24z M1700.1,612.7c0-0.52,0.01-0.86,0-1.2
					c-0.06-1.15-0.97-2.02-2.08-2c-1.09,0.02-1.96,0.89-2,2.01c-0.02,0.64-0.03,1.27,0,1.91c0.02,0.4-0.12,0.57-0.49,0.74
					c-2.79,1.23-4.21,4.31-3.37,7.24c0.75,2.63,2.97,4.34,5.85,4.47c0.93,0.04,1.61,0.46,1.95,1.34c0.31,0.8,0.13,1.53-0.46,2.14
					c-0.66,0.68-1.47,0.77-2.33,0.44c-0.72-0.28-1.25-0.8-1.77-1.35c-0.85-0.91-2.06-0.99-2.92-0.22c-0.89,0.79-0.93,2.02-0.09,2.98
					c0.9,1.02,1.94,1.85,3.22,2.33c0.3,0.11,0.41,0.27,0.4,0.6c-0.02,0.66-0.02,1.32,0,1.98c0.03,1.16,0.91,2.05,2.03,2.05
					c1.11,0.01,2.01-0.87,2.05-2.03c0.02-0.54,0.04-1.09,0-1.64c-0.04-0.54,0.13-0.82,0.64-1.07c2.15-1.07,3.34-2.86,3.44-5.25
					c0.1-2.45-1-4.33-3.12-5.59c-0.92-0.54-1.93-0.77-2.99-0.8c-0.9-0.03-1.56-0.47-1.9-1.31c-0.31-0.77-0.17-1.49,0.38-2.09
					c0.61-0.67,1.37-0.84,2.24-0.56c0.62,0.2,1.1,0.62,1.59,1.02c0.88,0.72,2.09,0.63,2.83-0.18c0.73-0.81,0.7-2.03-0.09-2.83
					c-0.53-0.54-1.11-1.06-1.82-1.29C1700.27,614.18,1699.83,613.59,1700.1,612.7z"/>
			</g>
		</g>
	</g>
	<g>
		<path class="st6" d="M2145.53,771.34h-249.47c-10.95,0-19.83-8.88-19.83-19.83V479.75c0-10.95,8.88-19.83,19.83-19.83h249.47
			c10.95,0,19.83,8.88,19.83,19.83v271.76C2165.36,762.46,2156.48,771.34,2145.53,771.34z"/>
		<g>
			<text transform="matrix(1 0 0 1 1939.1495 734.7623)" class="st1 st3 st7">$14,800</text>
		</g>
		<text transform="matrix(1 0 0 1 1994.8312 515.8981)" class="st2 st3 st8">Cash</text>
		<path class="st9" d="M2020.8,678.08L2020.8,678.08c-34.49,0-62.45-27.96-62.45-62.45v0c0-34.49,27.96-62.45,62.45-62.45h0
			c34.49,0,62.45,27.96,62.45,62.45v0C2083.25,650.12,2055.29,678.08,2020.8,678.08z"/>
		<g>
			<g>
				<path class="st1" d="M1985.87,607.01c0.5-1.3,1.29-2.28,2.76-2.52c0.31-0.05,0.63-0.06,0.95-0.06c20.81,0,41.61,0,62.42,0
					c2.45,0,3.74,1.29,3.74,3.75c0,9.89,0,19.78,0,29.67c0,2.41-1.29,3.7-3.7,3.7c-20.69,0-41.38-0.02-62.07,0.02
					c-2.03,0-3.41-0.67-4.08-2.63C1985.87,628.3,1985.87,617.65,1985.87,607.01z M2020.79,637.18c7.83,0.01,14.2-6.34,14.2-14.17
					c0.01-7.81-6.37-14.2-14.18-14.21c-7.81-0.01-14.2,6.37-14.2,14.18C2006.61,630.81,2012.96,637.17,2020.79,637.18z
					 M2051.37,623.01c0-3.18,0-6.37,0-9.55c0-0.96-0.31-1.3-1.27-1.4c-1.06-0.12-1.85-0.88-1.99-1.93c-0.15-1.1-0.42-1.34-1.54-1.34
					c-4.43,0-8.87,0-13.3,0c-0.23,0-0.46-0.01-0.68,0.04c-0.54,0.14-0.87,0.51-0.85,1.08c0.02,0.6,0.39,0.95,0.98,1.04
					c0.22,0.03,0.45,0.01,0.68,0.01c3.98,0,7.96,0.01,11.94-0.01c0.47,0,0.75,0.12,0.93,0.59c0.45,1.13,1.27,1.93,2.4,2.38
					c0.41,0.16,0.54,0.4,0.54,0.82c-0.01,5.48-0.01,10.96,0,16.44c0,0.5-0.2,0.73-0.63,0.9c-1.06,0.43-1.85,1.18-2.26,2.24
					c-0.22,0.56-0.54,0.67-1.08,0.66c-4.05-0.02-8.09-0.01-12.14-0.01c-0.85,0-1.36,0.42-1.36,1.1c0,0.67,0.5,1.08,1.37,1.08
					c4.55,0,9.09,0,13.64,0c0.94,0,1.27-0.3,1.37-1.22c0.12-1.11,0.86-1.88,1.96-2.04c1.09-0.16,1.31-0.41,1.31-1.49
					C2051.37,629.29,2051.37,626.15,2051.37,623.01z M1990.24,622.97c0,3.21,0,6.41,0,9.62c0,0.84,0.32,1.22,1.06,1.32
					c1.41,0.18,2.04,0.81,2.22,2.22c0.08,0.67,0.45,1.05,1.11,1.05c4.71,0.01,9.41,0.01,14.12,0c0.67,0,1.11-0.43,1.14-1.02
					c0.03-0.57-0.41-1.06-1.04-1.14c-0.22-0.03-0.45-0.01-0.68-0.01c-3.96,0-7.91-0.01-11.87,0.01c-0.5,0-0.78-0.14-0.97-0.63
					c-0.43-1.08-1.22-1.86-2.3-2.29c-0.45-0.18-0.61-0.43-0.6-0.92c0.02-5.46,0.02-10.91,0-16.37c0-0.49,0.18-0.72,0.62-0.9
					c1.08-0.44,1.86-1.22,2.29-2.3c0.19-0.48,0.47-0.63,0.98-0.63c2.73,0.02,5.46,0.01,8.18,0.01c1.41,0,2.82,0.01,4.23-0.01
					c0.72-0.01,1.2-0.5,1.17-1.13c-0.04-0.65-0.56-1.04-1.43-1.04c-4.5,0-9,0-13.5,0c-1.01,0-1.32,0.29-1.45,1.3
					c-0.13,1.06-0.91,1.85-1.95,1.97c-1.05,0.12-1.32,0.43-1.32,1.5C1990.23,616.69,1990.24,619.83,1990.24,622.97z M1998.96,626.26
					c1.8,0,3.26-1.44,3.28-3.23c0.02-1.81-1.47-3.31-3.27-3.31c-1.78,0-3.26,1.47-3.28,3.24
					C1995.68,624.78,1997.14,626.26,1998.96,626.26z M2042.65,626.26c1.79-0.01,3.25-1.46,3.26-3.24c0.01-1.81-1.48-3.31-3.29-3.3
					c-1.78,0.01-3.25,1.48-3.26,3.26C2039.35,624.8,2040.82,626.27,2042.65,626.26z"/>
				<path class="st1" d="M2006.19,602.07c0.64-0.26,1.35-0.26,2.02-0.36c6.58-0.96,13.17-1.9,19.76-2.84
					c6.68-0.95,13.36-1.91,20.04-2.86c1.73-0.24,3.36,1,3.62,2.76c0.15,0.97,0.23,1.94,0.37,2.91c0.06,0.44-0.1,0.59-0.51,0.56
					c-0.16-0.01-0.32,0-0.48,0c-14.66,0-29.33,0-43.99,0c-0.27,0-0.54,0-0.81,0C2006.2,602.19,2006.19,602.13,2006.19,602.07z"/>
				<path class="st1" d="M2006.91,599.43c1.14-0.33,2.29-0.66,3.43-0.98c10.18-2.85,20.35-5.71,30.53-8.56
					c2.31-0.65,3.94,0.29,4.53,2.59c0.03,0.13,0.07,0.26,0.1,0.4c0.34,1.37,0.51,1.21-0.96,1.42c-6.9,1-13.8,1.98-20.7,2.96
					c-5.48,0.78-10.97,1.57-16.45,2.35c-0.15,0.02-0.3,0-0.45,0C2006.92,599.56,2006.92,599.5,2006.91,599.43z"/>
				<path class="st1" d="M2020.81,634.99c-6.64,0-12.02-5.37-12.02-12c0-6.62,5.41-12.02,12.03-12.01
					c6.59,0.01,11.97,5.4,11.99,11.98C2032.82,629.6,2027.44,634.99,2020.81,634.99z M2016.44,626.58c0.12,1.48,0.83,2.81,2.33,3.51
					c0.76,0.36,1.03,0.76,0.97,1.57c-0.06,0.69,0.45,1.15,1.07,1.14c0.62,0,1.04-0.46,1.09-1.16c0-0.07,0.01-0.14,0-0.2
					c-0.13-0.66,0.15-0.99,0.78-1.26c1.66-0.72,2.62-2.46,2.48-4.26c-0.13-1.78-1.39-3.32-3.11-3.84c-0.48-0.14-0.98-0.16-1.48-0.22
					c-1.11-0.12-1.96-1.1-1.94-2.19c0.02-1.13,0.93-2.08,2.07-2.15c1.08-0.07,2.09,0.75,2.27,1.85c0.03,0.16,0.01,0.32,0.04,0.48
					c0.11,0.55,0.44,0.9,1.02,0.93c0.62,0.03,0.98-0.33,1.11-0.89c0.06-0.26,0.04-0.55-0.01-0.81c-0.28-1.59-1.15-2.76-2.65-3.38
					c-0.47-0.19-0.59-0.44-0.58-0.91c0.02-1.11-0.35-1.64-1.09-1.63c-0.72,0.01-1.1,0.55-1.07,1.66c0.01,0.5-0.17,0.7-0.61,0.89
					c-1.65,0.72-2.56,2.01-2.66,3.8c-0.13,2.44,1.73,4.43,4.18,4.55c1.58,0.08,2.61,1.25,2.31,2.62c-0.24,1.08-1.19,1.8-2.29,1.74
					c-1.09-0.06-1.9-0.89-2.03-2.1c-0.08-0.74-0.55-1.2-1.16-1.16C2016.87,625.23,2016.45,625.74,2016.44,626.58z"/>
				<path class="st1" d="M1998.95,621.91c0.58-0.01,1.09,0.49,1.11,1.07c0.01,0.6-0.46,1.09-1.07,1.1c-0.6,0.01-1.09-0.46-1.11-1.06
					C1997.87,622.43,1998.36,621.92,1998.95,621.91z"/>
				<path class="st1" d="M2042.66,621.91c0.58,0.02,1.07,0.54,1.06,1.12c-0.02,0.6-0.51,1.06-1.12,1.05
					c-0.6-0.02-1.07-0.51-1.05-1.11C2041.56,622.38,2042.08,621.89,2042.66,621.91z"/>
			</g>
		</g>
	</g>
	<g>
		<path class="st6" d="M449.93,1132.75H200.47c-10.95,0-19.83-8.88-19.83-19.83V841.17c0-10.95,8.88-19.83,19.83-19.83h249.47
			c10.95,0,19.83,8.88,19.83,19.83v271.76C469.76,1123.88,460.88,1132.75,449.93,1132.75z"/>
		<g>
			<text transform="matrix(1 0 0 1 295.8721 1096.1766)" class="st1 st3 st7">$0</text>
		</g>
		<text transform="matrix(1 0 0 1 247.3301 877.3124)" class="st2 st3 st8">Term Deposits</text>
		<path class="st9" d="M325.2,1039.5L325.2,1039.5c-34.49,0-62.45-27.96-62.45-62.45v0c0-34.49,27.96-62.45,62.45-62.45h0
			c34.49,0,62.45,27.96,62.45,62.45v0C387.65,1011.54,359.69,1039.5,325.2,1039.5z"/>
		<g>
			<path class="st1" d="M312.34,1002.05c-4.84,0-9.69,0.01-14.53,0c-4.46-0.02-7.84-3.5-7.59-7.93c0.16-2.91,1.65-5.06,4.29-6.32
				c0.58-0.28,0.71-0.58,0.7-1.16c-0.02-4.74-0.06-9.48,0-14.22c0.1-8.33,3.87-14.45,11.25-18.33c0.47-0.25,0.52-0.43,0.29-0.88
				c-1.23-2.41-2.43-4.83-3.63-7.26c-1.02-2.07,0.09-3.9,2.39-3.9c8.13,0,16.25,0,24.38,0c2.3,0,3.42,1.82,2.4,3.89
				c-1.19,2.43-2.4,4.85-3.62,7.26c-0.22,0.44-0.21,0.63,0.28,0.88c6.18,3.15,9.85,8.15,11.03,14.98c0.26,1.52,0.24,3.06,0.23,4.6
				c-0.01,2.14-0.01,4.27,0.01,6.41c0,0.43-0.12,0.62-0.53,0.8c-6.54,2.72-10.47,7.58-11.75,14.56c-0.36,1.96-0.34,3.94,0.03,5.91
				c0.11,0.58,0.01,0.75-0.62,0.75C322.34,1002.04,317.34,1002.05,312.34,1002.05z M316.1,982.05c-1.15,0-2.29-0.02-3.44,0.01
				c-1.41,0.03-2.47,1.13-2.47,2.5c0,1.36,1.08,2.44,2.49,2.49c0.62,0.02,1.25,0.03,1.87,0c0.42-0.02,0.61,0.07,0.72,0.54
				c0.27,1.19,1.26,1.95,2.4,1.96c1.15,0.01,2.17-0.74,2.43-1.92c0.11-0.5,0.34-0.56,0.76-0.63c2.58-0.4,4.3-2.41,4.33-5.02
				c0.01-0.83,0.02-1.67,0-2.5c-0.06-2.74-2.2-4.87-4.94-4.92c-1.09-0.02-2.19,0-3.28,0c-1.79,0-1.75,0-1.79-1.77
				c-0.02-0.66,0.23-0.75,0.8-0.75c2.21,0.03,4.42,0.02,6.64,0.01c1.47-0.01,2.57-1.08,2.58-2.47c0.01-1.42-1.1-2.5-2.61-2.52
				c-0.6-0.01-1.2-0.02-1.8,0.01c-0.4,0.02-0.56-0.08-0.66-0.51c-0.29-1.24-1.28-2.01-2.45-2c-1.16,0.01-2.12,0.76-2.41,1.96
				c-0.09,0.38-0.21,0.52-0.62,0.58c-2.71,0.38-4.43,2.4-4.45,5.15c0,0.81-0.01,1.61,0.01,2.42c0.07,2.69,2.21,4.82,4.9,4.88
				c1.07,0.02,2.13,0.01,3.2,0.01c1.97,0,1.96,0,1.91,1.96c-0.01,0.47-0.18,0.55-0.6,0.55C318.44,982.03,317.27,982.05,316.1,982.05
				z"/>
			<path class="st1" d="M346.49,1012.04c-7.65,0-13.79-6.14-13.79-13.8c0-7.55,6.2-13.7,13.82-13.69
				c7.48,0.01,13.67,6.2,13.68,13.69C360.2,1005.85,354.06,1012.04,346.49,1012.04z M343.95,995.76c0,0.86-0.02,1.72,0,2.58
				c0.04,1.37,1.07,2.43,2.43,2.45c1.69,0.03,3.38,0.03,5.07,0c1.41-0.02,2.48-1.13,2.48-2.49c0-1.36-1.07-2.46-2.48-2.5
				c-0.65-0.02-1.3-0.03-1.95,0c-0.43,0.02-0.61-0.1-0.58-0.56c0.04-0.6,0.01-1.2,0.01-1.8c-0.02-1.53-1.07-2.64-2.48-2.65
				c-1.43-0.01-2.49,1.1-2.51,2.62C343.94,994.2,343.95,994.98,343.95,995.76z"/>
		</g>
	</g>
	<g>
		<path class="st6" d="M789.05,1132.75H539.59c-10.95,0-19.83-8.88-19.83-19.83V841.17c0-10.95,8.88-19.83,19.83-19.83h249.47
			c10.95,0,19.83,8.88,19.83,19.83v271.76C808.88,1123.88,800,1132.75,789.05,1132.75z"/>
		<g>
			<text transform="matrix(1 0 0 1 634.9922 1096.1766)" class="st1 st3 st7">$0</text>
		</g>
		<text transform="matrix(1 0 0 1 575.1318 877.3124)" class="st2 st3 st8">Insurance Bonds</text>
		<path class="st9" d="M664.32,1039.5L664.32,1039.5c-34.49,0-62.45-27.96-62.45-62.45v0c0-34.49,27.96-62.45,62.45-62.45h0
			c34.49,0,62.45,27.96,62.45,62.45v0C726.77,1011.54,698.81,1039.5,664.32,1039.5z"/>
		<g>
			<path class="st1" d="M689.04,972.84c0.17,0.32,0.09,0.61,0.09,0.89c0,13.32,0,26.64,0,39.97c0,2.4-0.93,3.32-3.32,3.32
				c-15.94,0-31.88-0.02-47.81,0.03c-1.87,0.01-3.34-0.96-3.33-3.37c0.05-18.07,0.03-36.14,0.03-54.2c0-1.18-0.13-1.03,1.03-1.03
				c3.37-0.01,6.74,0,10.11,0c3.18-0.01,5.28-2.07,5.31-5.25c0.03-3.48,0.01-6.96,0-10.44c0-0.47-0.01-0.81,0.66-0.81
				c4.8,0.03,9.6,0.01,14.4,0.02c0.1,0,0.2,0.02,0.29,0.04c0.07,0.28-0.16,0.28-0.27,0.35c-2.97,1.69-4.1,5.16-2.68,8.3
				c0.15,0.33,0.15,0.57,0,0.9c-1.24,2.72-0.56,5.76,1.75,7.67c0.39,0.32,0.38,0.53,0.16,0.92c-1.12,1.9-2.21,3.83-3.33,5.73
				c-0.69,1.17-0.84,2.33-0.04,3.49c0.83,1.2,2.02,1.43,3.37,1.16c0.66-0.13,1.33-0.22,1.98-0.38c0.51-0.13,0.79-0.01,0.95,0.53
				c0.23,0.77,0.53,1.52,0.81,2.28c0.43,1.17,1.27,1.87,2.51,1.99c1.28,0.12,2.25-0.44,2.89-1.54c0.99-1.7,1.99-3.39,2.94-5.11
				c0.26-0.46,0.55-0.54,1.06-0.62c1.39-0.23,2,0.48,2.55,1.58c0.67,1.35,1.51,2.61,2.24,3.93c0.63,1.13,1.51,1.83,2.84,1.78
				c1.29-0.05,2.16-0.73,2.67-1.9C688.93,972.97,688.98,972.92,689.04,972.84z M661.83,978.36c5.85,0,11.7,0,17.56,0
				c0.27,0,0.54,0.02,0.81-0.02c0.64-0.09,1.02-0.5,1.1-1.12c0.08-0.63-0.23-1.08-0.82-1.34c-0.36-0.16-0.74-0.11-1.12-0.11
				c-11.62,0-23.25,0-34.87,0c-0.37,0-0.76-0.05-1.12,0.11c-0.59,0.25-0.9,0.7-0.83,1.33c0.07,0.62,0.45,1.03,1.09,1.13
				c0.26,0.04,0.54,0.02,0.81,0.02C650.23,978.36,656.03,978.36,661.83,978.36z M661.91,992.88c5.8,0,11.6,0,17.39,0
				c1.36,0,2.02-0.43,2.01-1.32c-0.01-0.87-0.63-1.27-1.96-1.27c-11.62,0-23.25,0-34.87,0c-0.27,0-0.54-0.01-0.81,0.02
				c-0.69,0.08-1.08,0.51-1.14,1.16c-0.06,0.67,0.29,1.15,0.94,1.33c0.3,0.09,0.64,0.07,0.96,0.08
				C650.26,992.88,656.09,992.88,661.91,992.88z M661.88,985.62c5.96,0,11.92,0,17.88,0c0.95,0,1.54-0.5,1.55-1.28
				c0.01-0.77-0.58-1.29-1.52-1.31c-0.13,0-0.27,0-0.4,0c-11.65,0-23.3,0-34.95,0c-0.27,0-0.55-0.03-0.81,0.03
				c-0.7,0.14-1.11,0.59-1.1,1.29c0.02,0.7,0.44,1.14,1.15,1.25c0.24,0.04,0.48,0.02,0.73,0.02
				C650.23,985.62,656.05,985.62,661.88,985.62z M661.99,997.54c-3.32,0-6.63,0-9.95,0c-2.45,0-4.91,0-7.36,0c-0.19,0-0.38,0-0.57,0
				c-1.02,0.02-1.62,0.51-1.6,1.31c0.02,0.79,0.62,1.28,1.64,1.28c11.84,0,23.68,0,35.51,0c1.02,0,1.63-0.49,1.64-1.28
				c0.01-0.8-0.58-1.28-1.6-1.31c-0.22,0-0.43,0-0.65,0C673.37,997.54,667.68,997.54,661.99,997.54z M658.19,1004.79
				c-4.58,0-9.16,0-13.74,0c-0.32,0-0.65,0-0.96,0.07c-0.64,0.14-0.97,0.61-0.96,1.23c0,0.62,0.34,1.08,0.98,1.22
				c0.34,0.07,0.7,0.06,1.05,0.07c9.11,0,18.21,0,27.32,0c0.3,0,0.6,0,0.89-0.04c0.72-0.11,1.12-0.56,1.11-1.26
				c0-0.71-0.42-1.15-1.13-1.26c-0.26-0.04-0.54-0.03-0.81-0.03C667.35,1004.79,662.77,1004.79,658.19,1004.79z M650.97,961.29
				c-2.32,0-4.63-0.01-6.95,0c-0.91,0.01-1.47,0.49-1.5,1.23c-0.03,0.73,0.55,1.34,1.41,1.34c4.66,0.02,9.32,0.01,13.98,0.01
				c0.3,0,0.59-0.06,0.84-0.24c0.49-0.35,0.7-0.83,0.52-1.41c-0.2-0.65-0.68-0.93-1.35-0.93
				C655.6,961.29,653.28,961.29,650.97,961.29z M650.88,971.11c2.32,0,4.63,0.01,6.95,0c0.92-0.01,1.47-0.49,1.49-1.24
				c0.02-0.76-0.52-1.33-1.41-1.33c-4.66-0.02-9.32-0.01-13.98-0.01c-0.48,0-0.9,0.16-1.18,0.58c-0.27,0.41-0.31,0.85-0.08,1.3
				c0.27,0.51,0.71,0.7,1.27,0.7C646.25,971.1,648.57,971.11,650.88,971.11z"/>
			<path class="st1" d="M684.96,963.17c-0.15-0.02-0.45-0.04-0.74-0.11c-0.94-0.25-1.68,0.05-2.31,0.75
				c-1.62,1.77-4.08,1.78-5.68,0.02c-0.66-0.73-1.41-0.98-2.39-0.76c-2.24,0.49-4.26-0.95-4.53-3.22c-0.13-1.08-0.63-1.76-1.63-2.2
				c-1.98-0.88-2.77-3.31-1.68-5.18c0.55-0.94,0.56-1.78,0.01-2.72c-1.11-1.91-0.31-4.34,1.72-5.23c0.93-0.41,1.43-1.05,1.56-2.06
				c0.32-2.41,2.22-3.77,4.59-3.31c0.92,0.18,1.68-0.04,2.33-0.76c1.62-1.78,4.07-1.79,5.67-0.02c0.67,0.75,1.45,0.96,2.4,0.77
				c2.26-0.46,4.26,0.95,4.53,3.21c0.12,1.07,0.62,1.76,1.63,2.19c1.97,0.85,2.77,3.33,1.68,5.18c-0.57,0.98-0.54,1.83,0.02,2.8
				c1.06,1.82,0.25,4.27-1.68,5.12c-1.03,0.45-1.54,1.15-1.66,2.26C688.6,961.77,686.96,963.18,684.96,963.17z M679.01,958.95
				c4.36,0.03,7.88-3.44,7.94-7.81c0.05-4.3-3.51-7.9-7.83-7.93c-4.34-0.02-7.89,3.47-7.94,7.82
				C671.13,955.36,674.65,958.93,679.01,958.95z"/>
			<path class="st1" d="M635.04,955.75c0.11-0.38,0.39-0.63,0.65-0.89c3.94-3.95,7.89-7.89,11.84-11.84
				c0.26-0.26,0.56-0.74,0.88-0.62c0.38,0.13,0.16,0.67,0.16,1.02c0.02,3.18,0.01,6.36,0.01,9.54c0,2.01-0.9,2.89-2.93,2.89
				c-3.26,0-6.52,0-9.79,0C635.6,955.85,635.33,955.93,635.04,955.75z"/>
			<path class="st1" d="M667.24,962.2c1.62,2.58,3.76,3.85,6.72,3.5c0.71-0.08,0.95,0.54,1.35,0.88c0.3,0.25-0.12,0.57-0.26,0.83
				c-0.85,1.5-1.71,2.99-2.58,4.48c-0.12,0.2-0.2,0.47-0.51,0.45c-0.31-0.03-0.34-0.31-0.42-0.53c-0.5-1.36-1.02-2.72-1.47-4.1
				c-0.16-0.5-0.41-0.61-0.88-0.51c-1.32,0.26-2.65,0.5-3.97,0.72c-0.33,0.06-0.73,0.27-0.98-0.07c-0.23-0.32,0.1-0.6,0.26-0.87
				C665.38,965.41,666.28,963.86,667.24,962.2z"/>
			<path class="st1" d="M690.9,962.23c1.02,1.76,2.03,3.44,2.96,5.16c0.35,0.64-0.2,0.65-0.62,0.57c-1.35-0.23-2.71-0.46-4.05-0.75
				c-0.67-0.14-1.01-0.01-1.23,0.7c-0.39,1.29-0.88,2.54-1.35,3.81c-0.09,0.24-0.1,0.57-0.45,0.61c-0.35,0.04-0.42-0.29-0.55-0.51
				c-0.84-1.44-1.68-2.89-2.5-4.34c-0.16-0.28-0.6-0.63-0.31-0.9c0.42-0.38,0.71-0.99,1.51-0.88c2.19,0.3,4.03-0.47,5.52-2.08
				C690.2,963.23,690.49,962.77,690.9,962.23z"/>
			<path class="st1" d="M683.91,949.13c0,0.51-0.2,0.85-0.5,1.15c-1.39,1.39-2.78,2.79-4.18,4.17c-0.72,0.71-1.39,0.7-2.12,0
				c-0.68-0.66-1.35-1.32-2-2c-0.61-0.63-0.64-1.41-0.1-1.94c0.53-0.53,1.29-0.48,1.94,0.12c0.41,0.38,0.78,1.13,1.22,1.07
				c0.48-0.07,0.87-0.73,1.3-1.15c0.75-0.74,1.48-1.5,2.24-2.22c0.4-0.38,0.88-0.5,1.42-0.26
				C683.62,948.29,683.85,948.69,683.91,949.13z"/>
		</g>
	</g>
	<g>
		<path class="st6" d="M1128.17,1132.75H878.71c-10.95,0-19.83-8.88-19.83-19.83V841.17c0-10.95,8.88-19.83,19.83-19.83h249.47
			c10.95,0,19.83,8.88,19.83,19.83v271.76C1148,1123.88,1139.12,1132.75,1128.17,1132.75z"/>
		<g>
			<text transform="matrix(1 0 0 1 974.113 1096.1766)" class="st1 st3 st7">$0</text>
		</g>
		<text transform="matrix(1 0 0 1 883.2312 877.3124)" class="st2 st3 st8">Investment Properties</text>
		<path class="st9" d="M1003.44,1039.5L1003.44,1039.5c-34.49,0-62.45-27.96-62.45-62.45v0c0-34.49,27.96-62.45,62.45-62.45h0
			c34.49,0,62.45,27.96,62.45,62.45v0C1065.89,1011.54,1037.93,1039.5,1003.44,1039.5z"/>
		<g>
			<path class="st1" d="M978.46,999.57c0-3.88,0.01-7.76-0.01-11.63c0-0.52,0.17-0.78,0.59-1.04c7.96-4.88,15.91-9.77,23.85-14.67
				c0.4-0.25,0.69-0.27,1.11-0.01c7.94,4.91,15.89,9.8,23.85,14.68c0.46,0.28,0.6,0.6,0.6,1.12c-0.02,7.73-0.02,15.46,0.01,23.19
				c0,0.68-0.14,0.86-0.85,0.86c-5.28-0.03-10.57-0.04-15.85,0c-0.73,0.01-0.83-0.23-0.83-0.88c0.02-5.78,0.01-11.56,0.01-17.33
				c0-1.44-0.36-1.8-1.79-1.8c-3.85,0-7.7,0-11.56,0c-1.23,0-1.65,0.41-1.65,1.63c0,5.86-0.01,11.71,0.01,17.57
				c0,0.66-0.17,0.81-0.82,0.81c-5.31-0.03-10.62-0.02-15.93,0c-0.6,0-0.78-0.13-0.78-0.76
				C978.47,1007.37,978.46,1003.47,978.46,999.57z"/>
			<path class="st1" d="M968.46,977.22c0-2.4,0.01-4.66-0.01-6.92c-0.01-0.5,0.35-0.59,0.64-0.77c4.87-3,9.74-6,14.61-9
				c5.91-3.64,11.83-7.26,17.73-10.92c1.37-0.85,2.64-0.85,4.01-0.01c3.1,1.9,6.24,3.74,9.35,5.64c0.47,0.29,0.75,0.33,1.17-0.11
				c1.98-2.03,3.99-4.04,6.02-6.02c0.43-0.42,0.4-0.64-0.01-1.04c-1.5-1.45-2.95-2.93-4.43-4.41c-0.3-0.3-0.62-0.59-0.42-1.08
				c0.21-0.51,0.64-0.53,1.1-0.53c4.84,0,9.68,0.01,14.52-0.01c0.56,0,0.69,0.16,0.68,0.7c-0.02,4.84-0.01,9.68-0.01,14.52
				c0,0.46-0.03,0.9-0.54,1.09c-0.49,0.19-0.78-0.14-1.08-0.43c-1.46-1.45-2.93-2.89-4.35-4.37c-0.46-0.49-0.71-0.43-1.15,0.02
				c-2.57,2.62-5.18,5.2-7.77,7.79c-1.55,1.55-2.8,1.7-4.67,0.57c-3.21-1.93-6.43-3.84-9.62-5.79c-0.56-0.34-0.96-0.35-1.53,0
				c-11.15,6.89-22.31,13.75-33.47,20.62C969.03,976.9,968.81,977.02,968.46,977.22z"/>
			<path class="st1" d="M1038.43,984.44c-0.01,2.07-2.11,3.22-3.84,2.19c-2.08-1.23-4.12-2.53-6.18-3.79
				c-8.08-4.98-16.17-9.94-24.24-14.94c-0.54-0.34-0.91-0.31-1.44,0.02c-9.98,6.16-19.97,12.3-29.95,18.46
				c-0.72,0.45-1.45,0.83-2.34,0.6c-1.07-0.27-1.74-0.96-1.92-2.03c-0.18-1.11,0.26-1.99,1.23-2.58c2.63-1.62,5.27-3.24,7.91-4.87
				c8.06-4.96,16.13-9.91,24.18-14.89c1.1-0.68,2.11-0.71,3.21-0.04c10.67,6.58,21.34,13.15,32.02,19.71
				C1037.91,982.82,1038.4,983.55,1038.43,984.44z"/>
		</g>
	</g>
	<g>
		<path class="st6" d="M1806.41,1132.75h-249.47c-10.95,0-19.83-8.88-19.83-19.83V841.17c0-10.95,8.88-19.83,19.83-19.83h249.47
			c10.95,0,19.83,8.88,19.83,19.83v271.76C1826.24,1123.88,1817.36,1132.75,1806.41,1132.75z"/>
		<g>
			<text transform="matrix(1 0 0 1 1600.0295 1096.1766)" class="st1 st3 st7">$98,456</text>
		</g>
		<text transform="matrix(1 0 0 1 1599.7034 865.4606)"><tspan x="0" y="0" class="st2 st3 st8">Account Based </tspan><tspan x="33.51" y="29.08" class="st2 st3 st8">Pensions</tspan></text>
		<path class="st9" d="M1681.68,1039.5L1681.68,1039.5c-34.49,0-62.45-27.96-62.45-62.45v0c0-34.49,27.96-62.45,62.45-62.45h0
			c34.49,0,62.45,27.96,62.45,62.45v0C1744.13,1011.54,1716.17,1039.5,1681.68,1039.5z"/>
		<g>
			<path class="st1" d="M1682.91,1012.04c-1.14-0.22-2.31-0.16-3.47-0.26c-6.58-0.52-13.06-1.58-19.29-3.85
				c-3.07-1.12-5.99-2.54-8.51-4.68c-0.66-0.56-1-1.25-0.81-2.11c0.34-1.55,2.11-2.13,3.38-1.07c1.7,1.42,3.61,2.45,5.61,3.35
				c0.52,0.23,0.74,0.22,0.94-0.4c1.75-5.48,3.54-10.95,5.3-16.43c0.17-0.53,0.37-0.69,0.94-0.63c5.19,0.52,10.38,1,15.57,1.49
				c5.35,0.51,10.7,1.02,16.05,1.51c0.47,0.04,0.64,0.21,0.71,0.69c0.88,5.39,1.81,10.77,2.7,16.16c0.08,0.48,0.25,0.53,0.68,0.42
				c2.3-0.58,4.55-1.29,6.7-2.31c1.25-0.59,2.46-0.22,2.97,0.88c0.51,1.1,0.01,2.25-1.24,2.84c-3.53,1.67-7.26,2.63-11.09,3.29
				c-3.19,0.55-6.4,0.88-9.64,1c-0.23,0.01-0.46-0.02-0.67,0.1C1687.47,1012.04,1685.19,1012.04,1682.91,1012.04z M1686.4,1007.94
				c1.78,0.05,3.55-0.06,5.33-0.16c1.98-0.11,3.95-0.31,5.91-0.59c0.36-0.05,0.51-0.15,0.44-0.55c-0.66-3.56-1.3-7.11-1.94-10.67
				c-0.06-0.35-0.21-0.49-0.57-0.51c-0.79-0.05-1.59-0.15-2.38-0.22c-4.33-0.39-8.66-0.78-12.99-1.18
				c-3.72-0.34-7.44-0.66-11.15-1.02c-0.6-0.06-0.81,0.15-0.99,0.69c-1.13,3.55-2.28,7.1-3.45,10.64c-0.17,0.51-0.13,0.71,0.46,0.87
				C1672.04,1007.15,1679.18,1007.87,1686.4,1007.94z"/>
			<path class="st1" d="M1661.1,958.55c-0.04-9.03,7.32-16.46,16.37-16.51c9.12-0.05,16.53,7.3,16.57,16.44
				c0.04,9.06-7.36,16.49-16.43,16.51C1668.53,975.01,1661.14,967.65,1661.1,958.55z M1682.69,961.4c0-2.2-1.08-3.83-2.94-4.59
				c-0.78-0.32-1.6-0.54-2.38-0.84c-0.48-0.19-0.94-0.46-0.78-1.1c0.16-0.65,0.7-0.7,1.25-0.67c0.45,0.02,0.81,0.27,1.18,0.49
				c0.85,0.49,1.8,0.32,2.4-0.41c0.58-0.71,0.54-1.63-0.11-2.37c-0.33-0.39-0.75-0.67-1.22-0.85c-0.34-0.13-0.47-0.31-0.48-0.7
				c-0.01-1.29-0.74-2.08-1.85-2.08c-1.08,0-1.78,0.77-1.83,2.03c-0.01,0.26-0.02,0.46-0.32,0.59c-1.81,0.76-2.7,2.19-2.77,4.1
				c-0.07,1.92,0.98,3.19,2.59,4.09c0.86,0.48,1.81,0.72,2.72,1.08c0.89,0.35,1.1,1.15,0.52,1.92c-0.38,0.5-0.9,0.66-1.5,0.66
				c-0.76,0-1.39-0.37-2.04-0.71c-0.89-0.46-1.95-0.15-2.44,0.69c-0.48,0.81-0.25,1.86,0.54,2.43c0.57,0.41,1.19,0.79,1.89,0.93
				c0.61,0.12,0.84,0.34,0.82,1.01c-0.02,1.19,1,1.97,2.16,1.77c0.85-0.14,1.53-0.85,1.47-1.78c-0.06-0.87,0.27-1.3,0.97-1.77
				C1681.99,964.35,1682.65,962.9,1682.69,961.4z"/>
			<path class="st1" d="M1698.66,984.86c-6.66-0.64-13.33-1.28-19.99-1.91c-4.1-0.39-8.21-0.77-12.31-1.14
				c-0.99-0.09-1.75-0.47-2.09-1.46c-0.26-0.77-0.01-1.63,0.61-2.17c0.48-0.42,1.04-0.53,1.66-0.47c2.2,0.2,4.4,0.4,6.6,0.61
				c4.15,0.39,8.3,0.79,12.44,1.18c3.2,0.3,6.39,0.59,9.59,0.93c0.66,0.07,0.87-0.05,0.94-0.76c0.54-5.48,1.14-10.96,1.71-16.44
				c0.29-2.72,0.56-5.44,0.86-8.15c0.13-1.15,0.83-1.88,1.83-1.98c0.99-0.1,1.87,0.46,2.18,1.39c0.17,0.52,0.08,1.04,0.03,1.56
				c-0.91,8.67-1.82,17.34-2.73,26.02c-0.08,0.72-0.21,1.45-0.23,2.17c-0.01,0.62-0.21,0.84-0.81,0.65
				c-0.09-0.03-0.18-0.02-0.27-0.03C1698.66,984.86,1698.66,984.86,1698.66,984.86z"/>
		</g>
	</g>
	<g>
		<path class="st6" d="M2145.53,1132.75h-249.47c-10.95,0-19.83-8.88-19.83-19.83V841.17c0-10.95,8.88-19.83,19.83-19.83h249.47
			c10.95,0,19.83,8.88,19.83,19.83v271.76C2165.36,1123.88,2156.48,1132.75,2145.53,1132.75z"/>
		<g>
			<text transform="matrix(1 0 0 1 1991.4735 1096.1766)" class="st1 st3 st7">$0</text>
		</g>
		<text transform="matrix(1 0 0 1 1908.3231 877.3124)" class="st2 st3 st8">Annuity Investments</text>
		<path class="st9" d="M2020.8,1039.5L2020.8,1039.5c-34.49,0-62.45-27.96-62.45-62.45v0c0-34.49,27.96-62.45,62.45-62.45h0
			c34.49,0,62.45,27.96,62.45,62.45v0C2083.25,1011.54,2055.29,1039.5,2020.8,1039.5z"/>
		<g>
			<path class="st1" d="M2055.8,983.08c0-2.87-5.67-4.03-10.48-4.5l1.18-13.64c1.82-0.19,3.25-1.71,3.25-3.58v-8.45
				c0-1.33-1.09-2.41-2.41-2.41h-2.87c1.01-0.88,1.67-2.17,1.67-3.62c0-2.67-2.16-4.83-4.83-4.83s-4.83,2.16-4.83,4.83
				c0,1.45,0.65,2.74,1.67,3.62h-2.87c-1.33,0-2.41,1.09-2.41,2.41v8.45c0,1.87,1.42,3.39,3.25,3.58l1.16,13.34
				c-1.65,0.05-4.25,0.18-6.82,0.53v-11.42c0-0.66,0.54-1.21,1.21-1.21s1.21,0.54,1.21,1.21v1.21h2.41v-1.21
				c0-1.99-1.63-3.62-3.62-3.62c-1.99,0-3.62,1.63-3.62,3.62v11.84c-3.28,0.69-6.03,1.86-6.03,3.85c0,1,0.69,1.79,1.79,2.41
				c-1.18,0.68-1.79,1.47-1.79,2.41c0,0.94,0.59,1.74,1.79,2.41c-1.18,0.68-1.79,1.47-1.79,2.41c0,0.94,0.59,1.74,1.79,2.41
				c-1.18,0.68-1.79,1.47-1.79,2.41c0,0.94,0.59,1.74,1.79,2.41c-1.18,0.68-1.79,1.47-1.79,2.41c0,0.94,0.59,1.74,1.79,2.41
				c-1.18,0.68-1.79,1.47-1.79,2.41c0,4.69,15.17,4.83,16.9,4.83c1.73,0,16.9-0.13,16.9-4.83c0-0.94-0.59-1.74-1.79-2.41
				c1.18-0.68,1.79-1.47,1.79-2.41c0-0.94-0.59-1.74-1.79-2.41c1.18-0.68,1.79-1.47,1.79-2.41c0-0.94-0.59-1.74-1.79-2.41
				c1.18-0.68,1.79-1.47,1.79-2.41c0-0.94-0.59-1.74-1.79-2.41c1.18-0.68,1.79-1.47,1.79-2.41c0-0.94-0.59-1.74-1.79-2.41
				c1.1-0.63,1.79-1.41,1.79-2.41H2055.8z M2040.11,972.22c0-0.66,0.54-1.21,1.21-1.21s1.21,0.54,1.21,1.21v6.14
				c-0.94-0.05-1.77-0.08-2.41-0.1V972.22z M2050.3,1003.63c-2.9,0.75-7.05,1.17-11.39,1.17c-4.34,0-8.5-0.42-11.39-1.17
				c-1.89-0.48-2.73-0.99-3.01-1.24c0.27-0.24,1.04-0.71,2.74-1.17c3.07,0.74,7.28,1.17,11.67,1.17c4.39,0,8.61-0.42,11.67-1.17
				c1.69,0.46,2.47,0.93,2.74,1.17c-0.28,0.25-1.11,0.76-3.01,1.24H2050.3z M2050.3,993.98c-2.9,0.75-7.05,1.17-11.39,1.17
				c-4.34,0-8.5-0.42-11.39-1.17c-1.89-0.48-2.73-0.99-3.01-1.24c0.27-0.24,1.04-0.71,2.74-1.17c3.07,0.74,7.28,1.17,11.67,1.17
				c4.39,0,8.61-0.42,11.67-1.17c1.69,0.46,2.47,0.93,2.74,1.17c-0.28,0.25-1.11,0.76-3.01,1.24H2050.3z M2038.9,985.49
				c-8.36,0-13.55-1.48-14.41-2.41c0.39-0.41,1.59-0.92,3.55-1.38v1.38h2.41v-1.82c1.93-0.3,4.28-0.52,7.04-0.57l0.21,2.4
				c1.33,0,2.4-1.07,2.41-2.4c0.84,0.01,1.64,0.05,2.41,0.08v2.32h0.21c1.22,0,2.23-0.91,2.39-2.11c4.69,0.48,7.58,1.44,8.21,2.11
				c-0.87,0.93-6.06,2.41-14.41,2.41L2038.9,985.49z"/>
			<path class="st1" d="M2019.59,992.73c0-4.69-15.17-4.83-16.9-4.83c-1.73,0-16.9,0.13-16.9,4.83c0,1,0.69,1.79,1.79,2.41
				c-1.18,0.68-1.79,1.47-1.79,2.41c0,0.94,0.59,1.74,1.79,2.41c-1.18,0.68-1.79,1.47-1.79,2.41c0,0.94,0.59,1.74,1.79,2.41
				c-1.18,0.68-1.79,1.47-1.79,2.41c0,4.69,15.17,4.83,16.9,4.83c1.73,0,16.9-0.13,16.9-4.83c0-0.94-0.59-1.74-1.79-2.41
				c1.18-0.68,1.79-1.47,1.79-2.41c0-0.94-0.59-1.74-1.79-2.41c1.18-0.68,1.79-1.47,1.79-2.41c0-0.94-0.59-1.74-1.79-2.41
				C2018.91,994.52,2019.59,993.74,2019.59,992.73z M2014.09,1003.63c-2.9,0.75-7.05,1.17-11.39,1.17c-4.34,0-8.5-0.42-11.39-1.17
				c-1.89-0.48-2.73-0.99-3.01-1.24c0.27-0.24,1.04-0.71,2.74-1.17c3.07,0.74,7.28,1.17,11.67,1.17c4.39,0,8.61-0.42,11.67-1.17
				c1.69,0.46,2.47,0.93,2.74,1.17c-0.28,0.25-1.11,0.76-3.01,1.24H2014.09z M2002.7,995.15c-8.36,0-13.55-1.48-14.41-2.41
				c0.87-0.93,6.06-2.41,14.41-2.41c8.35,0,13.55,1.48,14.41,2.41C2016.24,993.66,2011.05,995.15,2002.7,995.15z"/>
			<path class="st1" d="M2009.96,975.86c0,0-0.04-0.04-0.04,0c-0.22,3.22-2.24,5.77-4.78,6c-0.04,0-0.04,0.02,0,0.04
				c2.53,0.22,4.56,2.78,4.78,6c0,0.04,0.04,0.04,0.04,0c0.22-3.22,2.24-5.77,4.78-6c0.04,0,0.04-0.02,0-0.04
				C2012.21,981.64,2010.18,979.08,2009.96,975.86z"/>
			<path class="st1" d="M1994.27,973.45c0,0-0.04-0.04-0.04,0c-0.18,2.55-1.69,4.56-3.57,4.78c-0.04,0-0.04,0.04,0,0.04
				c1.88,0.22,3.39,2.23,3.57,4.78c0,0.04,0.04,0.04,0.04,0c0.18-2.55,1.69-4.56,3.57-4.78c0.04,0,0.04-0.04,0-0.04
				C1995.96,978.01,1994.45,975.99,1994.27,973.45z"/>
		</g>
	</g>
	<g>
		<path class="st6" d="M449.93,1494.17H200.47c-10.95,0-19.83-8.88-19.83-19.83v-271.76c0-10.95,8.88-19.83,19.83-19.83h249.47
			c10.95,0,19.83,8.88,19.83,19.83v271.76C469.76,1485.29,460.88,1494.17,449.93,1494.17z"/>
		<g>
			<text transform="matrix(1 0 0 1 295.8723 1457.5911)" class="st1 st3 st7">$0</text>
		</g>
		<text transform="matrix(1 0 0 1 228.6682 1238.7268)" class="st2 st3 st8">Trading Company</text>
		<path class="st9" d="M325.2,1400.91L325.2,1400.91c-34.49,0-62.45-27.96-62.45-62.45v0c0-34.49,27.96-62.45,62.45-62.45h0
			c34.49,0,62.45,27.96,62.45,62.45v0C387.65,1372.95,359.69,1400.91,325.2,1400.91z"/>
		<g>
			<path class="st11" d="M297.95,1328.49l-8.14,4.28c-0.25,0.13-0.4,0.38-0.4,0.66v32.42c0,0.41,0.33,0.75,0.75,0.75h7.79V1328.49z
				 M345.44,1342.38c8.58,0,15.54,6.96,15.54,15.54s-6.96,15.54-15.54,15.54c-8.58,0-15.54-6.96-15.54-15.54
				S336.86,1342.38,345.44,1342.38z M334.66,1319.99c-0.38,0.53-1.13,0.65-1.66,0.27c-0.53-0.38-0.65-1.13-0.27-1.66l5.93-8.27
				c0.6-0.83,1.88-0.56,2.12,0.41l1.6,6.49l0.74-3.56c0.23-1.14,1.79-1.29,2.25-0.24l0.62,1.27l0.81-5.58
				c0.18-1.24,1.92-1.39,2.31-0.21l0.84,2.24l3.59-4.1c-0.61,0.02-1.14-0.42-1.22-1.03c-0.08-0.65,0.37-1.25,1.03-1.33l3.01-0.39
				c0.65-0.08,1.25,0.37,1.33,1.03c0.09,0.67-0.15,2.48-0.2,3.26c-0.04,0.66-0.61,1.15-1.27,1.11c-0.52-0.03-0.93-0.39-1.07-0.86
				l-4.68,5.35c-0.52,0.65-1.56,0.58-1.97-0.16l-0.7,4.84c-0.16,1.14-1.73,1.41-2.24,0.35l-0.81-1.65l-1.09,5.24
				c-0.2,1.27-2.02,1.36-2.33,0.1l-2.24-9.08L334.66,1319.99z M353.32,1315.25c0.48,3.41-0.65,6.86-3.1,9.31
				c-6.81,6.81-18.71,2.09-18.71-7.75c0-7.12,6.78-12.41,13.71-10.61c0.91,0.24,1.77,0.58,2.57,1.03c0.57,0.32,1.3,0.11,1.62-0.46
				c0.32-0.57,0.11-1.3-0.46-1.62c-0.97-0.54-2.02-0.97-3.13-1.25c-8.46-2.19-16.7,4.23-16.7,12.92c0,11.97,14.49,17.73,22.78,9.44
				c2.99-2.99,4.36-7.16,3.77-11.32c-0.09-0.65-0.69-1.11-1.34-1.02C353.69,1314,353.23,1314.6,353.32,1315.25z M351.12,1352.74
				c-0.8-1.91-2.33-3.02-4.02-3.45c-0.15-0.04-0.31-0.07-0.47-0.1v-1.11c0-0.66-0.53-1.19-1.19-1.19c-0.66,0-1.19,0.53-1.19,1.19
				v1.12l-0.09,0.02c-2.5,0.5-4.5,2.41-4.37,5.09c0.08,1.66,0.91,2.77,2.06,3.52c2.22,1.45,7.32,0.96,7.39,4.1
				c0.04,1.58-1.74,2.22-3.04,2.38c-1.89,0.23-4.08-0.47-4.59-2.51c-0.16-0.64-0.8-1.03-1.44-0.87c-0.64,0.16-1.03,0.8-0.87,1.44
				c0.6,2.4,2.59,3.88,4.95,4.26v1.11c0,0.66,0.53,1.19,1.19,1.19c0.66,0,1.19-0.53,1.19-1.19v-1.09c2.55-0.36,5.05-1.92,4.98-4.78
				c-0.04-1.75-0.89-3.12-2.38-4.02c-2.17-1.31-6.94-1-7.07-3.66c-0.07-1.48,1.14-2.39,2.46-2.65c1.77-0.36,3.57,0.38,4.29,2.1
				c0.25,0.61,0.95,0.89,1.56,0.64C351.09,1354.04,351.37,1353.34,351.12,1352.74L351.12,1352.74z M301.08,1315.35h24.2
				c0.41,0,0.75,0.33,0.75,0.75v6.44h-25.69v-6.44C300.34,1315.68,300.67,1315.35,301.08,1315.35z M326.03,1324.92v41.67h-8.5
				v-13.85c0-0.41-0.33-0.75-0.75-0.75h-7.16c-0.41,0-0.75,0.33-0.75,0.75v13.85h-8.54v-41.67H326.03z M304.97,1327.74
				c-0.41,0-0.75,0.33-0.75,0.75v4.93c0,0.41,0.33,0.75,0.75,0.75h16.43c0.41,0,0.75-0.33,0.75-0.75v-4.93
				c0-0.41-0.33-0.75-0.75-0.75H304.97z M303.03,1338.41v4.07c0,0.66,0.53,1.19,1.19,1.19s1.19-0.53,1.19-1.19v-4.07
				c0-0.66-0.53-1.19-1.19-1.19S303.03,1337.76,303.03,1338.41z M320.95,1338.41v4.07c0,0.66,0.53,1.19,1.19,1.19
				s1.19-0.53,1.19-1.19v-4.07c0-0.66-0.53-1.19-1.19-1.19S320.95,1337.76,320.95,1338.41z M307.51,1338.41v4.07
				c0,0.66,0.53,1.19,1.19,1.19s1.19-0.53,1.19-1.19v-4.07c0-0.66-0.53-1.19-1.19-1.19S307.51,1337.76,307.51,1338.41z
				 M311.99,1338.41v4.07c0,0.66,0.53,1.19,1.19,1.19c0.66,0,1.19-0.53,1.19-1.19v-4.07c0-0.66-0.53-1.19-1.19-1.19
				C312.53,1337.22,311.99,1337.76,311.99,1338.41z M316.47,1338.41v4.07c0,0.66,0.53,1.19,1.19,1.19c0.66,0,1.19-0.53,1.19-1.19
				v-4.07c0-0.66-0.53-1.19-1.19-1.19C317.01,1337.22,316.47,1337.76,316.47,1338.41z M320.37,1312.96v-0.9
				c0-0.41-0.33-0.75-0.75-0.75h-12.88c-0.41,0-0.75,0.33-0.75,0.75v0.9H320.37z M328.42,1328.49v23.81
				c1.45-4.38,4.54-8.02,8.54-10.17v-8.7c0-0.28-0.15-0.53-0.4-0.66L328.42,1328.49z M329.75,1366.59h-1.33v-3.05
				C328.77,1364.6,329.22,1365.62,329.75,1366.59z"/>
		</g>
	</g>
	<g>
		<path class="st6" d="M789.05,1494.17H539.59c-10.95,0-19.83-8.88-19.83-19.83v-271.76c0-10.95,8.88-19.83,19.83-19.83h249.47
			c10.95,0,19.83,8.88,19.83,19.83v271.76C808.88,1485.29,800,1494.17,789.05,1494.17z"/>
		<g>
			<text transform="matrix(1 0 0 1 634.9924 1457.5911)" class="st1 st3 st7">$0</text>
		</g>
		<text transform="matrix(1 0 0 1 586.8743 1238.7268)" class="st2 st3 st8">Business Trust</text>
		<path class="st9" d="M664.32,1400.91L664.32,1400.91c-34.49,0-62.45-27.96-62.45-62.45v0c0-34.49,27.96-62.45,62.45-62.45h0
			c34.49,0,62.45,27.96,62.45,62.45v0C726.77,1372.95,698.81,1400.91,664.32,1400.91z"/>
		<g>
			<path class="st11" d="M650.89,1359.31l-2.22,3.85c-0.56,0.98-1.82,1.31-2.79,0.75c-0.97-0.56-1.31-1.82-0.75-2.79l2.22-3.85
				c0.56-0.98,1.82-1.31,2.79-0.75C651.11,1357.09,651.45,1358.34,650.89,1359.31L650.89,1359.31z M655.49,1359.61
				c-0.32-0.18-0.67-0.27-1.02-0.27c-0.71,0-1.4,0.37-1.77,1.02l-3.6,6.24c-0.56,0.98-0.23,2.23,0.75,2.79
				c0.98,0.56,2.23,0.23,2.79-0.75l3.6-6.24C656.81,1361.43,656.47,1360.18,655.49,1359.61L655.49,1359.61z M641.22,1334.16
				c0.08-0.07,0.07-0.19-0.02-0.24l-3.82-2.12c-0.28-0.15-0.58-0.13-0.82,0.07c-5.65,4.45-8.8,12.33-7.49,18.71
				c0.05,0.26,0.2,0.43,0.44,0.54l3,1.27c0.1,0.04,0.2-0.02,0.2-0.13C632.77,1345.05,635.72,1338.79,641.22,1334.16L641.22,1334.16z
				 M661.8,1363.95c-0.14-0.53-0.48-0.97-0.95-1.24c-0.32-0.18-0.67-0.27-1.02-0.27c-0.71,0-1.39,0.37-1.77,1.02l-3,5.2
				c-0.52,0.97-0.18,2.19,0.78,2.74c0.47,0.27,1.02,0.34,1.55,0.2c0.53-0.14,0.97-0.48,1.24-0.95l2.97-5.15
				C661.87,1365.03,661.94,1364.48,661.8,1363.95L661.8,1363.95z M683.6,1355.58l-9.58-5.53c-1.87-1.08-3.62-2.1-5.85-2.1
				c-2,0.01-3.8,0.89-5.55,1.75c-2.76,1.35-5.88,2.87-9.26,0.08c-0.96-0.8-1.51-1.98-1.43-3.11c0.07-1.03,0.64-1.93,1.61-2.53
				l7.88-4.91c-2.3-1.14-4.41-0.96-6.8-0.75c-3.15,0.27-6.73,0.58-11.35-2.01l-0.9-0.51c-4.83,4.16-7.36,9.5-7.54,15.86l7.62,3.93
				c0.11,0.05,0.2,0.13,0.29,0.22l1.83,1.97l0.99-1.71c1.14-1.98,3.68-2.66,5.66-1.51c1.06,0.61,1.75,1.63,1.98,2.75
				c1.08-0.36,2.31-0.27,3.37,0.34c1.06,0.61,1.75,1.63,1.98,2.75c1.08-0.36,2.31-0.27,3.37,0.34c0.96,0.55,1.64,1.44,1.93,2.51
				c0.02,0.08,0.04,0.16,0.06,0.24c1.08-0.36,2.31-0.27,3.37,0.34c0.79,0.45,1.39,1.14,1.74,1.97l4.62,2.67
				c0.9,0.52,2.06,0.21,2.58-0.69c0.51-0.88,0.22-2.02-0.65-2.55l-5.66-3.27c-0.5-0.29-0.67-0.93-0.38-1.43
				c0.29-0.5,0.93-0.67,1.43-0.38c2.19,1.26,4.37,2.52,6.56,3.79c0.99,0.57,2.27,0.23,2.84-0.76c0.57-0.98,0.23-2.25-0.74-2.83
				l-5.55-3.2c-0.5-0.29-0.67-0.93-0.38-1.43c0.29-0.5,0.93-0.67,1.43-0.38c2.16,1.25,4.32,2.49,6.48,3.74
				c0.99,0.57,2.27,0.23,2.84-0.76C685.04,1357.35,684.55,1356.27,683.6,1355.58L683.6,1355.58z M692.08,1331.86
				c-0.14-0.11-0.3-0.17-0.46-0.17c-0.12,0-0.25,0.03-0.37,0.1l-3.82,2.12c-0.05,0.03-0.07,0.05-0.08,0.12
				c-0.01,0.06,0.01,0.09,0.05,0.13c5.5,4.63,8.45,10.89,8.52,18.09c0,0.11,0.1,0.18,0.2,0.13l3-1.27c0.24-0.1,0.39-0.28,0.44-0.54
				C700.88,1344.18,697.73,1336.31,692.08,1331.86L692.08,1331.86z M686.27,1335.94l-1.88,1.04c-3.09,1.72-6.54,2.03-9.97,0.9
				c-3.04-1-6.22-0.42-9.74,1.77l-10.05,6.26c-0.4,0.25-0.6,0.54-0.62,0.89c-0.03,0.46,0.24,0.99,0.68,1.35
				c2.23,1.84,4.02,1.11,7-0.35c1.87-0.91,3.99-1.95,6.46-1.96c2.7,0,4.65,1.07,6.92,2.38l9.63,5.56c0.49,0.27,1.13,0.94,1.43,1.42
				l7.7-3.56C693.61,1345.35,691.07,1340.06,686.27,1335.94L686.27,1335.94z M670.85,1369.44l-1.63-0.94
				c-0.09,0.39-0.24,0.78-0.45,1.14l-1.11,1.92l0.88,0.49c1.53,0.88,2.53,0.4,2.96-0.34
				C671.89,1371.04,671.84,1370.05,670.85,1369.44L670.85,1369.44z M666.21,1365.8c-0.97-0.56-2.22-0.23-2.79,0.75l-2.22,3.85
				c-0.56,0.97-0.23,2.23,0.75,2.79c0.98,0.56,2.23,0.23,2.79-0.75l2.22-3.85C667.52,1367.62,667.18,1366.36,666.21,1365.8
				L666.21,1365.8z M649.32,1318.46c0-8.28,6.71-15,15-15s15,6.71,15,15c0,8.28-6.71,15-15,15S649.32,1326.74,649.32,1318.46
				L649.32,1318.46z M655.53,1318.53l3.5,6.07c0.35,0.61,0.91,0.98,1.61,1.07c0.7,0.09,1.33-0.12,1.83-0.62l10.31-10.31
				c0.8-0.8,0.8-2.11,0-2.91c-0.8-0.8-2.11-0.8-2.91,0l-8.53,8.53l-2.24-3.89c-0.57-0.98-1.83-1.32-2.81-0.75
				C655.3,1316.28,654.96,1317.55,655.53,1318.53L655.53,1318.53z M685.96,1314.49c0.29-2.91,2.59-5.22,5.5-5.5
				c-2.91-0.29-5.22-2.59-5.5-5.5c-0.29,2.91-2.59,5.22-5.5,5.5C683.36,1309.27,685.67,1311.57,685.96,1314.49z M641.84,1327.17
				c0.24-2.38,2.12-4.27,4.5-4.5c-2.38-0.24-4.27-2.12-4.5-4.5c-0.24,2.38-2.12,4.27-4.5,4.5
				C639.72,1322.9,641.61,1324.78,641.84,1327.17z"/>
		</g>
	</g>
	<g>
		<path class="st6" d="M1128.17,1494.17H878.71c-10.95,0-19.83-8.88-19.83-19.83v-271.76c0-10.95,8.88-19.83,19.83-19.83h249.47
			c10.95,0,19.83,8.88,19.83,19.83v271.76C1148,1485.29,1139.12,1494.17,1128.17,1494.17z"/>
		<g>
			<text transform="matrix(1 0 0 1 974.113 1457.5911)" class="st1 st3 st7">$0</text>
		</g>
		<text transform="matrix(1 0 0 1 915.0408 1238.7268)" class="st2 st3 st8">SMSF Net Assets</text>
		<path class="st9" d="M1003.44,1400.91L1003.44,1400.91c-34.49,0-62.45-27.96-62.45-62.45v0c0-34.49,27.96-62.45,62.45-62.45h0
			c34.49,0,62.45,27.96,62.45,62.45v0C1065.89,1372.95,1037.93,1400.91,1003.44,1400.91z"/>
		<g>
			<g id="_x31_4_Assets_00000075164118261414973430000016373780873347316104_">
				<g>
					<g>
						<g>
							<path class="st1" d="M1019.46,1311.12c-0.11-0.06-0.25-0.07-0.36,0l-1.06,0.61v17.5h4.87c1.4,0,2.54,1.14,2.54,2.54v7.17
								h8.15c0.1,0,0.21,0,0.31,0.01v-19.49L1019.46,1311.12z M1031.73,1325.24c0,1.4-1.14,2.54-2.54,2.54h-2.9
								c-1.4,0-2.54-1.14-2.54-2.54v-2.9c0-1.4,1.14-2.54,2.54-2.54h2.9c1.4,0,2.54,1.14,2.54,2.54V1325.24z"/>
							<path class="st1" d="M1037.83,1317.33c0,0.19-0.05,0.37-0.15,0.54c-0.3,0.52-0.97,0.7-1.49,0.4l-0.64-0.37
								c-0.01-0.01-0.02-0.01-0.03-0.02l-14.98-8.65c-0.77-0.44-1.73-0.45-2.51-0.02v-2.52l0.33-0.19c0.56-0.32,1.25-0.32,1.82,0
								l17.1,9.87C1037.62,1316.58,1037.83,1316.94,1037.83,1317.33z"/>
							<path class="st1" d="M1023.27,1338.94h-5.23v-7.53h4.87c0.2,0,0.36,0.16,0.36,0.36V1338.94z"/>
							<path class="st1" d="M1029.55,1322.33v2.9c0,0.2-0.16,0.36-0.36,0.36h-2.9c-0.2,0-0.36-0.16-0.36-0.36v-2.9
								c0-0.2,0.16-0.36,0.36-0.36h2.9C1029.39,1321.97,1029.55,1322.13,1029.55,1322.33z"/>
						</g>
						<path class="st1" d="M1012.59,1301.91h-10.17c-1.8,0-3.27,1.47-3.27,3.27v14.94c1.61,3.09,2.42,6.32,2.42,9.62
							c0,1.47-0.26,2.84-0.77,4.06c-0.21,0.5-0.1,1.07,0.27,1.46c0.84,0.86,1.3,1.84,1.3,2.77c0,0.33-0.05,0.64-0.16,0.92h13.64
							v-33.77C1015.86,1303.38,1014.39,1301.91,1012.59,1301.91z M1006.05,1328.41c0,0.6-0.49,1.09-1.09,1.09
							c-0.6,0-1.09-0.49-1.09-1.09v-2.18c0-0.6,0.49-1.09,1.09-1.09c0.6,0,1.09,0.49,1.09,1.09V1328.41z M1006.05,1321.88
							c0,0.6-0.49,1.09-1.09,1.09c-0.6,0-1.09-0.49-1.09-1.09v-2.18c0-0.6,0.49-1.09,1.09-1.09c0.6,0,1.09,0.49,1.09,1.09V1321.88z
							 M1006.05,1315.34c0,0.6-0.49,1.09-1.09,1.09c-0.6,0-1.09-0.49-1.09-1.09v-2.18c0-0.6,0.49-1.09,1.09-1.09
							c0.6,0,1.09,0.49,1.09,1.09V1315.34z M1006.05,1308.81c0,0.6-0.49,1.09-1.09,1.09c-0.6,0-1.09-0.49-1.09-1.09v-2.18
							c0-0.6,0.49-1.09,1.09-1.09c0.6,0,1.09,0.49,1.09,1.09V1308.81z M1011.14,1328.41c0,0.6-0.49,1.09-1.09,1.09
							s-1.09-0.49-1.09-1.09v-2.18c0-0.6,0.49-1.09,1.09-1.09s1.09,0.49,1.09,1.09V1328.41z M1011.14,1321.88
							c0,0.6-0.49,1.09-1.09,1.09s-1.09-0.49-1.09-1.09v-2.18c0-0.6,0.49-1.09,1.09-1.09s1.09,0.49,1.09,1.09V1321.88z
							 M1011.14,1315.34c0,0.6-0.49,1.09-1.09,1.09s-1.09-0.49-1.09-1.09v-2.18c0-0.6,0.49-1.09,1.09-1.09s1.09,0.49,1.09,1.09
							V1315.34z M1011.14,1308.81c0,0.6-0.49,1.09-1.09,1.09s-1.09-0.49-1.09-1.09v-2.18c0-0.6,0.49-1.09,1.09-1.09
							s1.09,0.49,1.09,1.09V1308.81z"/>
						<path class="st1" d="M1031.01,1345.49l-7.18,7.18c-0.02-0.02-0.04-0.04-0.06-0.06c-1.13-1.13-2.64-1.76-4.24-1.76h-8.58
							c-0.38,0-0.74-0.11-1.04-0.33l-0.39-0.28c-2.64-1.86-5.75-2.85-8.99-2.85h-4.59c-3.44,0-6.83,1.16-9.54,3.26l-0.35,0.27
							c-0.32,0.24-0.71,0.38-1.11,0.38h-4.4c-0.47-1.67-2.02-2.9-3.84-2.9h-2.45l-1.44-4.95c-0.16-0.55-0.06-1.14,0.29-1.6
							c0.35-0.46,0.88-0.73,1.45-0.73h59.06c0.58,0,1.11,0.26,1.45,0.73c0.35,0.46,0.45,1.04,0.29,1.6l-0.09,0.29
							C1033.71,1343.74,1032.18,1344.32,1031.01,1345.49L1031.01,1345.49z"/>
						<g>
							<path class="st1" d="M999.52,1336.78c-0.99-1.01-1.28-2.51-0.72-3.82c0.4-0.96,0.6-2.04,0.6-3.22
								c0-4.44-1.7-11.06-9.76-17.52h-8.77c-8.06,6.46-9.76,13.08-9.76,17.52c0,1.18,0.2,2.26,0.6,3.22
								c0.55,1.31,0.27,2.81-0.73,3.82c-0.5,0.51-0.68,0.98-0.68,1.24c0,0.46,1.15,0.92,3.72,0.92h22.46c2.57,0,3.72-0.46,3.72-0.92
								C1000.2,1337.76,1000.02,1337.3,999.52,1336.78L999.52,1336.78z M986.34,1332.09v0.61c0,0.6-0.49,1.09-1.09,1.09
								c-0.6,0-1.09-0.49-1.09-1.09v-0.61c-0.55-0.17-1.06-0.48-1.49-0.9c-0.45-0.45-0.78-1.02-0.94-1.63
								c-0.16-0.58,0.19-1.18,0.77-1.33c0.58-0.16,1.18,0.19,1.33,0.77c0.07,0.25,0.2,0.47,0.38,0.66c0.28,0.28,0.67,0.44,1.07,0.43
								c0.79-0.01,1.44-0.7,1.44-1.52c0-0.24-0.07-0.46-0.21-0.65c-0.13-0.19-0.32-0.33-0.54-0.42l-2.18-0.79
								c-1.3-0.47-2.18-1.73-2.18-3.11v-0.02c0-1.64,1.08-3.06,2.56-3.53v-0.61c0-0.6,0.49-1.09,1.09-1.09
								c0.6,0,1.09,0.49,1.09,1.09v0.61c0.56,0.17,1.07,0.48,1.49,0.9c0.45,0.45,0.78,1.02,0.94,1.63c0.16,0.58-0.19,1.18-0.77,1.33
								s-1.18-0.19-1.33-0.77c-0.07-0.25-0.2-0.47-0.38-0.65c-0.28-0.28-0.67-0.44-1.07-0.43c-0.79,0.02-1.44,0.7-1.44,1.52v0.02
								c0,0.47,0.3,0.9,0.75,1.07l2.18,0.79c0.64,0.24,1.19,0.66,1.58,1.21c0.39,0.56,0.6,1.22,0.6,1.9
								C988.89,1330.2,987.81,1331.61,986.34,1332.09L986.34,1332.09z"/>
							<path class="st1" d="M989.54,1310.04h-8.59c-1.32-1.46-4.12-4.9-2.59-6.44c0.46-0.46,1.35-0.34,1.97-0.1
								c1.04,0.41,2.2,0.15,2.97-0.64c0.53-0.55,1.35-0.95,1.95-0.95c0.6,0,1.42,0.4,1.95,0.95c0.76,0.8,1.93,1.05,2.97,0.64
								c0.62-0.24,1.51-0.36,1.97,0.1C993.66,1305.14,990.87,1308.58,989.54,1310.04z"/>
						</g>
					</g>
					<g>
						<g>
							<path class="st1" d="M1037.95,1352.43l-13.49,13.49c-1.99,1.99-4.63,3.08-7.44,3.08h-36.33v-15.53h4.25
								c0.88,0,1.75-0.3,2.44-0.83l0.35-0.27c2.34-1.81,5.25-2.8,8.21-2.8h4.59c2.78,0,5.46,0.85,7.73,2.45l0.39,0.28
								c0.68,0.48,1.47,0.73,2.3,0.73h8.58c1.02,0,1.98,0.4,2.7,1.12c0.72,0.72,1.12,1.68,1.12,2.7c0,2.11-1.71,3.82-3.82,3.82
								h-12.92c-0.6,0-1.09,0.49-1.09,1.09c0,0.6,0.49,1.09,1.09,1.09h12.92c3.31,0,5.99-2.69,5.99-6c0-0.81-0.16-1.6-0.46-2.32
								l7.49-7.49c1.49-1.49,3.91-1.49,5.4,0C1039.44,1348.52,1039.44,1350.94,1037.95,1352.43L1037.95,1352.43z"/>
							<g>
								<path class="st1" d="M976.69,1350.57h-7.26c-0.2,0-0.36,0.16-0.36,0.36v20.61c0,0.2,0.16,0.36,0.36,0.36h7.26
									c1,0,1.82-0.81,1.82-1.82v-17.7C978.5,1351.39,977.69,1350.57,976.69,1350.57L976.69,1350.57z M974.87,1366.69
									c0,0.6-0.49,1.09-1.09,1.09c-0.6,0-1.09-0.49-1.09-1.09v-2.18c0-0.6,0.49-1.09,1.09-1.09c0.6,0,1.09,0.49,1.09,1.09V1366.69
									z"/>
							</g>
						</g>
					</g>
				</g>
			</g>
			<g id="_x31__Accounting_00000034063947739016374640000007389039260260555932_">
			</g>
		</g>
	</g>
	<g>
		<path class="st6" d="M1467.29,1494.17h-249.47c-10.95,0-19.83-8.88-19.83-19.83v-271.76c0-10.95,8.88-19.83,19.83-19.83h249.47
			c10.95,0,19.83,8.88,19.83,19.83v271.76C1487.12,1485.29,1478.24,1494.17,1467.29,1494.17z"/>
		<g>
			<text transform="matrix(1 0 0 1 1313.2329 1457.5912)" class="st1 st3 st7">$0</text>
		</g>
		<text transform="matrix(1 0 0 1 1217.2261 1238.7269)" class="st2 st3 st8">Family Trust Net Assets</text>
		<path class="st9" d="M1342.56,1400.91L1342.56,1400.91c-34.49,0-62.45-27.96-62.45-62.45v0c0-34.49,27.96-62.45,62.45-62.45h0
			c34.49,0,62.45,27.96,62.45,62.45v0C1405.01,1372.95,1377.05,1400.91,1342.56,1400.91z"/>
		<path class="st11" d="M1331.27,1305.7c-2.99-2.99-7.85-2.99-10.84,0c-2.99,2.99-2.99,7.85,0,10.84c2.99,2.99,7.85,2.99,10.84,0
			C1334.26,1313.55,1334.26,1308.7,1331.27,1305.7z M1359.16,1318.79c4.24,0,7.67-3.43,7.67-7.67c0-4.23-3.43-7.67-7.67-7.67
			c-4.23,0-7.67,3.43-7.67,7.67C1351.5,1315.36,1354.93,1318.79,1359.16,1318.79z M1332.65,1355.24c-0.41-0.41-0.72-0.85-1.26-0.85
			c-0.25,0-0.51,0.1-0.7,0.29l-5.81,5.81c-0.38,0.38-0.38,1.02,0,1.4c0.41,0.41,0.72,0.85,1.26,0.85c0.41,0,0.6-0.19,0.84-0.43
			l5.67-5.67C1333.03,1356.25,1333.03,1355.62,1332.65,1355.24z M1330.67,1365.72c-0.25,0.25-0.44,0.43-0.84,0.43
			c-0.54,0-0.84-0.42-1.26-0.85c-0.38-0.38-0.38-1.02,0-1.4l5.67-5.67c0.25-0.25,0.44-0.43,0.84-0.43c0.54,0,0.84,0.42,1.26,0.85
			c0.38,0.38,0.38,1.02,0,1.4L1330.67,1365.72z M1343.74,1365.47c-0.43-0.43-0.72-0.85-1.26-0.85c-0.4,0-0.59,0.18-0.84,0.43
			l-5.67,5.67c-0.38,0.38-0.38,1.01,0,1.39c0.43,0.43,0.72,0.85,1.26,0.85c0.25,0,0.51-0.1,0.7-0.29l5.81-5.81
			C1344.12,1366.48,1344.12,1365.85,1343.74,1365.47L1343.74,1365.47z M1334.37,1369.13c-0.25,0.25-0.44,0.43-0.84,0.43
			c-0.54,0-0.84-0.42-1.26-0.85c-0.38-0.38-0.38-1.01,0-1.4l5.67-5.67c0.24-0.24,0.43-0.43,0.84-0.43c0.54,0,0.85,0.44,1.26,0.85
			c0.38,0.38,0.38,1.01,0,1.39L1334.37,1369.13z M1344.76,1363.31c-0.61-0.61-1.41-0.92-2.21-0.94c-0.14-1.19-0.73-1.71-1.49-2.47
			c-0.61-0.61-1.41-0.92-2.21-0.94c-0.14-1.19-0.73-1.71-1.49-2.47c-0.61-0.61-1.41-0.92-2.21-0.94c-0.14-1.19-0.73-1.71-1.49-2.47
			c-1.26-1.26-3.32-1.26-4.58,0l-4.75,4.75l-3.04-2.36c-0.13-0.1-0.28-0.17-0.44-0.2l0,0l-10.21-2.25c-0.95-0.21-1.6-0.99-1.64-1.96
			l-0.51-12.85c-0.06-1.57,1.54-2.64,2.96-1.99l13.03,5.97c0.34,0.16,0.72,0.13,1.02-0.04l0,0c4.79-2.71,10.39-2.73,15.93-1.45
			c-2.09,0.96-4.13,2.31-6.13,3.95c-4.11,3.38-2.36,8.81,3.49,7.92c5.41-0.83,7.14-5.28,11.41-0.95c2.63,2.66,5.34,5.17,8.05,7.7
			c-2.34,2.7-4.2,4.94-5.77,6.83c-5.84,7.04-7.27,8.77-11.01,6.14l3.84-3.84c1.26-1.26,1.26-3.32,0-4.58L1344.76,1363.31z
			 M1337.43,1330.5l-3.48-3.48c-1.05-1.05-1.57-2.43-1.57-3.81h0c0-0.54,0.08-1.08,0.24-1.6c-1.18-0.58-2.47-0.89-3.81-0.89h-5.93
			c-4.74,0-8.62,3.88-8.62,8.62v5.7l10.66,4.88c3.81-2.01,8.07-2.59,12.51-2.16L1337.43,1330.5L1337.43,1330.5z M1345.65,1333.18
			l-2.09,2.09c-0.38,0.38-0.99,0.38-1.36,0l-2.84-2.84v5.58c1.87,0.29,3.82,0.76,5.86,1.4c0.17-0.04,0.34-0.07,0.51-0.11
			c-0.05-0.3-0.08-0.59-0.08-0.9L1345.65,1333.18L1345.65,1333.18z M1352.9,1321.38c0.75,1.96,0.32,4.23-1.21,5.76l-4.11,4.11v7.16
			c0,0.23,0.02,0.44,0.06,0.65c3.1-0.21,6.27,0.51,9.52,2.4l13.6-7.78v-4.33c0-4.74-3.88-8.62-8.62-8.62h-5.93
			C1355.04,1320.72,1353.94,1320.94,1352.9,1321.38L1352.9,1321.38z M1350.32,1320.88c1.35,1.35,1.35,3.55,0,4.9l-7.44,7.44
			l-7.56-7.56c-0.67-0.67-1.01-1.56-1.01-2.45h0c0-3.1,3.76-4.6,5.91-2.45l1.98,1.98c0.38,0.38,0.99,0.38,1.36,0l1.86-1.86
			C1346.77,1319.53,1348.98,1319.53,1350.32,1320.88z M1373.02,1334.96l-15.32,8.77c-0.38,0.22-0.84,0.19-1.19-0.04
			c-3.49-2.17-6.86-2.78-10.1-2.23c-3.31,0.57-6.54,2.34-9.67,4.92c-2.18,1.8-2.03,4.54,1.73,3.97c5.09-0.78,7.63-6.09,13.34-0.3
			c2.69,2.73,5.5,5.31,8.32,7.96l14.9-3.86c0.96-0.25,1.6-1.11,1.57-2.1l-0.46-15.33
			C1376.11,1335.14,1374.41,1334.16,1373.02,1334.96L1373.02,1334.96z"/>
	</g>
	<g>
		<path class="st1" d="M2136.13,2132.62h-569.79c-16.14,0-29.23-13.09-29.23-29.23v-252.96c0-16.14,13.09-29.23,29.23-29.23h569.79
			c16.14,0,29.23,13.09,29.23,29.23v252.96C2165.36,2119.54,2152.28,2132.62,2136.13,2132.62z"/>
		<text transform="matrix(1 0 0 1 1662.915 1935.9116)" class="st5 st3 st12">Total Liabilities:</text>
		<g>
			<text transform="matrix(1 0 0 1 1710.8982 2024.6713)" class="st5 st3 st13"> $46,002</text>
		</g>
	</g>
	<path class="st14" d="M2136.13,2494.04h-569.79c-16.14,0-29.23-13.09-29.23-29.23v-252.96c0-16.14,13.09-29.23,29.23-29.23h569.79
		c16.14,0,29.23,13.09,29.23,29.23v252.96C2165.36,2480.95,2152.28,2494.04,2136.13,2494.04z"/>
	<text transform="matrix(1 0 0 1 1722.6191 2297.3262)" class="st1 st3 st12">Net Worth:</text>
	<g>
		<text transform="matrix(1 0 0 1 1667.6697 2386.0857)" class="st2 st3 st13">$1,070,691</text>
	</g>
	<text transform="matrix(1 0 0 1 729.5073 183.7)" class="st1 st3 st15">Asset and Liabilities</text>
	<text transform="matrix(1 0 0 1 180.6394 1742.1639)" class="st2 st3 st10">Liabilities</text>
	<g>
		<path class="st6" d="M449.93,2132.62H200.47c-10.95,0-19.83-8.88-19.83-19.83v-271.76c0-10.95,8.88-19.83,19.83-19.83h249.47
			c10.95,0,19.83,8.88,19.83,19.83v271.76C469.76,2123.75,460.88,2132.62,449.93,2132.62z"/>
		<g>
			<text transform="matrix(1 0 0 1 239.2864 2096.0466)" class="st1 st3 st7"> $46,002</text>
		</g>
		<text transform="matrix(1 0 0 1 263.9065 1877.1824)" class="st2 st3 st8">Home Loan</text>
		<path class="st9" d="M325.2,2039.37L325.2,2039.37c-34.49,0-62.45-27.96-62.45-62.45v0c0-34.49,27.96-62.45,62.45-62.45h0
			c34.49,0,62.45,27.96,62.45,62.45v0C387.65,2011.41,359.69,2039.37,325.2,2039.37z"/>
		<g id="_05-Real_Estate_00000114068028560390393840000012257358754743927215_">
			<path class="st1" d="M353.2,1953.18l-11.67-8.48v-1.61c0-0.64,0.52-1.17,1.17-1.17h9.33c0.64,0,1.17,0.52,1.17,1.17V1953.18z
				 M328.7,1981.58c-0.05,0-0.11,0-0.16-0.01l5.67,4.5c6.35-1.11,10.59-7.15,9.49-13.5s-7.15-10.59-13.5-9.49
				c-5.59,0.98-9.66,5.82-9.66,11.49c0,0.29,0.01,0.6,0.04,0.88c0.64,0.37,1.25,0.78,1.82,1.24l5.23,4.14
				c-0.06-0.13-0.09-0.28-0.08-0.42c0-0.64,0.52-1.16,1.17-1.17h4.08c0.97,0,1.75-0.78,1.75-1.75c0-0.97-0.78-1.75-1.75-1.75h-1.17
				c-2.25,0-4.08-1.82-4.08-4.08c0-2.03,1.49-3.75,3.5-4.04v-1.21c0-0.64,0.52-1.17,1.17-1.17c0.64,0,1.17,0.52,1.17,1.17v1.17h2.33
				c0.64,0,1.17,0.52,1.17,1.17c0,0.64-0.52,1.17-1.17,1.17h-4.08c-0.97,0-1.75,0.78-1.75,1.75c0,0.97,0.78,1.75,1.75,1.75h1.17
				c2.25,0,4.08,1.82,4.08,4.08c0,2.03-1.49,3.75-3.5,4.04v1.21c0,0.64-0.52,1.17-1.17,1.17c-0.64,0-1.17-0.52-1.17-1.17v-1.17
				H328.7z M353.02,1987.19l0.17-0.03v-21.53l-21-15.27l-21,15.27v7.78h1.77c1.79,0,3.56,0.32,5.24,0.95
				c0.12-7.73,6.49-13.89,14.22-13.77s13.89,6.49,13.77,14.22c-0.1,5.99-4,11.26-9.7,13.1c0.92,0.83,1.64,1.86,2.11,3
				L353.02,1987.19z M306.37,1964.88c0.39,0.49,1.09,0.58,1.6,0.21l23.54-17.12c0.41-0.29,0.96-0.29,1.38,0l23.54,17.12
				c0.5,0.37,1.21,0.27,1.6-0.21l1.92-2.4c0.2-0.25,0.29-0.57,0.24-0.89c-0.04-0.32-0.21-0.61-0.47-0.79L335,1942.82
				c-1.68-1.19-3.92-1.19-5.6,0l-24.72,17.98c-0.26,0.19-0.43,0.48-0.47,0.79c-0.04,0.32,0.05,0.64,0.24,0.89L306.37,1964.88z
				 M298.36,1972.25h-7c-0.64,0-1.17,0.52-1.17,1.17v30.33c0,0.64,0.52,1.17,1.17,1.17h7c1.93,0,3.5-1.57,3.5-3.5v-25.67
				C301.86,1973.82,300.3,1972.25,298.36,1972.25z M359.92,1992.99c-0.88-2.63-3.61-4.16-6.31-3.54l-14.43,3.71
				c0,0.03,0,0.06,0.01,0.08c0.48,4.63-2.88,8.77-7.51,9.25c-1.7,0.18-3.42-0.17-4.92-0.99l-13.73-7.53
				c-0.56-0.31-0.77-1.02-0.46-1.58c0.31-0.56,1.02-0.77,1.58-0.46l13.73,7.52c2.96,1.61,6.67,0.52,8.28-2.44
				c0.59-1.08,0.84-2.31,0.71-3.54c-0.16-1.64-0.99-3.14-2.29-4.15l-13.64-10.82c-2.27-1.8-5.08-2.77-7.97-2.78h-8.77v25.22
				l7.29,3.64l11.29,5.65c4.51,2.26,9.83,2.2,14.29-0.15l20.25-10.66C359.66,1998.23,360.77,1995.49,359.92,1992.99z"/>
		</g>
	</g>
	<g>
		<path class="st6" d="M789.05,2132.62H539.59c-10.95,0-19.83-8.88-19.83-19.83v-271.76c0-10.95,8.88-19.83,19.83-19.83h249.47
			c10.95,0,19.83,8.88,19.83,19.83v271.76C808.88,2123.75,800,2132.62,789.05,2132.62z"/>
		<g>
			<text transform="matrix(1 0 0 1 634.9924 2096.0466)" class="st1 st3 st7">$0</text>
		</g>
		<text transform="matrix(1 0 0 1 582.802 1877.1824)" class="st2 st3 st8">Personal Loans</text>
		<path class="st9" d="M664.32,2039.37L664.32,2039.37c-34.49,0-62.45-27.96-62.45-62.45v0c0-34.49,27.96-62.45,62.45-62.45h0
			c34.49,0,62.45,27.96,62.45,62.45v0C726.77,2011.41,698.81,2039.37,664.32,2039.37z"/>
		<g>
			<path class="st11" d="M636.63,1980.12l10.84,19.16c0.52,0.93,0.2,2.11-0.73,2.64l-3.69,2.09c-0.93,0.52-2.11,0.2-2.64-0.73
				l-10.84-19.16c-0.52-0.93-0.2-2.11,0.73-2.64l3.69-2.09C634.92,1978.87,636.1,1979.19,636.63,1980.12z"/>
			<path class="st11" d="M634.14,1982.99c-0.72,0.11-1.22,0.77-1.11,1.49c0.11,0.72,0.77,1.22,1.49,1.11
				c0.72-0.11,1.22-0.77,1.11-1.49C635.53,1983.39,634.86,1982.89,634.14,1982.99z"/>
			<path class="st11" d="M668.93,1984.76c1.4,0.17,2.55-0.23,2.94-1.69c0.35-1.3-0.48-2.52-1.7-2.95
				c-4.15-0.76-8.17-2.21-11.33-3.36c-4.5-1.63-5.65-2.01-10.09,0.56l-7.77,4.5l6.57,11.6l0.25-0.15c0.35-0.2,0.75-0.24,1.12-0.15
				l18.13,4.85c2.61,0.7,4.17,0.42,6.37-0.94l24.89-15.33c0.74-0.45,1.1-1.52,0.99-2.56c-0.04-0.43-0.17-0.84-0.4-1.2
				c-0.21-0.33-0.5-0.62-0.88-0.81c-1.26-0.64-3.48-0.44-6.92,1.56l-13.77,8.02c-1.12,0.65-2.27,1.07-3.47,1.27
				c-3.44,0.58-8.58-1.03-11.67-1.91c-0.98-0.28-1.98-0.57-2.95-0.83c-0.79-0.21-1.26-1.02-1.05-1.81c0.21-0.79,1.02-1.26,1.81-1.05
				C662.98,1983.18,665.93,1984.13,668.93,1984.76z"/>
			<path class="st11" d="M673.34,1949.57c10.15,0,18.38,8.23,18.38,18.38c0,2.89-0.67,5.62-1.85,8.05
				c-2.16,1.23-4.31,2.51-6.46,3.76c3.46-2.96,5.45-7.25,5.45-11.81c0-8.57-6.95-15.52-15.52-15.52s-15.52,6.95-15.52,15.52
				c0,2,0.38,3.92,1.07,5.68c-0.73-0.26-1.42-0.5-2.05-0.71c-0.44-0.14-0.87-0.25-1.29-0.32c-0.39-1.49-0.59-3.04-0.59-4.65
				C654.96,1957.8,663.18,1949.57,673.34,1949.57L673.34,1949.57z"/>
			<path class="st11" d="M678.83,1963.11c-0.74-1.77-2.16-2.93-4.02-3.38v-0.67c0-0.82-0.66-1.48-1.48-1.48
				c-0.82,0-1.48,0.66-1.48,1.48v0.69c-2.35,0.57-4.15,2.43-4.03,4.96c0.14,2.98,2.69,4.21,5.29,4.64c1.19,0.2,3.05,0.59,3.23,2.05
				c0.01,0.09,0.02,0.15,0.02,0.18c0.03,1.17-1.45,1.62-2.39,1.74c-0.19,0.02-0.36,0.04-0.49,0.04c-1.36,0.03-2.86-0.56-3.21-2
				c-0.2-0.79-1-1.28-1.79-1.08c-0.79,0.2-1.28,1-1.08,1.79c0.55,2.2,2.3,3.63,4.46,4.09v0.67c0,0.39,0.15,0.75,0.4,1.01
				c-0.39-0.24-0.8-0.43-1.25-0.58c-0.08-0.03-0.17-0.05-0.25-0.06c-2.67-0.49-5.34-1.3-7.74-2.12c-1.41-2.03-2.23-4.49-2.23-7.14
				c0-6.93,5.62-12.55,12.55-12.55c6.93,0,12.55,5.62,12.55,12.55c0,6.48-4.94,11.9-11.38,12.5c-0.37-0.88-0.98-1.66-1.74-2.24
				c0.17,0.07,0.36,0.11,0.56,0.11c0.82,0,1.48-0.66,1.48-1.48v-0.64c2.4-0.45,4.56-2.01,4.5-4.67c0-0.18-0.01-0.33-0.03-0.46
				c-0.37-3.05-3.01-4.18-5.7-4.62c-1.04-0.17-2.74-0.55-2.81-1.86c-0.05-1.12,0.91-1.78,1.9-1.98c1.4-0.28,2.85,0.29,3.42,1.66
				c0.32,0.75,1.19,1.11,1.94,0.79C678.8,1964.74,679.15,1963.87,678.83,1963.11L678.83,1963.11z"/>
			<path class="st11" d="M678.62,1982.55c-1.26,0.74-2.88,1.83-4.25,2.28c0.21-0.45,0.37-0.94,0.46-1.42
				C676.15,1983.27,677.42,1982.98,678.62,1982.55z"/>
		</g>
	</g>
	<g>
		<path class="st6" d="M1128.17,2132.62H878.71c-10.95,0-19.83-8.88-19.83-19.83v-271.76c0-10.95,8.88-19.83,19.83-19.83h249.47
			c10.95,0,19.83,8.88,19.83,19.83v271.76C1148,2123.75,1139.12,2132.62,1128.17,2132.62z"/>
		<g>
			<text transform="matrix(1 0 0 1 974.1128 2096.0466)" class="st1 st3 st7">$0</text>
		</g>
		<text transform="matrix(1 0 0 1 937.0952 1877.1824)" class="st2 st3 st8">Credit Cards</text>
		<path class="st9" d="M1003.44,2039.37L1003.44,2039.37c-34.49,0-62.45-27.96-62.45-62.45v0c0-34.49,27.96-62.45,62.45-62.45h0
			c34.49,0,62.45,27.96,62.45,62.45v0C1065.89,2011.41,1037.93,2039.37,1003.44,2039.37z"/>
		<g>
			<path class="st1" d="M979.24,1981.1h6.24v4.61h-6.24V1981.1z"/>
			<path class="st1" d="M1034.29,1968.9h-61.7c-2.26,0-4.1,1.83-4.1,4.1v34.82c0,2.26,1.83,4.1,4.1,4.1h61.7
				c2.26,0,4.1-1.83,4.1-4.1V1973C1038.39,1970.74,1036.55,1968.9,1034.29,1968.9L1034.29,1968.9z M985.01,2003.03h-10.14v-4.1
				h10.14V2003.03z M989.58,1986.39c0,1.88-1.53,3.41-3.41,3.41h-7.6c-1.88,0-3.41-1.53-3.41-3.41v-5.97c0-1.88,1.53-3.41,3.41-3.41
				h7.6c1.88,0,3.41,1.53,3.41,3.41L989.58,1986.39L989.58,1986.39z M1000.68,2003.03h-10.14v-4.1h10.14V2003.03z M1016.34,2003.03
				h-10.14v-4.1h10.14V2003.03z M1032.01,2003.03h-10.14v-4.1h10.14V2003.03z"/>
			<path class="st1" d="M1023.47,1951.86l-8.75-8.75c-1.6-1.6-4.19-1.6-5.79,0l-21.69,21.69h24.03L1023.47,1951.86z"/>
			<path class="st1" d="M1023.22,1964.81l6.4-6.79l-3.26-3.26l-9.47,10.05H1023.22z"/>
			<path class="st1" d="M1034.29,1964.81c0.88,0,1.73,0.14,2.52,0.4l-4.29-4.29l-3.67,3.89L1034.29,1964.81L1034.29,1964.81z"/>
		</g>
	</g>
	<g>
		<path class="st6" d="M789.05,2494.04H539.59c-10.95,0-19.83-8.88-19.83-19.83v-271.76c0-10.95,8.88-19.83,19.83-19.83h249.47
			c10.95,0,19.83,8.88,19.83,19.83v271.76C808.88,2485.16,800,2494.04,789.05,2494.04z"/>
		<g>
			<text transform="matrix(1 0 0 1 634.9924 2457.4612)" class="st1 st3 st7">$0</text>
		</g>
		<text transform="matrix(1 0 0 1 568.4797 2238.5969)" class="st2 st3 st8">Investment Loans</text>
		<path class="st9" d="M664.32,2400.78L664.32,2400.78c-34.49,0-62.45-27.96-62.45-62.45l0,0c0-34.49,27.96-62.45,62.45-62.45h0
			c34.49,0,62.45,27.96,62.45,62.45l0,0C726.77,2372.82,698.81,2400.78,664.32,2400.78z"/>
		<g id="Layer_10_00000085212096144208986860000001570159786577311127_">
			<path class="st1" d="M643.73,2328.04c-12.51,0-22.65,10.14-22.65,22.65c0,12.51,10.14,22.65,22.65,22.65
				c12.51,0,22.65-10.14,22.65-22.65C666.38,2338.17,656.24,2328.04,643.73,2328.04z M636.53,2340.39c1.71,0,3.09,1.38,3.09,3.09
				s-1.38,3.09-3.09,3.09c-1.71,0-3.09-1.38-3.09-3.09S634.82,2340.39,636.53,2340.39z M650.94,2360.98c-1.71,0-3.09-1.38-3.09-3.09
				s1.38-3.09,3.09-3.09c1.71,0,3.09,1.38,3.09,3.09S652.64,2360.98,650.94,2360.98z M653.43,2343.91l-16.47,16.47
				c-0.8,0.81-2.1,0.81-2.91,0.01c0,0-0.01-0.01-0.01-0.01c-0.81-0.8-0.81-2.1-0.01-2.91c0,0,0.01-0.01,0.01-0.01l16.47-16.47
				c0.81-0.81,2.12-0.81,2.92,0C654.24,2341.79,654.24,2343.1,653.43,2343.91z"/>
			<ellipse class="st1" cx="684.91" cy="2313.62" rx="22.65" ry="10.29"/>
			<path class="st1" d="M662.26,2321.61v9.78c1.68,1.62,3.14,3.44,4.34,5.44c5.76,2.53,12.01,3.74,18.3,3.56
				c12.7,0,22.65-4.12,22.65-8.24v-10.54c-4.61,3.95-12.76,6.42-22.65,6.42C675.03,2328.04,666.87,2325.56,662.26,2321.61z"/>
			<path class="st1" d="M668.99,2341.89c0.99,2.83,1.49,5.8,1.5,8.79c-0.01,1.38-0.13,2.76-0.35,4.12
				c4.78,1.44,9.76,2.14,14.76,2.06c12.7,0,22.65-4.12,22.65-8.24v-10.54c-4.61,3.95-12.76,6.42-22.65,6.42
				C679.49,2344.6,674.1,2343.71,668.99,2341.89z"/>
			<path class="st1" d="M669.32,2358.49c-0.99,3.31-2.63,6.39-4.82,9.06c3.62,3.46,11.28,5.79,20.4,5.79
				c12.7,0,22.65-4.53,22.65-10.29v-8.48c-4.61,3.95-12.76,6.42-22.65,6.42C679.61,2361.06,674.33,2360.22,669.32,2358.49z"/>
		</g>
	</g>
	<g>
		<path class="st6" d="M449.93,2494.04H200.47c-10.95,0-19.83-8.88-19.83-19.83v-271.76c0-10.95,8.88-19.83,19.83-19.83h249.47
			c10.95,0,19.83,8.88,19.83,19.83v271.76C469.76,2485.16,460.88,2494.04,449.93,2494.04z"/>
		<g>
			<text transform="matrix(1 0 0 1 295.8723 2457.4612)" class="st1 st3 st7">$0</text>
		</g>
		<text transform="matrix(1 0 0 1 211.1829 2238.5969)"><tspan x="0" y="0" class="st2 st3 st8">Investment Property </tspan><tspan x="82.07" y="29.08" class="st2 st3 st8">Loans</tspan></text>
		<path class="st9" d="M325.2,2400.78L325.2,2400.78c-34.49,0-62.45-27.96-62.45-62.45l0,0c0-34.49,27.96-62.45,62.45-62.45h0
			c34.49,0,62.45,27.96,62.45,62.45l0,0C387.65,2372.82,359.69,2400.78,325.2,2400.78z"/>
		<g>
			<path class="st1" d="M317.39,2336c-2.58,0-4.67,2.09-4.67,4.67c0,2.58,2.09,4.67,4.67,4.67c2.58,0,4.67-2.09,4.67-4.67
				S319.97,2336,317.39,2336L317.39,2336z"/>
			<path class="st1" d="M330.97,2315c-2.58,0.02-4.65,2.13-4.62,4.71c0.02,2.54,2.08,4.6,4.62,4.62c2.58-0.02,4.65-2.13,4.62-4.71
				C335.57,2317.08,333.51,2315.02,330.97,2315z"/>
			<path class="st1" d="M351.08,2346.5h0.89c0.64,0,1.17-0.52,1.17-1.17c0,0,0,0,0,0v-21.08c1.9,0.38,3.75-0.85,4.13-2.75
				c0.29-1.43-0.34-2.88-1.57-3.66l-22.91-14c-1.12-0.69-2.53-0.69-3.65,0l-22.91,14c-1.64,1.03-2.13,3.19-1.1,4.83
				c0.78,1.24,2.25,1.86,3.68,1.56v4.74l-16.16,9.87c-1.64,1.03-2.13,3.19-1.11,4.83c0.78,1.24,2.25,1.87,3.68,1.57v19.97
				c-2.23,0.34-3.76,2.43-3.41,4.66c0.3,1.98,2,3.44,4,3.46h33.49c-2.98-1.22-5.56-3.24-7.47-5.83h3
				c8.91,9.87,34.11,6.65,34.56-6.42C359.39,2355.78,356.02,2350.04,351.08,2346.5L351.08,2346.5z M340.14,2366.33v-1.17h-2.33
				c-0.64-0.01-1.16-0.54-1.15-1.18c0.01-0.63,0.52-1.14,1.15-1.15h4.08c0.97,0,1.75-0.78,1.75-1.75c0-0.97-0.78-1.75-1.75-1.75
				h-1.17c-2.26-0.02-4.07-1.87-4.04-4.13c0.02-2,1.48-3.69,3.46-3.99V2350c0-0.64,0.52-1.17,1.17-1.17c0.64,0,1.17,0.52,1.17,1.17
				v1.17h2.33c0.64,0.01,1.15,0.55,1.14,1.19c-0.01,0.62-0.52,1.13-1.14,1.14h-4.08c-0.97,0.02-1.73,0.82-1.71,1.79
				c0.02,0.94,0.77,1.69,1.71,1.71h1.17c2.26,0.02,4.07,1.87,4.04,4.13c-0.02,2-1.48,3.69-3.46,3.99v1.21
				c-0.01,0.64-0.54,1.16-1.18,1.15C340.66,2367.47,340.15,2366.96,340.14,2366.33z M333.46,2344.16c-0.01-0.63,0.49-1.16,1.13-1.17
				c0.01,0,0.03,0,0.04,0h11.67c0.64,0,1.17,0.52,1.17,1.17c0,0.64-0.52,1.17-1.17,1.17h-11.67
				C333.98,2345.33,333.46,2344.81,333.46,2344.16L333.46,2344.16z M310.39,2365.16v-12.83c0-1.29,1.05-2.33,2.33-2.33h9.33
				c0.46,0,0.91,0.13,1.29,0.38c0.44-0.63,0.92-1.25,1.42-1.83c-0.79-0.58-1.74-0.89-2.72-0.89h-9.33c-2.58,0-4.67,2.09-4.67,4.66
				c0,0,0,0,0,0v12.83h-10.5v-21.12l19.83-12.12l13.16,8.05l0.17,0.1c-1.14-2.51-0.71-5.45,1.12-7.51l-5.82-3.56
				c0.09-0.01,0.19-0.01,0.28-0.01h9.33c0.83,0,1.6,0.44,2.02,1.17h2.5c-0.53-2.06-2.39-3.5-4.51-3.5h-9.33
				c-0.97,0-1.92,0.3-2.71,0.86c-7.04-4.32-5.45-4.23-12.46,0.02v-4.5l19.83-12.11l19.83,12.12v21.1h-1.01
				c0-1.59-1.08-2.98-2.62-3.38l0.71-1.29c1.25-2.29,0.41-5.16-1.88-6.41c-0.68-0.37-1.45-0.57-2.23-0.58h-6.64
				c-2.62,0.03-4.71,2.17-4.68,4.79c0.01,0.76,0.2,1.51,0.56,2.19l0.72,1.31c-1.88,0.5-2.99,2.43-2.49,4.31
				c0.06,0.23,0.14,0.44,0.25,0.65c-6.08,3.86-11.82,12.32-8.38,19.42H310.39z"/>
		</g>
	</g>
	<g>
		<g>
			<line class="st16" x1="2165.36" y1="1591.43" x2="2159.36" y2="1591.43"/>
			<line class="st17" x1="2147.41" y1="1591.43" x2="192.62" y2="1591.43"/>
			<line class="st16" x1="186.64" y1="1591.43" x2="180.64" y2="1591.43"/>
		</g>
	</g>
	<g>
		<g>
			<line class="st16" x1="2165.36" y1="2594.04" x2="2159.36" y2="2594.04"/>
			<line class="st17" x1="2147.41" y1="2594.04" x2="192.62" y2="2594.04"/>
			<line class="st16" x1="186.64" y1="2594.04" x2="180.64" y2="2594.04"/>
		</g>
	</g>
	<g>
		<path class="st1" d="M2136.13,1494.17h-569.79c-16.14,0-29.23-13.09-29.23-29.23v-252.96c0-16.14,13.09-29.23,29.23-29.23h569.79
			c16.14,0,29.23,13.09,29.23,29.23v252.96C2165.36,1481.08,2152.28,1494.17,2136.13,1494.17z"/>
		<text transform="matrix(1 0 0 1 1702.3105 1297.4561)" class="st5 st3 st12">Total Assets:</text>
		<g>
			<text transform="matrix(1 0 0 1 1667.6697 1386.2158)" class="st5 st3 st13">$1,116,693</text>
		</g>
	</g>
	<g>
		<path class="st6" d="M1467.29,1132.75h-249.47c-10.95,0-19.83-8.88-19.83-19.83V841.17c0-10.95,8.88-19.83,19.83-19.83h249.47
			c10.95,0,19.83,8.88,19.83,19.83v271.76C1487.12,1123.88,1478.24,1132.75,1467.29,1132.75z"/>
		<g>
			<text transform="matrix(1 0 0 1 1249.2001 1096.1766)" class="st1 st3 st7">$175,937</text>
		</g>
		<text transform="matrix(1 0 0 1 1254.7782 877.3124)" class="st2 st3 st8">Superannuation</text>
		<path class="st9" d="M1342.56,1039.5L1342.56,1039.5c-34.49,0-62.45-27.96-62.45-62.45v0c0-34.49,27.96-62.45,62.45-62.45h0
			c34.49,0,62.45,27.96,62.45,62.45v0C1405.01,1011.54,1377.05,1039.5,1342.56,1039.5z"/>
		<g>
			<path class="st1" d="M1331.76,942.04c1.05,0.27,2.14,0.35,3.19,0.65c8.22,2.34,13.6,10.19,12.78,18.7
				c-0.81,8.42-7.56,15.08-16.03,15.82c-9.42,0.82-17.76-5.93-18.97-15.34c-1.25-9.71,5.72-18.61,15.44-19.7
				c0.16-0.02,0.32,0,0.45-0.12C1329.66,942.04,1330.71,942.04,1331.76,942.04z M1330.07,971.71c1.48,0,1.53-0.04,1.53-1.53
				c0-0.05,0-0.09,0-0.14c-0.01-1.29,0-1.27,1.2-1.74c2.04-0.79,3.33-2.24,3.58-4.43c0.25-2.21-0.71-3.93-2.56-5.15
				c-0.71-0.46-1.49-0.78-2.26-1.11c-0.73-0.31-1.49-0.57-2.16-1c-0.82-0.52-1.17-1.12-1.03-1.76c0.15-0.67,0.77-1.13,1.7-1.23
				c1.34-0.14,2.62,0.11,3.85,0.67c0.73,0.33,0.87,0.26,1.12-0.52c0.18-0.56,0.35-1.13,0.51-1.7c0.15-0.52-0.02-0.87-0.54-1.08
				c-0.8-0.33-1.63-0.58-2.49-0.69c-0.59-0.08-0.85-0.35-0.79-0.94c0.02-0.18,0-0.36,0-0.55c-0.02-1.1-0.12-1.2-1.22-1.22
				c-2.08-0.03-1.8,0.02-1.78,1.69c0.01,0.73-0.18,1.22-0.96,1.41c-0.39,0.1-0.76,0.31-1.11,0.51c-3.17,1.79-3.48,5.99-0.61,8.22
				c1.06,0.82,2.3,1.28,3.52,1.77c0.65,0.27,1.31,0.53,1.86,0.99c1.12,0.92,0.92,2.37-0.4,2.98c-0.59,0.27-1.22,0.35-1.87,0.31
				c-1.29-0.09-2.51-0.44-3.65-1.02c-0.52-0.26-0.82-0.13-0.97,0.41c-0.18,0.63-0.36,1.27-0.54,1.9c-0.14,0.51,0.02,0.87,0.51,1.11
				c0.76,0.37,1.56,0.62,2.39,0.79c1.63,0.33,1.55-0.05,1.57,1.94c0.01,0.94,0.17,1.1,1.12,1.11
				C1329.75,971.71,1329.91,971.71,1330.07,971.71z"/>
			<path class="st1" d="M1317.33,976.55c1.94,1.44,4.01,2.56,6.28,3.3c11.52,3.77,23.93-2.91,27.03-14.64
				c1.01-3.83,3.77-5.48,7.22-6.46c0.5-0.14,1.02-0.21,1.54-0.3c0.75-0.13,1.41,0.01,1.86,0.69c0.44,0.67,0.33,1.32-0.07,1.99
				c-0.64,1.06-1.1,2.19-1.31,3.42c-0.19,1.13-0.05,2.22,0.2,3.31c0.06,0.28,0.29,0.4,0.47,0.56c3.17,2.7,5.55,5.94,6.94,9.88
				c0.13,0.36,0.32,0.49,0.7,0.47c0.57-0.03,1.14-0.02,1.71,0.01c1.44,0.08,2.6,1.2,2.62,2.65c0.04,2.39,0.04,4.78,0,7.17
				c-0.02,1.44-1.18,2.57-2.63,2.64c-0.55,0.03-1.09,0.02-1.64,0c-0.32-0.01-0.47,0.09-0.58,0.41c-1.35,4.05-3.75,7.39-6.95,10.2
				c-2.14,1.89-3.27,4.28-3.18,7.18c0.02,0.52,0.02,1.05-0.03,1.57c-0.08,0.84-0.64,1.4-1.48,1.4c-3.1,0.02-6.2,0.02-9.29,0
				c-0.86-0.01-1.43-0.63-1.46-1.49c-0.02-0.57-0.02-1.14,0-1.71c0.01-0.35-0.08-0.49-0.46-0.45c-2.14,0.23-4.28,0.17-6.41-0.07
				c-0.36-0.04-0.5,0.03-0.48,0.41c0.02,0.59,0.02,1.18,0,1.78c-0.03,0.93-0.62,1.54-1.56,1.54c-3.03,0.02-6.06,0.01-9.09,0
				c-0.94,0-1.56-0.6-1.57-1.53c-0.05-3.73-1.54-6.77-3.98-9.59c-4.01-4.63-6.43-10.01-6.31-16.3c0.05-2.62,0.62-5.14,1.66-7.55
				C1317.14,976.9,1317.23,976.74,1317.33,976.55z M1358.16,979.24c1.29,0,2.3-1,2.3-2.28c0-1.28-1.02-2.28-2.31-2.27
				c-1.26,0.01-2.24,0.98-2.26,2.24C1355.88,978.22,1356.88,979.24,1358.16,979.24z"/>
		</g>
	</g>
</g>
</svg>
